G75*
G70*
%OFA0B0*%
%FSLAX24Y24*%
%IPPOS*%
%LPD*%
%AMOC8*
5,1,8,0,0,1.08239X$1,22.5*
%
%ADD10C,0.1182*%
%ADD11C,0.0680*%
%ADD12R,0.0671X0.0592*%
%ADD13R,0.0592X0.0671*%
%ADD14C,0.0780*%
%ADD15OC8,0.0680*%
%ADD16C,0.0480*%
%ADD17C,0.0437*%
D10*
X001819Y001580D03*
X001819Y020780D03*
X024619Y020780D03*
X024619Y001580D03*
D11*
X021194Y006338D02*
X020594Y006338D01*
X020594Y007338D02*
X021194Y007338D01*
X021194Y008338D02*
X020594Y008338D01*
X017521Y004265D02*
X017521Y003665D01*
X016521Y003665D02*
X016521Y004265D01*
X015521Y004265D02*
X015521Y003665D01*
X014521Y003665D02*
X014521Y004265D01*
X013156Y004273D02*
X013156Y003673D01*
X012156Y003673D02*
X012156Y004273D01*
X011156Y004273D02*
X011156Y003673D01*
X010156Y003673D02*
X010156Y004273D01*
X009156Y004273D02*
X009156Y003673D01*
X007791Y003680D02*
X007791Y004280D01*
X006791Y004280D02*
X006791Y003680D01*
X005791Y003680D02*
X005791Y004280D01*
X004791Y004280D02*
X004791Y003680D01*
X005219Y009880D02*
X005819Y009880D01*
X005819Y010880D02*
X005219Y010880D01*
X005219Y011880D02*
X005819Y011880D01*
X005819Y012880D02*
X005219Y012880D01*
D12*
X010152Y005626D03*
X010841Y005626D03*
X011561Y005621D03*
X011561Y004873D03*
X010841Y004878D03*
X010152Y004878D03*
X024656Y005180D03*
X024656Y004432D03*
X024656Y006007D03*
X024656Y006755D03*
X022119Y020506D03*
X022119Y021254D03*
X021119Y021254D03*
X021119Y020506D03*
X020119Y020506D03*
X020119Y021254D03*
X007519Y021154D03*
X007519Y020406D03*
X006519Y020406D03*
X006519Y021154D03*
X005519Y021154D03*
X005519Y020406D03*
D13*
X002193Y017880D03*
X001445Y017880D03*
X001445Y016880D03*
X002193Y016880D03*
X002193Y015880D03*
X001445Y015880D03*
X001445Y012880D03*
X002193Y012880D03*
X002193Y011880D03*
X001445Y011880D03*
X001445Y010880D03*
X002193Y010880D03*
X024479Y010872D03*
X025227Y010872D03*
X025227Y009887D03*
X024479Y009887D03*
X024479Y011856D03*
X025227Y011856D03*
X025093Y014880D03*
X024345Y014880D03*
X024345Y015880D03*
X025093Y015880D03*
X025093Y016880D03*
X024345Y016880D03*
D14*
X023719Y016872D03*
X023719Y017856D03*
X023719Y015888D03*
X023719Y014904D03*
X023719Y012856D03*
X023719Y011872D03*
X023719Y010888D03*
X023719Y009904D03*
X023719Y007849D03*
X023719Y006864D03*
X023719Y005880D03*
X023719Y004896D03*
X023719Y003911D03*
X022095Y019780D03*
X021111Y019780D03*
X020127Y019780D03*
X019143Y019780D03*
X015341Y019767D03*
X014357Y019767D03*
X013372Y019767D03*
X012388Y019767D03*
X011404Y019767D03*
X007495Y019780D03*
X006511Y019780D03*
X005527Y019780D03*
X004543Y019780D03*
X002819Y017856D03*
X002819Y016872D03*
X002819Y015888D03*
X002819Y014904D03*
X002819Y012856D03*
X002819Y011872D03*
X002819Y010888D03*
X002819Y009904D03*
X002819Y007856D03*
X002819Y006872D03*
X002819Y005888D03*
X002819Y004904D03*
D15*
X003719Y002080D03*
X004719Y002080D03*
X005719Y002080D03*
X006719Y002080D03*
X007719Y002080D03*
X008719Y002080D03*
X009719Y002080D03*
X010719Y002080D03*
X011719Y002080D03*
X012719Y002080D03*
X013719Y002080D03*
X014719Y002080D03*
X015719Y002080D03*
X016719Y002080D03*
X017719Y002080D03*
X018719Y002080D03*
X019719Y002080D03*
X020719Y002080D03*
X021719Y002080D03*
X022719Y002080D03*
X022719Y001080D03*
X021719Y001080D03*
X020719Y001080D03*
X019719Y001080D03*
X018719Y001080D03*
X017719Y001080D03*
X016719Y001080D03*
X015719Y001080D03*
X014719Y001080D03*
X013719Y001080D03*
X012719Y001080D03*
X011719Y001080D03*
X010719Y001080D03*
X009719Y001080D03*
X008719Y001080D03*
X007719Y001080D03*
X006719Y001080D03*
X005719Y001080D03*
X004719Y001080D03*
X003719Y001080D03*
D16*
X001719Y005880D03*
X006119Y009180D03*
X006719Y008880D03*
X007307Y009284D03*
X009569Y007630D03*
X009969Y008030D03*
X010419Y008380D03*
X010119Y007180D03*
X008319Y007180D03*
X011719Y009380D03*
X013019Y008380D03*
X015819Y007180D03*
X017819Y008080D03*
X018419Y007280D03*
X019819Y008080D03*
X019319Y005680D03*
X021494Y003805D03*
X016519Y005280D03*
X015519Y005280D03*
X016319Y008880D03*
X016319Y010680D03*
X017019Y010680D03*
X018622Y012693D03*
X016319Y014180D03*
X014519Y011780D03*
X011785Y012632D03*
X011219Y013180D03*
X009919Y013780D03*
X009534Y012618D03*
X009472Y011608D03*
X010112Y011605D03*
X010719Y011480D03*
X010063Y010416D03*
X009619Y010143D03*
X008736Y014204D03*
X008341Y014749D03*
X007947Y014256D03*
X007219Y014780D03*
X009219Y015180D03*
X009819Y015180D03*
X004519Y013980D03*
X002819Y013580D03*
X004419Y018080D03*
X003319Y018480D03*
X008319Y019780D03*
X008819Y019780D03*
X020819Y012880D03*
D17*
X008419Y012680D03*
M02*
