%
M48
M72
T01C0.0197
T02C0.0354
T03C0.0400
T04C0.1102
%
T01
X1719Y5880
X6119Y9180
X6719Y8880
X7307Y9284
X9569Y7630
X9969Y8030
X10419Y8380
X10119Y7180
X8319Y7180
X11719Y9380
X13019Y8380
X15819Y7180
X17819Y8080
X18419Y7280
X19819Y8080
X19319Y5680
X21494Y3805
X16519Y5280
X15519Y5280
X16319Y8880
X16319Y10680
X17019Y10680
X18622Y12693
X16319Y14180
X14519Y11780
X11785Y12632
X11219Y13180
X9919Y13780
X9534Y12618
X9472Y11608
X10112Y11605
X10719Y11480
X10063Y10416
X9619Y10143
X8419Y12680
X8736Y14204
X8341Y14749
X7947Y14256
X7219Y14780
X9219Y15180
X9819Y15180
X4519Y13980
X2819Y13580
X4419Y18080
X3319Y18480
X8319Y19780
X8819Y19780
X20819Y12880
T02
X23719Y12856
X23719Y11872
X23719Y10888
X23719Y9904
X23719Y7849
X23719Y6864
X23719Y5880
X23719Y4896
X23719Y3911
X23719Y14904
X23719Y15888
X23719Y16872
X23719Y17856
X22095Y19780
X21111Y19780
X20127Y19780
X19143Y19780
X15341Y19767
X14357Y19767
X13372Y19767
X12388Y19767
X11404Y19767
X7495Y19780
X6511Y19780
X5527Y19780
X4543Y19780
X2819Y17856
X2819Y16872
X2819Y15888
X2819Y14904
X2819Y12856
X2819Y11872
X2819Y10888
X2819Y9904
X2819Y7856
X2819Y6872
X2819Y5888
X2819Y4904
T03
X4791Y3980
X5791Y3980
X6791Y3980
X7791Y3980
X9156Y3973
X10156Y3973
X11156Y3973
X12156Y3973
X13156Y3973
X14521Y3965
X15521Y3965
X16521Y3965
X17521Y3965
X17719Y2080
X18719Y2080
X19719Y2080
X20719Y2080
X21719Y2080
X22719Y2080
X22719Y1080
X21719Y1080
X20719Y1080
X19719Y1080
X18719Y1080
X17719Y1080
X16719Y1080
X15719Y1080
X14719Y1080
X13719Y1080
X12719Y1080
X11719Y1080
X10719Y1080
X9719Y1080
X8719Y1080
X7719Y1080
X6719Y1080
X5719Y1080
X4719Y1080
X3719Y1080
X3719Y2080
X4719Y2080
X5719Y2080
X6719Y2080
X7719Y2080
X8719Y2080
X9719Y2080
X10719Y2080
X11719Y2080
X12719Y2080
X13719Y2080
X14719Y2080
X15719Y2080
X16719Y2080
X20894Y6338
X20894Y7338
X20894Y8338
X5519Y9880
X5519Y10880
X5519Y11880
X5519Y12880
T04
X1819Y1580
X1819Y20780
X24619Y20780
X24619Y1580
M30
