G75*
G70*
%OFA0B0*%
%FSLAX24Y24*%
%IPPOS*%
%LPD*%
%AMOC8*
5,1,8,0,0,1.08239X$1,22.5*
%
%ADD10C,0.0010*%
%ADD11C,0.0000*%
D10*
X000419Y000180D02*
X000419Y022180D01*
X026019Y022180D01*
X026019Y000180D01*
X000419Y000180D01*
D11*
X001268Y001580D02*
X001270Y001627D01*
X001276Y001673D01*
X001286Y001719D01*
X001299Y001764D01*
X001317Y001807D01*
X001338Y001849D01*
X001362Y001889D01*
X001390Y001926D01*
X001421Y001961D01*
X001455Y001994D01*
X001491Y002023D01*
X001530Y002049D01*
X001571Y002072D01*
X001614Y002091D01*
X001658Y002107D01*
X001703Y002119D01*
X001749Y002127D01*
X001796Y002131D01*
X001842Y002131D01*
X001889Y002127D01*
X001935Y002119D01*
X001980Y002107D01*
X002024Y002091D01*
X002067Y002072D01*
X002108Y002049D01*
X002147Y002023D01*
X002183Y001994D01*
X002217Y001961D01*
X002248Y001926D01*
X002276Y001889D01*
X002300Y001849D01*
X002321Y001807D01*
X002339Y001764D01*
X002352Y001719D01*
X002362Y001673D01*
X002368Y001627D01*
X002370Y001580D01*
X002368Y001533D01*
X002362Y001487D01*
X002352Y001441D01*
X002339Y001396D01*
X002321Y001353D01*
X002300Y001311D01*
X002276Y001271D01*
X002248Y001234D01*
X002217Y001199D01*
X002183Y001166D01*
X002147Y001137D01*
X002108Y001111D01*
X002067Y001088D01*
X002024Y001069D01*
X001980Y001053D01*
X001935Y001041D01*
X001889Y001033D01*
X001842Y001029D01*
X001796Y001029D01*
X001749Y001033D01*
X001703Y001041D01*
X001658Y001053D01*
X001614Y001069D01*
X001571Y001088D01*
X001530Y001111D01*
X001491Y001137D01*
X001455Y001166D01*
X001421Y001199D01*
X001390Y001234D01*
X001362Y001271D01*
X001338Y001311D01*
X001317Y001353D01*
X001299Y001396D01*
X001286Y001441D01*
X001276Y001487D01*
X001270Y001533D01*
X001268Y001580D01*
X001268Y020780D02*
X001270Y020827D01*
X001276Y020873D01*
X001286Y020919D01*
X001299Y020964D01*
X001317Y021007D01*
X001338Y021049D01*
X001362Y021089D01*
X001390Y021126D01*
X001421Y021161D01*
X001455Y021194D01*
X001491Y021223D01*
X001530Y021249D01*
X001571Y021272D01*
X001614Y021291D01*
X001658Y021307D01*
X001703Y021319D01*
X001749Y021327D01*
X001796Y021331D01*
X001842Y021331D01*
X001889Y021327D01*
X001935Y021319D01*
X001980Y021307D01*
X002024Y021291D01*
X002067Y021272D01*
X002108Y021249D01*
X002147Y021223D01*
X002183Y021194D01*
X002217Y021161D01*
X002248Y021126D01*
X002276Y021089D01*
X002300Y021049D01*
X002321Y021007D01*
X002339Y020964D01*
X002352Y020919D01*
X002362Y020873D01*
X002368Y020827D01*
X002370Y020780D01*
X002368Y020733D01*
X002362Y020687D01*
X002352Y020641D01*
X002339Y020596D01*
X002321Y020553D01*
X002300Y020511D01*
X002276Y020471D01*
X002248Y020434D01*
X002217Y020399D01*
X002183Y020366D01*
X002147Y020337D01*
X002108Y020311D01*
X002067Y020288D01*
X002024Y020269D01*
X001980Y020253D01*
X001935Y020241D01*
X001889Y020233D01*
X001842Y020229D01*
X001796Y020229D01*
X001749Y020233D01*
X001703Y020241D01*
X001658Y020253D01*
X001614Y020269D01*
X001571Y020288D01*
X001530Y020311D01*
X001491Y020337D01*
X001455Y020366D01*
X001421Y020399D01*
X001390Y020434D01*
X001362Y020471D01*
X001338Y020511D01*
X001317Y020553D01*
X001299Y020596D01*
X001286Y020641D01*
X001276Y020687D01*
X001270Y020733D01*
X001268Y020780D01*
X024068Y020780D02*
X024070Y020827D01*
X024076Y020873D01*
X024086Y020919D01*
X024099Y020964D01*
X024117Y021007D01*
X024138Y021049D01*
X024162Y021089D01*
X024190Y021126D01*
X024221Y021161D01*
X024255Y021194D01*
X024291Y021223D01*
X024330Y021249D01*
X024371Y021272D01*
X024414Y021291D01*
X024458Y021307D01*
X024503Y021319D01*
X024549Y021327D01*
X024596Y021331D01*
X024642Y021331D01*
X024689Y021327D01*
X024735Y021319D01*
X024780Y021307D01*
X024824Y021291D01*
X024867Y021272D01*
X024908Y021249D01*
X024947Y021223D01*
X024983Y021194D01*
X025017Y021161D01*
X025048Y021126D01*
X025076Y021089D01*
X025100Y021049D01*
X025121Y021007D01*
X025139Y020964D01*
X025152Y020919D01*
X025162Y020873D01*
X025168Y020827D01*
X025170Y020780D01*
X025168Y020733D01*
X025162Y020687D01*
X025152Y020641D01*
X025139Y020596D01*
X025121Y020553D01*
X025100Y020511D01*
X025076Y020471D01*
X025048Y020434D01*
X025017Y020399D01*
X024983Y020366D01*
X024947Y020337D01*
X024908Y020311D01*
X024867Y020288D01*
X024824Y020269D01*
X024780Y020253D01*
X024735Y020241D01*
X024689Y020233D01*
X024642Y020229D01*
X024596Y020229D01*
X024549Y020233D01*
X024503Y020241D01*
X024458Y020253D01*
X024414Y020269D01*
X024371Y020288D01*
X024330Y020311D01*
X024291Y020337D01*
X024255Y020366D01*
X024221Y020399D01*
X024190Y020434D01*
X024162Y020471D01*
X024138Y020511D01*
X024117Y020553D01*
X024099Y020596D01*
X024086Y020641D01*
X024076Y020687D01*
X024070Y020733D01*
X024068Y020780D01*
X024068Y001580D02*
X024070Y001627D01*
X024076Y001673D01*
X024086Y001719D01*
X024099Y001764D01*
X024117Y001807D01*
X024138Y001849D01*
X024162Y001889D01*
X024190Y001926D01*
X024221Y001961D01*
X024255Y001994D01*
X024291Y002023D01*
X024330Y002049D01*
X024371Y002072D01*
X024414Y002091D01*
X024458Y002107D01*
X024503Y002119D01*
X024549Y002127D01*
X024596Y002131D01*
X024642Y002131D01*
X024689Y002127D01*
X024735Y002119D01*
X024780Y002107D01*
X024824Y002091D01*
X024867Y002072D01*
X024908Y002049D01*
X024947Y002023D01*
X024983Y001994D01*
X025017Y001961D01*
X025048Y001926D01*
X025076Y001889D01*
X025100Y001849D01*
X025121Y001807D01*
X025139Y001764D01*
X025152Y001719D01*
X025162Y001673D01*
X025168Y001627D01*
X025170Y001580D01*
X025168Y001533D01*
X025162Y001487D01*
X025152Y001441D01*
X025139Y001396D01*
X025121Y001353D01*
X025100Y001311D01*
X025076Y001271D01*
X025048Y001234D01*
X025017Y001199D01*
X024983Y001166D01*
X024947Y001137D01*
X024908Y001111D01*
X024867Y001088D01*
X024824Y001069D01*
X024780Y001053D01*
X024735Y001041D01*
X024689Y001033D01*
X024642Y001029D01*
X024596Y001029D01*
X024549Y001033D01*
X024503Y001041D01*
X024458Y001053D01*
X024414Y001069D01*
X024371Y001088D01*
X024330Y001111D01*
X024291Y001137D01*
X024255Y001166D01*
X024221Y001199D01*
X024190Y001234D01*
X024162Y001271D01*
X024138Y001311D01*
X024117Y001353D01*
X024099Y001396D01*
X024086Y001441D01*
X024076Y001487D01*
X024070Y001533D01*
X024068Y001580D01*
M02*
