G75*
G70*
%OFA0B0*%
%FSLAX24Y24*%
%IPPOS*%
%LPD*%
%AMOC8*
5,1,8,0,0,1.08239X$1,22.5*
%
%ADD10C,0.0040*%
D10*
X009172Y004141D02*
X009632Y004141D01*
X009632Y004371D01*
X009556Y004448D01*
X009402Y004448D01*
X009325Y004371D01*
X009325Y004141D01*
X009325Y004295D02*
X009172Y004448D01*
X009172Y004602D02*
X009172Y004909D01*
X009172Y004755D02*
X009632Y004755D01*
X009479Y004602D01*
X009861Y004602D02*
X009861Y004909D01*
X009861Y004755D02*
X010321Y004755D01*
X010168Y004602D01*
X010245Y004448D02*
X010091Y004448D01*
X010014Y004371D01*
X010014Y004141D01*
X009861Y004141D02*
X010321Y004141D01*
X010321Y004371D01*
X010245Y004448D01*
X010014Y004295D02*
X009861Y004448D01*
X009938Y005062D02*
X009861Y005139D01*
X009861Y005292D01*
X009938Y005369D01*
X010091Y005369D01*
X010168Y005292D01*
X010168Y005216D01*
X010091Y005062D01*
X010321Y005062D01*
X010321Y005369D01*
X010581Y005286D02*
X010581Y005133D01*
X010658Y005056D01*
X010812Y005056D01*
X010812Y005286D01*
X010735Y005363D01*
X010658Y005363D01*
X010581Y005286D01*
X010812Y005056D02*
X010965Y005210D01*
X011042Y005363D01*
X010581Y004903D02*
X010581Y004596D01*
X010581Y004749D02*
X011042Y004749D01*
X010888Y004596D01*
X010812Y004442D02*
X010735Y004366D01*
X010735Y004135D01*
X010581Y004135D02*
X011042Y004135D01*
X011042Y004366D01*
X010965Y004442D01*
X010812Y004442D01*
X010735Y004289D02*
X010581Y004442D01*
X009632Y005292D02*
X009402Y005062D01*
X009402Y005369D01*
X009172Y005292D02*
X009632Y005292D01*
X002930Y009900D02*
X002930Y010360D01*
X002700Y010360D01*
X002623Y010284D01*
X002623Y010130D01*
X002700Y010053D01*
X002930Y010053D01*
X002777Y010053D02*
X002623Y009900D01*
X002470Y009900D02*
X002163Y010207D01*
X002163Y010284D01*
X002240Y010360D01*
X002393Y010360D01*
X002470Y010284D01*
X002470Y009900D02*
X002163Y009900D01*
X002009Y009977D02*
X002009Y010130D01*
X001779Y010130D01*
X001702Y010053D01*
X001702Y009977D01*
X001779Y009900D01*
X001933Y009900D01*
X002009Y009977D01*
X002009Y010130D02*
X001856Y010284D01*
X001702Y010360D01*
X001779Y010900D02*
X001702Y010977D01*
X001702Y011053D01*
X001779Y011130D01*
X002009Y011130D01*
X002009Y010977D01*
X001933Y010900D01*
X001779Y010900D01*
X002009Y011130D02*
X001856Y011284D01*
X001702Y011360D01*
X002163Y011284D02*
X002240Y011360D01*
X002393Y011360D01*
X002470Y011284D01*
X002470Y011207D01*
X002393Y011130D01*
X002240Y011130D01*
X002163Y011053D01*
X002163Y010977D01*
X002240Y010900D01*
X002393Y010900D01*
X002470Y010977D01*
X002623Y010900D02*
X002777Y011053D01*
X002700Y011053D02*
X002930Y011053D01*
X002930Y010900D02*
X002930Y011360D01*
X002700Y011360D01*
X002623Y011284D01*
X002623Y011130D01*
X002700Y011053D01*
X002222Y013400D02*
X002069Y013400D01*
X001992Y013477D01*
X001839Y013477D02*
X001762Y013400D01*
X001608Y013400D01*
X001532Y013477D01*
X001532Y013553D01*
X001608Y013630D01*
X001762Y013630D01*
X001839Y013707D01*
X001839Y013784D01*
X001762Y013860D01*
X001608Y013860D01*
X001532Y013784D01*
X001378Y013630D02*
X001148Y013630D01*
X001071Y013553D01*
X001071Y013477D01*
X001148Y013400D01*
X001301Y013400D01*
X001378Y013477D01*
X001378Y013630D01*
X001225Y013784D01*
X001071Y013860D01*
X001992Y013784D02*
X002069Y013860D01*
X002222Y013860D01*
X002299Y013784D01*
X002299Y013477D01*
X002222Y013400D01*
X002163Y014900D02*
X002470Y014900D01*
X002163Y015207D01*
X002163Y015284D01*
X002240Y015360D01*
X002393Y015360D01*
X002470Y015284D01*
X002623Y015284D02*
X002623Y015130D01*
X002700Y015053D01*
X002930Y015053D01*
X002930Y014900D02*
X002930Y015360D01*
X002700Y015360D01*
X002623Y015284D01*
X002777Y015053D02*
X002623Y014900D01*
X002009Y014977D02*
X001933Y014900D01*
X001779Y014900D01*
X001702Y014977D01*
X001702Y015130D01*
X001779Y015207D01*
X001856Y015207D01*
X002009Y015130D01*
X002009Y015360D01*
X001702Y015360D01*
X001779Y015900D02*
X001933Y015900D01*
X002009Y015977D01*
X002009Y016130D02*
X001856Y016207D01*
X001779Y016207D01*
X001702Y016130D01*
X001702Y015977D01*
X001779Y015900D01*
X002009Y016130D02*
X002009Y016360D01*
X001702Y016360D01*
X002163Y016284D02*
X002240Y016360D01*
X002393Y016360D01*
X002470Y016284D01*
X002470Y016207D01*
X002393Y016130D01*
X002240Y016130D01*
X002163Y016053D01*
X002163Y015977D01*
X002240Y015900D01*
X002393Y015900D01*
X002470Y015977D01*
X002623Y015900D02*
X002777Y016053D01*
X002700Y016053D02*
X002930Y016053D01*
X002930Y015900D02*
X002930Y016360D01*
X002700Y016360D01*
X002623Y016284D01*
X002623Y016130D01*
X002700Y016053D01*
X002222Y018400D02*
X002069Y018400D01*
X001992Y018477D01*
X001839Y018477D02*
X001762Y018400D01*
X001608Y018400D01*
X001532Y018477D01*
X001532Y018553D01*
X001608Y018630D01*
X001762Y018630D01*
X001839Y018707D01*
X001839Y018784D01*
X001762Y018860D01*
X001608Y018860D01*
X001532Y018784D01*
X001378Y018860D02*
X001378Y018630D01*
X001225Y018707D01*
X001148Y018707D01*
X001071Y018630D01*
X001071Y018477D01*
X001148Y018400D01*
X001301Y018400D01*
X001378Y018477D01*
X001378Y018860D02*
X001071Y018860D01*
X001992Y018784D02*
X002069Y018860D01*
X002222Y018860D01*
X002299Y018784D01*
X002299Y018477D01*
X002222Y018400D01*
X004539Y019669D02*
X004999Y019669D01*
X004999Y019899D01*
X004923Y019976D01*
X004769Y019976D01*
X004692Y019899D01*
X004692Y019669D01*
X004692Y019822D02*
X004539Y019976D01*
X004539Y020129D02*
X004846Y020436D01*
X004923Y020436D01*
X004999Y020359D01*
X004999Y020206D01*
X004923Y020129D01*
X004539Y020129D02*
X004539Y020436D01*
X004769Y020590D02*
X004769Y020897D01*
X004539Y020820D02*
X004999Y020820D01*
X004769Y020590D01*
X005539Y020820D02*
X005999Y020820D01*
X005769Y020590D01*
X005769Y020897D01*
X005692Y020436D02*
X005616Y020436D01*
X005539Y020359D01*
X005539Y020206D01*
X005616Y020129D01*
X005769Y020206D02*
X005846Y020129D01*
X005923Y020129D01*
X005999Y020206D01*
X005999Y020359D01*
X005923Y020436D01*
X005769Y020359D02*
X005692Y020436D01*
X005769Y020359D02*
X005769Y020206D01*
X005769Y019976D02*
X005692Y019899D01*
X005692Y019669D01*
X005539Y019669D02*
X005999Y019669D01*
X005999Y019899D01*
X005923Y019976D01*
X005769Y019976D01*
X005692Y019822D02*
X005539Y019976D01*
X008039Y020377D02*
X008039Y020530D01*
X008116Y020607D01*
X008116Y020760D02*
X008039Y020837D01*
X008039Y020991D01*
X008116Y021067D01*
X008192Y021067D01*
X008269Y020991D01*
X008269Y020837D01*
X008346Y020760D01*
X008423Y020760D01*
X008499Y020837D01*
X008499Y020991D01*
X008423Y021067D01*
X008269Y021221D02*
X008269Y021528D01*
X008039Y021451D02*
X008499Y021451D01*
X008269Y021221D01*
X008423Y020607D02*
X008499Y020530D01*
X008499Y020377D01*
X008423Y020300D01*
X008116Y020300D01*
X008039Y020377D01*
X019139Y020229D02*
X019446Y020536D01*
X019523Y020536D01*
X019599Y020459D01*
X019599Y020306D01*
X019523Y020229D01*
X019523Y020076D02*
X019369Y020076D01*
X019292Y019999D01*
X019292Y019769D01*
X019139Y019769D02*
X019599Y019769D01*
X019599Y019999D01*
X019523Y020076D01*
X019292Y019922D02*
X019139Y020076D01*
X019139Y020229D02*
X019139Y020536D01*
X019216Y020690D02*
X019139Y020766D01*
X019139Y020920D01*
X019216Y020997D01*
X019292Y020997D01*
X019369Y020920D01*
X019369Y020843D01*
X019369Y020920D02*
X019446Y020997D01*
X019523Y020997D01*
X019599Y020920D01*
X019599Y020766D01*
X019523Y020690D01*
X020139Y020766D02*
X020216Y020690D01*
X020139Y020766D02*
X020139Y020920D01*
X020216Y020997D01*
X020292Y020997D01*
X020369Y020920D01*
X020369Y020843D01*
X020369Y020920D02*
X020446Y020997D01*
X020523Y020997D01*
X020599Y020920D01*
X020599Y020766D01*
X020523Y020690D01*
X020523Y020536D02*
X020599Y020459D01*
X020599Y020306D01*
X020523Y020229D01*
X020446Y020229D01*
X020369Y020306D01*
X020369Y020459D01*
X020292Y020536D01*
X020216Y020536D01*
X020139Y020459D01*
X020139Y020306D01*
X020216Y020229D01*
X020139Y020076D02*
X020292Y019922D01*
X020292Y019999D02*
X020292Y019769D01*
X020139Y019769D02*
X020599Y019769D01*
X020599Y019999D01*
X020523Y020076D01*
X020369Y020076D01*
X020292Y019999D01*
X022639Y020477D02*
X022639Y020630D01*
X022716Y020707D01*
X022716Y020860D02*
X022639Y020937D01*
X022639Y021091D01*
X022716Y021167D01*
X022792Y021167D01*
X022869Y021091D01*
X022869Y020937D01*
X022946Y020860D01*
X023023Y020860D01*
X023099Y020937D01*
X023099Y021091D01*
X023023Y021167D01*
X023023Y021321D02*
X023099Y021398D01*
X023099Y021551D01*
X023023Y021628D01*
X022946Y021628D01*
X022869Y021551D01*
X022792Y021628D01*
X022716Y021628D01*
X022639Y021551D01*
X022639Y021398D01*
X022716Y021321D01*
X022869Y021474D02*
X022869Y021551D01*
X023023Y020707D02*
X023099Y020630D01*
X023099Y020477D01*
X023023Y020400D01*
X022716Y020400D01*
X022639Y020477D01*
X023798Y017860D02*
X023721Y017784D01*
X023721Y017707D01*
X024028Y017400D01*
X023721Y017400D01*
X024182Y017400D02*
X024489Y017400D01*
X024182Y017707D01*
X024182Y017784D01*
X024258Y017860D01*
X024412Y017860D01*
X024489Y017784D01*
X024642Y017784D02*
X024642Y017630D01*
X024719Y017553D01*
X024949Y017553D01*
X024949Y017400D02*
X024949Y017860D01*
X024719Y017860D01*
X024642Y017784D01*
X024795Y017553D02*
X024642Y017400D01*
X024719Y016860D02*
X024642Y016784D01*
X024642Y016630D01*
X024719Y016553D01*
X024949Y016553D01*
X024949Y016400D02*
X024949Y016860D01*
X024719Y016860D01*
X024489Y016784D02*
X024489Y016707D01*
X024412Y016630D01*
X024258Y016630D01*
X024182Y016553D01*
X024182Y016477D01*
X024258Y016400D01*
X024412Y016400D01*
X024489Y016477D01*
X024642Y016400D02*
X024795Y016553D01*
X024489Y016784D02*
X024412Y016860D01*
X024258Y016860D01*
X024182Y016784D01*
X024028Y016707D02*
X023875Y016860D01*
X023875Y016400D01*
X024028Y016400D02*
X023721Y016400D01*
X024028Y017784D02*
X023951Y017860D01*
X023798Y017860D01*
X024506Y014360D02*
X024506Y013900D01*
X024659Y013900D02*
X024352Y013900D01*
X024659Y014207D02*
X024506Y014360D01*
X024813Y014284D02*
X024890Y014360D01*
X025043Y014360D01*
X025120Y014284D01*
X025120Y014207D01*
X025043Y014130D01*
X024890Y014130D01*
X024813Y014053D01*
X024813Y013977D01*
X024890Y013900D01*
X025043Y013900D01*
X025120Y013977D01*
X025273Y013977D02*
X025350Y013900D01*
X025503Y013900D01*
X025580Y013977D01*
X025580Y014284D01*
X025503Y014360D01*
X025350Y014360D01*
X025273Y014284D01*
X025083Y012836D02*
X024853Y012836D01*
X024776Y012760D01*
X024776Y012606D01*
X024853Y012529D01*
X025083Y012529D01*
X025083Y012376D02*
X025083Y012836D01*
X024930Y012529D02*
X024776Y012376D01*
X024623Y012376D02*
X024316Y012683D01*
X024316Y012760D01*
X024393Y012836D01*
X024546Y012836D01*
X024623Y012760D01*
X024623Y012376D02*
X024316Y012376D01*
X024162Y012376D02*
X023855Y012376D01*
X024009Y012376D02*
X024009Y012836D01*
X024162Y012683D01*
X024086Y011852D02*
X023932Y011852D01*
X023855Y011775D01*
X023855Y011699D01*
X024162Y011392D01*
X023855Y011392D01*
X024162Y011775D02*
X024086Y011852D01*
X024316Y011775D02*
X024393Y011852D01*
X024546Y011852D01*
X024623Y011775D01*
X024623Y011699D01*
X024546Y011622D01*
X024393Y011622D01*
X024316Y011545D01*
X024316Y011468D01*
X024393Y011392D01*
X024546Y011392D01*
X024623Y011468D01*
X024776Y011392D02*
X024930Y011545D01*
X024853Y011545D02*
X025083Y011545D01*
X025083Y011392D02*
X025083Y011852D01*
X024853Y011852D01*
X024776Y011775D01*
X024776Y011622D01*
X024853Y011545D01*
X024717Y009368D02*
X024794Y009291D01*
X024717Y009368D02*
X024563Y009368D01*
X024487Y009291D01*
X024487Y009214D01*
X024794Y008907D01*
X024487Y008907D01*
X024947Y008984D02*
X025024Y008907D01*
X025177Y008907D01*
X025254Y008984D01*
X025407Y008984D02*
X025484Y008907D01*
X025638Y008907D01*
X025714Y008984D01*
X025714Y009291D01*
X025638Y009368D01*
X025484Y009368D01*
X025407Y009291D01*
X025254Y009291D02*
X025177Y009368D01*
X025024Y009368D01*
X024947Y009291D01*
X025024Y009138D02*
X024947Y009061D01*
X024947Y008984D01*
X025024Y009138D02*
X025177Y009138D01*
X025254Y009214D01*
X025254Y009291D01*
X025253Y007379D02*
X025176Y007302D01*
X025176Y007148D01*
X025253Y007072D01*
X025560Y007379D01*
X025253Y007379D01*
X025560Y007379D02*
X025637Y007302D01*
X025637Y007148D01*
X025560Y007072D01*
X025253Y007072D01*
X025176Y006918D02*
X025176Y006611D01*
X025176Y006458D02*
X025330Y006304D01*
X025330Y006381D02*
X025330Y006151D01*
X025176Y006151D02*
X025637Y006151D01*
X025637Y006381D01*
X025560Y006458D01*
X025407Y006458D01*
X025330Y006381D01*
X025483Y006611D02*
X025637Y006765D01*
X025176Y006765D01*
X025253Y005343D02*
X025560Y005343D01*
X025637Y005267D01*
X025637Y005113D01*
X025560Y005036D01*
X025483Y005036D01*
X025407Y005113D01*
X025407Y005343D01*
X025253Y005343D02*
X025176Y005267D01*
X025176Y005113D01*
X025253Y005036D01*
X025176Y004883D02*
X025330Y004729D01*
X025330Y004806D02*
X025330Y004576D01*
X025176Y004576D02*
X025637Y004576D01*
X025637Y004806D01*
X025560Y004883D01*
X025407Y004883D01*
X025330Y004806D01*
M02*
