G75*
G70*
%OFA0B0*%
%FSLAX24Y24*%
%IPPOS*%
%LPD*%
%AMOC8*
5,1,8,0,0,1.08239X$1,22.5*
%
%ADD10R,0.0016X0.0004*%
%ADD11R,0.0024X0.0004*%
%ADD12R,0.0036X0.0004*%
%ADD13R,0.0044X0.0004*%
%ADD14R,0.0052X0.0004*%
%ADD15R,0.0060X0.0004*%
%ADD16R,0.0072X0.0004*%
%ADD17R,0.0080X0.0004*%
%ADD18R,0.0076X0.0004*%
%ADD19R,0.0088X0.0004*%
%ADD20R,0.0096X0.0004*%
%ADD21R,0.0100X0.0004*%
%ADD22R,0.0104X0.0004*%
%ADD23R,0.0108X0.0004*%
%ADD24R,0.0120X0.0004*%
%ADD25R,0.0124X0.0004*%
%ADD26R,0.0136X0.0004*%
%ADD27R,0.0144X0.0004*%
%ADD28R,0.0152X0.0004*%
%ADD29R,0.0160X0.0004*%
%ADD30R,0.0172X0.0004*%
%ADD31R,0.0184X0.0004*%
%ADD32R,0.0180X0.0004*%
%ADD33R,0.0188X0.0004*%
%ADD34R,0.0200X0.0004*%
%ADD35R,0.0208X0.0004*%
%ADD36R,0.0216X0.0004*%
%ADD37R,0.0228X0.0004*%
%ADD38R,0.0232X0.0004*%
%ADD39R,0.0236X0.0004*%
%ADD40R,0.0244X0.0004*%
%ADD41R,0.0248X0.0004*%
%ADD42R,0.0252X0.0004*%
%ADD43R,0.0256X0.0004*%
%ADD44R,0.0264X0.0004*%
%ADD45R,0.0276X0.0004*%
%ADD46R,0.0272X0.0004*%
%ADD47R,0.0284X0.0004*%
%ADD48R,0.0288X0.0004*%
%ADD49R,0.0292X0.0004*%
%ADD50R,0.0300X0.0004*%
%ADD51R,0.0312X0.0004*%
%ADD52R,0.0316X0.0004*%
%ADD53R,0.0320X0.0004*%
%ADD54R,0.0328X0.0004*%
%ADD55R,0.0340X0.0004*%
%ADD56R,0.0336X0.0004*%
%ADD57R,0.0348X0.0004*%
%ADD58R,0.0356X0.0004*%
%ADD59R,0.0364X0.0004*%
%ADD60R,0.0376X0.0004*%
%ADD61R,0.0384X0.0004*%
%ADD62R,0.0380X0.0004*%
%ADD63R,0.0396X0.0004*%
%ADD64R,0.0392X0.0004*%
%ADD65R,0.0404X0.0004*%
%ADD66R,0.0400X0.0004*%
%ADD67R,0.0412X0.0004*%
%ADD68R,0.0408X0.0004*%
%ADD69R,0.0424X0.0004*%
%ADD70R,0.0432X0.0004*%
%ADD71R,0.0428X0.0004*%
%ADD72R,0.0440X0.0004*%
%ADD73R,0.0436X0.0004*%
%ADD74R,0.0452X0.0004*%
%ADD75R,0.0448X0.0004*%
%ADD76R,0.0460X0.0004*%
%ADD77R,0.0456X0.0004*%
%ADD78R,0.0468X0.0004*%
%ADD79R,0.0464X0.0004*%
%ADD80R,0.0480X0.0004*%
%ADD81R,0.0476X0.0004*%
%ADD82R,0.0484X0.0004*%
%ADD83R,0.0496X0.0004*%
%ADD84R,0.0492X0.0004*%
%ADD85R,0.0508X0.0004*%
%ADD86R,0.0500X0.0004*%
%ADD87R,0.0516X0.0004*%
%ADD88R,0.0512X0.0004*%
%ADD89R,0.0524X0.0004*%
%ADD90R,0.0520X0.0004*%
%ADD91R,0.0532X0.0004*%
%ADD92R,0.0540X0.0004*%
%ADD93R,0.0552X0.0004*%
%ADD94R,0.0548X0.0004*%
%ADD95R,0.0560X0.0004*%
%ADD96R,0.0572X0.0004*%
%ADD97R,0.0568X0.0004*%
%ADD98R,0.0576X0.0004*%
%ADD99R,0.0588X0.0004*%
%ADD100R,0.0596X0.0004*%
%ADD101R,0.0604X0.0004*%
%ADD102R,0.0616X0.0004*%
%ADD103R,0.0624X0.0004*%
%ADD104R,0.0636X0.0004*%
%ADD105R,0.0632X0.0004*%
%ADD106R,0.0644X0.0004*%
%ADD107R,0.0640X0.0004*%
%ADD108R,0.0652X0.0004*%
%ADD109R,0.0648X0.0004*%
%ADD110R,0.0660X0.0004*%
%ADD111R,0.0656X0.0004*%
%ADD112R,0.0672X0.0004*%
%ADD113R,0.0676X0.0004*%
%ADD114R,0.0688X0.0004*%
%ADD115R,0.0696X0.0004*%
%ADD116R,0.0704X0.0004*%
%ADD117R,0.0716X0.0004*%
%ADD118R,0.0724X0.0004*%
%ADD119R,0.0736X0.0004*%
%ADD120R,0.0732X0.0004*%
%ADD121R,0.0740X0.0004*%
%ADD122R,0.0744X0.0004*%
%ADD123R,0.0752X0.0004*%
%ADD124R,0.0764X0.0004*%
%ADD125R,0.0760X0.0004*%
%ADD126R,0.0772X0.0004*%
%ADD127R,0.0768X0.0004*%
%ADD128R,0.0780X0.0004*%
%ADD129R,0.0788X0.0004*%
%ADD130R,0.0800X0.0004*%
%ADD131R,0.0796X0.0004*%
%ADD132R,0.0808X0.0004*%
%ADD133R,0.0812X0.0004*%
%ADD134R,0.0816X0.0004*%
%ADD135R,0.0828X0.0004*%
%ADD136R,0.0824X0.0004*%
%ADD137R,0.0836X0.0004*%
%ADD138R,0.0844X0.0004*%
%ADD139R,0.0852X0.0004*%
%ADD140R,0.0864X0.0004*%
%ADD141R,0.0868X0.0004*%
%ADD142R,0.0880X0.0004*%
%ADD143R,0.0888X0.0004*%
%ADD144R,0.0892X0.0004*%
%ADD145R,0.0900X0.0004*%
%ADD146R,0.0896X0.0004*%
%ADD147R,0.0908X0.0004*%
%ADD148R,0.0916X0.0004*%
%ADD149R,0.0924X0.0004*%
%ADD150R,0.0932X0.0004*%
%ADD151R,0.0936X0.0004*%
%ADD152R,0.0944X0.0004*%
%ADD153R,0.0956X0.0004*%
%ADD154R,0.0964X0.0004*%
%ADD155R,0.0960X0.0004*%
%ADD156R,0.0972X0.0004*%
%ADD157R,0.0980X0.0004*%
%ADD158R,0.0992X0.0004*%
%ADD159R,0.0988X0.0004*%
%ADD160R,0.1000X0.0004*%
%ADD161R,0.1008X0.0004*%
%ADD162R,0.1012X0.0004*%
%ADD163R,0.1024X0.0004*%
%ADD164R,0.1028X0.0004*%
%ADD165R,0.1036X0.0004*%
%ADD166R,0.1048X0.0004*%
%ADD167R,0.1044X0.0004*%
%ADD168R,0.1052X0.0004*%
%ADD169R,0.1056X0.0004*%
%ADD170R,0.1060X0.0004*%
%ADD171R,0.1076X0.0004*%
%ADD172R,0.1072X0.0004*%
%ADD173R,0.1084X0.0004*%
%ADD174R,0.1088X0.0004*%
%ADD175R,0.1092X0.0004*%
%ADD176R,0.1100X0.0004*%
%ADD177R,0.1108X0.0004*%
%ADD178R,0.1120X0.0004*%
%ADD179R,0.1124X0.0004*%
%ADD180R,0.1136X0.0004*%
%ADD181R,0.1148X0.0004*%
%ADD182R,0.1156X0.0004*%
%ADD183R,0.1152X0.0004*%
%ADD184R,0.1160X0.0004*%
%ADD185R,0.1164X0.0004*%
%ADD186R,0.1168X0.0004*%
%ADD187R,0.1176X0.0004*%
%ADD188R,0.1172X0.0004*%
%ADD189R,0.1172X0.0004*%
%ADD190R,0.1172X0.0004*%
%ADD191R,0.1168X0.0004*%
%ADD192R,0.1164X0.0004*%
%ADD193R,0.1176X0.0004*%
%ADD194R,0.1180X0.0004*%
%ADD195R,0.1180X0.0004*%
%ADD196R,0.1172X0.0004*%
%ADD197R,0.1160X0.0004*%
%ADD198R,0.1164X0.0004*%
%ADD199R,0.1152X0.0004*%
%ADD200R,0.1144X0.0004*%
%ADD201R,0.1144X0.0004*%
%ADD202R,0.1140X0.0004*%
%ADD203R,0.1132X0.0004*%
%ADD204R,0.1128X0.0004*%
%ADD205R,0.1124X0.0004*%
%ADD206R,0.1124X0.0004*%
%ADD207R,0.1116X0.0004*%
%ADD208R,0.1116X0.0004*%
%ADD209R,0.1112X0.0004*%
%ADD210R,0.1104X0.0004*%
%ADD211R,0.1104X0.0004*%
%ADD212R,0.1096X0.0004*%
%ADD213R,0.1084X0.0004*%
%ADD214R,0.1080X0.0004*%
%ADD215R,0.1080X0.0004*%
%ADD216R,0.1076X0.0004*%
%ADD217R,0.1068X0.0004*%
%ADD218R,0.1052X0.0004*%
%ADD219R,0.1056X0.0004*%
%ADD220R,0.1048X0.0004*%
%ADD221R,0.1044X0.0004*%
%ADD222R,0.1040X0.0004*%
%ADD223R,0.1032X0.0004*%
%ADD224R,0.1028X0.0004*%
%ADD225R,0.1024X0.0004*%
%ADD226R,0.1020X0.0004*%
%ADD227R,0.1016X0.0004*%
%ADD228R,0.1012X0.0004*%
%ADD229R,0.1004X0.0004*%
%ADD230R,0.0996X0.0004*%
%ADD231R,0.0992X0.0004*%
%ADD232R,0.0984X0.0004*%
%ADD233R,0.0976X0.0004*%
%ADD234R,0.0972X0.0004*%
%ADD235R,0.0968X0.0004*%
%ADD236R,0.0952X0.0004*%
%ADD237R,0.0952X0.0004*%
%ADD238R,0.0948X0.0004*%
%ADD239R,0.0944X0.0004*%
%ADD240R,0.0940X0.0004*%
%ADD241R,0.0936X0.0004*%
%ADD242R,0.0932X0.0004*%
%ADD243R,0.0932X0.0004*%
%ADD244R,0.0928X0.0004*%
%ADD245R,0.0920X0.0004*%
%ADD246R,0.0912X0.0004*%
%ADD247R,0.0912X0.0004*%
%ADD248R,0.0904X0.0004*%
%ADD249R,0.0904X0.0004*%
%ADD250R,0.0892X0.0004*%
%ADD251R,0.0888X0.0004*%
%ADD252R,0.0884X0.0004*%
%ADD253R,0.0884X0.0004*%
%ADD254R,0.0876X0.0004*%
%ADD255R,0.0864X0.0004*%
%ADD256R,0.0856X0.0004*%
%ADD257R,0.0848X0.0004*%
%ADD258R,0.0844X0.0004*%
%ADD259R,0.0820X0.0004*%
%ADD260R,0.0812X0.0004*%
%ADD261R,0.0808X0.0004*%
%ADD262R,0.0800X0.0004*%
%ADD263R,0.0792X0.0004*%
%ADD264R,0.0792X0.0004*%
%ADD265R,0.0784X0.0004*%
%ADD266R,0.0772X0.0004*%
%ADD267R,0.0772X0.0004*%
%ADD268R,0.0764X0.0004*%
%ADD269R,0.0756X0.0004*%
%ADD270R,0.0748X0.0004*%
%ADD271R,0.0736X0.0004*%
%ADD272R,0.0728X0.0004*%
%ADD273R,0.0720X0.0004*%
%ADD274R,0.0708X0.0004*%
%ADD275R,0.0700X0.0004*%
%ADD276R,0.0684X0.0004*%
%ADD277R,0.0680X0.0004*%
%ADD278R,0.0664X0.0004*%
%ADD279R,0.0668X0.0004*%
%ADD280R,0.0656X0.0004*%
%ADD281R,0.0660X0.0004*%
%ADD282R,0.0632X0.0004*%
%ADD283R,0.0636X0.0004*%
%ADD284R,0.0620X0.0004*%
%ADD285R,0.0628X0.0004*%
%ADD286R,0.0616X0.0004*%
%ADD287R,0.0612X0.0004*%
%ADD288R,0.0604X0.0004*%
%ADD289R,0.0600X0.0004*%
%ADD290R,0.0604X0.0004*%
%ADD291R,0.0600X0.0004*%
%ADD292R,0.0008X0.0004*%
%ADD293R,0.0020X0.0004*%
%ADD294R,0.0016X0.0004*%
%ADD295R,0.0028X0.0004*%
%ADD296R,0.0596X0.0004*%
%ADD297R,0.0024X0.0004*%
%ADD298R,0.0592X0.0004*%
%ADD299R,0.0048X0.0004*%
%ADD300R,0.0580X0.0004*%
%ADD301R,0.0052X0.0004*%
%ADD302R,0.0064X0.0004*%
%ADD303R,0.0568X0.0004*%
%ADD304R,0.0572X0.0004*%
%ADD305R,0.0060X0.0004*%
%ADD306R,0.0076X0.0004*%
%ADD307R,0.0560X0.0004*%
%ADD308R,0.0564X0.0004*%
%ADD309R,0.0072X0.0004*%
%ADD310R,0.0556X0.0004*%
%ADD311R,0.0092X0.0004*%
%ADD312R,0.0552X0.0004*%
%ADD313R,0.0544X0.0004*%
%ADD314R,0.0108X0.0004*%
%ADD315R,0.0536X0.0004*%
%ADD316R,0.0104X0.0004*%
%ADD317R,0.0124X0.0004*%
%ADD318R,0.0528X0.0004*%
%ADD319R,0.0532X0.0004*%
%ADD320R,0.0120X0.0004*%
%ADD321R,0.0128X0.0004*%
%ADD322R,0.0524X0.0004*%
%ADD323R,0.0520X0.0004*%
%ADD324R,0.0148X0.0004*%
%ADD325R,0.0156X0.0004*%
%ADD326R,0.0504X0.0004*%
%ADD327R,0.0504X0.0004*%
%ADD328R,0.0152X0.0004*%
%ADD329R,0.0168X0.0004*%
%ADD330R,0.0496X0.0004*%
%ADD331R,0.0164X0.0004*%
%ADD332R,0.0176X0.0004*%
%ADD333R,0.0488X0.0004*%
%ADD334R,0.0484X0.0004*%
%ADD335R,0.0192X0.0004*%
%ADD336R,0.0476X0.0004*%
%ADD337R,0.0192X0.0004*%
%ADD338R,0.0204X0.0004*%
%ADD339R,0.0472X0.0004*%
%ADD340R,0.0200X0.0004*%
%ADD341R,0.0216X0.0004*%
%ADD342R,0.0464X0.0004*%
%ADD343R,0.0460X0.0004*%
%ADD344R,0.0208X0.0004*%
%ADD345R,0.0220X0.0004*%
%ADD346R,0.0232X0.0004*%
%ADD347R,0.0452X0.0004*%
%ADD348R,0.0240X0.0004*%
%ADD349R,0.0444X0.0004*%
%ADD350R,0.0248X0.0004*%
%ADD351R,0.0260X0.0004*%
%ADD352R,0.0256X0.0004*%
%ADD353R,0.0268X0.0004*%
%ADD354R,0.0424X0.0004*%
%ADD355R,0.0420X0.0004*%
%ADD356R,0.0280X0.0004*%
%ADD357R,0.0416X0.0004*%
%ADD358R,0.0288X0.0004*%
%ADD359R,0.0296X0.0004*%
%ADD360R,0.0292X0.0004*%
%ADD361R,0.0308X0.0004*%
%ADD362R,0.0400X0.0004*%
%ADD363R,0.0396X0.0004*%
%ADD364R,0.0296X0.0004*%
%ADD365R,0.0388X0.0004*%
%ADD366R,0.0324X0.0004*%
%ADD367R,0.0380X0.0004*%
%ADD368R,0.0336X0.0004*%
%ADD369R,0.0344X0.0004*%
%ADD370R,0.0368X0.0004*%
%ADD371R,0.0352X0.0004*%
%ADD372R,0.0368X0.0004*%
%ADD373R,0.0360X0.0004*%
%ADD374R,0.0344X0.0004*%
%ADD375R,0.0360X0.0004*%
%ADD376R,0.0352X0.0004*%
%ADD377R,0.0372X0.0004*%
%ADD378R,0.0012X0.0004*%
%ADD379R,0.0028X0.0004*%
%ADD380R,0.0340X0.0004*%
%ADD381R,0.0024X0.0004*%
%ADD382R,0.0332X0.0004*%
%ADD383R,0.0056X0.0004*%
%ADD384R,0.0328X0.0004*%
%ADD385R,0.0052X0.0004*%
%ADD386R,0.0392X0.0004*%
%ADD387R,0.0064X0.0004*%
%ADD388R,0.0312X0.0004*%
%ADD389R,0.0428X0.0004*%
%ADD390R,0.0304X0.0004*%
%ADD391R,0.0304X0.0004*%
%ADD392R,0.0444X0.0004*%
%ADD393R,0.0116X0.0004*%
%ADD394R,0.0300X0.0004*%
%ADD395R,0.0440X0.0004*%
%ADD396R,0.0140X0.0004*%
%ADD397R,0.0292X0.0004*%
%ADD398R,0.0284X0.0004*%
%ADD399R,0.0164X0.0004*%
%ADD400R,0.0192X0.0004*%
%ADD401R,0.0188X0.0004*%
%ADD402R,0.0484X0.0004*%
%ADD403R,0.0224X0.0004*%
%ADD404R,0.0244X0.0004*%
%ADD405R,0.0244X0.0004*%
%ADD406R,0.0528X0.0004*%
%ADD407R,0.0536X0.0004*%
%ADD408R,0.0224X0.0004*%
%ADD409R,0.0220X0.0004*%
%ADD410R,0.0264X0.0004*%
%ADD411R,0.0212X0.0004*%
%ADD412R,0.0212X0.0004*%
%ADD413R,0.0564X0.0004*%
%ADD414R,0.0204X0.0004*%
%ADD415R,0.0308X0.0004*%
%ADD416R,0.0196X0.0004*%
%ADD417R,0.0580X0.0004*%
%ADD418R,0.0576X0.0004*%
%ADD419R,0.0584X0.0004*%
%ADD420R,0.0172X0.0004*%
%ADD421R,0.0372X0.0004*%
%ADD422R,0.0168X0.0004*%
%ADD423R,0.0628X0.0004*%
%ADD424R,0.0148X0.0004*%
%ADD425R,0.0404X0.0004*%
%ADD426R,0.0620X0.0004*%
%ADD427R,0.0412X0.0004*%
%ADD428R,0.0432X0.0004*%
%ADD429R,0.0644X0.0004*%
%ADD430R,0.0444X0.0004*%
%ADD431R,0.0664X0.0004*%
%ADD432R,0.0124X0.0004*%
%ADD433R,0.0672X0.0004*%
%ADD434R,0.0472X0.0004*%
%ADD435R,0.0672X0.0004*%
%ADD436R,0.0684X0.0004*%
%ADD437R,0.0692X0.0004*%
%ADD438R,0.0492X0.0004*%
%ADD439R,0.0700X0.0004*%
%ADD440R,0.0712X0.0004*%
%ADD441R,0.0716X0.0004*%
%ADD442R,0.0540X0.0004*%
%ADD443R,0.0080X0.0004*%
%ADD444R,0.0084X0.0004*%
%ADD445R,0.0724X0.0004*%
%ADD446R,0.0068X0.0004*%
%ADD447R,0.0744X0.0004*%
%ADD448R,0.0764X0.0004*%
%ADD449R,0.0612X0.0004*%
%ADD450R,0.0044X0.0004*%
%ADD451R,0.0044X0.0004*%
%ADD452R,0.0772X0.0004*%
%ADD453R,0.0624X0.0004*%
%ADD454R,0.0040X0.0004*%
%ADD455R,0.0776X0.0004*%
%ADD456R,0.0784X0.0004*%
%ADD457R,0.0032X0.0004*%
%ADD458R,0.0652X0.0004*%
%ADD459R,0.0804X0.0004*%
%ADD460R,0.0668X0.0004*%
%ADD461R,0.0812X0.0004*%
%ADD462R,0.0684X0.0004*%
%ADD463R,0.0688X0.0004*%
%ADD464R,0.0812X0.0004*%
%ADD465R,0.0692X0.0004*%
%ADD466R,0.0704X0.0004*%
%ADD467R,0.0840X0.0004*%
%ADD468R,0.0844X0.0004*%
%ADD469R,0.0856X0.0004*%
%ADD470R,0.0748X0.0004*%
%ADD471R,0.0756X0.0004*%
%ADD472R,0.0872X0.0004*%
%ADD473R,0.0892X0.0004*%
%ADD474R,0.0900X0.0004*%
%ADD475R,0.0820X0.0004*%
%ADD476R,0.0828X0.0004*%
%ADD477R,0.1748X0.0004*%
%ADD478R,0.1760X0.0004*%
%ADD479R,0.1756X0.0004*%
%ADD480R,0.1768X0.0004*%
%ADD481R,0.1764X0.0004*%
%ADD482R,0.1772X0.0004*%
%ADD483R,0.1772X0.0004*%
%ADD484R,0.1784X0.0004*%
%ADD485R,0.1784X0.0004*%
%ADD486R,0.1796X0.0004*%
%ADD487R,0.1788X0.0004*%
%ADD488R,0.1800X0.0004*%
%ADD489R,0.1812X0.0004*%
%ADD490R,0.1808X0.0004*%
%ADD491R,0.1820X0.0004*%
%ADD492R,0.1816X0.0004*%
%ADD493R,0.1828X0.0004*%
%ADD494R,0.1828X0.0004*%
%ADD495R,0.1840X0.0004*%
%ADD496R,0.1836X0.0004*%
%ADD497R,0.1848X0.0004*%
%ADD498R,0.1840X0.0004*%
%ADD499R,0.1852X0.0004*%
%ADD500R,0.1852X0.0004*%
%ADD501R,0.1860X0.0004*%
%ADD502R,0.1864X0.0004*%
%ADD503R,0.1876X0.0004*%
%ADD504R,0.1872X0.0004*%
%ADD505R,0.1880X0.0004*%
%ADD506R,0.1880X0.0004*%
%ADD507R,0.1892X0.0004*%
%ADD508R,0.1888X0.0004*%
%ADD509R,0.1900X0.0004*%
%ADD510R,0.1896X0.0004*%
%ADD511R,0.1908X0.0004*%
%ADD512R,0.1904X0.0004*%
%ADD513R,0.1916X0.0004*%
%ADD514R,0.1916X0.0004*%
%ADD515R,0.1928X0.0004*%
%ADD516R,0.1924X0.0004*%
%ADD517R,0.1936X0.0004*%
%ADD518R,0.1932X0.0004*%
%ADD519R,0.1944X0.0004*%
%ADD520R,0.1956X0.0004*%
%ADD521R,0.1948X0.0004*%
%ADD522R,0.1960X0.0004*%
%ADD523R,0.1960X0.0004*%
%ADD524R,0.1972X0.0004*%
%ADD525R,0.1972X0.0004*%
%ADD526R,0.1984X0.0004*%
%ADD527R,0.1980X0.0004*%
%ADD528R,0.1988X0.0004*%
%ADD529R,0.1992X0.0004*%
%ADD530R,0.1996X0.0004*%
%ADD531R,0.1980X0.0004*%
%ADD532R,0.1996X0.0004*%
%ADD533R,0.1976X0.0004*%
%ADD534R,0.1952X0.0004*%
%ADD535R,0.1932X0.0004*%
%ADD536R,0.1924X0.0004*%
%ADD537R,0.1856X0.0004*%
%ADD538R,0.1868X0.0004*%
%ADD539R,0.1832X0.0004*%
%ADD540R,0.1824X0.0004*%
%ADD541R,0.1792X0.0004*%
%ADD542R,0.1804X0.0004*%
%ADD543R,0.1792X0.0004*%
%ADD544R,0.1752X0.0004*%
%ADD545R,0.1740X0.0004*%
%ADD546R,0.1728X0.0004*%
%ADD547R,0.1712X0.0004*%
%ADD548R,0.1724X0.0004*%
%ADD549R,0.1700X0.0004*%
%ADD550R,0.1712X0.0004*%
%ADD551R,0.1688X0.0004*%
%ADD552R,0.1668X0.0004*%
%ADD553R,0.1684X0.0004*%
%ADD554R,0.1660X0.0004*%
%ADD555R,0.1672X0.0004*%
%ADD556R,0.1648X0.0004*%
%ADD557R,0.1660X0.0004*%
%ADD558R,0.1632X0.0004*%
%ADD559R,0.1644X0.0004*%
%ADD560R,0.1620X0.0004*%
%ADD561R,0.1628X0.0004*%
%ADD562R,0.1608X0.0004*%
%ADD563R,0.1592X0.0004*%
%ADD564R,0.1600X0.0004*%
%ADD565R,0.1584X0.0004*%
%ADD566R,0.1588X0.0004*%
%ADD567R,0.1568X0.0004*%
%ADD568R,0.1580X0.0004*%
%ADD569R,0.1552X0.0004*%
%ADD570R,0.1564X0.0004*%
%ADD571R,0.1536X0.0004*%
%ADD572R,0.1548X0.0004*%
%ADD573R,0.1524X0.0004*%
%ADD574R,0.1540X0.0004*%
%ADD575R,0.1512X0.0004*%
%ADD576R,0.1524X0.0004*%
%ADD577R,0.1500X0.0004*%
%ADD578R,0.1508X0.0004*%
%ADD579R,0.1488X0.0004*%
%ADD580R,0.1468X0.0004*%
%ADD581R,0.0012X0.0004*%
%ADD582R,0.1484X0.0004*%
%ADD583R,0.1456X0.0004*%
%ADD584R,0.1448X0.0004*%
%ADD585R,0.0020X0.0004*%
%ADD586R,0.1456X0.0004*%
%ADD587R,0.1424X0.0004*%
%ADD588R,0.0032X0.0004*%
%ADD589R,0.1436X0.0004*%
%ADD590R,0.1416X0.0004*%
%ADD591R,0.1428X0.0004*%
%ADD592R,0.1400X0.0004*%
%ADD593R,0.0044X0.0004*%
%ADD594R,0.1412X0.0004*%
%ADD595R,0.1384X0.0004*%
%ADD596R,0.0056X0.0004*%
%ADD597R,0.1396X0.0004*%
%ADD598R,0.1376X0.0004*%
%ADD599R,0.1380X0.0004*%
%ADD600R,0.1360X0.0004*%
%ADD601R,0.1372X0.0004*%
%ADD602R,0.1344X0.0004*%
%ADD603R,0.1352X0.0004*%
%ADD604R,0.1332X0.0004*%
%ADD605R,0.1340X0.0004*%
%ADD606R,0.1320X0.0004*%
%ADD607R,0.0084X0.0004*%
%ADD608R,0.1332X0.0004*%
%ADD609R,0.1304X0.0004*%
%ADD610R,0.0092X0.0004*%
%ADD611R,0.0096X0.0004*%
%ADD612R,0.1312X0.0004*%
%ADD613R,0.1288X0.0004*%
%ADD614R,0.1300X0.0004*%
%ADD615R,0.1280X0.0004*%
%ADD616R,0.1292X0.0004*%
%ADD617R,0.1256X0.0004*%
%ADD618R,0.0116X0.0004*%
%ADD619R,0.1268X0.0004*%
%ADD620R,0.1248X0.0004*%
%ADD621R,0.1232X0.0004*%
%ADD622R,0.0128X0.0004*%
%ADD623R,0.1244X0.0004*%
%ADD624R,0.1216X0.0004*%
%ADD625R,0.1224X0.0004*%
%ADD626R,0.1208X0.0004*%
%ADD627R,0.1192X0.0004*%
%ADD628R,0.0152X0.0004*%
%ADD629R,0.1204X0.0004*%
%ADD630R,0.1184X0.0004*%
%ADD631R,0.0164X0.0004*%
%ADD632R,0.1120X0.0004*%
%ADD633R,0.0184X0.0004*%
%ADD634R,0.1112X0.0004*%
%ADD635R,0.1092X0.0004*%
%ADD636R,0.1104X0.0004*%
%ADD637R,0.1072X0.0004*%
%ADD638R,0.0224X0.0004*%
%ADD639R,0.0236X0.0004*%
%ADD640R,0.1036X0.0004*%
%ADD641R,0.1016X0.0004*%
%ADD642R,0.1004X0.0004*%
%ADD643R,0.0984X0.0004*%
%ADD644R,0.0264X0.0004*%
%ADD645R,0.0952X0.0004*%
%ADD646R,0.0268X0.0004*%
%ADD647R,0.0960X0.0004*%
%ADD648R,0.0912X0.0004*%
%ADD649R,0.0884X0.0004*%
%ADD650R,0.0304X0.0004*%
%ADD651R,0.0832X0.0004*%
%ADD652R,0.0332X0.0004*%
%ADD653R,0.0816X0.0004*%
%ADD654R,0.0824X0.0004*%
%ADD655R,0.0352X0.0004*%
%ADD656R,0.0376X0.0004*%
%ADD657R,0.0372X0.0004*%
%ADD658R,0.0384X0.0004*%
%ADD659R,0.0384X0.0004*%
%ADD660R,0.0392X0.0004*%
%ADD661R,0.0404X0.0004*%
%ADD662R,0.0412X0.0004*%
%ADD663R,0.0408X0.0004*%
%ADD664R,0.0680X0.0004*%
%ADD665R,0.0664X0.0004*%
%ADD666R,0.0608X0.0004*%
%ADD667R,0.0448X0.0004*%
%ADD668R,0.0612X0.0004*%
%ADD669R,0.0592X0.0004*%
%ADD670R,0.0572X0.0004*%
%ADD671R,0.0472X0.0004*%
%ADD672R,0.0484X0.0004*%
%ADD673R,0.0524X0.0004*%
%ADD674R,0.0532X0.0004*%
%ADD675R,0.0464X0.0004*%
%ADD676R,0.0512X0.0004*%
%ADD677R,0.0468X0.0004*%
%ADD678R,0.0544X0.0004*%
%ADD679R,0.0552X0.0004*%
%ADD680R,0.0548X0.0004*%
%ADD681R,0.0588X0.0004*%
%ADD682R,0.0608X0.0004*%
%ADD683R,0.0272X0.0004*%
%ADD684R,0.0612X0.0004*%
%ADD685R,0.0624X0.0004*%
%ADD686R,0.0632X0.0004*%
%ADD687R,0.0652X0.0004*%
%ADD688R,0.0192X0.0004*%
%ADD689R,0.0696X0.0004*%
%ADD690R,0.0712X0.0004*%
%ADD691R,0.0048X0.0004*%
%ADD692R,0.0732X0.0004*%
%ADD693R,0.0724X0.0004*%
%ADD694R,0.0752X0.0004*%
%ADD695R,0.0764X0.0004*%
%ADD696R,0.0788X0.0004*%
%ADD697R,0.0796X0.0004*%
%ADD698R,0.0832X0.0004*%
%ADD699R,0.0832X0.0004*%
%ADD700R,0.0852X0.0004*%
%ADD701R,0.0860X0.0004*%
%ADD702R,0.0868X0.0004*%
%ADD703R,0.0860X0.0004*%
%ADD704R,0.0872X0.0004*%
%ADD705R,0.0912X0.0004*%
%ADD706R,0.0928X0.0004*%
%ADD707R,0.0948X0.0004*%
%ADD708R,0.0968X0.0004*%
%ADD709R,0.0980X0.0004*%
%ADD710R,0.1000X0.0004*%
%ADD711R,0.0992X0.0004*%
%ADD712R,0.1008X0.0004*%
%ADD713R,0.0996X0.0004*%
%ADD714R,0.1004X0.0004*%
%ADD715R,0.0988X0.0004*%
%ADD716R,0.0964X0.0004*%
%ADD717R,0.0924X0.0004*%
%ADD718R,0.0932X0.0004*%
%ADD719R,0.0920X0.0004*%
%ADD720R,0.0896X0.0004*%
%ADD721R,0.0884X0.0004*%
%ADD722R,0.0876X0.0004*%
%ADD723R,0.0848X0.0004*%
%ADD724R,0.0824X0.0004*%
%ADD725R,0.0804X0.0004*%
%ADD726R,0.0780X0.0004*%
%ADD727R,0.0744X0.0004*%
%ADD728R,0.0708X0.0004*%
%ADD729R,0.0644X0.0004*%
%ADD730R,0.0604X0.0004*%
%ADD731R,0.0584X0.0004*%
%ADD732R,0.0004X0.0004*%
%ADD733C,0.0060*%
%ADD734C,0.0100*%
%ADD735C,0.0040*%
%ADD736C,0.0120*%
%ADD737C,0.0080*%
%ADD738C,0.0050*%
%ADD739C,0.0240*%
%ADD740R,0.0079X0.0079*%
%ADD741C,0.0010*%
D10*
X005793Y004756D03*
X007949Y004756D03*
D11*
X007949Y004760D03*
X006969Y006468D03*
X008049Y007204D03*
X005705Y007204D03*
X005793Y004760D03*
D12*
X005795Y004764D03*
X006099Y006292D03*
X006775Y006804D03*
X007643Y006292D03*
X008047Y007200D03*
X008747Y006140D03*
X007947Y004764D03*
X005007Y006140D03*
D13*
X005799Y004768D03*
X007943Y004768D03*
X008743Y006144D03*
X006979Y006808D03*
D14*
X006983Y006452D03*
X008743Y006148D03*
X007943Y004772D03*
X005799Y004772D03*
D15*
X005803Y004776D03*
X007939Y004776D03*
X006987Y006816D03*
D16*
X006757Y006824D03*
X006757Y006440D03*
X005805Y004780D03*
X007937Y004780D03*
D17*
X008737Y006160D03*
X008049Y007188D03*
X006997Y006828D03*
X005705Y007188D03*
X005017Y006160D03*
X005805Y004784D03*
D18*
X006099Y006304D03*
X006755Y006828D03*
X006995Y006824D03*
X006995Y006440D03*
X007643Y006304D03*
X007935Y004784D03*
D19*
X007933Y004788D03*
X008733Y006164D03*
X008049Y007184D03*
X007001Y006832D03*
X007001Y006432D03*
X006749Y006432D03*
X005705Y007184D03*
X005809Y004788D03*
D20*
X005813Y004792D03*
X006101Y006308D03*
X006745Y006428D03*
X007005Y006428D03*
D21*
X006743Y006424D03*
X006743Y006840D03*
X007007Y006840D03*
X007643Y006308D03*
X008731Y006168D03*
X007931Y004792D03*
X005023Y006168D03*
D22*
X005813Y004796D03*
D23*
X007927Y004796D03*
D24*
X007925Y004800D03*
X005817Y004800D03*
X006733Y006852D03*
X007017Y006852D03*
D25*
X007019Y006412D03*
X007923Y004804D03*
X005819Y004804D03*
D26*
X005821Y004808D03*
X005029Y006184D03*
X006725Y006404D03*
X007025Y006404D03*
X007025Y006860D03*
X006725Y006860D03*
X008721Y006184D03*
X007921Y004808D03*
D27*
X007917Y004812D03*
X007029Y006400D03*
X007029Y006864D03*
X005825Y004812D03*
D28*
X005825Y004816D03*
X006717Y006396D03*
X007917Y004816D03*
D29*
X007913Y004820D03*
X007641Y006328D03*
X006713Y006392D03*
X005705Y007164D03*
X008049Y007164D03*
X005829Y004820D03*
D30*
X005831Y004824D03*
X006707Y006384D03*
X006707Y006880D03*
X008711Y006200D03*
X007911Y004824D03*
D31*
X008709Y006204D03*
X007049Y006888D03*
X005833Y004828D03*
D32*
X006099Y006332D03*
X006703Y006380D03*
X007047Y006884D03*
X007643Y006332D03*
X007911Y004828D03*
D33*
X007907Y004832D03*
X005835Y004832D03*
X005043Y006204D03*
D34*
X005837Y004836D03*
X007905Y004836D03*
X007057Y006896D03*
X006693Y006896D03*
D35*
X007061Y006900D03*
X007061Y006364D03*
X007901Y004840D03*
X005841Y004840D03*
D36*
X005841Y004844D03*
X006685Y006360D03*
X007065Y006904D03*
X008049Y007148D03*
X008701Y006220D03*
X007901Y004844D03*
X005705Y007148D03*
D37*
X007071Y006912D03*
X007071Y006352D03*
X008699Y006224D03*
X005843Y004848D03*
D38*
X006101Y006348D03*
X006677Y006352D03*
X005705Y007144D03*
X007897Y004848D03*
D39*
X007895Y004852D03*
X007643Y006348D03*
X007075Y006348D03*
X006675Y006348D03*
X005847Y004852D03*
X008695Y006228D03*
D40*
X005847Y004856D03*
D41*
X007893Y004856D03*
D42*
X005851Y004860D03*
D43*
X006665Y006340D03*
X006665Y006928D03*
X007085Y006928D03*
X007889Y004860D03*
D44*
X007889Y004864D03*
X008689Y006240D03*
X007089Y006332D03*
X007089Y006932D03*
X005853Y004864D03*
D45*
X005855Y004868D03*
X006655Y006328D03*
X007095Y006324D03*
X007643Y006360D03*
X007095Y006940D03*
X006655Y006940D03*
X006099Y006360D03*
X008047Y007132D03*
X008687Y006244D03*
D46*
X007889Y004868D03*
X007093Y006328D03*
D47*
X007099Y006320D03*
X007099Y006944D03*
X008683Y006248D03*
X007883Y004872D03*
X005859Y004872D03*
D48*
X005861Y004876D03*
D49*
X007103Y006316D03*
X007879Y004876D03*
D50*
X007879Y004880D03*
X005863Y004880D03*
X008047Y007124D03*
D51*
X008677Y006260D03*
X007877Y004884D03*
X006637Y006308D03*
X006637Y006960D03*
X005865Y004884D03*
D52*
X005867Y004888D03*
X005075Y006260D03*
X006099Y006372D03*
X008047Y007120D03*
X008675Y006264D03*
D53*
X007645Y006372D03*
X007117Y006300D03*
X006633Y006304D03*
X006633Y006964D03*
X007117Y006964D03*
X005705Y007120D03*
X007873Y004888D03*
D54*
X007873Y004892D03*
X008673Y006268D03*
X006629Y006300D03*
X006629Y006968D03*
X005869Y004892D03*
D55*
X005875Y004896D03*
X006623Y006976D03*
X007127Y006976D03*
D56*
X006625Y006296D03*
X007869Y004896D03*
D57*
X007867Y004900D03*
X007131Y006284D03*
X006619Y006288D03*
X006099Y006380D03*
X006619Y006980D03*
X007131Y006980D03*
X005875Y004900D03*
D58*
X005875Y004904D03*
X006615Y006284D03*
X007135Y006280D03*
X006099Y006384D03*
X005707Y007108D03*
X007867Y004904D03*
D59*
X007863Y004908D03*
X008663Y006284D03*
X007643Y006384D03*
X005879Y004908D03*
X005083Y006280D03*
D60*
X006605Y006272D03*
X007145Y006268D03*
X008661Y006288D03*
X007861Y004912D03*
X005881Y004912D03*
D61*
X005885Y004916D03*
D62*
X007859Y004916D03*
D63*
X007643Y006392D03*
X006595Y007008D03*
X005887Y004920D03*
D64*
X006597Y006260D03*
X006101Y006392D03*
X006597Y007004D03*
X007857Y004920D03*
D65*
X005891Y004924D03*
X006591Y007012D03*
D66*
X007157Y006252D03*
X008653Y006300D03*
X007853Y004924D03*
D67*
X006587Y006248D03*
X005707Y007092D03*
X005891Y004928D03*
D68*
X006589Y006252D03*
X007161Y006248D03*
X007853Y004928D03*
X008653Y006304D03*
X005097Y006300D03*
D69*
X005893Y004932D03*
X007849Y004932D03*
X008649Y006308D03*
X007169Y007024D03*
D70*
X006577Y006236D03*
X005897Y004936D03*
D71*
X007171Y006236D03*
X007847Y004936D03*
D72*
X007177Y006228D03*
X006573Y006232D03*
X006573Y007032D03*
X005705Y007084D03*
X005897Y004940D03*
D73*
X005103Y006312D03*
X006575Y007028D03*
X007175Y007032D03*
X007643Y006404D03*
X007175Y006232D03*
X007843Y004940D03*
D74*
X005903Y004944D03*
X007183Y007040D03*
D75*
X007645Y006408D03*
X007181Y006224D03*
X007841Y004944D03*
X008641Y006320D03*
D76*
X008047Y007080D03*
X007643Y006412D03*
X006563Y006220D03*
X006099Y006412D03*
X006563Y007044D03*
X005903Y004948D03*
D77*
X005109Y006320D03*
X006565Y007040D03*
X007185Y007044D03*
X007185Y006220D03*
X007841Y004948D03*
X008641Y006324D03*
D78*
X008639Y006328D03*
X007191Y006212D03*
X006559Y007048D03*
X005903Y004952D03*
D79*
X005109Y006324D03*
X007189Y007048D03*
X007837Y004952D03*
D80*
X005909Y004956D03*
X007197Y007056D03*
D81*
X007643Y006416D03*
X007835Y004956D03*
D82*
X007831Y004960D03*
X006551Y006204D03*
X005911Y004960D03*
D83*
X005913Y004964D03*
X005705Y007068D03*
X008049Y007068D03*
D84*
X008631Y006340D03*
X007831Y004964D03*
X006547Y006200D03*
X006547Y007060D03*
D85*
X006539Y007072D03*
X007211Y007072D03*
X007211Y006188D03*
X006539Y006188D03*
X005915Y004968D03*
D86*
X005119Y006340D03*
X006543Y007064D03*
X007207Y007068D03*
X007827Y004968D03*
D87*
X007215Y006184D03*
X006535Y006184D03*
X006099Y006428D03*
X005919Y004972D03*
X008627Y006348D03*
D88*
X008045Y007064D03*
X007825Y004972D03*
X005121Y006344D03*
D89*
X005919Y004976D03*
D90*
X007825Y004976D03*
X006533Y007076D03*
D91*
X005923Y004980D03*
X007819Y004980D03*
D92*
X007819Y004984D03*
X006523Y006168D03*
X006523Y007088D03*
X007227Y007092D03*
X008619Y006360D03*
X005923Y004984D03*
D93*
X005925Y004988D03*
X005705Y007052D03*
D94*
X005131Y006360D03*
X006519Y006164D03*
X007815Y004988D03*
X008619Y006364D03*
D95*
X008617Y006368D03*
X007237Y006160D03*
X007237Y007104D03*
X006513Y007100D03*
X006101Y006440D03*
X005929Y004992D03*
X007813Y004992D03*
D96*
X005931Y004996D03*
D97*
X007813Y004996D03*
D98*
X007809Y005000D03*
X007245Y006148D03*
X007645Y006444D03*
X007245Y007112D03*
X007665Y007720D03*
X007665Y007724D03*
X007665Y007728D03*
X007665Y007732D03*
X007665Y007740D03*
X007665Y007744D03*
X007665Y007748D03*
X007665Y007752D03*
X007665Y007760D03*
X007665Y007764D03*
X007665Y007768D03*
X007665Y007772D03*
X007665Y007780D03*
X007665Y007784D03*
X007665Y007788D03*
X007665Y007792D03*
X007665Y007800D03*
X007665Y007804D03*
X007665Y007808D03*
X007665Y007812D03*
X007665Y007820D03*
X007665Y007824D03*
X007665Y007828D03*
X007665Y007832D03*
X007665Y007840D03*
X007665Y007844D03*
X007665Y007848D03*
X007665Y007852D03*
X007665Y007860D03*
X007665Y007864D03*
X007665Y007868D03*
X007665Y007872D03*
X007665Y007880D03*
X007665Y007884D03*
X007665Y007888D03*
X007665Y007892D03*
X007665Y007900D03*
X007665Y007904D03*
X007665Y007908D03*
X007665Y007912D03*
X007665Y007920D03*
X007665Y007924D03*
X007665Y007928D03*
X007665Y007932D03*
X007665Y007940D03*
X007665Y007944D03*
X007665Y007948D03*
X007665Y007952D03*
X007665Y007960D03*
X007665Y007964D03*
X007665Y007968D03*
X007665Y007972D03*
X007665Y007980D03*
X007665Y007984D03*
X007665Y007988D03*
X007665Y007992D03*
X007665Y008000D03*
X007665Y008004D03*
X007665Y008008D03*
X007665Y008012D03*
X007665Y008020D03*
X007665Y008024D03*
X007665Y008028D03*
X007665Y008032D03*
X007665Y008040D03*
X007665Y008044D03*
X007665Y008048D03*
X007665Y008052D03*
X007665Y008060D03*
X007665Y008064D03*
X007665Y008068D03*
X007665Y008072D03*
X007665Y008080D03*
X007665Y008084D03*
X007665Y008088D03*
X007665Y008092D03*
X007665Y008100D03*
X007665Y008104D03*
X007665Y008108D03*
X007665Y008112D03*
X007665Y008120D03*
X007665Y008124D03*
X007665Y008128D03*
X007665Y008132D03*
X007665Y008140D03*
X007665Y008144D03*
X007665Y008148D03*
X007665Y008152D03*
X007665Y008160D03*
X007665Y008164D03*
X007665Y008168D03*
X007665Y008172D03*
X007665Y008180D03*
X007665Y008184D03*
X007665Y008188D03*
X007665Y008192D03*
X007665Y008200D03*
X007665Y008204D03*
X007665Y008208D03*
X007665Y008212D03*
X007665Y008220D03*
X007665Y008224D03*
X007665Y008228D03*
X007665Y008232D03*
X007665Y008240D03*
X007665Y008244D03*
X007665Y008248D03*
X007665Y008252D03*
X007665Y008260D03*
X007665Y008264D03*
X007665Y008268D03*
X007665Y008272D03*
X007665Y008280D03*
X007665Y008284D03*
X007665Y008288D03*
X007665Y008292D03*
X007665Y008300D03*
X007665Y008304D03*
X007665Y008308D03*
X007665Y008312D03*
X007665Y008320D03*
X007665Y008324D03*
X007665Y008328D03*
X007665Y008332D03*
X007665Y008340D03*
X007665Y008344D03*
X007665Y008348D03*
X007665Y008352D03*
X007665Y008360D03*
X007665Y008364D03*
X007665Y008368D03*
X007665Y008372D03*
X007665Y008380D03*
X007665Y008384D03*
X007665Y008388D03*
X007665Y008392D03*
X007665Y008400D03*
X007665Y008404D03*
X007665Y008408D03*
X007665Y008412D03*
X007665Y008420D03*
X007665Y008424D03*
X007665Y008428D03*
X007665Y008432D03*
X007665Y008440D03*
X007665Y008444D03*
X007665Y008448D03*
X007665Y008452D03*
X007665Y008460D03*
X007665Y008464D03*
X007665Y008468D03*
X007665Y008472D03*
X007665Y008480D03*
X007665Y008484D03*
X007665Y008488D03*
X007665Y008492D03*
X007665Y008504D03*
X006505Y007108D03*
X006505Y006148D03*
X005933Y005000D03*
D99*
X005935Y005004D03*
X006499Y006140D03*
X007251Y007120D03*
X007659Y007704D03*
X007807Y005004D03*
D100*
X007803Y005008D03*
X008607Y006384D03*
X008047Y007040D03*
X007655Y007700D03*
X007255Y007124D03*
X006495Y007120D03*
X006083Y007704D03*
X005143Y006380D03*
X005939Y005008D03*
D101*
X005939Y005012D03*
X007259Y005652D03*
X007259Y005660D03*
X007259Y005664D03*
X007259Y005668D03*
X007259Y005672D03*
X007259Y005680D03*
X007259Y005684D03*
X007259Y005688D03*
X007259Y005692D03*
X007259Y005700D03*
X007259Y005704D03*
X007259Y005708D03*
X007259Y005712D03*
X007259Y005720D03*
X007259Y005724D03*
X007259Y005728D03*
X007259Y005732D03*
X007259Y005740D03*
X007259Y005744D03*
X007259Y005748D03*
X007259Y005752D03*
X007259Y005760D03*
X007259Y005764D03*
X007259Y005768D03*
X007259Y005772D03*
X007259Y005780D03*
X007259Y005784D03*
X007259Y005788D03*
X007259Y005792D03*
X007259Y005800D03*
X007259Y005804D03*
X007259Y005808D03*
X007259Y005812D03*
X007259Y005820D03*
X007259Y005824D03*
X007259Y005828D03*
X007259Y005832D03*
X007259Y005840D03*
X007259Y005844D03*
X007259Y005848D03*
X007259Y005852D03*
X007259Y005860D03*
X007259Y005864D03*
X007259Y005868D03*
X007259Y005872D03*
X007259Y005880D03*
X007259Y005884D03*
X007259Y005888D03*
X007259Y005892D03*
X007259Y005900D03*
X007259Y005904D03*
X007259Y005908D03*
X007259Y005912D03*
X007259Y005920D03*
X007259Y005924D03*
X007259Y005928D03*
X007259Y005932D03*
X007259Y005940D03*
X007259Y005944D03*
X007259Y005948D03*
X007259Y005952D03*
X007259Y005960D03*
X007259Y005964D03*
X007259Y005968D03*
X007259Y005972D03*
X007259Y005980D03*
X007259Y005984D03*
X007259Y005988D03*
X007259Y005992D03*
X007259Y006000D03*
X007259Y006004D03*
X007259Y006008D03*
X007259Y006012D03*
X007259Y006020D03*
X007259Y006024D03*
X007259Y006028D03*
X007259Y006032D03*
X007259Y006040D03*
X007259Y006044D03*
X007259Y006048D03*
X007259Y006052D03*
X007259Y006060D03*
X007259Y006064D03*
X007259Y006068D03*
X007259Y006072D03*
X007259Y006080D03*
X007259Y006084D03*
X007259Y006088D03*
X007259Y006092D03*
X007259Y006100D03*
X007259Y006104D03*
X007259Y006108D03*
X007259Y006112D03*
X007259Y006120D03*
X007647Y006452D03*
X008607Y006388D03*
X007803Y005012D03*
X006099Y006452D03*
D102*
X005941Y005016D03*
X007645Y006456D03*
X007801Y005016D03*
D103*
X007797Y005020D03*
X005945Y005020D03*
X005705Y007032D03*
X007269Y007140D03*
X008045Y007032D03*
D104*
X008047Y007028D03*
X006475Y005632D03*
X005947Y005024D03*
X006103Y007680D03*
D105*
X006477Y007140D03*
X005705Y007028D03*
X007645Y006460D03*
X008597Y006400D03*
X007637Y007680D03*
X007797Y005024D03*
D106*
X006471Y005628D03*
X005951Y005028D03*
X006471Y007148D03*
X007631Y007672D03*
D107*
X007277Y007148D03*
X006473Y007144D03*
X005153Y006400D03*
X007277Y005632D03*
X007793Y005028D03*
D108*
X006467Y005624D03*
X005951Y005032D03*
X006467Y007152D03*
X006111Y007672D03*
X007627Y007668D03*
D109*
X007645Y006464D03*
X007281Y005628D03*
X007789Y005032D03*
X008593Y006408D03*
X005157Y006404D03*
D110*
X006463Y007156D03*
X005955Y005036D03*
D111*
X007789Y005036D03*
D112*
X007785Y005040D03*
X006457Y005612D03*
X005957Y005040D03*
X007645Y006472D03*
X006457Y007164D03*
X006121Y007660D03*
D113*
X007295Y007168D03*
X007295Y005612D03*
X007783Y005044D03*
X005959Y005044D03*
D114*
X005961Y005048D03*
X007301Y005604D03*
X007781Y005048D03*
X008585Y006424D03*
X007609Y007648D03*
X006449Y007172D03*
X005705Y007012D03*
D115*
X006445Y005600D03*
X005965Y005052D03*
X007305Y005600D03*
X007777Y005052D03*
X007605Y007644D03*
D116*
X007777Y005056D03*
X005965Y005056D03*
D117*
X005967Y005060D03*
X006435Y005588D03*
X007315Y005588D03*
X007775Y005060D03*
X007647Y006484D03*
X007315Y007192D03*
X007595Y007632D03*
X006435Y007188D03*
X005703Y007004D03*
D118*
X006431Y007192D03*
X007591Y007628D03*
X007771Y005064D03*
X005971Y005064D03*
D119*
X005973Y005068D03*
X006101Y006492D03*
X005705Y007000D03*
X005177Y006444D03*
X006425Y007200D03*
X007585Y007620D03*
X008573Y006444D03*
D120*
X007647Y006488D03*
X007771Y005068D03*
D121*
X007327Y005572D03*
X006423Y005572D03*
X005975Y005072D03*
X008047Y007000D03*
X007327Y007204D03*
X006155Y007624D03*
D122*
X007329Y007208D03*
X007645Y006492D03*
X008573Y006448D03*
X007769Y005072D03*
D123*
X007765Y005076D03*
X005977Y005076D03*
X005705Y006996D03*
X006161Y007616D03*
X008045Y006996D03*
D124*
X007339Y007220D03*
X007339Y005560D03*
X005979Y005080D03*
D125*
X007765Y005080D03*
X008045Y006992D03*
X007573Y007608D03*
X005705Y006992D03*
D126*
X006099Y006500D03*
X005983Y005084D03*
D127*
X007761Y005084D03*
X007341Y007224D03*
X006169Y007608D03*
D128*
X006099Y006504D03*
X006403Y005552D03*
X005983Y005088D03*
X007347Y005552D03*
X007759Y005088D03*
D129*
X007755Y005092D03*
X007351Y005548D03*
X007647Y006504D03*
X005987Y005092D03*
D130*
X005989Y005096D03*
D131*
X007755Y005096D03*
X006395Y007236D03*
D132*
X006389Y007240D03*
X006189Y007584D03*
X006101Y006512D03*
X005989Y005100D03*
D133*
X006387Y005532D03*
X007751Y005100D03*
X006387Y007244D03*
D134*
X006385Y007248D03*
X006193Y007580D03*
X005201Y006480D03*
X005993Y005104D03*
X007749Y005104D03*
D135*
X007371Y005524D03*
X006379Y005524D03*
X005995Y005108D03*
X005203Y006484D03*
X006379Y007252D03*
X008551Y006484D03*
D136*
X007369Y005528D03*
X007749Y005108D03*
D137*
X007743Y005112D03*
X007375Y005520D03*
X006375Y005520D03*
X005999Y005112D03*
X008047Y006972D03*
X006203Y007568D03*
D138*
X007379Y005516D03*
X007743Y005116D03*
X005999Y005116D03*
D139*
X006003Y005120D03*
X007739Y005120D03*
X007383Y007272D03*
D140*
X007389Y007280D03*
X008045Y006964D03*
X007389Y005504D03*
X007737Y005124D03*
X006005Y005124D03*
X005213Y006500D03*
D141*
X005215Y006504D03*
X006359Y005500D03*
X006007Y005128D03*
X007391Y005500D03*
X007735Y005128D03*
X008539Y006500D03*
X007519Y007544D03*
X006219Y007552D03*
D142*
X006225Y007544D03*
X006353Y007284D03*
X007397Y007288D03*
X008045Y006960D03*
X008537Y006508D03*
X007733Y005132D03*
X006009Y005132D03*
X005217Y006508D03*
D143*
X006013Y005136D03*
X008045Y006956D03*
X007401Y007296D03*
D144*
X007731Y005136D03*
D145*
X006015Y005140D03*
X007407Y007300D03*
X006235Y007532D03*
D146*
X007505Y007528D03*
X007405Y005484D03*
X007729Y005140D03*
X006345Y005484D03*
D147*
X006015Y005144D03*
X007727Y005144D03*
X007411Y007304D03*
X006339Y007300D03*
D148*
X006335Y007304D03*
X006243Y007524D03*
X007415Y005472D03*
X007723Y005148D03*
X006019Y005148D03*
D149*
X006019Y005152D03*
X007723Y005152D03*
X005707Y006944D03*
X006247Y007520D03*
D150*
X006023Y005156D03*
D151*
X007721Y005156D03*
X006325Y007316D03*
D152*
X006257Y007508D03*
X005705Y006940D03*
X007429Y007328D03*
X007717Y005160D03*
X006025Y005160D03*
D153*
X006027Y005164D03*
X007435Y005448D03*
X007715Y005164D03*
X006315Y007328D03*
D154*
X006031Y005168D03*
D155*
X006313Y005448D03*
X007713Y005168D03*
X006313Y007332D03*
X007473Y007492D03*
D156*
X007467Y007484D03*
X007711Y005172D03*
X006031Y005172D03*
D157*
X006035Y005176D03*
X007447Y005436D03*
X007707Y005176D03*
D158*
X006297Y005432D03*
X006037Y005180D03*
X005705Y006924D03*
X007457Y007472D03*
X008045Y006928D03*
D159*
X007451Y007352D03*
X006299Y007348D03*
X006279Y007484D03*
X007451Y005432D03*
X007707Y005180D03*
D160*
X007701Y005184D03*
X007457Y005424D03*
X006037Y005184D03*
D161*
X006041Y005188D03*
X007461Y005420D03*
X007701Y005188D03*
X005705Y006920D03*
X006289Y007364D03*
X006289Y007368D03*
X006289Y007372D03*
X006289Y007380D03*
X006289Y007384D03*
X006289Y007388D03*
X006289Y007392D03*
X006289Y007400D03*
X006289Y007404D03*
X006289Y007408D03*
X006289Y007412D03*
X006289Y007420D03*
X006289Y007424D03*
X006289Y007428D03*
X006289Y007432D03*
X006289Y007440D03*
X006289Y007444D03*
X006289Y007448D03*
X006289Y007452D03*
X006289Y007460D03*
X006289Y007464D03*
X006289Y007468D03*
X006289Y007472D03*
D162*
X006043Y005192D03*
X007699Y005192D03*
D163*
X006045Y005196D03*
X005705Y006916D03*
D164*
X007695Y005196D03*
D165*
X007695Y005200D03*
X007475Y005404D03*
X006047Y005200D03*
D166*
X006049Y005204D03*
X005705Y006908D03*
X008045Y006912D03*
D167*
X007695Y005204D03*
D168*
X006051Y005208D03*
D169*
X007689Y005208D03*
X008045Y006908D03*
D170*
X007487Y005388D03*
X007687Y005212D03*
X006263Y005392D03*
X006055Y005212D03*
D171*
X006059Y005216D03*
D172*
X007685Y005216D03*
D173*
X007683Y005220D03*
X006059Y005220D03*
D174*
X006061Y005224D03*
X007501Y005372D03*
X008045Y006900D03*
D175*
X007679Y005224D03*
D176*
X007679Y005228D03*
X006063Y005228D03*
D177*
X006067Y005232D03*
X006239Y005364D03*
X007675Y005232D03*
D178*
X007673Y005236D03*
X006069Y005236D03*
D179*
X006071Y005240D03*
X007671Y005240D03*
D180*
X007669Y005244D03*
X007525Y005344D03*
X006073Y005244D03*
X005705Y006884D03*
D181*
X006219Y005340D03*
X006075Y005248D03*
X007667Y005248D03*
D182*
X007535Y005332D03*
X006079Y005252D03*
D183*
X007665Y005252D03*
X005705Y006880D03*
D184*
X005705Y006876D03*
X006213Y005336D03*
X006081Y005256D03*
D185*
X007659Y005256D03*
D186*
X007657Y005260D03*
X007637Y005272D03*
X007621Y005280D03*
X007609Y005288D03*
X007589Y005300D03*
X007573Y005308D03*
X007545Y005324D03*
X006085Y005260D03*
D187*
X006093Y005264D03*
X006109Y005272D03*
X006125Y005280D03*
X006137Y005288D03*
X006145Y005292D03*
X006173Y005308D03*
X006181Y005312D03*
X006201Y005324D03*
X005705Y006872D03*
D188*
X006207Y005328D03*
X006131Y005284D03*
X007551Y005320D03*
X007567Y005312D03*
X007651Y005264D03*
D189*
X007643Y005268D03*
X007599Y005292D03*
X007579Y005304D03*
X006103Y005268D03*
D190*
X006115Y005276D03*
D191*
X007593Y005296D03*
X007629Y005276D03*
D192*
X007615Y005284D03*
D193*
X006153Y005296D03*
D194*
X006159Y005300D03*
X006167Y005304D03*
X006195Y005320D03*
D195*
X006187Y005316D03*
D196*
X007559Y005316D03*
X008043Y006876D03*
D197*
X008045Y006880D03*
X007541Y005328D03*
D198*
X006211Y005332D03*
D199*
X007533Y005336D03*
D200*
X007529Y005340D03*
X008045Y006884D03*
D201*
X006221Y005344D03*
D202*
X006223Y005348D03*
D203*
X007523Y005348D03*
D204*
X006229Y005352D03*
X008045Y006888D03*
D205*
X007519Y005352D03*
D206*
X006231Y005356D03*
D207*
X007515Y005356D03*
D208*
X006235Y005360D03*
D209*
X007513Y005360D03*
D210*
X007509Y005364D03*
D211*
X006241Y005368D03*
D212*
X006245Y005372D03*
X007505Y005368D03*
D213*
X006251Y005376D03*
D214*
X007497Y005376D03*
D215*
X006253Y005380D03*
X005705Y006900D03*
D216*
X006255Y005384D03*
X007495Y005380D03*
X008043Y006904D03*
D217*
X007491Y005384D03*
X006259Y005388D03*
D218*
X007483Y005392D03*
D219*
X006265Y005396D03*
D220*
X007481Y005396D03*
D221*
X006271Y005400D03*
D222*
X006273Y005404D03*
X007477Y005400D03*
X005705Y006912D03*
D223*
X006277Y005408D03*
D224*
X007471Y005408D03*
D225*
X006281Y005412D03*
D226*
X007467Y005412D03*
D227*
X007465Y005416D03*
X006285Y005416D03*
D228*
X006287Y005420D03*
D229*
X006291Y005424D03*
X006291Y007360D03*
D230*
X006295Y007352D03*
X006283Y007480D03*
X007455Y007468D03*
X007455Y007464D03*
X007455Y007460D03*
X007455Y007452D03*
X007455Y007448D03*
X007455Y007444D03*
X007455Y007440D03*
X007455Y007432D03*
X007455Y007428D03*
X007455Y007424D03*
X007455Y007420D03*
X007455Y007412D03*
X007455Y007408D03*
X007455Y007404D03*
X007455Y007400D03*
X007455Y007392D03*
X007455Y007388D03*
X007455Y007384D03*
X007455Y007380D03*
X007455Y007372D03*
X007455Y007368D03*
X007455Y007364D03*
X007455Y007360D03*
X006295Y005428D03*
D231*
X007453Y005428D03*
D232*
X006301Y005436D03*
D233*
X006305Y005440D03*
X008045Y006932D03*
X006305Y007340D03*
X006273Y007492D03*
D234*
X007443Y007344D03*
X007443Y005440D03*
D235*
X007441Y005444D03*
X006309Y005444D03*
X005705Y006932D03*
X007441Y007340D03*
X007469Y007488D03*
D236*
X008045Y006940D03*
X006261Y007504D03*
X006317Y005452D03*
D237*
X007433Y005452D03*
X007433Y007332D03*
D238*
X006319Y005456D03*
D239*
X007429Y005456D03*
D240*
X006323Y005460D03*
X006323Y007320D03*
X006255Y007512D03*
X007427Y007324D03*
X007483Y007504D03*
D241*
X008045Y006944D03*
X007425Y005460D03*
D242*
X006327Y005464D03*
X007487Y007508D03*
D243*
X007423Y007320D03*
X007423Y005464D03*
D244*
X007421Y005468D03*
X006329Y005468D03*
X006329Y007312D03*
D245*
X006333Y007308D03*
X007417Y007312D03*
X008045Y006948D03*
X006333Y005472D03*
D246*
X006337Y005476D03*
D247*
X007413Y005476D03*
D248*
X006341Y005480D03*
X007501Y007524D03*
D249*
X005705Y006952D03*
X007409Y005480D03*
D250*
X006347Y005488D03*
X006347Y007292D03*
X008535Y006512D03*
D251*
X007401Y005488D03*
X006349Y007288D03*
X006229Y007540D03*
X007509Y007532D03*
D252*
X006351Y005492D03*
D253*
X007399Y005492D03*
X007399Y007292D03*
D254*
X007395Y005496D03*
X006355Y005496D03*
D255*
X006361Y005504D03*
X007521Y007548D03*
D256*
X005705Y006964D03*
X006365Y005508D03*
X007385Y005508D03*
D257*
X007381Y005512D03*
X006369Y005512D03*
X006369Y007264D03*
X007381Y007268D03*
D258*
X006371Y005516D03*
D259*
X006383Y005528D03*
X007647Y006512D03*
X007367Y007252D03*
X007543Y007572D03*
X008555Y006480D03*
D260*
X007363Y007248D03*
X007363Y005532D03*
D261*
X007361Y005536D03*
X006389Y005536D03*
D262*
X006393Y005540D03*
X007357Y005540D03*
X007645Y006508D03*
X007553Y007584D03*
X006185Y007588D03*
X005705Y006980D03*
D263*
X006101Y006508D03*
X006397Y007232D03*
X006181Y007592D03*
X007557Y007588D03*
X008045Y006984D03*
X008561Y006468D03*
X006397Y005544D03*
D264*
X007353Y005544D03*
X005193Y006468D03*
D265*
X006401Y007228D03*
X007561Y007592D03*
X008561Y006464D03*
X006401Y005548D03*
D266*
X006407Y005556D03*
D267*
X007343Y005556D03*
D268*
X006411Y005560D03*
X007571Y007604D03*
D269*
X006415Y007212D03*
X006163Y007612D03*
X005183Y006452D03*
X006415Y005564D03*
X007335Y005564D03*
X008567Y006452D03*
D270*
X007331Y007212D03*
X007579Y007612D03*
X006159Y007620D03*
X006419Y005568D03*
X007331Y005568D03*
D271*
X007325Y005576D03*
X006425Y005576D03*
D272*
X006429Y005580D03*
X007321Y005580D03*
X006101Y006488D03*
X005177Y006440D03*
X006149Y007628D03*
X007321Y007200D03*
X007589Y007624D03*
D273*
X008045Y007004D03*
X007317Y005584D03*
X006433Y005584D03*
D274*
X006439Y005592D03*
X007311Y005592D03*
X006099Y006484D03*
X007311Y007188D03*
X008047Y007008D03*
X008579Y006432D03*
D275*
X007307Y005596D03*
X006443Y005596D03*
D276*
X006451Y005604D03*
D277*
X006453Y005608D03*
X007297Y005608D03*
X008585Y006420D03*
X007297Y007172D03*
X007613Y007652D03*
X006453Y007168D03*
D278*
X006461Y005616D03*
D279*
X007291Y005616D03*
D280*
X007285Y005624D03*
X006465Y005620D03*
X007645Y006468D03*
X008045Y007024D03*
X005157Y006408D03*
D281*
X006115Y007668D03*
X007287Y007160D03*
X007623Y007664D03*
X008591Y006412D03*
X007287Y005620D03*
D282*
X006477Y005636D03*
D283*
X007275Y005636D03*
X007635Y007676D03*
D284*
X006483Y007132D03*
X006095Y007688D03*
X005151Y006392D03*
X006483Y005640D03*
X007267Y005644D03*
D285*
X007271Y005640D03*
X006099Y007684D03*
D286*
X006093Y007692D03*
X007645Y007688D03*
X008601Y006392D03*
X007265Y005648D03*
X006485Y005644D03*
D287*
X006487Y005648D03*
X005147Y006388D03*
X007647Y007692D03*
D288*
X006491Y005652D03*
D289*
X006493Y005656D03*
X006493Y005676D03*
X006493Y005696D03*
X006493Y005716D03*
X006493Y005736D03*
X006493Y005756D03*
X006493Y005776D03*
X006493Y005796D03*
X006493Y005816D03*
X006493Y005836D03*
X006493Y005856D03*
X006493Y005876D03*
X006493Y005896D03*
X006493Y005916D03*
X006493Y005936D03*
X006493Y005956D03*
X006493Y005976D03*
X006493Y005996D03*
X006493Y006016D03*
X006493Y006036D03*
X006493Y006056D03*
X006493Y006076D03*
X006493Y006096D03*
X006493Y006116D03*
X007257Y006136D03*
D290*
X007259Y006116D03*
X007259Y006096D03*
X007259Y006076D03*
X007259Y006056D03*
X007259Y006036D03*
X007259Y006016D03*
X007259Y005996D03*
X007259Y005976D03*
X007259Y005956D03*
X007259Y005936D03*
X007259Y005916D03*
X007259Y005896D03*
X007259Y005876D03*
X007259Y005856D03*
X007259Y005836D03*
X007259Y005816D03*
X007259Y005796D03*
X007259Y005776D03*
X007259Y005756D03*
X007259Y005736D03*
X007259Y005716D03*
X007259Y005696D03*
X007259Y005676D03*
X007259Y005656D03*
D291*
X007257Y006124D03*
X007257Y006128D03*
X007257Y006132D03*
X006493Y006132D03*
X006493Y006128D03*
X006493Y006124D03*
X006493Y006120D03*
X006493Y006112D03*
X006493Y006108D03*
X006493Y006104D03*
X006493Y006100D03*
X006493Y006092D03*
X006493Y006088D03*
X006493Y006084D03*
X006493Y006080D03*
X006493Y006072D03*
X006493Y006068D03*
X006493Y006064D03*
X006493Y006060D03*
X006493Y006052D03*
X006493Y006048D03*
X006493Y006044D03*
X006493Y006040D03*
X006493Y006032D03*
X006493Y006028D03*
X006493Y006024D03*
X006493Y006020D03*
X006493Y006012D03*
X006493Y006008D03*
X006493Y006004D03*
X006493Y006000D03*
X006493Y005992D03*
X006493Y005988D03*
X006493Y005984D03*
X006493Y005980D03*
X006493Y005972D03*
X006493Y005968D03*
X006493Y005964D03*
X006493Y005960D03*
X006493Y005952D03*
X006493Y005948D03*
X006493Y005944D03*
X006493Y005940D03*
X006493Y005932D03*
X006493Y005928D03*
X006493Y005924D03*
X006493Y005920D03*
X006493Y005912D03*
X006493Y005908D03*
X006493Y005904D03*
X006493Y005900D03*
X006493Y005892D03*
X006493Y005888D03*
X006493Y005884D03*
X006493Y005880D03*
X006493Y005872D03*
X006493Y005868D03*
X006493Y005864D03*
X006493Y005860D03*
X006493Y005852D03*
X006493Y005848D03*
X006493Y005844D03*
X006493Y005840D03*
X006493Y005832D03*
X006493Y005828D03*
X006493Y005824D03*
X006493Y005820D03*
X006493Y005812D03*
X006493Y005808D03*
X006493Y005804D03*
X006493Y005800D03*
X006493Y005792D03*
X006493Y005788D03*
X006493Y005784D03*
X006493Y005780D03*
X006493Y005772D03*
X006493Y005768D03*
X006493Y005764D03*
X006493Y005760D03*
X006493Y005752D03*
X006493Y005748D03*
X006493Y005744D03*
X006493Y005740D03*
X006493Y005732D03*
X006493Y005728D03*
X006493Y005724D03*
X006493Y005720D03*
X006493Y005712D03*
X006493Y005708D03*
X006493Y005704D03*
X006493Y005700D03*
X006493Y005692D03*
X006493Y005688D03*
X006493Y005684D03*
X006493Y005680D03*
X006493Y005672D03*
X006493Y005668D03*
X006493Y005664D03*
X006493Y005660D03*
X005145Y006384D03*
X006493Y007124D03*
X006085Y007700D03*
X007257Y007128D03*
D292*
X006785Y006788D03*
X006101Y006284D03*
X005005Y006128D03*
X005797Y008512D03*
X006353Y008512D03*
D293*
X006967Y006792D03*
X006967Y006472D03*
X006783Y006468D03*
X005003Y006132D03*
D294*
X006785Y006472D03*
X006785Y006792D03*
X008749Y006132D03*
D295*
X005003Y006136D03*
D296*
X006495Y006136D03*
D297*
X006969Y006796D03*
X008749Y006136D03*
D298*
X007253Y006140D03*
D299*
X005009Y006144D03*
D300*
X006099Y006448D03*
X006503Y006144D03*
X007247Y006144D03*
X008047Y007044D03*
X007663Y007712D03*
X007663Y008500D03*
X006075Y008500D03*
X006075Y008504D03*
X006075Y008492D03*
X006075Y008488D03*
X006075Y008484D03*
X006075Y008480D03*
X006075Y008472D03*
X006075Y008468D03*
X006075Y008464D03*
X006075Y008460D03*
X006075Y008452D03*
X006075Y008448D03*
X006075Y008444D03*
X006075Y008440D03*
X006075Y008432D03*
X006075Y008428D03*
X006075Y008424D03*
X006075Y008420D03*
X006075Y008412D03*
X006075Y008408D03*
X006075Y008404D03*
X006075Y008400D03*
X006075Y008392D03*
X006075Y008388D03*
X006075Y008384D03*
X006075Y008380D03*
X006075Y008372D03*
X006075Y008368D03*
X006075Y008364D03*
X006075Y008360D03*
X006075Y008352D03*
X006075Y008348D03*
X006075Y008344D03*
X006075Y008340D03*
X006075Y008332D03*
X006075Y008328D03*
X006075Y008324D03*
X006075Y008320D03*
X006075Y008312D03*
X006075Y008308D03*
X006075Y008304D03*
X006075Y008300D03*
X006075Y008292D03*
X006075Y008288D03*
X006075Y008284D03*
X006075Y008280D03*
X006075Y008272D03*
X006075Y008268D03*
X006075Y008264D03*
X006075Y008260D03*
X006075Y008252D03*
X006075Y008248D03*
X006075Y008244D03*
X006075Y008240D03*
X006075Y008232D03*
X006075Y008228D03*
X006075Y008224D03*
X006075Y008220D03*
X006075Y008212D03*
X006075Y008208D03*
X006075Y008204D03*
X006075Y008200D03*
X006075Y008192D03*
X006075Y008188D03*
X006075Y008184D03*
X006075Y008180D03*
X006075Y008172D03*
X006075Y008168D03*
X006075Y008164D03*
X006075Y008160D03*
X006075Y008152D03*
X006075Y008148D03*
X006075Y008144D03*
X006075Y008140D03*
X006075Y008132D03*
X006075Y008128D03*
X006075Y008124D03*
X006075Y008120D03*
X006075Y008112D03*
X006075Y008108D03*
X006075Y008104D03*
X006075Y008100D03*
X006075Y008092D03*
X006075Y008088D03*
X006075Y008084D03*
X006075Y008080D03*
X006075Y008072D03*
X006075Y008068D03*
X006075Y008064D03*
X006075Y008060D03*
X006075Y008052D03*
X006075Y008048D03*
X006075Y008044D03*
X006075Y008040D03*
X006075Y008032D03*
X006075Y008028D03*
X006075Y008024D03*
X006075Y008020D03*
X006075Y008012D03*
X006075Y008008D03*
X006075Y008004D03*
X006075Y008000D03*
X006075Y007992D03*
X006075Y007988D03*
X006075Y007984D03*
X006075Y007980D03*
X006075Y007972D03*
X006075Y007968D03*
X006075Y007964D03*
X006075Y007960D03*
X006075Y007952D03*
X006075Y007948D03*
X006075Y007944D03*
X006075Y007940D03*
X006075Y007932D03*
X006075Y007928D03*
X006075Y007924D03*
X006075Y007920D03*
X006075Y007912D03*
X006075Y007908D03*
X006075Y007904D03*
X006075Y007900D03*
X006075Y007892D03*
X006075Y007888D03*
X006075Y007884D03*
X006075Y007880D03*
X006075Y007872D03*
X006075Y007868D03*
X006075Y007864D03*
X006075Y007860D03*
X006075Y007852D03*
X006075Y007848D03*
X006075Y007844D03*
X006075Y007840D03*
X006075Y007832D03*
X006075Y007828D03*
X006075Y007824D03*
X006075Y007820D03*
X006075Y007812D03*
X006075Y007808D03*
X006075Y007804D03*
X006075Y007800D03*
X006075Y007792D03*
X006075Y007788D03*
X006075Y007784D03*
X006075Y007780D03*
X006075Y007772D03*
X006075Y007768D03*
X006075Y007764D03*
X006075Y007760D03*
X006075Y007752D03*
X006075Y007748D03*
X006075Y007744D03*
X006075Y007740D03*
X006075Y007732D03*
X006075Y007728D03*
X006075Y007724D03*
X006075Y007720D03*
X006075Y007712D03*
X006503Y007112D03*
X005703Y007044D03*
D301*
X006767Y006812D03*
X006767Y006452D03*
X005011Y006148D03*
D302*
X005013Y006152D03*
X005705Y007192D03*
X008049Y007192D03*
D303*
X008613Y006372D03*
X006509Y006152D03*
X006101Y006444D03*
X005705Y007048D03*
X006509Y007104D03*
D304*
X007243Y007108D03*
X007243Y006152D03*
X005139Y006372D03*
D305*
X006763Y006448D03*
X006987Y006448D03*
X008739Y006152D03*
D306*
X005015Y006156D03*
D307*
X006513Y006156D03*
D308*
X007239Y006156D03*
D309*
X008737Y006156D03*
D310*
X008047Y007052D03*
X007235Y007100D03*
X006515Y006160D03*
X005131Y006364D03*
D311*
X005019Y006164D03*
D312*
X007233Y006164D03*
D313*
X007229Y006168D03*
D314*
X007011Y006420D03*
X006739Y006420D03*
X006739Y006844D03*
X007011Y006844D03*
X007643Y006312D03*
X006099Y006312D03*
X005023Y006172D03*
D315*
X006525Y006172D03*
X007225Y006172D03*
X007225Y007088D03*
D316*
X007009Y006424D03*
X008049Y007180D03*
X008729Y006172D03*
X005705Y007180D03*
D317*
X005027Y006176D03*
D318*
X006529Y006176D03*
D319*
X007223Y006176D03*
X008623Y006356D03*
D320*
X008725Y006176D03*
X007641Y006316D03*
X008049Y007176D03*
X005705Y007176D03*
D321*
X005705Y007172D03*
X005029Y006180D03*
X006729Y006408D03*
X007021Y006408D03*
X008049Y007172D03*
X008725Y006180D03*
D322*
X006531Y006180D03*
X006531Y007080D03*
D323*
X007217Y007080D03*
X007645Y006428D03*
X007217Y006180D03*
X008625Y006352D03*
X005125Y006348D03*
D324*
X005035Y006188D03*
X006719Y006400D03*
X006719Y006868D03*
X007643Y006324D03*
X008719Y006188D03*
D325*
X007035Y006392D03*
X007035Y006872D03*
X006715Y006872D03*
X005035Y006192D03*
D326*
X006541Y006192D03*
X006541Y007068D03*
D327*
X005705Y007064D03*
X007209Y006192D03*
X007645Y006424D03*
X008629Y006344D03*
D328*
X008717Y006192D03*
X006101Y006324D03*
X005705Y007168D03*
D329*
X005037Y006196D03*
D330*
X005117Y006336D03*
X006545Y006196D03*
X007205Y006196D03*
D331*
X007039Y006876D03*
X008715Y006196D03*
D332*
X008049Y007160D03*
X007045Y006380D03*
X006705Y006884D03*
X005705Y007160D03*
X005041Y006200D03*
D333*
X005705Y007072D03*
X007201Y006200D03*
X007645Y006420D03*
X008049Y007072D03*
D334*
X007199Y007060D03*
X007199Y006204D03*
X006099Y006420D03*
X005115Y006332D03*
D335*
X005045Y006208D03*
X006697Y006892D03*
D336*
X006555Y007052D03*
X006555Y006208D03*
X007195Y006208D03*
X008635Y006332D03*
X005115Y006328D03*
D337*
X007053Y006892D03*
X008709Y006208D03*
D338*
X007643Y006340D03*
X008047Y007152D03*
X006099Y006340D03*
X005707Y007152D03*
X005047Y006212D03*
D339*
X006557Y006212D03*
D340*
X007057Y006368D03*
X008705Y006212D03*
D341*
X005049Y006216D03*
D342*
X006561Y006216D03*
D343*
X007187Y006216D03*
D344*
X008701Y006216D03*
D345*
X006683Y006908D03*
X005051Y006220D03*
D346*
X005053Y006224D03*
X008049Y007144D03*
D347*
X006567Y006224D03*
X005707Y007080D03*
D348*
X005057Y006228D03*
D349*
X006571Y006228D03*
D350*
X007081Y006340D03*
X007081Y006924D03*
X006669Y006924D03*
X005705Y007140D03*
X005057Y006232D03*
X008049Y007140D03*
X008693Y006232D03*
D351*
X006663Y006336D03*
X006099Y006356D03*
X005059Y006236D03*
D352*
X005705Y007136D03*
X007085Y006336D03*
X008049Y007136D03*
X008689Y006236D03*
D353*
X006659Y006332D03*
X005063Y006240D03*
D354*
X006581Y006240D03*
D355*
X006583Y006244D03*
X007167Y006240D03*
X007643Y006400D03*
X005707Y007088D03*
D356*
X005065Y006244D03*
D357*
X005097Y006304D03*
X006585Y007020D03*
X007165Y007020D03*
X007165Y006244D03*
X008049Y007092D03*
D358*
X007645Y006364D03*
X007101Y006948D03*
X006101Y006364D03*
X005705Y007128D03*
X005069Y006248D03*
D359*
X005069Y006252D03*
X005705Y007124D03*
X006645Y006952D03*
X007105Y006952D03*
X007105Y006312D03*
D360*
X008683Y006252D03*
D361*
X006639Y006956D03*
X005071Y006256D03*
D362*
X005093Y006296D03*
X006101Y006396D03*
X006593Y006256D03*
X005705Y007096D03*
D363*
X007155Y006256D03*
D364*
X008681Y006256D03*
D365*
X007151Y006260D03*
X006599Y006264D03*
X007151Y007004D03*
X005091Y006292D03*
D366*
X005075Y006264D03*
X007119Y006968D03*
D367*
X007147Y006264D03*
X006603Y006268D03*
X005091Y006288D03*
X008659Y006292D03*
D368*
X008669Y006272D03*
X005705Y007112D03*
X005077Y006268D03*
D369*
X005081Y006272D03*
X006621Y006292D03*
D370*
X007141Y006272D03*
X007141Y006992D03*
X006609Y006992D03*
X005705Y007104D03*
D371*
X005081Y006276D03*
D372*
X006609Y006276D03*
D373*
X007137Y006276D03*
D374*
X008669Y006276D03*
D375*
X008049Y007108D03*
X007137Y006988D03*
X006613Y006988D03*
X006613Y006280D03*
D376*
X006617Y006984D03*
X007645Y006380D03*
X008665Y006280D03*
D377*
X008047Y007104D03*
X005087Y006284D03*
D378*
X007643Y006284D03*
D379*
X006779Y006464D03*
X006099Y006288D03*
D380*
X007127Y006288D03*
X008047Y007112D03*
D381*
X007641Y006288D03*
D382*
X007123Y006292D03*
X007123Y006972D03*
D383*
X006765Y006816D03*
X006101Y006296D03*
D384*
X006101Y006376D03*
X005705Y007116D03*
X007121Y006296D03*
X007645Y006376D03*
X008049Y007116D03*
D385*
X007643Y006296D03*
D386*
X008657Y006296D03*
D387*
X007641Y006300D03*
X006761Y006444D03*
X006761Y006820D03*
X006101Y006300D03*
D388*
X007113Y006304D03*
X007113Y006960D03*
D389*
X007171Y007028D03*
X006579Y007024D03*
X005103Y006308D03*
X008047Y007088D03*
X008647Y006312D03*
D390*
X007109Y006308D03*
D391*
X006641Y006312D03*
X006101Y006368D03*
D392*
X005103Y006316D03*
X007179Y007036D03*
D393*
X007015Y006416D03*
X006735Y006416D03*
X006099Y006316D03*
D394*
X006643Y006316D03*
D395*
X008645Y006316D03*
D396*
X007643Y006320D03*
X006723Y006864D03*
X006099Y006320D03*
D397*
X006647Y006320D03*
X006647Y006948D03*
X008047Y007128D03*
D398*
X006651Y006944D03*
X006651Y006324D03*
D399*
X007039Y006388D03*
X006099Y006328D03*
D400*
X006101Y006336D03*
X005705Y007156D03*
D401*
X006699Y006376D03*
X007051Y006376D03*
X007643Y006336D03*
D402*
X008635Y006336D03*
D403*
X007641Y006344D03*
X006681Y006912D03*
X006101Y006344D03*
D404*
X006671Y006344D03*
X006671Y006920D03*
D405*
X007079Y006920D03*
X007079Y006344D03*
X007643Y006352D03*
X006099Y006352D03*
D406*
X006101Y006432D03*
X005125Y006352D03*
X007221Y007084D03*
X007645Y006432D03*
D407*
X005705Y007056D03*
X005129Y006356D03*
D408*
X006681Y006356D03*
D409*
X007067Y006356D03*
D410*
X007641Y006356D03*
D411*
X007063Y006360D03*
D412*
X006687Y006364D03*
X006687Y006904D03*
D413*
X007647Y006440D03*
X005135Y006368D03*
D414*
X006691Y006368D03*
X006691Y006900D03*
D415*
X007643Y006368D03*
D416*
X007055Y006372D03*
X006695Y006372D03*
D417*
X007247Y007116D03*
X007663Y007716D03*
X006075Y007716D03*
X006075Y007736D03*
X006075Y007756D03*
X006075Y007776D03*
X006075Y007796D03*
X006075Y007816D03*
X006075Y007836D03*
X006075Y007856D03*
X006075Y007876D03*
X006075Y007896D03*
X006075Y007916D03*
X006075Y007936D03*
X006075Y007956D03*
X006075Y007976D03*
X006075Y007996D03*
X006075Y008016D03*
X006075Y008036D03*
X006075Y008056D03*
X006075Y008076D03*
X006075Y008096D03*
X006075Y008116D03*
X006075Y008136D03*
X006075Y008156D03*
X006075Y008176D03*
X006075Y008196D03*
X006075Y008216D03*
X006075Y008236D03*
X006075Y008256D03*
X006075Y008276D03*
X006075Y008296D03*
X006075Y008316D03*
X006075Y008336D03*
X006075Y008356D03*
X006075Y008376D03*
X006075Y008396D03*
X006075Y008416D03*
X006075Y008436D03*
X006075Y008456D03*
X006075Y008476D03*
X006075Y008496D03*
X005139Y006376D03*
D418*
X007665Y007736D03*
X007665Y007756D03*
X007665Y007776D03*
X007665Y007796D03*
X007665Y007816D03*
X007665Y007836D03*
X007665Y007856D03*
X007665Y007876D03*
X007665Y007896D03*
X007665Y007916D03*
X007665Y007936D03*
X007665Y007956D03*
X007665Y007976D03*
X007665Y007996D03*
X007665Y008016D03*
X007665Y008036D03*
X007665Y008056D03*
X007665Y008076D03*
X007665Y008096D03*
X007665Y008116D03*
X007665Y008136D03*
X007665Y008156D03*
X007665Y008176D03*
X007665Y008196D03*
X007665Y008216D03*
X007665Y008236D03*
X007665Y008256D03*
X007665Y008276D03*
X007665Y008296D03*
X007665Y008316D03*
X007665Y008336D03*
X007665Y008356D03*
X007665Y008376D03*
X007665Y008396D03*
X007665Y008416D03*
X007665Y008436D03*
X007665Y008456D03*
X007665Y008476D03*
X007665Y008496D03*
X008613Y006376D03*
D419*
X008609Y006380D03*
X007645Y006448D03*
X006077Y007708D03*
D420*
X007043Y006880D03*
X007043Y006384D03*
D421*
X007643Y006388D03*
X006099Y006388D03*
D422*
X006709Y006388D03*
D423*
X005151Y006396D03*
D424*
X007031Y006396D03*
D425*
X007643Y006396D03*
X008047Y007096D03*
D426*
X007267Y007136D03*
X008599Y006396D03*
D427*
X006099Y006400D03*
D428*
X006101Y006404D03*
D429*
X006099Y006464D03*
X007279Y007152D03*
X008595Y006404D03*
D430*
X008047Y007084D03*
X006099Y006408D03*
D431*
X006461Y007160D03*
X007621Y007660D03*
X005161Y006412D03*
D432*
X006731Y006412D03*
D433*
X005705Y007016D03*
X005165Y006416D03*
X007617Y007656D03*
D434*
X006101Y006416D03*
D435*
X008589Y006416D03*
D436*
X006127Y007652D03*
X005167Y006420D03*
D437*
X005167Y006424D03*
X006131Y007648D03*
D438*
X007203Y007064D03*
X006099Y006424D03*
D439*
X006443Y007180D03*
X006135Y007644D03*
X007603Y007640D03*
X008047Y007012D03*
X008583Y006428D03*
X005171Y006428D03*
D440*
X005173Y006432D03*
D441*
X005175Y006436D03*
X006143Y007636D03*
X008579Y006436D03*
D442*
X008047Y007056D03*
X007643Y006436D03*
X006099Y006436D03*
D443*
X006753Y006436D03*
D444*
X006999Y006436D03*
D445*
X006147Y007632D03*
X008575Y006440D03*
D446*
X006991Y006444D03*
X006991Y006820D03*
D447*
X006421Y007204D03*
X005181Y006448D03*
D448*
X005187Y006456D03*
X008567Y006456D03*
D449*
X006099Y006456D03*
D450*
X006771Y006456D03*
D451*
X006979Y006456D03*
D452*
X006407Y007220D03*
X007567Y007600D03*
X005187Y006460D03*
D453*
X006101Y006460D03*
X007641Y007684D03*
D454*
X006977Y006804D03*
X006977Y006460D03*
X006773Y006460D03*
D455*
X006405Y007224D03*
X006173Y007604D03*
X005705Y006988D03*
X007345Y007228D03*
X007645Y006500D03*
X008565Y006460D03*
D456*
X008045Y006988D03*
X007349Y007232D03*
X006177Y007600D03*
X005705Y006984D03*
X005189Y006464D03*
D457*
X006973Y006464D03*
X006973Y006800D03*
D458*
X006099Y006468D03*
X005703Y007024D03*
D459*
X005195Y006472D03*
X007359Y007244D03*
X008043Y006980D03*
X008559Y006472D03*
D460*
X008047Y007020D03*
X007291Y007164D03*
X006099Y006472D03*
D461*
X005199Y006476D03*
D462*
X006099Y006476D03*
X007299Y007176D03*
D463*
X007645Y006476D03*
D464*
X008555Y006476D03*
X007547Y007576D03*
D465*
X007303Y007180D03*
X006099Y006480D03*
D466*
X005705Y007008D03*
X006137Y007640D03*
X007309Y007184D03*
X007645Y006480D03*
D467*
X007377Y007264D03*
X007533Y007560D03*
X006373Y007260D03*
X005705Y006968D03*
X005205Y006488D03*
X008549Y006488D03*
D468*
X008547Y006492D03*
X008047Y006968D03*
X006207Y007564D03*
X005207Y006492D03*
D469*
X005209Y006496D03*
X008545Y006496D03*
D470*
X006099Y006496D03*
D471*
X007335Y007216D03*
X007647Y006496D03*
D472*
X008537Y006504D03*
X006357Y007280D03*
X005705Y006960D03*
D473*
X005219Y006512D03*
D474*
X005223Y006516D03*
X006343Y007296D03*
X008531Y006516D03*
D475*
X006099Y006516D03*
D476*
X007647Y006516D03*
D477*
X008043Y006708D03*
X005643Y006520D03*
D478*
X008105Y006520D03*
D479*
X005647Y006524D03*
D480*
X005705Y006700D03*
X008101Y006524D03*
D481*
X008043Y006704D03*
X005647Y006528D03*
D482*
X008099Y006528D03*
D483*
X005651Y006532D03*
D484*
X008045Y006700D03*
X008097Y006532D03*
D485*
X005705Y006696D03*
X005653Y006536D03*
D486*
X008095Y006536D03*
D487*
X005655Y006540D03*
D488*
X005657Y006544D03*
X008093Y006540D03*
D489*
X008091Y006544D03*
D490*
X005705Y006688D03*
X005661Y006548D03*
D491*
X008043Y006688D03*
X008087Y006548D03*
D492*
X005661Y006552D03*
D493*
X008087Y006552D03*
D494*
X005663Y006556D03*
D495*
X008085Y006556D03*
D496*
X005667Y006560D03*
D497*
X008081Y006560D03*
D498*
X005669Y006564D03*
D499*
X008043Y006680D03*
X008079Y006564D03*
D500*
X005671Y006568D03*
D501*
X008079Y006568D03*
D502*
X005705Y006672D03*
X005673Y006572D03*
D503*
X005703Y006668D03*
X008043Y006672D03*
X008075Y006572D03*
D504*
X005673Y006576D03*
D505*
X008073Y006576D03*
D506*
X005677Y006580D03*
D507*
X008071Y006580D03*
D508*
X008045Y006668D03*
X005681Y006584D03*
D509*
X008067Y006584D03*
D510*
X005705Y006664D03*
X005681Y006588D03*
D511*
X008043Y006664D03*
X008067Y006588D03*
D512*
X005705Y006660D03*
X005685Y006592D03*
D513*
X008043Y006660D03*
X008063Y006592D03*
D514*
X005703Y006656D03*
X005687Y006596D03*
D515*
X008061Y006596D03*
D516*
X005687Y006600D03*
D517*
X008061Y006600D03*
D518*
X005691Y006604D03*
D519*
X005693Y006608D03*
X005705Y006648D03*
X008045Y006652D03*
X008057Y006604D03*
D520*
X008055Y006608D03*
X008043Y006648D03*
D521*
X005695Y006612D03*
D522*
X008053Y006612D03*
D523*
X005697Y006616D03*
D524*
X008051Y006616D03*
D525*
X008043Y006644D03*
X005699Y006620D03*
D526*
X008049Y006620D03*
D527*
X005703Y006624D03*
X005703Y006628D03*
X005703Y006632D03*
D528*
X008043Y006640D03*
X008047Y006624D03*
D529*
X008045Y006628D03*
D530*
X008043Y006632D03*
D531*
X005703Y006636D03*
D532*
X008043Y006636D03*
D533*
X005705Y006640D03*
D534*
X005705Y006644D03*
D535*
X005703Y006652D03*
D536*
X008043Y006656D03*
D537*
X005705Y006676D03*
D538*
X008043Y006676D03*
D539*
X008045Y006684D03*
X005705Y006680D03*
D540*
X005705Y006684D03*
D541*
X005705Y006692D03*
D542*
X008043Y006692D03*
D543*
X008045Y006696D03*
D544*
X005705Y006704D03*
D545*
X005707Y006708D03*
X008043Y006712D03*
D546*
X005705Y006712D03*
D547*
X005705Y006716D03*
D548*
X008043Y006716D03*
D549*
X008043Y006724D03*
X005707Y006720D03*
D550*
X008041Y006720D03*
D551*
X005705Y006724D03*
D552*
X005703Y006728D03*
D553*
X008043Y006728D03*
D554*
X005703Y006732D03*
D555*
X008041Y006732D03*
D556*
X005705Y006736D03*
D557*
X008043Y006736D03*
D558*
X005705Y006740D03*
D559*
X008043Y006740D03*
D560*
X008043Y006748D03*
X005703Y006744D03*
D561*
X008043Y006744D03*
D562*
X005705Y006748D03*
D563*
X005705Y006752D03*
D564*
X008045Y006752D03*
D565*
X005705Y006756D03*
D566*
X008043Y006756D03*
D567*
X005705Y006760D03*
D568*
X008043Y006760D03*
D569*
X005705Y006764D03*
D570*
X008043Y006764D03*
D571*
X005705Y006768D03*
D572*
X008043Y006768D03*
D573*
X005703Y006772D03*
D574*
X008043Y006772D03*
D575*
X005705Y006776D03*
D576*
X008043Y006776D03*
D577*
X008043Y006784D03*
X005703Y006780D03*
D578*
X008043Y006780D03*
D579*
X005705Y006784D03*
D580*
X005703Y006788D03*
X008043Y006792D03*
D581*
X006967Y006788D03*
D582*
X008043Y006788D03*
D583*
X005705Y006792D03*
D584*
X005705Y006796D03*
D585*
X006783Y006796D03*
D586*
X008045Y006796D03*
D587*
X005705Y006800D03*
D588*
X005705Y007200D03*
X006777Y006800D03*
D589*
X008043Y006800D03*
D590*
X005705Y006804D03*
D591*
X008043Y006804D03*
D592*
X005705Y006808D03*
D593*
X006771Y006808D03*
D594*
X008043Y006808D03*
D595*
X005705Y006812D03*
D596*
X006985Y006812D03*
D597*
X008043Y006812D03*
D598*
X005705Y006816D03*
D599*
X008043Y006816D03*
D600*
X005705Y006820D03*
D601*
X008043Y006820D03*
D602*
X005705Y006824D03*
D603*
X008045Y006824D03*
D604*
X005707Y006828D03*
D605*
X008043Y006828D03*
D606*
X005705Y006832D03*
D607*
X006751Y006832D03*
D608*
X008043Y006832D03*
D609*
X005705Y006836D03*
D610*
X006747Y006836D03*
D611*
X007005Y006836D03*
D612*
X008045Y006836D03*
D613*
X005705Y006840D03*
D614*
X008043Y006840D03*
D615*
X005705Y006844D03*
D616*
X008043Y006844D03*
D617*
X008045Y006852D03*
X005705Y006848D03*
D618*
X006735Y006848D03*
X007015Y006848D03*
D619*
X008043Y006848D03*
D620*
X005705Y006852D03*
D621*
X005705Y006856D03*
D622*
X006729Y006856D03*
X007021Y006856D03*
D623*
X008043Y006856D03*
D624*
X008045Y006864D03*
X005705Y006860D03*
D625*
X008045Y006860D03*
D626*
X005705Y006864D03*
D627*
X005705Y006868D03*
D628*
X007033Y006868D03*
X008049Y007168D03*
D629*
X008043Y006868D03*
D630*
X008045Y006872D03*
D631*
X006711Y006876D03*
D632*
X005705Y006888D03*
X008045Y006892D03*
D633*
X006701Y006888D03*
D634*
X005705Y006892D03*
D635*
X005703Y006896D03*
D636*
X008045Y006896D03*
D637*
X005705Y006904D03*
D638*
X007069Y006908D03*
D639*
X007075Y006916D03*
X006675Y006916D03*
D640*
X008043Y006916D03*
D641*
X008045Y006920D03*
D642*
X008043Y006924D03*
D643*
X005705Y006928D03*
D644*
X006661Y006932D03*
D645*
X005705Y006936D03*
X007477Y007496D03*
D646*
X007091Y006936D03*
X006659Y006936D03*
D647*
X007437Y007336D03*
X008045Y006936D03*
D648*
X008045Y006952D03*
X007497Y007520D03*
X006241Y007528D03*
X005705Y006948D03*
D649*
X005703Y006956D03*
D650*
X007109Y006956D03*
D651*
X007537Y007564D03*
X006201Y007572D03*
X005705Y006972D03*
D652*
X006627Y006972D03*
D653*
X005705Y006976D03*
D654*
X006197Y007576D03*
X007369Y007256D03*
X008045Y006976D03*
D655*
X007133Y006984D03*
D656*
X006605Y006996D03*
D657*
X007143Y006996D03*
D658*
X006601Y007000D03*
D659*
X007149Y007000D03*
X008049Y007100D03*
X005705Y007100D03*
D660*
X007153Y007008D03*
D661*
X007159Y007012D03*
D662*
X006587Y007016D03*
D663*
X007161Y007016D03*
D664*
X008045Y007016D03*
X006125Y007656D03*
D665*
X006117Y007664D03*
X005705Y007020D03*
D666*
X005705Y007036D03*
X006089Y007696D03*
D667*
X006569Y007036D03*
D668*
X008047Y007036D03*
D669*
X005705Y007040D03*
D670*
X006075Y008508D03*
X007667Y008508D03*
X008047Y007048D03*
D671*
X007193Y007052D03*
D672*
X006551Y007056D03*
D673*
X005707Y007060D03*
D674*
X006527Y007084D03*
X008047Y007060D03*
D675*
X005705Y007076D03*
D676*
X007213Y007076D03*
D677*
X008047Y007076D03*
D678*
X006521Y007092D03*
D679*
X006517Y007096D03*
D680*
X007231Y007096D03*
D681*
X006499Y007116D03*
D682*
X006489Y007128D03*
D683*
X005705Y007132D03*
D684*
X007263Y007132D03*
D685*
X006481Y007136D03*
D686*
X007273Y007144D03*
D687*
X007283Y007156D03*
D688*
X008049Y007156D03*
D689*
X006445Y007176D03*
D690*
X006437Y007184D03*
D691*
X005705Y007196D03*
X008049Y007196D03*
D692*
X006427Y007196D03*
D693*
X007319Y007196D03*
D694*
X006417Y007208D03*
D695*
X006411Y007216D03*
D696*
X006179Y007596D03*
X007351Y007236D03*
D697*
X007355Y007240D03*
D698*
X006377Y007256D03*
D699*
X007373Y007260D03*
D700*
X007527Y007552D03*
X006367Y007268D03*
X006211Y007560D03*
D701*
X006363Y007272D03*
D702*
X006359Y007276D03*
D703*
X006215Y007556D03*
X007387Y007276D03*
D704*
X007393Y007284D03*
D705*
X007413Y007308D03*
D706*
X007421Y007316D03*
D707*
X007479Y007500D03*
X006319Y007324D03*
D708*
X006309Y007336D03*
X006269Y007496D03*
D709*
X006275Y007488D03*
X006303Y007344D03*
X007447Y007348D03*
X007463Y007480D03*
D710*
X006293Y007356D03*
D711*
X007453Y007356D03*
D712*
X006289Y007376D03*
X006289Y007396D03*
X006289Y007416D03*
X006289Y007436D03*
X006289Y007456D03*
D713*
X007455Y007456D03*
X007455Y007436D03*
X007455Y007416D03*
X007455Y007396D03*
X007455Y007376D03*
D714*
X006287Y007476D03*
D715*
X007459Y007476D03*
D716*
X006267Y007500D03*
D717*
X007491Y007512D03*
D718*
X006251Y007516D03*
D719*
X007493Y007516D03*
D720*
X006233Y007536D03*
D721*
X007511Y007536D03*
D722*
X007515Y007540D03*
X006223Y007548D03*
D723*
X007529Y007556D03*
D724*
X007541Y007568D03*
D725*
X007551Y007580D03*
D726*
X007563Y007596D03*
D727*
X007581Y007616D03*
D728*
X007599Y007636D03*
D729*
X006107Y007676D03*
D730*
X007651Y007696D03*
D731*
X007661Y007708D03*
D732*
X007943Y008512D03*
D733*
X003219Y002330D02*
X003219Y000830D01*
X003469Y000580D01*
X003969Y000580D01*
X004219Y000830D01*
X004219Y002330D01*
X003969Y002580D01*
X003469Y002580D01*
X003219Y002330D01*
X004219Y002330D02*
X004469Y002580D01*
X004969Y002580D01*
X005219Y002330D01*
X005219Y000830D01*
X004969Y000580D01*
X004469Y000580D01*
X004219Y000830D01*
X005219Y000830D02*
X005469Y000580D01*
X005969Y000580D01*
X006219Y000830D01*
X006219Y002330D01*
X006469Y002580D01*
X006969Y002580D01*
X007219Y002330D01*
X007219Y000830D01*
X006969Y000580D01*
X006469Y000580D01*
X006219Y000830D01*
X007219Y000830D02*
X007469Y000580D01*
X007969Y000580D01*
X008219Y000830D01*
X008219Y002330D01*
X008469Y002580D01*
X008969Y002580D01*
X009219Y002330D01*
X009219Y000830D01*
X008969Y000580D01*
X008469Y000580D01*
X008219Y000830D01*
X009219Y000830D02*
X009469Y000580D01*
X009969Y000580D01*
X010219Y000830D01*
X010219Y002330D01*
X010469Y002580D01*
X010969Y002580D01*
X011219Y002330D01*
X011219Y000830D01*
X010969Y000580D01*
X010469Y000580D01*
X010219Y000830D01*
X011219Y000830D02*
X011469Y000580D01*
X011969Y000580D01*
X012219Y000830D01*
X012219Y002330D01*
X012469Y002580D01*
X012969Y002580D01*
X013219Y002330D01*
X013219Y000830D01*
X012969Y000580D01*
X012469Y000580D01*
X012219Y000830D01*
X013219Y000830D02*
X013469Y000580D01*
X013969Y000580D01*
X014219Y000830D01*
X014219Y002330D01*
X014469Y002580D01*
X014969Y002580D01*
X015219Y002330D01*
X015219Y000830D01*
X014969Y000580D01*
X014469Y000580D01*
X014219Y000830D01*
X015219Y000830D02*
X015469Y000580D01*
X015969Y000580D01*
X016219Y000830D01*
X016219Y002330D01*
X016469Y002580D01*
X016969Y002580D01*
X017219Y002330D01*
X017219Y000830D01*
X016969Y000580D01*
X016469Y000580D01*
X016219Y000830D01*
X017219Y000830D02*
X017469Y000580D01*
X017969Y000580D01*
X018219Y000830D01*
X018219Y002330D01*
X017969Y002580D01*
X017469Y002580D01*
X017219Y002330D01*
X018219Y002330D02*
X018469Y002580D01*
X018969Y002580D01*
X019219Y002330D01*
X019219Y000830D01*
X018969Y000580D01*
X018469Y000580D01*
X018219Y000830D01*
X019219Y000830D02*
X019469Y000580D01*
X019969Y000580D01*
X020219Y000830D01*
X020219Y002330D01*
X019969Y002580D01*
X019469Y002580D01*
X019219Y002330D01*
X020219Y002330D02*
X020469Y002580D01*
X020969Y002580D01*
X021219Y002330D01*
X021219Y000830D01*
X020969Y000580D01*
X020469Y000580D01*
X020219Y000830D01*
X021219Y000830D02*
X021469Y000580D01*
X021969Y000580D01*
X022219Y000830D01*
X022219Y002330D01*
X021969Y002580D01*
X021469Y002580D01*
X021219Y002330D01*
X022219Y002330D02*
X022469Y002580D01*
X022969Y002580D01*
X023219Y002330D01*
X023219Y000830D01*
X022969Y000580D01*
X022469Y000580D01*
X022219Y000830D01*
X022162Y003910D02*
X022055Y003910D01*
X021948Y004017D01*
X021948Y004230D01*
X022055Y004337D01*
X022269Y004230D02*
X022375Y004337D01*
X022482Y004337D01*
X022589Y004230D01*
X022589Y004017D01*
X022482Y003910D01*
X022269Y004017D02*
X022269Y004230D01*
X022269Y004017D02*
X022162Y003910D01*
X021948Y004555D02*
X022482Y004555D01*
X022589Y004661D01*
X022589Y004875D01*
X022482Y004982D01*
X021948Y004982D01*
X021948Y005199D02*
X021948Y005519D01*
X022055Y005626D01*
X022269Y005626D01*
X022375Y005519D01*
X022375Y005199D01*
X022589Y005199D02*
X021948Y005199D01*
X021948Y005844D02*
X021948Y006164D01*
X022055Y006271D01*
X022269Y006271D01*
X022375Y006164D01*
X022375Y005844D01*
X022589Y005844D02*
X021948Y005844D01*
X021394Y006088D02*
X021394Y006588D01*
X021144Y006838D01*
X021394Y007088D01*
X021394Y007588D01*
X021144Y007838D01*
X021394Y008088D01*
X021394Y008588D01*
X021144Y008838D01*
X020644Y008838D01*
X020394Y008588D01*
X020394Y008088D01*
X020644Y007838D01*
X021144Y007838D01*
X020644Y007838D02*
X020394Y007588D01*
X020394Y007088D01*
X020644Y006838D01*
X021144Y006838D01*
X020644Y006838D02*
X020394Y006588D01*
X020394Y006088D01*
X020644Y005838D01*
X021144Y005838D01*
X021394Y006088D01*
X021948Y006488D02*
X022589Y006488D01*
X022589Y006915D01*
X022589Y007346D02*
X022269Y007346D01*
X022055Y007560D01*
X021948Y007560D01*
X022269Y007346D02*
X022055Y007133D01*
X021948Y007133D01*
X021948Y010110D02*
X022589Y010110D01*
X022589Y010537D01*
X022589Y010755D02*
X022589Y011182D01*
X022482Y011399D02*
X022589Y011506D01*
X022589Y011719D01*
X022482Y011826D01*
X022269Y011826D01*
X022269Y011613D01*
X022055Y011826D02*
X021948Y011719D01*
X021948Y011506D01*
X022055Y011399D01*
X022482Y011399D01*
X022269Y010968D02*
X022269Y010755D01*
X022589Y010755D02*
X021948Y010755D01*
X021948Y011182D01*
X022055Y012044D02*
X021948Y012150D01*
X021948Y012364D01*
X022055Y012471D01*
X022162Y012471D01*
X022269Y012364D01*
X022375Y012471D01*
X022482Y012471D01*
X022589Y012364D01*
X022589Y012150D01*
X022482Y012044D01*
X022269Y012257D02*
X022269Y012364D01*
X020441Y014810D02*
X020441Y015451D01*
X020654Y015451D02*
X020227Y015451D01*
X020010Y015451D02*
X019583Y015451D01*
X019583Y014810D01*
X020010Y014810D01*
X019796Y015130D02*
X019583Y015130D01*
X019365Y015024D02*
X019365Y014917D01*
X019258Y014810D01*
X019045Y014810D01*
X018938Y014917D01*
X019045Y015130D02*
X019258Y015130D01*
X019365Y015024D01*
X019365Y015344D02*
X019258Y015451D01*
X019045Y015451D01*
X018938Y015344D01*
X018938Y015237D01*
X019045Y015130D01*
X018720Y014810D02*
X018293Y014810D01*
X018293Y015451D01*
X018720Y015451D01*
X018507Y015130D02*
X018293Y015130D01*
X018076Y015130D02*
X018076Y015344D01*
X017969Y015451D01*
X017649Y015451D01*
X017649Y014810D01*
X017649Y015024D02*
X017969Y015024D01*
X018076Y015130D01*
X017862Y015024D02*
X018076Y014810D01*
X016510Y014917D02*
X016403Y014810D01*
X016189Y014810D01*
X016083Y014917D01*
X015865Y014917D02*
X015865Y015344D01*
X015758Y015451D01*
X015438Y015451D01*
X015438Y014810D01*
X015758Y014810D01*
X015865Y014917D01*
X016083Y015237D02*
X016189Y015130D01*
X016403Y015130D01*
X016510Y015024D01*
X016510Y014917D01*
X016510Y015344D02*
X016403Y015451D01*
X016189Y015451D01*
X016083Y015344D01*
X016083Y015237D01*
X015220Y015451D02*
X014793Y015451D01*
X014793Y014810D01*
X015220Y014810D01*
X015007Y015130D02*
X014793Y015130D01*
X014576Y014810D02*
X014149Y014810D01*
X014149Y015451D01*
X013254Y015344D02*
X013147Y015451D01*
X012934Y015451D01*
X012827Y015344D01*
X012610Y015344D02*
X012610Y015237D01*
X012503Y015130D01*
X012610Y015024D01*
X012610Y014917D01*
X012503Y014810D01*
X012289Y014810D01*
X012183Y014917D01*
X011965Y014810D02*
X011965Y015451D01*
X011752Y015237D01*
X011538Y015451D01*
X011538Y014810D01*
X011107Y014810D02*
X011107Y015451D01*
X011320Y015451D02*
X010893Y015451D01*
X010676Y015344D02*
X010569Y015451D01*
X010356Y015451D01*
X010249Y015344D01*
X010249Y015237D01*
X010356Y015130D01*
X010569Y015130D01*
X010676Y015024D01*
X010676Y014917D01*
X010569Y014810D01*
X010356Y014810D01*
X010249Y014917D01*
X011759Y016120D02*
X012079Y016120D01*
X012079Y016340D01*
X012079Y017020D02*
X012079Y017240D01*
X011759Y017240D01*
X012939Y018030D02*
X012939Y018330D01*
X014079Y018330D01*
X014079Y018030D01*
X012939Y018030D01*
X012503Y015451D02*
X012610Y015344D01*
X012503Y015451D02*
X012289Y015451D01*
X012183Y015344D01*
X012396Y015130D02*
X012503Y015130D01*
X012827Y014810D02*
X013254Y015237D01*
X013254Y015344D01*
X013254Y014810D02*
X012827Y014810D01*
X010089Y018510D02*
X009448Y018510D01*
X009448Y018937D01*
X009448Y019155D02*
X009448Y019475D01*
X009555Y019582D01*
X009769Y019582D01*
X009875Y019475D01*
X009875Y019155D01*
X009875Y019368D02*
X010089Y019582D01*
X009982Y019799D02*
X010089Y019906D01*
X010089Y020119D01*
X009982Y020226D01*
X009555Y020226D01*
X009448Y020119D01*
X009448Y019906D01*
X009555Y019799D01*
X009982Y019799D01*
X010089Y019155D02*
X009448Y019155D01*
X009769Y018724D02*
X009769Y018510D01*
X010089Y020444D02*
X009448Y020444D01*
X010089Y020871D01*
X009448Y020871D01*
X009448Y021088D02*
X009448Y021515D01*
X009448Y021302D02*
X010089Y021302D01*
X007025Y018651D02*
X006704Y018330D01*
X007131Y018330D01*
X007025Y018010D02*
X007025Y018651D01*
X006487Y018544D02*
X006380Y018651D01*
X006167Y018651D01*
X006060Y018544D01*
X006060Y018117D01*
X006167Y018010D01*
X006380Y018010D01*
X006487Y018117D01*
X006487Y018330D01*
X006273Y018330D01*
X005842Y018010D02*
X005415Y018010D01*
X005415Y018651D01*
X005842Y018651D01*
X005629Y018330D02*
X005415Y018330D01*
X005198Y018010D02*
X004771Y018010D01*
X004771Y018651D01*
X004482Y017371D02*
X004589Y017264D01*
X004589Y017050D01*
X004482Y016944D01*
X004269Y016944D02*
X004162Y017157D01*
X004162Y017264D01*
X004269Y017371D01*
X004482Y017371D01*
X004269Y016944D02*
X003948Y016944D01*
X003948Y017371D01*
X004055Y016726D02*
X003948Y016619D01*
X003948Y016406D01*
X004055Y016299D01*
X004482Y016299D01*
X004589Y016406D01*
X004589Y016619D01*
X004482Y016726D01*
X004269Y016726D01*
X004269Y016513D01*
X004589Y016082D02*
X004589Y015655D01*
X003948Y015655D01*
X003948Y016082D01*
X004269Y015868D02*
X004269Y015655D01*
X004589Y015437D02*
X004589Y015010D01*
X003948Y015010D01*
X005248Y014899D02*
X005248Y015219D01*
X005355Y015326D01*
X005569Y015326D01*
X005675Y015219D01*
X005675Y014899D01*
X005675Y015113D02*
X005889Y015326D01*
X005889Y014899D02*
X005248Y014899D01*
X005462Y014682D02*
X005889Y014682D01*
X005569Y014682D02*
X005569Y014255D01*
X005462Y014255D02*
X005248Y014468D01*
X005462Y014682D01*
X005462Y014255D02*
X005889Y014255D01*
X005782Y014037D02*
X005248Y014037D01*
X005248Y013610D02*
X005782Y013610D01*
X005889Y013717D01*
X005889Y013930D01*
X005782Y014037D01*
X005769Y013380D02*
X005269Y013380D01*
X005019Y013130D01*
X005019Y012630D01*
X005269Y012380D01*
X005019Y012130D01*
X005019Y011630D01*
X005269Y011380D01*
X005769Y011380D01*
X006019Y011630D01*
X006019Y012130D01*
X005769Y012380D01*
X005269Y012380D01*
X005769Y012380D02*
X006019Y012630D01*
X006019Y013130D01*
X005769Y013380D01*
X004589Y012264D02*
X003948Y012264D01*
X004269Y011944D01*
X004269Y012371D01*
X004269Y011726D02*
X004269Y011513D01*
X004269Y011726D02*
X004482Y011726D01*
X004589Y011619D01*
X004589Y011406D01*
X004482Y011299D01*
X004055Y011299D01*
X003948Y011406D01*
X003948Y011619D01*
X004055Y011726D01*
X003948Y011082D02*
X003948Y010655D01*
X004589Y010655D01*
X004589Y011082D01*
X004269Y010868D02*
X004269Y010655D01*
X004589Y010437D02*
X004589Y010010D01*
X003948Y010010D01*
X005019Y010130D02*
X005019Y009630D01*
X005269Y009380D01*
X005769Y009380D01*
X006019Y009630D01*
X006019Y010130D01*
X005769Y010380D01*
X005269Y010380D01*
X005019Y010130D01*
X005269Y010380D02*
X005019Y010630D01*
X005019Y011130D01*
X005269Y011380D01*
X005769Y011380D02*
X006019Y011130D01*
X006019Y010630D01*
X005769Y010380D01*
X004482Y006911D02*
X003948Y006911D01*
X003948Y006484D02*
X004482Y006484D01*
X004589Y006591D01*
X004589Y006805D01*
X004482Y006911D01*
X004589Y006267D02*
X003948Y006267D01*
X004162Y006053D01*
X003948Y005840D01*
X004589Y005840D01*
X004589Y005624D02*
X004589Y005410D01*
X004589Y005517D02*
X003948Y005517D01*
X003948Y005410D02*
X003948Y005624D01*
X004541Y004480D02*
X004291Y004230D01*
X004291Y003730D01*
X004541Y003480D01*
X005041Y003480D01*
X005291Y003730D01*
X005541Y003480D01*
X006041Y003480D01*
X006291Y003730D01*
X006291Y004230D01*
X006041Y004480D01*
X005541Y004480D01*
X005291Y004230D01*
X005291Y003730D01*
X005291Y004230D02*
X005041Y004480D01*
X004541Y004480D01*
X006291Y004230D02*
X006541Y004480D01*
X007041Y004480D01*
X007291Y004230D01*
X007541Y004480D01*
X008041Y004480D01*
X008291Y004230D01*
X008291Y003730D01*
X008041Y003480D01*
X007541Y003480D01*
X007291Y003730D01*
X007041Y003480D01*
X006541Y003480D01*
X006291Y003730D01*
X007291Y003730D02*
X007291Y004230D01*
X008656Y004223D02*
X008656Y003723D01*
X008906Y003473D01*
X009406Y003473D01*
X009656Y003723D01*
X009656Y004223D01*
X009406Y004473D01*
X008906Y004473D01*
X008656Y004223D01*
X009049Y005010D02*
X009049Y005651D01*
X009369Y005651D01*
X009476Y005544D01*
X009476Y005330D01*
X009369Y005224D01*
X009049Y005224D01*
X009693Y005224D02*
X010014Y005224D01*
X010120Y005330D01*
X010120Y005544D01*
X010014Y005651D01*
X009693Y005651D01*
X009693Y005010D01*
X009907Y005224D02*
X010120Y005010D01*
X010338Y005117D02*
X010445Y005010D01*
X010658Y005010D01*
X010765Y005117D01*
X010765Y005544D01*
X010658Y005651D01*
X010445Y005651D01*
X010338Y005544D01*
X010338Y005117D01*
X010983Y005117D02*
X011089Y005010D01*
X011303Y005010D01*
X011410Y005117D01*
X011410Y005330D01*
X011196Y005330D01*
X010983Y005544D02*
X010983Y005117D01*
X010983Y005544D02*
X011089Y005651D01*
X011303Y005651D01*
X011410Y005544D01*
X011406Y004473D02*
X010906Y004473D01*
X010656Y004223D01*
X010406Y004473D01*
X009906Y004473D01*
X009656Y004223D01*
X009656Y003723D02*
X009906Y003473D01*
X010406Y003473D01*
X010656Y003723D01*
X010656Y004223D01*
X010656Y003723D02*
X010906Y003473D01*
X011406Y003473D01*
X011656Y003723D01*
X011656Y004223D01*
X011906Y004473D01*
X012406Y004473D01*
X012656Y004223D01*
X012906Y004473D01*
X013406Y004473D01*
X013656Y004223D01*
X013656Y003723D01*
X013406Y003473D01*
X012906Y003473D01*
X012656Y003723D01*
X012406Y003473D01*
X011906Y003473D01*
X011656Y003723D01*
X011656Y004223D02*
X011406Y004473D01*
X012656Y004223D02*
X012656Y003723D01*
X011969Y002580D02*
X011469Y002580D01*
X011219Y002330D01*
X011969Y002580D02*
X012219Y002330D01*
X013219Y002330D02*
X013469Y002580D01*
X013969Y002580D01*
X014219Y002330D01*
X015219Y002330D02*
X015469Y002580D01*
X015969Y002580D01*
X016219Y002330D01*
X016271Y003465D02*
X016021Y003715D01*
X015771Y003465D01*
X015271Y003465D01*
X015021Y003715D01*
X014771Y003465D01*
X014271Y003465D01*
X014021Y003715D01*
X014021Y004215D01*
X014271Y004465D01*
X014771Y004465D01*
X015021Y004215D01*
X015271Y004465D01*
X015771Y004465D01*
X016021Y004215D01*
X016021Y003715D01*
X016271Y003465D02*
X016771Y003465D01*
X017021Y003715D01*
X017271Y003465D01*
X017771Y003465D01*
X018021Y003715D01*
X018021Y004215D01*
X017771Y004465D01*
X017271Y004465D01*
X017021Y004215D01*
X017021Y003715D01*
X017021Y004215D02*
X016771Y004465D01*
X016271Y004465D01*
X016021Y004215D01*
X016149Y005010D02*
X016362Y005010D01*
X016256Y005010D02*
X016256Y005651D01*
X016362Y005651D02*
X016149Y005651D01*
X016579Y005544D02*
X016685Y005651D01*
X016899Y005651D01*
X017006Y005544D01*
X017006Y005437D01*
X016579Y005010D01*
X017006Y005010D01*
X017223Y005117D02*
X017330Y005010D01*
X017543Y005010D01*
X017650Y005117D01*
X017650Y005544D02*
X017543Y005651D01*
X017330Y005651D01*
X017223Y005544D01*
X017223Y005117D01*
X015021Y004215D02*
X015021Y003715D01*
X014752Y005010D02*
X014538Y005010D01*
X014645Y005010D02*
X014645Y005651D01*
X014538Y005651D02*
X014752Y005651D01*
X014320Y005544D02*
X014320Y005330D01*
X014214Y005224D01*
X013893Y005224D01*
X013893Y005010D02*
X013893Y005651D01*
X014214Y005651D01*
X014320Y005544D01*
X013676Y005544D02*
X013569Y005651D01*
X013356Y005651D01*
X013249Y005544D01*
X013249Y005437D01*
X013356Y005330D01*
X013569Y005330D01*
X013676Y005224D01*
X013676Y005117D01*
X013569Y005010D01*
X013356Y005010D01*
X013249Y005117D01*
X010219Y002330D02*
X009969Y002580D01*
X009469Y002580D01*
X009219Y002330D01*
X008219Y002330D02*
X007969Y002580D01*
X007469Y002580D01*
X007219Y002330D01*
X006219Y002330D02*
X005969Y002580D01*
X005469Y002580D01*
X005219Y002330D01*
X005248Y015544D02*
X005248Y015971D01*
X005248Y015757D02*
X005889Y015757D01*
X016648Y018510D02*
X016648Y018937D01*
X016648Y019155D02*
X016648Y019475D01*
X016755Y019582D01*
X016969Y019582D01*
X017075Y019475D01*
X017075Y019155D01*
X017075Y019368D02*
X017289Y019582D01*
X017182Y019799D02*
X017289Y019906D01*
X017289Y020119D01*
X017182Y020226D01*
X016755Y020226D01*
X016648Y020119D01*
X016648Y019906D01*
X016755Y019799D01*
X017182Y019799D01*
X017289Y019155D02*
X016648Y019155D01*
X016969Y018724D02*
X016969Y018510D01*
X017289Y018510D02*
X016648Y018510D01*
X016648Y020444D02*
X017289Y020871D01*
X016648Y020871D01*
X016648Y021088D02*
X016648Y021515D01*
X016648Y021302D02*
X017289Y021302D01*
X017289Y020444D02*
X016648Y020444D01*
X019349Y018651D02*
X019349Y018010D01*
X019776Y018010D01*
X019993Y018010D02*
X020420Y018010D01*
X020638Y018117D02*
X020745Y018010D01*
X020958Y018010D01*
X021065Y018117D01*
X021065Y018330D01*
X020852Y018330D01*
X021065Y018544D02*
X020958Y018651D01*
X020745Y018651D01*
X020638Y018544D01*
X020638Y018117D01*
X020207Y018330D02*
X019993Y018330D01*
X019993Y018010D02*
X019993Y018651D01*
X020420Y018651D01*
X021283Y018437D02*
X021496Y018651D01*
X021496Y018010D01*
X021283Y018010D02*
X021710Y018010D01*
X022055Y017471D02*
X021948Y017364D01*
X021948Y017150D01*
X022055Y017044D01*
X022055Y016826D02*
X021948Y016719D01*
X021948Y016506D01*
X022055Y016399D01*
X022482Y016399D01*
X022589Y016506D01*
X022589Y016719D01*
X022482Y016826D01*
X022269Y016826D01*
X022269Y016613D01*
X022589Y017044D02*
X022162Y017471D01*
X022055Y017471D01*
X022589Y017471D02*
X022589Y017044D01*
X022589Y016182D02*
X022589Y015755D01*
X021948Y015755D01*
X021948Y016182D01*
X022269Y015968D02*
X022269Y015755D01*
X022589Y015537D02*
X022589Y015110D01*
X021948Y015110D01*
D734*
X021719Y014980D02*
X021719Y017780D01*
X022819Y017780D01*
X022819Y014980D01*
X021719Y014980D01*
X021119Y014580D02*
X017519Y014580D01*
X017519Y015680D01*
X021119Y015680D01*
X021119Y014580D01*
X021719Y012780D02*
X022819Y012780D01*
X022819Y009980D01*
X021719Y009980D01*
X021719Y012780D01*
X021419Y010780D02*
X020519Y010780D01*
X020519Y008780D01*
X021419Y008780D01*
X021419Y010780D01*
X021719Y007980D02*
X022819Y007980D01*
X022819Y003780D01*
X021719Y003780D01*
X021719Y007980D01*
X021319Y005780D02*
X020419Y005780D01*
X020419Y003380D01*
X021319Y003380D01*
X021319Y005780D01*
X017919Y005880D02*
X017919Y004780D01*
X016019Y004780D01*
X016019Y005880D01*
X017919Y005880D01*
X015019Y005880D02*
X015019Y004780D01*
X013119Y004780D01*
X013119Y005880D01*
X015019Y005880D01*
X012119Y005880D02*
X012119Y004780D01*
X008919Y004780D01*
X008919Y005880D01*
X012119Y005880D01*
X010742Y010073D02*
X008301Y010073D01*
X008193Y010182D01*
X008193Y012623D01*
X008301Y012731D01*
X010742Y012731D01*
X010850Y012623D01*
X010850Y010182D01*
X010742Y010073D01*
X010073Y010615D02*
X010075Y010645D01*
X010081Y010675D01*
X010090Y010704D01*
X010103Y010731D01*
X010120Y010756D01*
X010139Y010779D01*
X010162Y010800D01*
X010187Y010817D01*
X010213Y010831D01*
X010242Y010841D01*
X010271Y010848D01*
X010301Y010851D01*
X010332Y010850D01*
X010362Y010845D01*
X010391Y010836D01*
X010418Y010824D01*
X010444Y010809D01*
X010468Y010790D01*
X010489Y010768D01*
X010507Y010744D01*
X010522Y010717D01*
X010533Y010689D01*
X010541Y010660D01*
X010545Y010630D01*
X010545Y010600D01*
X010541Y010570D01*
X010533Y010541D01*
X010522Y010513D01*
X010507Y010486D01*
X010489Y010462D01*
X010468Y010440D01*
X010444Y010421D01*
X010418Y010406D01*
X010391Y010394D01*
X010362Y010385D01*
X010332Y010380D01*
X010301Y010379D01*
X010271Y010382D01*
X010242Y010389D01*
X010213Y010399D01*
X010187Y010413D01*
X010162Y010430D01*
X010139Y010451D01*
X010120Y010474D01*
X010103Y010499D01*
X010090Y010526D01*
X010081Y010555D01*
X010075Y010585D01*
X010073Y010615D01*
X006119Y013480D02*
X006119Y016480D01*
X005019Y016480D01*
X005019Y013480D01*
X006119Y013480D01*
X004819Y012680D02*
X004819Y009880D01*
X003719Y009880D01*
X003719Y012680D01*
X004819Y012680D01*
X004819Y014880D02*
X003719Y014880D01*
X003719Y017680D01*
X004819Y017680D01*
X004819Y014880D01*
X004619Y017780D02*
X004619Y018880D01*
X007419Y018880D01*
X007419Y017780D01*
X004619Y017780D01*
X009219Y018380D02*
X009219Y022080D01*
X010319Y022080D01*
X010319Y018380D01*
X009219Y018380D01*
X010119Y015680D02*
X013519Y015680D01*
X013519Y014580D01*
X010119Y014580D01*
X010119Y015680D01*
X014019Y015680D02*
X014019Y014580D01*
X016919Y014580D01*
X016919Y015680D01*
X014019Y015680D01*
X016419Y018380D02*
X016419Y022080D01*
X017519Y022080D01*
X017519Y018380D01*
X016419Y018380D01*
X019219Y018880D02*
X019219Y017780D01*
X021919Y017780D01*
X021919Y018880D01*
X019219Y018880D01*
X004819Y007380D02*
X004819Y005280D01*
X003719Y005280D01*
X003719Y007380D01*
X004819Y007380D01*
D735*
X006756Y010299D02*
X007063Y010299D01*
X007139Y010376D01*
X007139Y010529D01*
X007063Y010606D01*
X007139Y010759D02*
X007139Y011066D01*
X007139Y010913D02*
X006679Y010913D01*
X006833Y010759D01*
X006756Y010606D02*
X006679Y010529D01*
X006679Y010376D01*
X006756Y010299D01*
X006909Y011220D02*
X006909Y011527D01*
X006679Y011450D02*
X006909Y011220D01*
X007139Y011450D02*
X006679Y011450D01*
X007017Y012853D02*
X007323Y012853D01*
X007400Y012930D01*
X007400Y013084D01*
X007323Y013160D01*
X007400Y013314D02*
X007093Y013621D01*
X007017Y013621D01*
X006940Y013544D01*
X006940Y013391D01*
X007017Y013314D01*
X007017Y013160D02*
X006940Y013084D01*
X006940Y012930D01*
X007017Y012853D01*
X007400Y013314D02*
X007400Y013621D01*
X007400Y013774D02*
X007400Y014081D01*
X007400Y013928D02*
X006940Y013928D01*
X007093Y013774D01*
X009989Y016050D02*
X009989Y016280D01*
X010065Y016357D01*
X010372Y016357D01*
X010449Y016280D01*
X010449Y016050D01*
X009989Y016050D01*
X010065Y016510D02*
X009989Y016587D01*
X009989Y016741D01*
X010065Y016817D01*
X010142Y016817D01*
X010449Y016510D01*
X010449Y016817D01*
X010199Y017077D02*
X010199Y017230D01*
X010122Y017307D01*
X010199Y017460D02*
X010199Y017767D01*
X010199Y017614D02*
X009739Y017614D01*
X009892Y017460D01*
X009815Y017307D02*
X009739Y017230D01*
X009739Y017077D01*
X009815Y017000D01*
X010122Y017000D01*
X010199Y017077D01*
X010339Y017350D02*
X010339Y017580D01*
X010415Y017657D01*
X010569Y017657D01*
X010645Y017580D01*
X010645Y017350D01*
X010645Y017503D02*
X010799Y017657D01*
X010722Y017810D02*
X010645Y017810D01*
X010569Y017887D01*
X010569Y018041D01*
X010645Y018117D01*
X010722Y018117D01*
X010799Y018041D01*
X010799Y017887D01*
X010722Y017810D01*
X010569Y017887D02*
X010492Y017810D01*
X010415Y017810D01*
X010339Y017887D01*
X010339Y018041D01*
X010415Y018117D01*
X010492Y018117D01*
X010569Y018041D01*
X010199Y017998D02*
X010122Y017921D01*
X010199Y017998D02*
X010199Y018151D01*
X010122Y018228D01*
X009969Y018228D01*
X009892Y018151D01*
X009892Y018074D01*
X009969Y017921D01*
X009739Y017921D01*
X009739Y018228D01*
X010339Y017350D02*
X010799Y017350D01*
X014289Y016660D02*
X014289Y016200D01*
X014289Y016160D02*
X014519Y016160D01*
X014596Y016084D01*
X014596Y015930D01*
X014519Y015853D01*
X014289Y015853D01*
X014289Y015700D02*
X014289Y016160D01*
X014289Y016353D02*
X014519Y016353D01*
X014596Y016430D01*
X014596Y016584D01*
X014519Y016660D01*
X014289Y016660D01*
X014442Y016353D02*
X014596Y016200D01*
X014749Y016277D02*
X014826Y016200D01*
X014980Y016200D01*
X015056Y016277D01*
X015056Y016353D01*
X014980Y016430D01*
X014903Y016430D01*
X014980Y016430D02*
X015056Y016507D01*
X015056Y016584D01*
X014980Y016660D01*
X014826Y016660D01*
X014749Y016584D01*
X015056Y016160D02*
X014903Y016084D01*
X014749Y015930D01*
X014980Y015930D01*
X015056Y015853D01*
X015056Y015777D01*
X014980Y015700D01*
X014826Y015700D01*
X014749Y015777D01*
X014749Y015930D01*
X014596Y015700D02*
X014442Y015853D01*
X016509Y016961D02*
X016509Y017268D01*
X016586Y017344D01*
X016739Y017344D01*
X016816Y017268D01*
X016969Y017268D02*
X017046Y017344D01*
X017200Y017344D01*
X017276Y017268D01*
X017276Y017191D01*
X017200Y017114D01*
X017276Y017037D01*
X017276Y016961D01*
X017200Y016884D01*
X017046Y016884D01*
X016969Y016961D01*
X016816Y016961D02*
X016739Y016884D01*
X016586Y016884D01*
X016509Y016961D01*
X017123Y017114D02*
X017200Y017114D01*
X017430Y017114D02*
X017737Y017114D01*
X017660Y016884D02*
X017660Y017344D01*
X017430Y017114D01*
X017190Y017600D02*
X017036Y017600D01*
X016960Y017677D01*
X016960Y017830D02*
X017113Y017907D01*
X017190Y017907D01*
X017267Y017830D01*
X017267Y017677D01*
X017190Y017600D01*
X016960Y017830D02*
X016960Y018060D01*
X017267Y018060D01*
X016806Y017984D02*
X016806Y017907D01*
X016730Y017830D01*
X016806Y017753D01*
X016806Y017677D01*
X016730Y017600D01*
X016576Y017600D01*
X016499Y017677D01*
X016346Y017677D02*
X016269Y017600D01*
X016116Y017600D01*
X016039Y017677D01*
X016039Y017984D01*
X016116Y018060D01*
X016269Y018060D01*
X016346Y017984D01*
X016499Y017984D02*
X016576Y018060D01*
X016730Y018060D01*
X016806Y017984D01*
X016730Y017830D02*
X016653Y017830D01*
X016049Y018400D02*
X016049Y018477D01*
X016356Y018784D01*
X016356Y018860D01*
X016049Y018860D01*
X015896Y018784D02*
X015896Y018630D01*
X015819Y018553D01*
X015589Y018553D01*
X015589Y018400D02*
X015589Y018860D01*
X015819Y018860D01*
X015896Y018784D01*
X015742Y018553D02*
X015896Y018400D01*
X012297Y013672D02*
X012297Y013365D01*
X012067Y013595D01*
X012528Y013595D01*
X012528Y013212D02*
X012528Y012905D01*
X012221Y013212D01*
X012144Y013212D01*
X012067Y013135D01*
X012067Y012982D01*
X012144Y012905D01*
X012144Y012751D02*
X012067Y012675D01*
X012067Y012521D01*
X012144Y012444D01*
X012451Y012444D01*
X012528Y012521D01*
X012528Y012675D01*
X012451Y012751D01*
X013531Y011964D02*
X013608Y012041D01*
X013685Y012041D01*
X013761Y011964D01*
X013838Y012041D01*
X013915Y012041D01*
X013991Y011964D01*
X013991Y011811D01*
X013915Y011734D01*
X013991Y011580D02*
X013991Y011273D01*
X013685Y011580D01*
X013608Y011580D01*
X013531Y011504D01*
X013531Y011350D01*
X013608Y011273D01*
X013608Y011120D02*
X013531Y011043D01*
X013531Y010890D01*
X013608Y010813D01*
X013915Y010813D01*
X013991Y010890D01*
X013991Y011043D01*
X013915Y011120D01*
X014321Y011329D02*
X014398Y011253D01*
X014321Y011329D02*
X014321Y011483D01*
X014398Y011559D01*
X014474Y011559D01*
X014781Y011253D01*
X014781Y011559D01*
X014781Y011099D02*
X014781Y010792D01*
X014321Y010792D01*
X014192Y010378D02*
X014115Y010378D01*
X014039Y010301D01*
X014039Y010148D01*
X014115Y010071D01*
X014192Y010378D02*
X014499Y010071D01*
X014499Y010378D01*
X014639Y010301D02*
X014715Y010378D01*
X014792Y010378D01*
X014869Y010301D01*
X014945Y010378D01*
X015022Y010378D01*
X015099Y010301D01*
X015099Y010148D01*
X015022Y010071D01*
X015099Y009917D02*
X015099Y009610D01*
X015099Y009457D02*
X014945Y009303D01*
X014945Y009380D02*
X014945Y009150D01*
X015099Y009150D02*
X014639Y009150D01*
X014639Y009380D01*
X014715Y009457D01*
X014869Y009457D01*
X014945Y009380D01*
X014792Y009610D02*
X014639Y009764D01*
X015099Y009764D01*
X015239Y009764D02*
X015392Y009610D01*
X015469Y009457D02*
X015545Y009380D01*
X015545Y009150D01*
X015545Y009303D02*
X015699Y009457D01*
X015699Y009610D02*
X015699Y009917D01*
X015699Y009764D02*
X015239Y009764D01*
X015392Y010071D02*
X015239Y010224D01*
X015699Y010224D01*
X015699Y010071D02*
X015699Y010378D01*
X016137Y009914D02*
X016137Y009607D01*
X016367Y009607D01*
X016290Y009761D01*
X016290Y009837D01*
X016367Y009914D01*
X016521Y009914D01*
X016597Y009837D01*
X016597Y009684D01*
X016521Y009607D01*
X016597Y009454D02*
X016444Y009300D01*
X016444Y009377D02*
X016444Y009147D01*
X016597Y009147D02*
X016137Y009147D01*
X016137Y009377D01*
X016214Y009454D01*
X016367Y009454D01*
X016444Y009377D01*
X015699Y009150D02*
X015239Y009150D01*
X015239Y009380D01*
X015315Y009457D01*
X015469Y009457D01*
X014499Y009457D02*
X014345Y009303D01*
X014345Y009380D02*
X014345Y009150D01*
X014499Y009150D02*
X014039Y009150D01*
X014039Y009380D01*
X014115Y009457D01*
X014269Y009457D01*
X014345Y009380D01*
X014192Y009610D02*
X014039Y009764D01*
X014499Y009764D01*
X014499Y009917D02*
X014499Y009610D01*
X014715Y010071D02*
X014639Y010148D01*
X014639Y010301D01*
X014869Y010301D02*
X014869Y010224D01*
X013608Y011734D02*
X013531Y011811D01*
X013531Y011964D01*
X013761Y011964D02*
X013761Y011887D01*
X012433Y009634D02*
X012126Y009634D01*
X012433Y009327D01*
X012510Y009403D01*
X012510Y009557D01*
X012433Y009634D01*
X012126Y009634D02*
X012050Y009557D01*
X012050Y009403D01*
X012126Y009327D01*
X012433Y009327D01*
X012510Y009173D02*
X012510Y008866D01*
X012203Y009173D01*
X012126Y009173D01*
X012050Y009096D01*
X012050Y008943D01*
X012126Y008866D01*
X012126Y008713D02*
X012050Y008636D01*
X012050Y008483D01*
X012126Y008406D01*
X012433Y008406D01*
X012510Y008483D01*
X012510Y008636D01*
X012433Y008713D01*
X012487Y007360D02*
X012180Y007360D01*
X012180Y006900D01*
X012487Y006900D01*
X012334Y007130D02*
X012180Y007130D01*
X012027Y006900D02*
X011720Y006900D01*
X011720Y007360D01*
X011260Y007360D02*
X011260Y006900D01*
X011567Y006900D01*
X011725Y006760D02*
X011725Y006300D01*
X011725Y006453D02*
X011955Y006607D01*
X012108Y006530D02*
X012108Y006377D01*
X012185Y006300D01*
X012338Y006300D01*
X012415Y006377D01*
X012415Y006530D01*
X012338Y006607D01*
X012185Y006607D01*
X012108Y006530D01*
X011955Y006300D02*
X011725Y006453D01*
X011571Y006377D02*
X011571Y006300D01*
X011494Y006300D01*
X011494Y006377D01*
X011571Y006377D01*
X011341Y006300D02*
X011187Y006300D01*
X011264Y006300D02*
X011264Y006760D01*
X011187Y006760D01*
X011030Y006900D02*
X010876Y006900D01*
X010799Y006977D01*
X010799Y007360D01*
X010646Y007284D02*
X010646Y007207D01*
X010569Y007130D01*
X010339Y007130D01*
X010339Y006900D02*
X010569Y006900D01*
X010646Y006977D01*
X010646Y007053D01*
X010569Y007130D01*
X010646Y007284D02*
X010569Y007360D01*
X010339Y007360D01*
X010339Y006900D01*
X010497Y006837D02*
X010497Y006760D01*
X010497Y006607D02*
X010497Y006300D01*
X010420Y006300D02*
X010574Y006300D01*
X010727Y006377D02*
X010727Y006530D01*
X010804Y006607D01*
X010957Y006607D01*
X011034Y006530D01*
X011034Y006453D01*
X010727Y006453D01*
X010727Y006377D02*
X010804Y006300D01*
X010957Y006300D01*
X010497Y006607D02*
X010420Y006607D01*
X010267Y006530D02*
X010267Y006300D01*
X010267Y006530D02*
X010190Y006607D01*
X009960Y006607D01*
X009960Y006300D01*
X009806Y006300D02*
X009806Y006530D01*
X009730Y006607D01*
X009576Y006607D01*
X009576Y006453D02*
X009806Y006453D01*
X009806Y006300D02*
X009576Y006300D01*
X009499Y006377D01*
X009576Y006453D01*
X009346Y006300D02*
X009116Y006300D01*
X009039Y006377D01*
X009039Y006530D01*
X009116Y006607D01*
X009346Y006607D01*
X009346Y006760D02*
X009346Y006300D01*
X011030Y006900D02*
X011106Y006977D01*
X011106Y007360D01*
X012641Y007360D02*
X012948Y007360D01*
X012794Y007360D02*
X012794Y006900D01*
X012876Y006607D02*
X012645Y006607D01*
X012569Y006530D01*
X012569Y006377D01*
X012645Y006300D01*
X012876Y006300D01*
X012876Y006223D02*
X012876Y006607D01*
X013029Y006607D02*
X013029Y006377D01*
X013106Y006300D01*
X013336Y006300D01*
X013336Y006607D01*
X013489Y006530D02*
X013566Y006607D01*
X013796Y006607D01*
X013950Y006607D02*
X014026Y006607D01*
X014026Y006300D01*
X013950Y006300D02*
X014103Y006300D01*
X014257Y006377D02*
X014333Y006300D01*
X014564Y006300D01*
X014564Y006607D01*
X014717Y006760D02*
X014717Y006300D01*
X014717Y006453D02*
X014947Y006607D01*
X015101Y006684D02*
X015177Y006760D01*
X015331Y006760D01*
X015408Y006684D01*
X015408Y006530D01*
X015331Y006453D01*
X015331Y006607D01*
X015177Y006607D01*
X015177Y006453D01*
X015331Y006453D01*
X015408Y006377D02*
X015331Y006300D01*
X015177Y006300D01*
X015101Y006377D01*
X015101Y006684D01*
X015096Y006900D02*
X015173Y006977D01*
X015173Y007360D01*
X015096Y007360D02*
X015250Y007360D01*
X015403Y007360D02*
X015403Y006900D01*
X015710Y006900D01*
X015864Y006977D02*
X015940Y006900D01*
X016094Y006900D01*
X016171Y006977D01*
X015864Y006977D02*
X015864Y007284D01*
X015940Y007360D01*
X016094Y007360D01*
X016171Y007284D01*
X016251Y007292D02*
X016558Y007292D01*
X016635Y007368D01*
X016635Y007522D01*
X016558Y007599D01*
X016635Y007752D02*
X016328Y008059D01*
X016251Y008059D01*
X016174Y007982D01*
X016174Y007829D01*
X016251Y007752D01*
X016251Y007599D02*
X016174Y007522D01*
X016174Y007368D01*
X016251Y007292D01*
X016324Y007360D02*
X016631Y007360D01*
X016477Y007360D02*
X016477Y006900D01*
X016559Y006607D02*
X016712Y006607D01*
X016789Y006530D01*
X016789Y006300D01*
X016559Y006300D01*
X016482Y006377D01*
X016559Y006453D01*
X016789Y006453D01*
X016942Y006300D02*
X017096Y006300D01*
X017019Y006300D02*
X017019Y006607D01*
X016942Y006607D01*
X017019Y006760D02*
X017019Y006837D01*
X017249Y006760D02*
X017326Y006760D01*
X017326Y006300D01*
X017249Y006300D02*
X017403Y006300D01*
X017556Y006300D02*
X017633Y006300D01*
X017633Y006377D01*
X017556Y006377D01*
X017556Y006300D01*
X017786Y006377D02*
X017863Y006300D01*
X018093Y006300D01*
X018139Y006314D02*
X018599Y006314D01*
X018554Y006377D02*
X018477Y006300D01*
X018323Y006300D01*
X018247Y006377D01*
X018247Y006530D01*
X018323Y006607D01*
X018477Y006607D01*
X018554Y006530D01*
X018554Y006377D01*
X018599Y006467D02*
X018599Y006160D01*
X018522Y006007D02*
X018599Y005930D01*
X018599Y005777D01*
X018522Y005700D01*
X018215Y005700D01*
X018139Y005777D01*
X018139Y005930D01*
X018215Y006007D01*
X018292Y006160D02*
X018139Y006314D01*
X018093Y006607D02*
X017863Y006607D01*
X017786Y006530D01*
X017786Y006377D01*
X018139Y006698D02*
X018139Y006851D01*
X018215Y006928D01*
X018522Y006928D01*
X018599Y006851D01*
X018599Y006698D01*
X018522Y006621D01*
X018369Y006698D02*
X018369Y006928D01*
X018369Y006698D02*
X018292Y006621D01*
X018215Y006621D01*
X018139Y006698D01*
X018707Y006607D02*
X018707Y006300D01*
X018861Y006300D02*
X018861Y006530D01*
X018937Y006607D01*
X019014Y006530D01*
X019014Y006300D01*
X018861Y006530D02*
X018784Y006607D01*
X018707Y006607D01*
X018522Y005067D02*
X018369Y005067D01*
X018292Y004991D01*
X018292Y004914D01*
X018369Y004760D01*
X018139Y004760D01*
X018139Y005067D01*
X018522Y005067D02*
X018599Y004991D01*
X018599Y004837D01*
X018522Y004760D01*
X018522Y004607D02*
X018599Y004530D01*
X018599Y004377D01*
X018522Y004300D01*
X018215Y004300D01*
X018139Y004377D01*
X018139Y004530D01*
X018215Y004607D01*
X019655Y003537D02*
X019731Y003384D01*
X019885Y003230D01*
X019885Y003461D01*
X019962Y003537D01*
X020038Y003537D01*
X020115Y003461D01*
X020115Y003307D01*
X020038Y003230D01*
X019885Y003230D01*
X020038Y003077D02*
X020115Y003000D01*
X020115Y002847D01*
X020038Y002770D01*
X019731Y002770D01*
X019655Y002847D01*
X019655Y003000D01*
X019731Y003077D01*
X020639Y003500D02*
X020639Y003730D01*
X020715Y003807D01*
X020869Y003807D01*
X020945Y003730D01*
X020945Y003500D01*
X021099Y003500D02*
X020639Y003500D01*
X020639Y003960D02*
X020639Y004191D01*
X020715Y004267D01*
X020869Y004267D01*
X020945Y004191D01*
X020945Y003960D01*
X020945Y004114D02*
X021099Y004267D01*
X021022Y004421D02*
X021099Y004498D01*
X021099Y004651D01*
X021022Y004728D01*
X020715Y004728D01*
X020639Y004651D01*
X020639Y004498D01*
X020715Y004421D01*
X021022Y004421D01*
X021022Y004881D02*
X020715Y004881D01*
X020639Y004958D01*
X020639Y005111D01*
X020715Y005188D01*
X020869Y005188D02*
X020869Y005035D01*
X020869Y005188D02*
X021022Y005188D01*
X021099Y005111D01*
X021099Y004958D01*
X021022Y004881D01*
X021099Y003960D02*
X020639Y003960D01*
X016328Y006300D02*
X016328Y006530D01*
X016252Y006607D01*
X016175Y006530D01*
X016175Y006300D01*
X016022Y006300D02*
X016022Y006607D01*
X016098Y006607D01*
X016175Y006530D01*
X015868Y006607D02*
X015868Y006223D01*
X015791Y006147D01*
X015715Y006147D01*
X015638Y006300D02*
X015868Y006300D01*
X015638Y006300D02*
X015561Y006377D01*
X015561Y006530D01*
X015638Y006607D01*
X015868Y006607D01*
X015557Y007130D02*
X015403Y007130D01*
X015403Y007360D02*
X015710Y007360D01*
X015096Y006900D02*
X015020Y006900D01*
X014943Y006977D01*
X014789Y006977D02*
X014789Y007284D01*
X014713Y007360D01*
X014559Y007360D01*
X014482Y007284D01*
X014482Y006977D01*
X014559Y006900D01*
X014713Y006900D01*
X014789Y006977D01*
X014329Y006900D02*
X014176Y007053D01*
X014252Y007053D02*
X014022Y007053D01*
X014022Y006900D02*
X014022Y007360D01*
X014252Y007360D01*
X014329Y007284D01*
X014329Y007130D01*
X014252Y007053D01*
X014026Y006837D02*
X014026Y006760D01*
X014257Y006607D02*
X014257Y006377D01*
X014717Y006453D02*
X014947Y006300D01*
X013796Y006300D02*
X013566Y006300D01*
X013489Y006377D01*
X013489Y006530D01*
X013562Y006900D02*
X013562Y007360D01*
X013792Y007360D01*
X013869Y007284D01*
X013869Y007130D01*
X013792Y007053D01*
X013562Y007053D01*
X012876Y006223D02*
X012799Y006147D01*
X012722Y006147D01*
X016174Y008212D02*
X016404Y008212D01*
X016328Y008366D01*
X016328Y008443D01*
X016404Y008519D01*
X016558Y008519D01*
X016635Y008443D01*
X016635Y008289D01*
X016558Y008212D01*
X016635Y008059D02*
X016635Y007752D01*
X016174Y008212D02*
X016174Y008519D01*
X018339Y009050D02*
X018339Y009280D01*
X018415Y009357D01*
X018569Y009357D01*
X018645Y009280D01*
X018645Y009050D01*
X018645Y009203D02*
X018799Y009357D01*
X018799Y009510D02*
X018799Y009817D01*
X018799Y009664D02*
X018339Y009664D01*
X018492Y009510D01*
X018339Y009050D02*
X018799Y009050D01*
X019555Y009084D02*
X019708Y008930D01*
X019631Y008777D02*
X019555Y008700D01*
X019555Y008547D01*
X019631Y008470D01*
X019938Y008470D01*
X020015Y008547D01*
X020015Y008700D01*
X019938Y008777D01*
X020015Y008930D02*
X020015Y009237D01*
X020015Y009084D02*
X019555Y009084D01*
X019631Y009391D02*
X019555Y009468D01*
X019555Y009621D01*
X019631Y009698D01*
X019938Y009391D01*
X020015Y009468D01*
X020015Y009621D01*
X019938Y009698D01*
X019631Y009698D01*
X019631Y009391D02*
X019938Y009391D01*
X020739Y009437D02*
X020815Y009360D01*
X021122Y009360D01*
X021199Y009437D01*
X021199Y009591D01*
X021122Y009667D01*
X020815Y009667D01*
X020739Y009591D01*
X020739Y009437D01*
X020815Y009207D02*
X020739Y009130D01*
X020739Y008900D01*
X021199Y008900D01*
X021045Y008900D02*
X021045Y009130D01*
X020969Y009207D01*
X020815Y009207D01*
X020739Y009821D02*
X021199Y009821D01*
X021045Y009974D01*
X021199Y010128D01*
X020739Y010128D01*
X020961Y011026D02*
X020961Y011256D01*
X021038Y011333D01*
X021192Y011333D01*
X021268Y011256D01*
X021268Y011026D01*
X021268Y011179D02*
X021422Y011333D01*
X021422Y011486D02*
X021115Y011793D01*
X021038Y011793D01*
X020961Y011717D01*
X020961Y011563D01*
X021038Y011486D01*
X021422Y011486D02*
X021422Y011793D01*
X021422Y011947D02*
X021345Y011947D01*
X021038Y012254D01*
X020961Y012254D01*
X020961Y011947D01*
X020961Y011026D02*
X021422Y011026D01*
X009348Y009106D02*
X009041Y009106D01*
X009271Y009336D01*
X009271Y008876D01*
X008888Y008876D02*
X008734Y009029D01*
X008811Y009029D02*
X008581Y009029D01*
X008581Y008876D02*
X008581Y009336D01*
X008811Y009336D01*
X008888Y009259D01*
X008888Y009106D01*
X008811Y009029D01*
D736*
X008919Y007580D02*
X017919Y007580D01*
X017919Y006080D01*
X008919Y006080D01*
X008919Y007580D01*
D737*
X014280Y012627D02*
X014280Y013336D01*
X014753Y013336D02*
X014753Y012627D01*
D738*
X013360Y012091D02*
X012573Y012091D01*
X012573Y010319D01*
X013360Y010319D01*
X013360Y012091D01*
X017638Y010311D02*
X020000Y010311D01*
X020000Y014249D01*
X017638Y014249D01*
X017638Y010311D01*
X018032Y011099D02*
X019606Y011099D01*
X017939Y012280D02*
X017941Y012339D01*
X017947Y012397D01*
X017957Y012455D01*
X017970Y012512D01*
X017988Y012569D01*
X018009Y012624D01*
X018034Y012677D01*
X018062Y012728D01*
X018093Y012778D01*
X018128Y012825D01*
X018166Y012870D01*
X018207Y012913D01*
X018251Y012952D01*
X018297Y012988D01*
X018345Y013022D01*
X018396Y013052D01*
X018449Y013078D01*
X018503Y013101D01*
X018558Y013120D01*
X018615Y013136D01*
X018673Y013148D01*
X018731Y013156D01*
X018790Y013160D01*
X018848Y013160D01*
X018907Y013156D01*
X018965Y013148D01*
X019023Y013136D01*
X019080Y013120D01*
X019135Y013101D01*
X019189Y013078D01*
X019242Y013052D01*
X019293Y013022D01*
X019341Y012988D01*
X019387Y012952D01*
X019431Y012913D01*
X019472Y012870D01*
X019510Y012825D01*
X019545Y012778D01*
X019576Y012728D01*
X019604Y012677D01*
X019629Y012624D01*
X019650Y012569D01*
X019668Y012512D01*
X019681Y012455D01*
X019691Y012397D01*
X019697Y012339D01*
X019699Y012280D01*
X019697Y012221D01*
X019691Y012163D01*
X019681Y012105D01*
X019668Y012048D01*
X019650Y011991D01*
X019629Y011936D01*
X019604Y011883D01*
X019576Y011832D01*
X019545Y011782D01*
X019510Y011735D01*
X019472Y011690D01*
X019431Y011647D01*
X019387Y011608D01*
X019341Y011572D01*
X019293Y011538D01*
X019242Y011508D01*
X019189Y011482D01*
X019135Y011459D01*
X019080Y011440D01*
X019023Y011424D01*
X018965Y011412D01*
X018907Y011404D01*
X018848Y011400D01*
X018790Y011400D01*
X018731Y011404D01*
X018673Y011412D01*
X018615Y011424D01*
X018558Y011440D01*
X018503Y011459D01*
X018449Y011482D01*
X018396Y011508D01*
X018345Y011538D01*
X018297Y011572D01*
X018251Y011608D01*
X018207Y011647D01*
X018166Y011690D01*
X018128Y011735D01*
X018093Y011782D01*
X018062Y011832D01*
X018034Y011883D01*
X018009Y011936D01*
X017988Y011991D01*
X017970Y012048D01*
X017957Y012105D01*
X017947Y012163D01*
X017941Y012221D01*
X017939Y012280D01*
X018032Y013461D02*
X019606Y013461D01*
X022932Y013821D02*
X026042Y013821D01*
X026042Y008939D01*
X022932Y008939D01*
X022932Y013821D01*
X022932Y013939D02*
X022932Y018821D01*
X026042Y018821D01*
X026042Y013939D01*
X022932Y013939D01*
X023060Y018993D02*
X018178Y018993D01*
X018178Y022103D01*
X023060Y022103D01*
X023060Y018993D01*
X016306Y018980D02*
X010439Y018980D01*
X010439Y022090D01*
X016306Y022090D01*
X016306Y018980D01*
X008460Y018993D02*
X003578Y018993D01*
X003578Y022103D01*
X008460Y022103D01*
X008460Y018993D01*
X003606Y018821D02*
X003606Y013939D01*
X000496Y013939D01*
X000496Y018821D01*
X003606Y018821D01*
X003606Y013821D02*
X000496Y013821D01*
X000496Y008939D01*
X003606Y008939D01*
X003606Y013821D01*
X003606Y008821D02*
X000496Y008821D01*
X000496Y003939D01*
X003606Y003939D01*
X003606Y008821D01*
X022932Y008813D02*
X022932Y002947D01*
X026042Y002947D01*
X026042Y008813D01*
X022932Y008813D01*
D739*
X023719Y007849D02*
X025491Y007849D01*
X025491Y006864D02*
X023719Y006864D01*
X023719Y005880D02*
X025491Y005880D01*
X025491Y004896D02*
X023719Y004896D01*
X023719Y003911D02*
X025491Y003911D01*
X025491Y009923D02*
X023719Y009923D01*
X023719Y010888D02*
X025491Y010888D01*
X025491Y011892D02*
X023719Y011892D01*
X023719Y012856D02*
X025491Y012856D01*
X025491Y014923D02*
X023719Y014923D01*
X023719Y015888D02*
X025491Y015888D01*
X025491Y016892D02*
X023719Y016892D01*
X023719Y017856D02*
X025491Y017856D01*
X022076Y019780D02*
X022076Y021552D01*
X021111Y021552D02*
X021111Y019780D01*
X020107Y019780D02*
X020107Y021552D01*
X019143Y021552D02*
X019143Y019780D01*
X015341Y019767D02*
X015341Y021539D01*
X014357Y021539D02*
X014357Y019767D01*
X013372Y019767D02*
X013372Y021539D01*
X012388Y021539D02*
X012388Y019767D01*
X011404Y019767D02*
X011404Y021539D01*
X007476Y021552D02*
X007476Y019780D01*
X006511Y019780D02*
X006511Y021552D01*
X005507Y021552D02*
X005507Y019780D01*
X004543Y019780D02*
X004543Y021552D01*
X002819Y017837D02*
X001047Y017837D01*
X001047Y016872D02*
X002819Y016872D01*
X002819Y015868D02*
X001047Y015868D01*
X001047Y014904D02*
X002819Y014904D01*
X002819Y012837D02*
X001047Y012837D01*
X001047Y011872D02*
X002819Y011872D01*
X002819Y010868D02*
X001047Y010868D01*
X001047Y009904D02*
X002819Y009904D01*
X002819Y007837D02*
X001047Y007837D01*
X001047Y006872D02*
X002819Y006872D01*
X002819Y005868D02*
X001047Y005868D01*
X001047Y004904D02*
X002819Y004904D01*
D740*
X015419Y013219D03*
X016219Y013219D03*
X017019Y013219D03*
D741*
X013513Y011370D02*
X013513Y011333D01*
X013494Y011315D01*
X013421Y011315D01*
X013403Y011333D01*
X013403Y011370D01*
X013421Y011388D01*
X013458Y011388D02*
X013458Y011352D01*
X013458Y011388D02*
X013494Y011388D01*
X013513Y011370D01*
X013513Y011278D02*
X013403Y011278D01*
X013439Y011241D01*
X013403Y011205D01*
X013513Y011205D01*
X013494Y011167D02*
X013513Y011149D01*
X013513Y011112D01*
X013494Y011094D01*
X013421Y011167D01*
X013494Y011167D01*
X013494Y011094D02*
X013421Y011094D01*
X013403Y011112D01*
X013403Y011149D01*
X013421Y011167D01*
X013421Y011057D02*
X013494Y010984D01*
X013513Y011002D01*
X013513Y011039D01*
X013494Y011057D01*
X013421Y011057D01*
X013403Y011039D01*
X013403Y011002D01*
X013421Y010984D01*
X013494Y010984D01*
X013494Y010947D02*
X013513Y010947D01*
X013513Y010928D01*
X013494Y010928D01*
X013494Y010947D01*
X013494Y010891D02*
X013513Y010873D01*
X013513Y010836D01*
X013494Y010818D01*
X013476Y010818D01*
X013458Y010836D01*
X013458Y010873D01*
X013476Y010891D01*
X013494Y010891D01*
X013458Y010873D02*
X013439Y010891D01*
X013421Y010891D01*
X013403Y010873D01*
X013403Y010836D01*
X013421Y010818D01*
X013439Y010818D01*
X013458Y010836D01*
X013458Y010781D02*
X013476Y010762D01*
X013476Y010707D01*
X013513Y010707D02*
X013403Y010707D01*
X013403Y010762D01*
X013421Y010781D01*
X013458Y010781D01*
X013476Y010744D02*
X013513Y010781D01*
X013494Y010670D02*
X013513Y010652D01*
X013513Y010615D01*
X013494Y010597D01*
X013421Y010597D01*
X013403Y010615D01*
X013403Y010652D01*
X013421Y010670D01*
X013403Y010560D02*
X013403Y010486D01*
X013403Y010449D02*
X013403Y010376D01*
X013403Y010413D02*
X013513Y010413D01*
X013513Y010339D02*
X013513Y010265D01*
X013494Y010265D01*
X013421Y010339D01*
X013403Y010339D01*
X013403Y010265D01*
X013403Y010523D02*
X013513Y010523D01*
M02*
