G75*
G70*
%OFA0B0*%
%FSLAX24Y24*%
%IPPOS*%
%LPD*%
%AMOC8*
5,1,8,0,0,1.08239X$1,22.5*
%
%ADD10R,0.0512X0.0591*%
%ADD11R,0.0310X0.0350*%
%ADD12R,0.0630X0.0551*%
%ADD13R,0.0591X0.0512*%
%ADD14C,0.0600*%
%ADD15R,0.0551X0.0630*%
%ADD16OC8,0.0600*%
%ADD17R,0.0709X0.0551*%
%ADD18C,0.0700*%
%ADD19R,0.0350X0.0310*%
%ADD20C,0.0120*%
%ADD21C,0.0160*%
%ADD22C,0.0357*%
%ADD23C,0.0500*%
%ADD24C,0.0396*%
D10*
X002022Y003367D03*
X002770Y003367D03*
X002417Y004030D03*
X001669Y004030D03*
X003065Y004863D03*
X003813Y004863D03*
X003835Y005621D03*
X003087Y005621D03*
X007780Y004166D03*
X008528Y004166D03*
X009158Y004954D03*
X009906Y004954D03*
X011323Y005446D03*
X012071Y005446D03*
X009610Y006479D03*
X008862Y006479D03*
X008862Y007267D03*
X009610Y007267D03*
X009354Y009383D03*
X010102Y009383D03*
X009610Y010219D03*
X008862Y010219D03*
X008862Y011007D03*
X009610Y011007D03*
X009354Y013123D03*
X010102Y013123D03*
X013435Y014778D03*
X014183Y014778D03*
X014191Y015526D03*
X013443Y015526D03*
X013563Y017524D03*
X012815Y017524D03*
X012799Y018192D03*
X013547Y018192D03*
X013547Y018979D03*
X012799Y018979D03*
X013242Y021095D03*
X013990Y021095D03*
X032238Y016026D03*
X032986Y016026D03*
X032986Y015042D03*
X032238Y015042D03*
X032238Y014058D03*
X032986Y014058D03*
X032986Y011056D03*
X032238Y011056D03*
X032238Y010072D03*
X032986Y010072D03*
X032986Y009087D03*
X032238Y009087D03*
X027770Y008349D03*
X027022Y008349D03*
X027022Y007710D03*
X027770Y007710D03*
X027770Y007070D03*
X027022Y007070D03*
X027022Y006430D03*
X027022Y005790D03*
X027770Y005790D03*
X027770Y006430D03*
X008971Y003428D03*
X008222Y003428D03*
D11*
X009571Y003619D03*
X009951Y004419D03*
X009191Y004419D03*
X003827Y004352D03*
X003067Y004352D03*
X003447Y003552D03*
D12*
X002453Y004660D03*
X001272Y004660D03*
X007268Y004806D03*
X008449Y004806D03*
D13*
X005892Y004194D03*
X005183Y004198D03*
X005183Y003450D03*
X005892Y003446D03*
X008203Y006499D03*
X008203Y007247D03*
X008203Y008074D03*
X008203Y008822D03*
X008203Y010239D03*
X008203Y010987D03*
X008203Y011715D03*
X008203Y012463D03*
X010073Y012463D03*
X010073Y011715D03*
X010073Y008674D03*
X010073Y007926D03*
X011402Y004393D03*
X012140Y004393D03*
X012140Y003645D03*
X011402Y003645D03*
X012831Y014778D03*
X012831Y015526D03*
X012829Y016145D03*
X012829Y016893D03*
X012140Y018211D03*
X012140Y018960D03*
X012140Y019737D03*
X012140Y020485D03*
X014010Y020387D03*
X014010Y019639D03*
X015978Y020623D03*
X015978Y021371D03*
X016963Y021371D03*
X016963Y020623D03*
X017947Y020574D03*
X017947Y021322D03*
X020949Y021371D03*
X020949Y020623D03*
X021933Y020623D03*
X021933Y021371D03*
X022917Y021371D03*
X022917Y020623D03*
X025919Y020623D03*
X025919Y021371D03*
X026904Y021371D03*
X027888Y021371D03*
X027888Y020623D03*
X026904Y020623D03*
X030890Y020623D03*
X030890Y021371D03*
X031874Y021371D03*
X031874Y020623D03*
X032858Y020623D03*
X032858Y021371D03*
X027445Y017582D03*
X026756Y017582D03*
X026035Y017587D03*
X026035Y016839D03*
X026756Y016834D03*
X027445Y016834D03*
X014748Y016942D03*
X014748Y016194D03*
X028378Y007156D03*
X028378Y006408D03*
X028382Y005385D03*
X028382Y004637D03*
X032415Y004432D03*
X032415Y005180D03*
X032415Y006007D03*
X032415Y006755D03*
D14*
X030353Y006538D02*
X029753Y006538D01*
X029753Y007538D02*
X030353Y007538D01*
X030353Y009310D02*
X029753Y009310D01*
X029753Y010310D02*
X030353Y010310D01*
X030353Y011436D02*
X029753Y011436D01*
X029753Y012436D02*
X030353Y012436D01*
X030363Y014078D02*
X029763Y014078D01*
X029763Y015078D02*
X030363Y015078D01*
X030363Y016078D02*
X029763Y016078D01*
X029763Y017078D02*
X030363Y017078D01*
X028441Y018187D02*
X028441Y018787D01*
X027441Y018787D02*
X027441Y018187D01*
X026441Y018187D02*
X026441Y018787D01*
X025441Y018787D02*
X025441Y018187D01*
X024441Y018187D02*
X024441Y018787D01*
X022862Y018787D02*
X022862Y018187D01*
X021862Y018187D02*
X021862Y018787D01*
X020862Y018787D02*
X020862Y018187D01*
X019862Y018187D02*
X019862Y018787D01*
X017921Y018787D02*
X017921Y018187D01*
X016921Y018187D02*
X016921Y018787D01*
X015921Y018787D02*
X015921Y018187D01*
X014921Y018187D02*
X014921Y018787D01*
X019014Y006041D02*
X019014Y005441D01*
X019014Y004811D02*
X019014Y004211D01*
X019006Y003580D02*
X019006Y002980D01*
X020006Y002980D02*
X020006Y003580D01*
X020014Y004211D02*
X020014Y004811D01*
X020014Y005441D02*
X020014Y006041D01*
X021014Y006041D02*
X021014Y005441D01*
X021014Y004811D02*
X021014Y004211D01*
X021006Y003580D02*
X021006Y002980D01*
X022006Y002980D02*
X022006Y003580D01*
X023041Y003580D02*
X023041Y002980D01*
X024041Y002980D02*
X024041Y003580D01*
X025041Y003580D02*
X025041Y002980D01*
X026041Y002980D02*
X026041Y003580D01*
X029753Y005538D02*
X030353Y005538D01*
D15*
X029028Y005599D03*
X029012Y006267D03*
X029012Y007448D03*
X029028Y004418D03*
D16*
X029051Y002156D03*
X028051Y002156D03*
X027051Y002156D03*
X026051Y002156D03*
X025051Y002156D03*
X024051Y002156D03*
X023051Y002156D03*
X022051Y002156D03*
X021051Y002156D03*
X021051Y001156D03*
X022051Y001156D03*
X023051Y001156D03*
X024051Y001156D03*
X025051Y001156D03*
X026051Y001156D03*
X027051Y001156D03*
X028051Y001156D03*
X029051Y001156D03*
X030051Y001156D03*
X031051Y001156D03*
X032051Y001156D03*
X033051Y001156D03*
X033051Y002156D03*
X032051Y002156D03*
X031051Y002156D03*
X030051Y002156D03*
D17*
X010663Y003349D03*
X010663Y004688D03*
X004494Y004654D03*
X004494Y003316D03*
D18*
X004709Y002493D03*
X005693Y002493D03*
X003724Y002493D03*
X002740Y002493D03*
X001756Y002493D03*
X008055Y002493D03*
X009039Y002493D03*
X010024Y002493D03*
X011008Y002493D03*
X011992Y002493D03*
X007415Y007414D03*
X007415Y008399D03*
X007415Y009383D03*
X007415Y011400D03*
X007415Y012385D03*
X007415Y013369D03*
X011360Y015316D03*
X011360Y016300D03*
X011360Y017284D03*
X011352Y019324D03*
X011352Y020308D03*
X011352Y021292D03*
X014994Y019914D03*
X015978Y019914D03*
X016963Y019914D03*
X017947Y019914D03*
X019965Y019914D03*
X020949Y019914D03*
X021933Y019914D03*
X022917Y019914D03*
X024935Y019914D03*
X025919Y019914D03*
X026904Y019914D03*
X027888Y019914D03*
X029906Y019914D03*
X030890Y019914D03*
X031874Y019914D03*
X032858Y019914D03*
X031530Y017011D03*
X031530Y016026D03*
X031530Y015042D03*
X031530Y014058D03*
X031530Y012040D03*
X031530Y011056D03*
X031530Y010072D03*
X031530Y009087D03*
X031530Y007070D03*
X031530Y006086D03*
X031530Y005101D03*
X031530Y004117D03*
X016913Y007808D03*
X015929Y007808D03*
X014945Y007808D03*
D19*
X009587Y007881D03*
X008787Y008261D03*
X009587Y008641D03*
X009587Y011621D03*
X008787Y012001D03*
X009587Y012381D03*
X014213Y016198D03*
X014213Y016958D03*
X013413Y016578D03*
X013524Y019593D03*
X012724Y019973D03*
X013524Y020353D03*
D20*
X013977Y020353D01*
X013990Y020406D02*
X013990Y021095D01*
X014305Y021587D02*
X014502Y021391D01*
X014502Y018906D01*
X014921Y018487D01*
X014354Y018143D02*
X013597Y018143D01*
X013547Y018192D01*
X013547Y018979D01*
X014059Y018881D02*
X014059Y019570D01*
X014010Y019619D01*
X013321Y019619D01*
X012829Y019127D01*
X012829Y018930D01*
X012799Y018960D01*
X012799Y018979D02*
X012927Y019107D01*
X012927Y019225D02*
X013295Y019593D01*
X013524Y019593D01*
X013569Y019639D02*
X014010Y019639D01*
X014994Y019914D02*
X014994Y021538D01*
X015437Y021981D01*
X019965Y021981D01*
X019965Y019914D01*
X019226Y019176D01*
X019226Y018143D01*
X019623Y017746D01*
X020661Y017746D01*
X020977Y017430D01*
X020977Y016572D01*
X020770Y016365D01*
X020620Y016826D02*
X020622Y016828D01*
X020622Y017250D01*
X020319Y017552D01*
X019472Y017552D01*
X018882Y018143D01*
X018882Y021243D01*
X018341Y021784D01*
X016471Y021784D01*
X016057Y021371D01*
X015978Y021371D01*
X015486Y021095D02*
X015486Y020210D01*
X015486Y019619D01*
X015782Y019324D01*
X016126Y019324D01*
X017209Y019324D01*
X018095Y019324D01*
X018439Y018979D01*
X018439Y015780D01*
X017750Y015091D01*
X015831Y015091D01*
X012878Y012139D01*
X012927Y011745D02*
X012484Y011745D01*
X012927Y011745D02*
X013272Y011400D01*
X013788Y011377D02*
X013222Y010811D01*
X012832Y010348D02*
X012827Y009775D01*
X011549Y008497D01*
X011549Y007660D01*
X009876Y005987D01*
X004217Y005987D01*
X003850Y005621D01*
X003835Y005621D01*
X004494Y005477D02*
X004758Y005790D01*
X010024Y005790D01*
X011746Y007513D01*
X011746Y008349D01*
X013189Y009792D01*
X013189Y009977D01*
X013638Y009897D02*
X013712Y009897D01*
X013638Y009897D02*
X012435Y008694D01*
X012435Y007562D01*
X012071Y007198D01*
X012071Y005446D01*
X012484Y005003D02*
X012484Y006086D01*
X012632Y006233D01*
X012632Y008595D01*
X013572Y009536D01*
X013870Y009536D01*
X014163Y009829D01*
X014225Y009829D01*
X014695Y009401D02*
X014695Y010757D01*
X014794Y010856D01*
X016421Y012483D01*
X016421Y013221D01*
X016421Y013369D01*
X016126Y013664D01*
X015831Y014107D02*
X016471Y014747D01*
X016815Y014747D01*
X019079Y014747D01*
X020211Y013615D01*
X021982Y011843D01*
X022967Y011843D01*
X023114Y011843D01*
X023606Y011499D02*
X023852Y011745D01*
X023852Y012532D01*
X024197Y012877D01*
X026947Y012877D01*
X028109Y011715D01*
X028774Y012434D02*
X029266Y011942D01*
X029266Y011097D01*
X030053Y010310D01*
X030299Y009826D02*
X030791Y009826D01*
X031530Y009087D01*
X032238Y009087D01*
X032986Y009087D02*
X032986Y010072D01*
X032986Y010091D01*
X032465Y010613D01*
X031136Y010613D01*
X030791Y010958D01*
X030791Y011597D01*
X030447Y011942D01*
X029561Y011942D01*
X028971Y012532D01*
X028971Y013074D01*
X028577Y013467D01*
X023163Y013467D01*
X022770Y013861D01*
X022032Y013861D01*
X022425Y013271D02*
X028478Y013271D01*
X028774Y012975D01*
X028774Y012434D01*
X029315Y013074D02*
X028774Y013615D01*
X028724Y013664D01*
X023213Y013664D01*
X022721Y014156D01*
X021343Y014156D01*
X021195Y014304D01*
X021343Y014649D02*
X021638Y014353D01*
X021884Y014353D01*
X021933Y014353D01*
X022819Y014353D01*
X023311Y013861D01*
X028872Y013861D01*
X029463Y013271D01*
X030939Y013271D01*
X033154Y013271D01*
X033203Y013320D01*
X033400Y013517D01*
X033400Y015584D01*
X032986Y015997D01*
X032986Y016026D01*
X032238Y016026D02*
X031530Y016026D01*
X031185Y016519D02*
X032219Y016519D01*
X032317Y016617D01*
X031530Y017011D02*
X033597Y017011D01*
X033597Y012385D01*
X033252Y012040D01*
X031530Y012040D01*
X031284Y011548D02*
X031037Y011794D01*
X031037Y012729D01*
X030693Y013074D01*
X029315Y013074D01*
X029561Y013467D02*
X028971Y014058D01*
X023410Y014058D01*
X022819Y014649D01*
X021835Y014649D01*
X021343Y014649D02*
X020900Y014649D01*
X020900Y014944D02*
X020112Y014944D01*
X019128Y015928D01*
X019128Y016666D01*
X018833Y017060D02*
X018833Y015830D01*
X020506Y014156D01*
X020900Y014944D02*
X021146Y014944D01*
X022819Y014944D01*
X023508Y014255D01*
X024738Y014255D01*
X024838Y014255D01*
X024986Y014402D01*
X024643Y014750D02*
X024345Y014452D01*
X023606Y014452D01*
X022917Y015141D01*
X021244Y015141D01*
X021195Y015141D01*
X020358Y015141D01*
X020309Y015141D01*
X020260Y015141D01*
X019423Y015977D01*
X019423Y016273D01*
X019390Y017241D02*
X019325Y017306D01*
X018636Y017995D01*
X018636Y020751D01*
X018065Y021322D01*
X017947Y021322D01*
X017012Y021322D01*
X016963Y021371D01*
X016963Y020623D02*
X016963Y019914D01*
X017947Y019914D02*
X017947Y020574D01*
X015978Y020623D02*
X015978Y019914D01*
X017947Y018487D02*
X015775Y016315D01*
X015573Y016315D01*
X014896Y016046D02*
X014748Y016194D01*
X014744Y016198D01*
X014213Y016198D01*
X014114Y016198D01*
X013443Y015526D01*
X013419Y015550D01*
X013419Y016026D01*
X012829Y016145D02*
X012673Y016300D01*
X011360Y016300D01*
X011106Y016814D02*
X010814Y016522D01*
X010814Y014551D01*
X010764Y014501D01*
X010762Y014501D01*
X009384Y013123D01*
X009354Y013123D01*
X009108Y012877D01*
X007120Y012877D01*
X006874Y012631D01*
X006874Y010662D01*
X008154Y009383D01*
X008203Y009383D01*
X009354Y009383D01*
X010102Y009383D02*
X010102Y008704D01*
X010073Y008674D01*
X010028Y007881D02*
X009587Y007881D01*
X009563Y007857D01*
X009335Y007857D01*
X008862Y007385D01*
X008203Y007316D02*
X007612Y007906D01*
X006825Y007906D01*
X006480Y007562D01*
X005545Y006332D01*
X005299Y006233D01*
X002347Y006233D01*
X001116Y005150D01*
X000880Y005150D01*
X000681Y004951D01*
X000681Y002335D01*
X000673Y002345D02*
X001858Y001161D01*
X006333Y001161D01*
X006364Y001192D01*
X012110Y001192D01*
X012153Y001235D01*
X012162Y001235D01*
X012240Y001313D01*
X012248Y001313D01*
X012931Y001996D01*
X012931Y003596D01*
X013222Y003888D01*
X013222Y005938D01*
X014551Y007267D01*
X015388Y007267D01*
X016126Y006528D01*
X021097Y006528D01*
X021589Y006036D01*
X021589Y003723D01*
X022032Y003280D01*
X022006Y003280D01*
X021006Y003280D02*
X020998Y003280D01*
X020506Y003773D01*
X020506Y005298D01*
X020014Y005741D01*
X020014Y004511D02*
X020014Y003288D01*
X020006Y003280D01*
X022327Y004166D02*
X022327Y004757D01*
X021982Y005101D01*
X021982Y005446D01*
X022725Y006130D02*
X022720Y006136D01*
X021399Y007456D01*
X021392Y007463D01*
X019866Y008989D01*
X019866Y009284D01*
X020223Y009468D02*
X020223Y008927D01*
X021441Y007710D01*
X021471Y007679D01*
X022819Y006332D01*
X023921Y005230D01*
X024128Y005230D01*
X025228Y006330D01*
X025828Y006330D01*
X025526Y006332D01*
X025178Y005980D02*
X024228Y005030D01*
X023828Y005030D01*
X022878Y005980D01*
X022728Y006130D01*
X022725Y006130D01*
X023116Y006330D02*
X023328Y006330D01*
X023116Y006330D02*
X022073Y007373D01*
X021590Y007856D01*
X020427Y009019D01*
X020427Y009814D01*
X019844Y010396D01*
X019542Y010396D01*
X019522Y010416D01*
X019522Y011007D02*
X021490Y011007D01*
X021982Y011499D01*
X023606Y011499D01*
X022671Y011105D02*
X021835Y010269D01*
X021828Y010262D01*
X021828Y009930D01*
X023228Y008530D01*
X023228Y007380D01*
X023228Y007130D01*
X023278Y007080D01*
X023474Y006730D02*
X023011Y006730D01*
X021884Y007857D01*
X020997Y008744D01*
X020997Y009081D01*
X020223Y009468D02*
X019966Y009725D01*
X019081Y009725D01*
X018242Y010564D01*
X017848Y010859D02*
X017848Y009432D01*
X019620Y007660D01*
X018833Y007267D02*
X021293Y007267D01*
X023730Y004830D01*
X024328Y004830D01*
X025278Y005780D01*
X025428Y005780D01*
X026578Y005780D01*
X026578Y007130D01*
X025478Y008230D01*
X025478Y007880D02*
X026328Y007030D01*
X026328Y006580D01*
X026328Y006280D01*
X026028Y005980D01*
X025178Y005980D01*
X025378Y005780D02*
X025428Y005780D01*
X025180Y005230D02*
X027178Y005230D01*
X027228Y005280D01*
X027394Y005446D01*
X027396Y005446D01*
X027396Y006282D01*
X027248Y006430D01*
X027022Y006430D01*
X027022Y005790D02*
X027003Y005772D01*
X026578Y005772D01*
X026578Y005780D01*
X026678Y005780D01*
X026578Y005780D02*
X026578Y005772D01*
X027022Y005790D02*
X027051Y005761D01*
X027770Y005790D02*
X027819Y005839D01*
X027839Y005839D01*
X027770Y005790D02*
X027976Y005790D01*
X028173Y005987D01*
X028429Y005987D01*
X028282Y005987D01*
X027976Y005790D02*
X028382Y005385D01*
X028813Y005385D01*
X029028Y005599D01*
X029028Y006036D01*
X030496Y006036D01*
X031530Y007070D01*
X032100Y007070D01*
X032415Y006755D01*
X033252Y007660D02*
X033547Y007365D01*
X033547Y004954D01*
X033104Y004511D01*
X033104Y002210D01*
X033051Y002156D01*
X032051Y002156D02*
X030976Y003231D01*
X028528Y003231D01*
X027444Y004315D01*
X027444Y004462D01*
X026878Y004487D02*
X026878Y004680D01*
X026553Y005005D01*
X025478Y005005D01*
X025476Y005005D02*
X025318Y004847D01*
X024935Y004985D02*
X024935Y004579D01*
X024719Y004363D01*
X023902Y004363D01*
X021244Y007021D01*
X018522Y007021D01*
X018318Y007224D01*
X018833Y007267D02*
X017652Y008448D01*
X014847Y008448D01*
X013252Y006853D01*
X013252Y006783D01*
X012878Y006332D02*
X012878Y008251D01*
X012976Y008349D01*
X012091Y008251D02*
X012091Y007513D01*
X012041Y007463D01*
X010171Y005593D01*
X006923Y005593D01*
X006874Y005544D01*
X006333Y005052D01*
X006333Y003674D01*
X006104Y003446D01*
X005892Y003446D01*
X005892Y003430D01*
X005890Y003428D01*
X005890Y002690D01*
X005693Y002493D01*
X005183Y002967D02*
X005183Y003450D01*
X005183Y002967D02*
X004709Y002493D01*
X005292Y001852D02*
X005522Y001621D01*
X007268Y001621D01*
X007268Y001668D01*
X007320Y001616D01*
X007282Y001616D01*
X007267Y001631D01*
X007268Y001668D02*
X007268Y004806D01*
X007780Y004294D01*
X007780Y004166D01*
X008222Y003723D01*
X008222Y003428D01*
X008222Y002660D01*
X008055Y002493D01*
X008597Y002936D02*
X008597Y004117D01*
X009649Y004117D01*
X009951Y004419D01*
X010351Y004019D01*
X010663Y004019D01*
X010663Y003349D01*
X010663Y004019D02*
X011795Y004019D01*
X012140Y004363D01*
X012140Y004393D01*
X012287Y004806D02*
X011795Y004806D01*
X011402Y004412D01*
X011402Y004393D01*
X010959Y004393D01*
X010663Y004688D01*
X009951Y004908D02*
X009951Y004419D01*
X009951Y004908D02*
X009906Y004954D01*
X009384Y005397D02*
X011175Y005397D01*
X011323Y005446D01*
X012287Y004806D02*
X012484Y005003D01*
X012730Y004068D02*
X012307Y003645D01*
X012140Y003645D01*
X012140Y002641D01*
X011992Y002493D01*
X011402Y002887D02*
X011008Y002493D01*
X011402Y002887D02*
X011402Y003645D01*
X012680Y003679D02*
X012680Y002100D01*
X012291Y001711D01*
X012266Y001711D01*
X012222Y001668D01*
X012214Y001668D01*
X012162Y001616D01*
X007320Y001616D01*
X008597Y002936D02*
X009039Y002493D01*
X009039Y003182D02*
X009039Y003359D01*
X009089Y003408D01*
X009089Y003428D01*
X009039Y003428D01*
X009089Y003428D02*
X009335Y003428D01*
X009335Y003182D01*
X010024Y002493D01*
X009380Y003428D02*
X009335Y003428D01*
X009380Y003428D02*
X009571Y003619D01*
X009161Y003619D02*
X008971Y003428D01*
X009039Y003359D01*
X008597Y004117D02*
X008547Y004166D01*
X008528Y004166D01*
X008449Y004245D01*
X008449Y004806D01*
X008498Y004855D01*
X008498Y005200D01*
X009138Y005200D02*
X009138Y004973D01*
X009158Y004954D01*
X009191Y004920D01*
X009191Y004419D01*
X009187Y005200D02*
X009335Y005347D01*
X009384Y005397D01*
X009187Y005200D02*
X009138Y005200D01*
X008862Y006479D02*
X008222Y006479D01*
X008203Y006499D01*
X007789Y006499D01*
X007415Y006873D01*
X007415Y007414D01*
X007809Y008005D02*
X007415Y008399D01*
X007809Y008005D02*
X008134Y008005D01*
X008787Y008261D02*
X008793Y008267D01*
X008793Y008448D01*
X008419Y008822D01*
X008203Y008822D01*
X007415Y009383D02*
X006677Y010121D01*
X006677Y012828D01*
X007219Y013369D01*
X007415Y013369D01*
X007911Y013864D01*
X009343Y013864D01*
X009728Y014249D01*
X009728Y014255D01*
X010368Y014895D01*
X010368Y017257D01*
X010396Y017284D01*
X011360Y017284D01*
X011106Y016814D02*
X011697Y016814D01*
X011894Y017011D01*
X011894Y017610D01*
X012729Y017610D01*
X012815Y017524D01*
X012829Y016893D02*
X013098Y016893D01*
X013413Y016578D01*
X014130Y016958D02*
X013563Y017524D01*
X014130Y016958D02*
X014213Y016958D01*
X014207Y016964D01*
X014207Y017011D01*
X014276Y016942D01*
X014748Y016942D01*
X015240Y017257D02*
X014354Y018143D01*
X015240Y017257D02*
X015240Y015091D01*
X014158Y014009D01*
X012337Y014009D01*
X011992Y013664D01*
X011993Y013664D01*
X011993Y011238D01*
X012314Y010916D01*
X012314Y010165D01*
X012112Y009963D01*
X012112Y009797D01*
X011618Y009850D02*
X011618Y009105D01*
X011655Y009068D01*
X011303Y009530D02*
X011303Y008103D01*
X010417Y007217D01*
X010073Y006873D01*
X009630Y006873D01*
X009610Y006853D01*
X009610Y006479D01*
X009610Y006893D02*
X009610Y007267D01*
X008203Y007247D02*
X008203Y007316D01*
X004494Y005477D02*
X004494Y004654D01*
X004951Y004198D01*
X005183Y004198D01*
X005545Y003822D02*
X004463Y003822D01*
X004494Y003790D01*
X004494Y003316D01*
X004463Y003822D02*
X003774Y003822D01*
X003626Y003969D01*
X002478Y003969D01*
X002417Y004030D01*
X002406Y004019D01*
X002396Y004019D01*
X002445Y003969D01*
X002445Y004019D02*
X002453Y004026D01*
X002453Y004068D01*
X002417Y004032D01*
X002417Y004030D01*
X002433Y004276D01*
X002445Y004265D01*
X002398Y004217D01*
X002453Y004068D02*
X002453Y004660D01*
X002394Y004660D02*
X001904Y005150D01*
X001116Y005150D01*
X001272Y004660D02*
X001272Y004418D01*
X001034Y004180D01*
X001034Y002407D01*
X001588Y001852D01*
X005292Y001852D01*
X003724Y002493D02*
X003528Y002690D01*
X003183Y003034D01*
X003183Y003379D01*
X003171Y003367D01*
X002770Y003367D01*
X003183Y003379D02*
X003356Y003552D01*
X003447Y003552D01*
X003626Y003969D02*
X003827Y004170D01*
X003827Y004352D01*
X003813Y004365D01*
X003813Y004863D01*
X003087Y004885D02*
X003087Y005621D01*
X003065Y004863D02*
X003065Y004353D01*
X003067Y004352D01*
X002396Y004019D02*
X002396Y002837D01*
X002740Y002493D01*
X002002Y002739D02*
X001756Y002493D01*
X002002Y002739D02*
X002002Y003379D01*
X002010Y003379D01*
X002022Y003367D01*
X002022Y003678D01*
X001669Y004030D01*
X001669Y004263D01*
X001272Y004660D01*
X005545Y003822D02*
X005917Y004194D01*
X005892Y004194D01*
X012680Y003679D02*
X012979Y003978D01*
X012979Y005984D01*
X012976Y005987D01*
X014797Y007808D01*
X014945Y007808D01*
X015240Y007808D01*
X015683Y008251D01*
X016274Y008251D01*
X016421Y008103D01*
X016421Y007119D01*
X016766Y006774D01*
X021195Y006774D01*
X023065Y004904D01*
X023065Y004363D01*
X023065Y003304D01*
X023041Y003280D01*
X024041Y003280D02*
X024041Y002166D01*
X024051Y002156D01*
X025041Y002166D02*
X025041Y003280D01*
X025041Y002166D02*
X025051Y002156D01*
X026184Y004403D02*
X027888Y002649D01*
X027888Y002641D01*
X029315Y002641D01*
X029561Y002395D01*
X029561Y001647D01*
X030051Y001156D01*
X030545Y001662D02*
X030545Y002395D01*
X030102Y002837D01*
X028134Y002837D01*
X028121Y002837D01*
X026578Y004380D01*
X026578Y004630D01*
X026428Y004780D01*
X025965Y004780D01*
X025915Y004730D01*
X025716Y004531D01*
X025180Y005230D02*
X024935Y004985D01*
X024028Y005630D02*
X024028Y007380D01*
X023428Y007980D01*
X023428Y009430D01*
X023078Y009780D01*
X022540Y009780D01*
X022178Y010143D01*
X022622Y010416D02*
X022770Y010564D01*
X023656Y010564D01*
X024640Y009580D01*
X024641Y009580D01*
X026805Y009580D01*
X026215Y009924D02*
X026215Y012237D01*
X025772Y012680D01*
X024492Y012680D01*
X024345Y012532D01*
X024828Y012380D02*
X024828Y009930D01*
X025478Y009930D02*
X025478Y012359D01*
X025487Y012367D01*
X027593Y013074D02*
X027740Y012926D01*
X027593Y013074D02*
X022868Y013074D01*
X022032Y012237D01*
X021736Y012582D02*
X022425Y013271D01*
X020998Y012286D02*
X021539Y011745D01*
X021687Y011745D01*
X022032Y010908D02*
X021638Y010515D01*
X021628Y010505D01*
X021628Y009830D01*
X022828Y008630D01*
X022828Y007730D01*
X022828Y007430D01*
X022428Y007830D02*
X022428Y008730D01*
X021428Y009730D01*
X021428Y010183D01*
X021293Y010318D01*
X023311Y010170D02*
X023628Y009853D01*
X023628Y008130D01*
X023878Y007880D01*
X025478Y007880D01*
X024620Y008615D02*
X024472Y008615D01*
X024246Y008841D01*
X024102Y009235D02*
X023828Y008961D01*
X023828Y008930D02*
X023828Y008478D01*
X023876Y008430D01*
X024004Y008302D01*
X024620Y008615D02*
X027022Y008615D01*
X027543Y009137D01*
X028232Y009826D01*
X030299Y009826D01*
X030644Y008792D02*
X029709Y008792D01*
X027494Y008792D01*
X027396Y008694D01*
X027396Y008546D01*
X027396Y007217D01*
X027248Y007070D01*
X027022Y007070D01*
X027770Y007070D02*
X027856Y007156D01*
X028378Y007156D01*
X028669Y007448D01*
X029012Y007448D01*
X029144Y007448D01*
X030053Y006538D01*
X029012Y006521D02*
X029012Y006267D01*
X028870Y006408D01*
X028724Y006408D01*
X028724Y006381D01*
X028675Y006332D01*
X028724Y006408D02*
X028378Y006408D01*
X028380Y006406D01*
X028380Y006381D01*
X028331Y006430D01*
X027770Y006430D02*
X027770Y007070D01*
X027770Y007710D01*
X027770Y008349D01*
X027022Y008349D02*
X027022Y008615D01*
X027100Y009235D02*
X027559Y009693D01*
X027559Y010016D01*
X027100Y009235D02*
X024102Y009235D01*
X026559Y007710D02*
X027022Y007710D01*
X027051Y007710D01*
X029012Y007448D02*
X029234Y007670D01*
X029012Y006267D02*
X029028Y006251D01*
X029028Y006036D01*
X029711Y005101D02*
X031530Y005101D01*
X031505Y005077D01*
X032415Y005544D02*
X033055Y005544D01*
X032415Y004432D02*
X032100Y004117D01*
X031530Y004117D01*
X030890Y003034D02*
X028331Y003034D01*
X026878Y004487D01*
X027839Y004856D02*
X028035Y004609D01*
X028354Y004609D01*
X028382Y004637D01*
X028809Y004637D01*
X029028Y004418D01*
X029711Y005101D01*
X030890Y003034D02*
X031530Y002395D01*
X031530Y001678D01*
X032051Y001156D01*
X031051Y001156D02*
X030545Y001662D01*
X023678Y005980D02*
X023678Y006330D01*
X023678Y006430D01*
X023678Y006526D02*
X023678Y006330D01*
X023678Y006526D02*
X023474Y006730D01*
X019177Y012188D02*
X017848Y010859D01*
X017553Y011253D02*
X018636Y012336D01*
X018784Y012336D01*
X019177Y012188D02*
X019177Y012680D01*
X018045Y013812D01*
X017750Y013812D01*
X017160Y013320D02*
X017160Y012631D01*
X016323Y011794D01*
X016323Y010072D01*
X015732Y009481D01*
X015535Y009137D02*
X015339Y009334D01*
X015339Y010859D01*
X015585Y011105D01*
X016766Y010737D02*
X016766Y009629D01*
X016323Y009137D02*
X015535Y009137D01*
X016815Y008841D02*
X017553Y009580D01*
X017553Y011253D01*
X015831Y014107D02*
X013813Y012089D01*
X013788Y012064D01*
X013788Y011377D01*
X011958Y010452D02*
X011958Y010334D01*
X011958Y010452D02*
X011791Y010619D01*
X011791Y012971D01*
X011795Y012975D01*
X011795Y013861D01*
X012189Y014255D01*
X013665Y014255D01*
X014207Y014796D01*
X014197Y014786D01*
X014191Y014786D01*
X014183Y014778D01*
X014191Y014786D02*
X014191Y015526D01*
X014896Y015633D02*
X014896Y016046D01*
X013443Y015526D02*
X012831Y015526D01*
X012345Y015526D01*
X012337Y015534D01*
X011898Y014778D02*
X011360Y015316D01*
X011898Y014778D02*
X012831Y014778D01*
X013435Y014778D01*
X011500Y013910D02*
X011500Y012336D01*
X010860Y011696D01*
X010093Y011696D01*
X010073Y011715D01*
X009681Y011715D01*
X009587Y011621D01*
X009358Y011621D01*
X008941Y011204D01*
X008941Y011086D01*
X008941Y011054D01*
X008915Y011028D01*
X007830Y011028D01*
X007563Y010761D01*
X007071Y010761D02*
X007071Y011056D01*
X007415Y011400D01*
X008085Y011715D02*
X007415Y012385D01*
X008203Y012463D02*
X008419Y012562D01*
X008793Y012188D01*
X008793Y012007D01*
X008787Y012001D01*
X008203Y011715D02*
X008085Y011715D01*
X008203Y010987D02*
X008774Y010987D01*
X009610Y011007D02*
X009610Y010633D01*
X009610Y010219D01*
X009630Y010613D02*
X010910Y010613D01*
X010910Y010559D01*
X011618Y009850D01*
X008843Y010239D02*
X008203Y010239D01*
X008173Y010269D01*
X007563Y010269D01*
X007071Y010761D01*
X010073Y012463D02*
X010102Y012493D01*
X010102Y013123D01*
X010368Y017257D02*
X010368Y020709D01*
X010378Y020719D01*
X010558Y020899D01*
X010565Y020899D01*
X010910Y021243D01*
X011303Y021243D01*
X011352Y021292D01*
X011648Y021587D01*
X014305Y021587D01*
X013242Y021095D02*
X011845Y021095D01*
X011549Y020800D01*
X011057Y020800D01*
X010811Y020554D01*
X010811Y018693D01*
X011894Y017610D01*
X011697Y018143D02*
X012091Y018143D01*
X012140Y018192D01*
X012140Y018211D01*
X012780Y018211D01*
X012780Y018960D02*
X012140Y018960D01*
X012120Y019717D02*
X011845Y019717D01*
X011352Y020210D01*
X011352Y020308D01*
X012140Y020485D02*
X012406Y020485D01*
X012730Y020160D01*
X012730Y019980D01*
X012724Y019973D01*
X012140Y019737D02*
X012120Y019717D01*
X011352Y019324D02*
X011352Y018487D01*
X011697Y018143D01*
X019390Y017241D02*
X019649Y017241D01*
X019862Y018487D02*
X019862Y019024D01*
X020161Y019324D01*
X022622Y019324D01*
X022917Y019619D01*
X022917Y019914D01*
X022917Y020623D01*
X023410Y020948D02*
X023410Y017995D01*
X023410Y017838D01*
X022783Y017212D01*
X023311Y017208D02*
X023311Y017355D01*
X023705Y017749D01*
X023705Y017946D01*
X023705Y021341D01*
X023631Y021415D01*
X023508Y021538D01*
X023262Y021784D01*
X021392Y021784D01*
X020978Y021371D01*
X020949Y021371D01*
X020949Y020623D02*
X020949Y019914D01*
X021933Y019914D02*
X021933Y020623D01*
X021933Y021371D02*
X022917Y021371D01*
X023035Y021371D01*
X023035Y021322D01*
X023410Y020948D01*
X023705Y021341D02*
X023631Y021415D01*
X024935Y021932D02*
X024984Y021981D01*
X029856Y021981D01*
X029906Y021932D01*
X029906Y019914D01*
X030398Y019274D02*
X030398Y018950D01*
X030228Y018780D01*
X029690Y018830D02*
X029690Y018664D01*
X029690Y018830D02*
X029173Y019347D01*
X029173Y021287D01*
X028675Y021784D01*
X026362Y021784D01*
X025949Y021371D01*
X025919Y021371D01*
X025919Y020623D02*
X025919Y019914D01*
X024935Y019914D02*
X024935Y021932D01*
X024984Y021981D02*
X019965Y021981D01*
X024246Y019619D02*
X024443Y019422D01*
X024443Y018684D01*
X024443Y018432D01*
X026035Y016839D01*
X026750Y016839D01*
X026756Y016834D01*
X027445Y016834D01*
X027445Y016814D01*
X027642Y016617D01*
X027839Y016469D01*
X027396Y016273D02*
X025772Y016273D01*
X025673Y016371D01*
X025476Y016568D01*
X025476Y017011D01*
X024738Y017749D01*
X024049Y017749D01*
X023803Y017306D02*
X024640Y017306D01*
X025083Y016863D01*
X025034Y016420D02*
X024787Y016420D01*
X024443Y016765D01*
X024345Y016863D01*
X024246Y016863D01*
X021858Y016863D01*
X021697Y017024D01*
X022967Y016469D02*
X024246Y016469D01*
X024640Y016076D01*
X024295Y015731D02*
X023951Y016076D01*
X022622Y016076D01*
X022524Y016174D01*
X022130Y015879D02*
X022278Y015731D01*
X023557Y015731D01*
X023606Y015731D01*
X023951Y015387D01*
X026032Y017587D02*
X026018Y017601D01*
X025441Y018178D01*
X025441Y018487D01*
X024443Y018487D02*
X024441Y018487D01*
X024443Y018487D02*
X024443Y018684D01*
X026032Y017587D02*
X026035Y017587D01*
X026756Y017582D02*
X026756Y018192D01*
X026461Y018487D01*
X026441Y018487D01*
X027441Y018487D02*
X027445Y018483D01*
X027445Y017582D01*
X028921Y018847D02*
X028921Y020997D01*
X028547Y021371D01*
X027888Y021371D01*
X026904Y021371D01*
X026904Y020623D02*
X026904Y019914D01*
X027888Y019914D02*
X027888Y020623D01*
X029856Y021981D02*
X033252Y021981D01*
X033597Y021637D01*
X033597Y017011D01*
X033252Y018241D02*
X031972Y018241D01*
X030939Y017208D01*
X030939Y016954D01*
X030063Y016078D01*
X028378Y014393D01*
X028365Y014380D01*
X027378Y014380D01*
X029561Y013467D02*
X030988Y013467D01*
X032661Y013467D01*
X032986Y013792D01*
X032986Y014058D01*
X032986Y015042D01*
X032238Y015042D02*
X031530Y015042D01*
X030890Y015436D02*
X030890Y016223D01*
X031185Y016519D01*
X030890Y015436D02*
X030532Y015078D01*
X030063Y015078D01*
X031530Y014058D02*
X032238Y014058D01*
X032612Y011548D02*
X031284Y011548D01*
X031530Y011056D02*
X032238Y011056D01*
X032612Y011548D02*
X032986Y011174D01*
X032986Y011056D01*
X032238Y010072D02*
X031530Y010072D01*
X033252Y007759D02*
X033252Y007660D01*
X030349Y018119D02*
X030349Y018242D01*
X031382Y019274D01*
X031382Y020997D01*
X031756Y021371D01*
X031874Y021371D01*
X032858Y021371D01*
X032366Y020997D02*
X032366Y019668D01*
X032317Y019619D01*
X032317Y019373D01*
X031874Y019914D02*
X031874Y020623D01*
X030890Y020623D02*
X030890Y019914D01*
X030398Y019274D02*
X030398Y020997D01*
X030772Y021371D01*
X030890Y021371D01*
X032858Y020623D02*
X032858Y019914D01*
X029202Y018566D02*
X028921Y018847D01*
X015929Y007808D02*
X015388Y007267D01*
X012878Y006332D02*
X012878Y006184D01*
X012829Y006135D01*
X012730Y006036D01*
X012730Y004068D01*
D21*
X000863Y002181D02*
X000863Y000665D01*
X012883Y000665D01*
X012883Y001907D01*
X012529Y001552D01*
X012450Y001474D01*
X012406Y001455D01*
X012381Y001430D01*
X012366Y001424D01*
X012320Y001378D01*
X012217Y001336D01*
X007226Y001336D01*
X007213Y001341D01*
X005467Y001341D01*
X005364Y001384D01*
X005285Y001463D01*
X005176Y001572D01*
X001533Y001572D01*
X001430Y001615D01*
X001351Y001693D01*
X000863Y002181D01*
X000863Y002082D02*
X000962Y002082D01*
X000863Y001924D02*
X001121Y001924D01*
X001279Y001765D02*
X000863Y001765D01*
X000863Y001607D02*
X001449Y001607D01*
X000863Y001448D02*
X005300Y001448D01*
X007548Y001896D02*
X007548Y002228D01*
X007572Y002170D01*
X007732Y002010D01*
X007942Y001923D01*
X008169Y001923D01*
X008378Y002010D01*
X008538Y002170D01*
X008570Y002247D01*
X008586Y002215D01*
X008635Y002148D01*
X008694Y002089D01*
X008762Y002040D01*
X008836Y002002D01*
X008915Y001976D01*
X008998Y001963D01*
X009031Y001963D01*
X009031Y002484D01*
X009048Y002484D01*
X009048Y001963D01*
X009081Y001963D01*
X009164Y001976D01*
X009243Y002002D01*
X009317Y002040D01*
X009385Y002089D01*
X009444Y002148D01*
X009493Y002215D01*
X009509Y002247D01*
X009540Y002170D01*
X009701Y002010D01*
X009910Y001923D01*
X010137Y001923D01*
X010347Y002010D01*
X010507Y002170D01*
X010516Y002192D01*
X010525Y002170D01*
X010685Y002010D01*
X010895Y001923D01*
X011121Y001923D01*
X011331Y002010D01*
X011491Y002170D01*
X011500Y002192D01*
X011509Y002170D01*
X011669Y002010D01*
X011879Y001923D01*
X012082Y001923D01*
X012070Y001911D01*
X012055Y001905D01*
X012046Y001896D01*
X007548Y001896D01*
X007548Y001924D02*
X007941Y001924D01*
X008170Y001924D02*
X009909Y001924D01*
X010138Y001924D02*
X010893Y001924D01*
X011123Y001924D02*
X011878Y001924D01*
X011597Y002082D02*
X011403Y002082D01*
X010613Y002082D02*
X010419Y002082D01*
X009629Y002082D02*
X009375Y002082D01*
X009506Y002241D02*
X009511Y002241D01*
X009048Y002241D02*
X009031Y002241D01*
X009031Y002399D02*
X009048Y002399D01*
X009031Y002082D02*
X009048Y002082D01*
X008703Y002082D02*
X008450Y002082D01*
X008568Y002241D02*
X008573Y002241D01*
X008570Y002739D02*
X008538Y002816D01*
X008502Y002852D01*
X008502Y002913D01*
X008570Y002913D01*
X008597Y002940D01*
X008623Y002913D01*
X008715Y002913D01*
X008694Y002897D01*
X008635Y002838D01*
X008586Y002771D01*
X008570Y002739D01*
X008502Y002875D02*
X008671Y002875D01*
X009689Y003224D02*
X009817Y003224D01*
X009946Y003352D01*
X009946Y003885D01*
X009817Y004014D01*
X009325Y004014D01*
X009254Y003943D01*
X008964Y003943D01*
X008964Y004024D01*
X009437Y004024D01*
X009566Y004152D01*
X009566Y004499D01*
X009580Y004491D01*
X009616Y004481D01*
X009616Y004419D01*
X009951Y004419D01*
X009951Y004419D01*
X009951Y004774D01*
X009954Y004774D01*
X009954Y004906D01*
X009858Y004906D01*
X009858Y004774D01*
X009951Y004774D01*
X009951Y004419D01*
X009951Y004419D01*
X009951Y004064D01*
X010129Y004064D01*
X010175Y004076D01*
X010216Y004100D01*
X010250Y004133D01*
X010273Y004174D01*
X010278Y004192D01*
X010763Y004192D01*
X010800Y004155D01*
X010886Y004120D01*
X010886Y004046D01*
X010913Y004019D01*
X010886Y003992D01*
X010886Y003805D01*
X010721Y003805D01*
X010721Y003407D01*
X010606Y003407D01*
X010606Y003805D01*
X010285Y003805D01*
X010240Y003793D01*
X010199Y003769D01*
X010165Y003735D01*
X010141Y003694D01*
X010129Y003649D01*
X010129Y003407D01*
X010606Y003407D01*
X010606Y003291D01*
X010129Y003291D01*
X010129Y003063D01*
X009910Y003063D01*
X009867Y003045D01*
X009689Y003224D01*
X009721Y003192D02*
X010129Y003192D01*
X009943Y003350D02*
X010606Y003350D01*
X010606Y003509D02*
X010721Y003509D01*
X010721Y003667D02*
X010606Y003667D01*
X010886Y003826D02*
X009946Y003826D01*
X009946Y003667D02*
X010134Y003667D01*
X010129Y003509D02*
X009946Y003509D01*
X009846Y003984D02*
X010886Y003984D01*
X010831Y004143D02*
X010255Y004143D01*
X009951Y004143D02*
X009951Y004143D01*
X009951Y004064D02*
X009951Y004419D01*
X009951Y004419D01*
X009616Y004419D01*
X009616Y004220D01*
X009628Y004174D01*
X009652Y004133D01*
X009685Y004100D01*
X009726Y004076D01*
X009772Y004064D01*
X009951Y004064D01*
X009951Y004301D02*
X009951Y004301D01*
X009951Y004460D02*
X009951Y004460D01*
X009951Y004618D02*
X009951Y004618D01*
X009954Y004777D02*
X009858Y004777D01*
X009616Y004460D02*
X009566Y004460D01*
X009566Y004301D02*
X009616Y004301D01*
X009646Y004143D02*
X009556Y004143D01*
X009295Y003984D02*
X008964Y003984D01*
X008576Y004214D02*
X008480Y004214D01*
X008480Y004641D01*
X008391Y004641D01*
X008391Y004748D01*
X008507Y004748D01*
X008507Y004350D01*
X008576Y004350D01*
X008576Y004214D01*
X008576Y004301D02*
X008480Y004301D01*
X008480Y004460D02*
X008507Y004460D01*
X008507Y004618D02*
X008480Y004618D01*
X008391Y004748D02*
X007954Y004748D01*
X007954Y004681D01*
X007803Y004681D01*
X007803Y005173D01*
X007674Y005302D01*
X007023Y005302D01*
X007026Y005304D01*
X007033Y005307D01*
X007039Y005313D01*
X008682Y005313D01*
X008682Y005262D01*
X008507Y005262D01*
X008507Y004864D01*
X008391Y004864D01*
X008391Y005262D01*
X008110Y005262D01*
X008064Y005249D01*
X008023Y005226D01*
X007990Y005192D01*
X007966Y005151D01*
X007954Y005105D01*
X007954Y004864D01*
X008391Y004864D01*
X008391Y004748D01*
X008391Y004777D02*
X007803Y004777D01*
X007803Y004935D02*
X007954Y004935D01*
X007954Y005094D02*
X007803Y005094D01*
X007723Y005252D02*
X008075Y005252D01*
X008391Y005252D02*
X008507Y005252D01*
X008507Y005094D02*
X008391Y005094D01*
X008391Y004935D02*
X008507Y004935D01*
X008449Y004806D02*
X008400Y004806D01*
X006420Y005510D02*
X006180Y005292D01*
X006174Y005289D01*
X006139Y005255D01*
X006103Y005222D01*
X006100Y005216D01*
X006095Y005211D01*
X006077Y005165D01*
X006056Y005121D01*
X006055Y005114D01*
X006053Y005108D01*
X006053Y005059D01*
X006050Y005010D01*
X006053Y005003D01*
X006053Y004630D01*
X005940Y004630D01*
X005940Y004242D01*
X005844Y004242D01*
X005844Y004630D01*
X005613Y004630D01*
X005570Y004674D01*
X005068Y004674D01*
X005068Y005021D01*
X004940Y005150D01*
X004774Y005150D01*
X004774Y005375D01*
X004888Y005510D01*
X006420Y005510D01*
X006311Y005411D02*
X004804Y005411D01*
X004774Y005252D02*
X006136Y005252D01*
X006053Y005094D02*
X004996Y005094D01*
X005068Y004935D02*
X006053Y004935D01*
X006053Y004777D02*
X005068Y004777D01*
X005844Y004618D02*
X005940Y004618D01*
X005940Y004460D02*
X005844Y004460D01*
X005844Y004301D02*
X005940Y004301D01*
X004668Y004085D02*
X004668Y003851D01*
X004695Y003824D01*
X004668Y003797D01*
X004668Y003771D01*
X004552Y003771D01*
X004552Y003374D01*
X004436Y003374D01*
X004436Y003771D01*
X004116Y003771D01*
X004070Y003759D01*
X004029Y003735D01*
X003996Y003702D01*
X003972Y003661D01*
X003960Y003615D01*
X003960Y003374D01*
X004436Y003374D01*
X004436Y003258D01*
X003960Y003258D01*
X003960Y003017D01*
X003961Y003012D01*
X003838Y003063D01*
X003611Y003063D01*
X003568Y003045D01*
X003463Y003150D01*
X003463Y003157D01*
X003693Y003157D01*
X003822Y003286D01*
X003822Y003818D01*
X003693Y003947D01*
X003201Y003947D01*
X003127Y003873D01*
X003117Y003882D01*
X002853Y003882D01*
X002853Y003957D01*
X003313Y003957D01*
X003442Y004086D01*
X003442Y004377D01*
X003473Y004409D01*
X003488Y004400D01*
X003492Y004399D01*
X003492Y004352D01*
X003827Y004352D01*
X003827Y004352D01*
X003827Y004707D01*
X003861Y004707D01*
X003861Y004815D01*
X003765Y004815D01*
X003765Y004707D01*
X003827Y004707D01*
X003827Y004352D01*
X003827Y004352D01*
X003827Y003997D01*
X004005Y003997D01*
X004051Y004009D01*
X004092Y004033D01*
X004126Y004066D01*
X004149Y004107D01*
X004162Y004153D01*
X004162Y004159D01*
X004594Y004159D01*
X004668Y004085D01*
X004610Y004143D02*
X004159Y004143D01*
X003827Y004143D02*
X003827Y004143D01*
X003827Y003997D02*
X003827Y004352D01*
X003827Y004352D01*
X003492Y004352D01*
X003492Y004153D01*
X003504Y004107D01*
X003528Y004066D01*
X003561Y004033D01*
X003602Y004009D01*
X003648Y003997D01*
X003827Y003997D01*
X003814Y003826D02*
X004693Y003826D01*
X004668Y003984D02*
X003340Y003984D01*
X003442Y004143D02*
X003495Y004143D01*
X003492Y004301D02*
X003442Y004301D01*
X003827Y004301D02*
X003827Y004301D01*
X003827Y004460D02*
X003827Y004460D01*
X003827Y004618D02*
X003827Y004618D01*
X003861Y004777D02*
X003765Y004777D01*
X003087Y004885D02*
X003065Y004863D01*
X002589Y005116D02*
X002511Y005116D01*
X002511Y004718D01*
X002395Y004718D01*
X002395Y004603D01*
X001958Y004603D01*
X001958Y004546D01*
X001807Y004546D01*
X001807Y005027D01*
X001678Y005156D01*
X000866Y005156D01*
X000863Y005153D01*
X000863Y005995D01*
X002611Y005995D01*
X002611Y005271D01*
X002589Y005249D01*
X002589Y005116D01*
X002511Y005094D02*
X002395Y005094D01*
X002395Y005116D02*
X002114Y005116D01*
X002068Y005104D01*
X002027Y005080D01*
X001994Y005046D01*
X001970Y005005D01*
X001958Y004960D01*
X001958Y004718D01*
X002395Y004718D01*
X002395Y005116D01*
X002395Y004935D02*
X002511Y004935D01*
X002511Y004777D02*
X002395Y004777D01*
X002394Y004660D02*
X002453Y004660D01*
X002395Y004618D02*
X001807Y004618D01*
X001807Y004777D02*
X001958Y004777D01*
X001958Y004935D02*
X001807Y004935D01*
X001740Y005094D02*
X002051Y005094D01*
X002592Y005252D02*
X000863Y005252D01*
X000863Y005411D02*
X002611Y005411D01*
X002611Y005569D02*
X000863Y005569D01*
X000863Y005728D02*
X002611Y005728D01*
X002611Y005886D02*
X000863Y005886D01*
X002395Y004603D02*
X002511Y004603D01*
X002511Y004506D01*
X002465Y004506D01*
X002465Y004078D01*
X002369Y004078D01*
X002369Y004205D01*
X002395Y004205D01*
X002395Y004603D01*
X002395Y004460D02*
X002465Y004460D01*
X002465Y004301D02*
X002395Y004301D01*
X002369Y004143D02*
X002465Y004143D01*
X002465Y003982D02*
X002465Y003882D01*
X002423Y003882D01*
X002396Y003855D01*
X002369Y003882D01*
X002369Y003982D01*
X002465Y003982D01*
X003822Y003667D02*
X003976Y003667D01*
X003960Y003509D02*
X003822Y003509D01*
X003822Y003350D02*
X004436Y003350D01*
X004436Y003509D02*
X004552Y003509D01*
X004552Y003667D02*
X004436Y003667D01*
X003960Y003192D02*
X003728Y003192D01*
X003910Y003033D02*
X003960Y003033D01*
X000863Y001290D02*
X012883Y001290D01*
X012883Y001448D02*
X012399Y001448D01*
X012583Y001607D02*
X012883Y001607D01*
X012883Y001765D02*
X012741Y001765D01*
X012883Y001131D02*
X000863Y001131D01*
X000863Y000973D02*
X012883Y000973D01*
X012883Y000814D02*
X000863Y000814D01*
X007548Y002082D02*
X007660Y002082D01*
X013360Y005975D02*
X014684Y007299D01*
X014832Y007238D01*
X015058Y007238D01*
X015268Y007325D01*
X015428Y007485D01*
X015460Y007562D01*
X015476Y007530D01*
X015525Y007463D01*
X015584Y007404D01*
X015651Y007355D01*
X015726Y007317D01*
X015805Y007291D01*
X015887Y007278D01*
X015921Y007278D01*
X015921Y007799D01*
X015938Y007799D01*
X015938Y007278D01*
X015971Y007278D01*
X016053Y007291D01*
X016133Y007317D01*
X016141Y007321D01*
X016141Y007063D01*
X016184Y006960D01*
X016528Y006616D01*
X016607Y006537D01*
X016710Y006494D01*
X018750Y006494D01*
X018719Y006482D01*
X018573Y006336D01*
X018494Y006144D01*
X018494Y005975D01*
X013360Y005975D01*
X013430Y006045D02*
X018494Y006045D01*
X018518Y006203D02*
X013588Y006203D01*
X013747Y006362D02*
X018599Y006362D01*
X016648Y006520D02*
X013905Y006520D01*
X014064Y006679D02*
X016466Y006679D01*
X016307Y006837D02*
X014222Y006837D01*
X014381Y006996D02*
X016169Y006996D01*
X016141Y007154D02*
X014539Y007154D01*
X015238Y007313D02*
X015739Y007313D01*
X015921Y007313D02*
X015938Y007313D01*
X015921Y007471D02*
X015938Y007471D01*
X015921Y007630D02*
X015938Y007630D01*
X015921Y007788D02*
X015938Y007788D01*
X015519Y007471D02*
X015414Y007471D01*
X016119Y007313D02*
X016141Y007313D01*
X016131Y009488D02*
X016131Y009560D01*
X016070Y009707D01*
X015958Y009819D01*
X015812Y009880D01*
X015653Y009880D01*
X015619Y009865D01*
X015619Y010707D01*
X015664Y010707D01*
X015810Y010767D01*
X015922Y010880D01*
X015983Y011026D01*
X015983Y011184D01*
X015922Y011331D01*
X015810Y011443D01*
X015787Y011453D01*
X015961Y011627D01*
X015985Y011568D01*
X016097Y011456D01*
X016244Y011396D01*
X016402Y011396D01*
X016549Y011456D01*
X016661Y011568D01*
X016721Y011715D01*
X016721Y011873D01*
X016661Y012020D01*
X016568Y012113D01*
X016647Y012145D01*
X016759Y012257D01*
X016820Y012404D01*
X016820Y012562D01*
X016759Y012709D01*
X016701Y012767D01*
X016701Y013425D01*
X016659Y013528D01*
X016524Y013662D01*
X016524Y013744D01*
X016464Y013890D01*
X016352Y014002D01*
X016205Y014063D01*
X016182Y014063D01*
X016559Y014439D01*
X016589Y014409D01*
X016736Y014349D01*
X016894Y014349D01*
X017041Y014409D01*
X017098Y014467D01*
X018963Y014467D01*
X020052Y013378D01*
X020796Y012634D01*
X020772Y012624D01*
X020660Y012512D01*
X020600Y012366D01*
X020600Y012207D01*
X020660Y012061D01*
X020772Y011949D01*
X020919Y011888D01*
X021077Y011888D01*
X021224Y011949D01*
X021336Y012061D01*
X021346Y012084D01*
X021759Y011671D01*
X021745Y011658D01*
X021374Y011287D01*
X019805Y011287D01*
X019747Y011345D01*
X019601Y011405D01*
X019442Y011405D01*
X019296Y011345D01*
X019184Y011232D01*
X019123Y011086D01*
X019123Y010928D01*
X019184Y010781D01*
X019254Y010711D01*
X019184Y010642D01*
X019123Y010495D01*
X019123Y010337D01*
X019184Y010191D01*
X019296Y010078D01*
X019442Y010018D01*
X019601Y010018D01*
X019747Y010078D01*
X019756Y010088D01*
X019839Y010005D01*
X019197Y010005D01*
X018641Y010561D01*
X018641Y010643D01*
X018580Y010790D01*
X018468Y010902D01*
X018340Y010955D01*
X019415Y012029D01*
X019457Y012132D01*
X019457Y012736D01*
X019415Y012839D01*
X019336Y012917D01*
X018283Y013970D01*
X018204Y014049D01*
X018101Y014092D01*
X018034Y014092D01*
X017976Y014150D01*
X017829Y014210D01*
X017671Y014210D01*
X017524Y014150D01*
X017412Y014038D01*
X017352Y013891D01*
X017352Y013733D01*
X017412Y013586D01*
X017524Y013474D01*
X017671Y013413D01*
X017829Y013413D01*
X017976Y013474D01*
X017981Y013480D01*
X018727Y012734D01*
X018704Y012734D01*
X018558Y012673D01*
X018446Y012561D01*
X018432Y012527D01*
X018399Y012494D01*
X017316Y011411D01*
X017273Y011309D01*
X017273Y009696D01*
X017164Y009587D01*
X017164Y009708D01*
X017104Y009855D01*
X017046Y009912D01*
X017046Y010454D01*
X017104Y010512D01*
X017164Y010658D01*
X017164Y010817D01*
X017104Y010963D01*
X016991Y011075D01*
X016845Y011136D01*
X016687Y011136D01*
X016540Y011075D01*
X016428Y010963D01*
X016367Y010817D01*
X016367Y010658D01*
X016428Y010512D01*
X016486Y010454D01*
X016486Y009912D01*
X016428Y009855D01*
X016367Y009708D01*
X016367Y009550D01*
X016373Y009535D01*
X016244Y009535D01*
X016131Y009488D01*
X016131Y009532D02*
X016235Y009532D01*
X016367Y009690D02*
X016077Y009690D01*
X015887Y009849D02*
X016426Y009849D01*
X016486Y010007D02*
X015619Y010007D01*
X015619Y010166D02*
X016486Y010166D01*
X016486Y010324D02*
X015619Y010324D01*
X015619Y010483D02*
X016457Y010483D01*
X016374Y010641D02*
X015619Y010641D01*
X015842Y010800D02*
X016367Y010800D01*
X016426Y010958D02*
X015955Y010958D01*
X015983Y011117D02*
X016640Y011117D01*
X016891Y011117D02*
X017273Y011117D01*
X017273Y011275D02*
X015946Y011275D01*
X015820Y011434D02*
X016152Y011434D01*
X015975Y011592D02*
X015926Y011592D01*
X016493Y011434D02*
X017338Y011434D01*
X017496Y011592D02*
X016670Y011592D01*
X016721Y011751D02*
X017655Y011751D01*
X017813Y011909D02*
X016707Y011909D01*
X016613Y012068D02*
X017972Y012068D01*
X018130Y012226D02*
X016728Y012226D01*
X016812Y012385D02*
X018289Y012385D01*
X018438Y012543D02*
X016820Y012543D01*
X016762Y012702D02*
X018626Y012702D01*
X018601Y012860D02*
X016701Y012860D01*
X016701Y013019D02*
X018443Y013019D01*
X018284Y013177D02*
X016701Y013177D01*
X016701Y013336D02*
X018126Y013336D01*
X018601Y013653D02*
X019777Y013653D01*
X019619Y013811D02*
X018442Y013811D01*
X018284Y013970D02*
X019460Y013970D01*
X019302Y014128D02*
X017997Y014128D01*
X017503Y014128D02*
X016248Y014128D01*
X016384Y013970D02*
X017384Y013970D01*
X017352Y013811D02*
X016496Y013811D01*
X016534Y013653D02*
X017385Y013653D01*
X017504Y013494D02*
X016673Y013494D01*
X016406Y014287D02*
X019143Y014287D01*
X018985Y014445D02*
X017077Y014445D01*
X016139Y014811D02*
X015947Y014811D01*
X013276Y012141D01*
X013276Y012059D01*
X013216Y011913D01*
X013104Y011801D01*
X012957Y011740D01*
X012799Y011740D01*
X012652Y011801D01*
X012540Y011913D01*
X012480Y012059D01*
X012480Y012218D01*
X012540Y012364D01*
X012652Y012476D01*
X012799Y012537D01*
X012880Y012537D01*
X014072Y013729D01*
X012453Y013729D01*
X012273Y013549D01*
X012273Y011354D01*
X012552Y011075D01*
X012594Y010972D01*
X012594Y010674D01*
X012606Y010686D01*
X012753Y010746D01*
X012823Y010746D01*
X012823Y010890D01*
X012884Y011036D01*
X012996Y011148D01*
X013142Y011209D01*
X013224Y011209D01*
X013508Y011493D01*
X013508Y012120D01*
X013551Y012223D01*
X013629Y012302D01*
X013654Y012327D01*
X013654Y012327D01*
X015593Y014266D01*
X016139Y014811D01*
X016090Y014762D02*
X015897Y014762D01*
X015931Y014604D02*
X015739Y014604D01*
X015773Y014445D02*
X015580Y014445D01*
X015614Y014287D02*
X015422Y014287D01*
X015456Y014128D02*
X015263Y014128D01*
X015297Y013970D02*
X015105Y013970D01*
X015139Y013811D02*
X014946Y013811D01*
X014980Y013653D02*
X014788Y013653D01*
X014822Y013494D02*
X014629Y013494D01*
X014663Y013336D02*
X014471Y013336D01*
X014505Y013177D02*
X014312Y013177D01*
X014346Y013019D02*
X014154Y013019D01*
X014188Y012860D02*
X013995Y012860D01*
X014029Y012702D02*
X013837Y012702D01*
X013871Y012543D02*
X013678Y012543D01*
X013712Y012385D02*
X013520Y012385D01*
X013554Y012226D02*
X013361Y012226D01*
X013276Y012068D02*
X013508Y012068D01*
X013508Y011909D02*
X013212Y011909D01*
X012982Y011751D02*
X013508Y011751D01*
X013508Y011592D02*
X012273Y011592D01*
X012273Y011434D02*
X013449Y011434D01*
X013290Y011275D02*
X012351Y011275D01*
X012510Y011117D02*
X012964Y011117D01*
X012851Y010958D02*
X012594Y010958D01*
X012594Y010800D02*
X012823Y010800D01*
X012774Y011751D02*
X012273Y011751D01*
X012273Y011909D02*
X012544Y011909D01*
X012480Y012068D02*
X012273Y012068D01*
X012273Y012226D02*
X012483Y012226D01*
X012560Y012385D02*
X012273Y012385D01*
X012273Y012543D02*
X012886Y012543D01*
X013045Y012702D02*
X012273Y012702D01*
X012273Y012860D02*
X013203Y012860D01*
X013362Y013019D02*
X012273Y013019D01*
X012273Y013177D02*
X013520Y013177D01*
X013679Y013336D02*
X012273Y013336D01*
X012273Y013494D02*
X013837Y013494D01*
X013996Y013653D02*
X012376Y013653D01*
X011825Y014287D02*
X010946Y014287D01*
X010923Y014263D02*
X010973Y014313D01*
X011052Y014392D01*
X011094Y014495D01*
X011094Y014809D01*
X011247Y014746D01*
X011474Y014746D01*
X011517Y014764D01*
X011739Y014541D01*
X011842Y014498D01*
X012046Y014498D01*
X012030Y014492D01*
X011952Y014413D01*
X011558Y014020D01*
X011515Y013917D01*
X011515Y013038D01*
X011511Y013026D01*
X011511Y010564D01*
X011553Y010461D01*
X011572Y010443D01*
X011560Y010413D01*
X011560Y010305D01*
X011185Y010679D01*
X011147Y010772D01*
X011068Y010850D01*
X010965Y010893D01*
X010086Y010893D01*
X010086Y011393D01*
X010025Y011454D01*
X010025Y011667D01*
X010121Y011667D01*
X010121Y011280D01*
X010392Y011280D01*
X010438Y011292D01*
X010479Y011315D01*
X010512Y011349D01*
X010536Y011390D01*
X010548Y011436D01*
X010548Y011667D01*
X010121Y011667D01*
X010121Y011763D01*
X010548Y011763D01*
X010548Y011995D01*
X010536Y012041D01*
X010527Y012056D01*
X010588Y012116D01*
X010588Y012810D01*
X010578Y012820D01*
X010578Y013509D01*
X010449Y013638D01*
X010295Y013638D01*
X010919Y014262D01*
X010923Y014263D01*
X010785Y014128D02*
X011666Y014128D01*
X011537Y013970D02*
X010627Y013970D01*
X010468Y013811D02*
X011515Y013811D01*
X011515Y013653D02*
X010310Y013653D01*
X010578Y013494D02*
X011515Y013494D01*
X011515Y013336D02*
X010578Y013336D01*
X010578Y013177D02*
X011515Y013177D01*
X011511Y013019D02*
X010578Y013019D01*
X010578Y012860D02*
X011511Y012860D01*
X011511Y012702D02*
X010588Y012702D01*
X010588Y012543D02*
X011511Y012543D01*
X011511Y012385D02*
X010588Y012385D01*
X010588Y012226D02*
X011511Y012226D01*
X011511Y012068D02*
X010539Y012068D01*
X010548Y011909D02*
X011511Y011909D01*
X011511Y011751D02*
X010121Y011751D01*
X010121Y011592D02*
X010025Y011592D01*
X010046Y011434D02*
X010121Y011434D01*
X010086Y011275D02*
X011511Y011275D01*
X011511Y011117D02*
X010086Y011117D01*
X010086Y010958D02*
X011511Y010958D01*
X011511Y010800D02*
X011119Y010800D01*
X011223Y010641D02*
X011511Y010641D01*
X011544Y010483D02*
X011382Y010483D01*
X011540Y010324D02*
X011560Y010324D01*
X011066Y010007D02*
X010086Y010007D01*
X010086Y009898D02*
X010086Y010333D01*
X010739Y010333D01*
X011167Y009905D01*
X011078Y009868D01*
X010965Y009756D01*
X010905Y009610D01*
X010905Y009451D01*
X010965Y009305D01*
X011023Y009247D01*
X011023Y008219D01*
X010548Y007744D01*
X010548Y007878D01*
X010121Y007878D01*
X010121Y007974D01*
X010548Y007974D01*
X010548Y008206D01*
X010536Y008251D01*
X010527Y008266D01*
X010588Y008327D01*
X010588Y009021D01*
X010578Y009031D01*
X010578Y009769D01*
X010449Y009898D01*
X010086Y009898D01*
X010086Y010166D02*
X010907Y010166D01*
X010749Y010324D02*
X010086Y010324D01*
X009630Y010613D02*
X009610Y010633D01*
X009134Y010959D02*
X008910Y010959D01*
X008910Y011055D01*
X008814Y011055D01*
X008814Y010959D01*
X008426Y010959D01*
X008426Y010939D01*
X008251Y010939D01*
X008251Y011035D01*
X008678Y011035D01*
X008678Y011055D01*
X008814Y011055D01*
X008814Y011482D01*
X008718Y011482D01*
X008718Y011626D01*
X009053Y011626D01*
X009182Y011755D01*
X009182Y012247D01*
X009053Y012376D01*
X009001Y012376D01*
X008952Y012425D01*
X008780Y012597D01*
X009164Y012597D01*
X009190Y012608D01*
X009192Y012608D01*
X009192Y012135D01*
X009321Y012006D01*
X009601Y012006D01*
X009598Y011995D01*
X009598Y011956D01*
X009587Y011956D01*
X009388Y011956D01*
X009343Y011944D01*
X009302Y011920D01*
X009268Y011887D01*
X009244Y011846D01*
X009232Y011800D01*
X009232Y011621D01*
X009232Y011491D01*
X009202Y011461D01*
X009188Y011470D01*
X009142Y011482D01*
X008910Y011482D01*
X008910Y011055D01*
X009134Y011055D01*
X009134Y010959D01*
X008941Y011086D02*
X008862Y011007D01*
X008843Y011007D01*
X008818Y011031D01*
X008843Y011056D01*
X008818Y011031D02*
X008774Y010987D01*
X008814Y011117D02*
X008910Y011117D01*
X008910Y011275D02*
X008814Y011275D01*
X008814Y011434D02*
X008910Y011434D01*
X008718Y011592D02*
X009232Y011592D01*
X009232Y011621D02*
X009587Y011621D01*
X009587Y011621D01*
X009232Y011621D01*
X009232Y011751D02*
X009178Y011751D01*
X009182Y011909D02*
X009291Y011909D01*
X009259Y012068D02*
X009182Y012068D01*
X009182Y012226D02*
X009192Y012226D01*
X009192Y012385D02*
X008993Y012385D01*
X008834Y012543D02*
X009192Y012543D01*
X009587Y012381D02*
X009990Y012381D01*
X010073Y012463D01*
X009587Y011956D02*
X009587Y011621D01*
X009587Y011956D01*
X009587Y011909D02*
X009587Y011909D01*
X009587Y011751D02*
X009587Y011751D01*
X009587Y011621D02*
X009587Y011621D01*
X010548Y011592D02*
X011511Y011592D01*
X011511Y011434D02*
X010548Y011434D01*
X008862Y010219D02*
X008843Y010239D01*
X008426Y010958D02*
X008251Y010958D01*
X007728Y010913D02*
X007728Y010707D01*
X007740Y010662D01*
X007748Y010647D01*
X007688Y010586D01*
X007688Y010549D01*
X007679Y010549D01*
X007397Y010830D01*
X007529Y010830D01*
X007728Y010913D01*
X007728Y010800D02*
X007428Y010800D01*
X007587Y010641D02*
X007742Y010641D01*
X006397Y010641D02*
X005583Y010641D01*
X005583Y010483D02*
X006397Y010483D01*
X006397Y010324D02*
X005583Y010324D01*
X005583Y010166D02*
X006397Y010166D01*
X006397Y010065D02*
X006440Y009962D01*
X006519Y009884D01*
X006863Y009539D01*
X006845Y009496D01*
X006845Y009269D01*
X006932Y009060D01*
X007093Y008900D01*
X007114Y008891D01*
X007093Y008882D01*
X006932Y008721D01*
X006845Y008512D01*
X006845Y008285D01*
X006932Y008076D01*
X007093Y007915D01*
X007114Y007906D01*
X007093Y007897D01*
X006932Y007737D01*
X006845Y007528D01*
X006845Y007301D01*
X006932Y007091D01*
X007093Y006931D01*
X007135Y006913D01*
X007135Y006817D01*
X007178Y006714D01*
X007257Y006636D01*
X007625Y006267D01*
X005535Y006267D01*
X005583Y006384D01*
X005583Y013865D01*
X007123Y013865D01*
X007093Y013852D01*
X006932Y013692D01*
X006845Y013482D01*
X006845Y013392D01*
X006440Y012986D01*
X006397Y012883D01*
X006397Y010065D01*
X006421Y010007D02*
X005583Y010007D01*
X005583Y009849D02*
X006554Y009849D01*
X006519Y009884D02*
X006519Y009884D01*
X006712Y009690D02*
X005583Y009690D01*
X005583Y009532D02*
X006860Y009532D01*
X006845Y009373D02*
X005583Y009373D01*
X005583Y009215D02*
X006868Y009215D01*
X006936Y009056D02*
X005583Y009056D01*
X005583Y008898D02*
X007097Y008898D01*
X006950Y008739D02*
X005583Y008739D01*
X005583Y008581D02*
X006874Y008581D01*
X006845Y008422D02*
X005583Y008422D01*
X005583Y008264D02*
X006854Y008264D01*
X006920Y008105D02*
X005583Y008105D01*
X005583Y007947D02*
X007061Y007947D01*
X006983Y007788D02*
X005583Y007788D01*
X005583Y007630D02*
X006888Y007630D01*
X006845Y007471D02*
X005583Y007471D01*
X005583Y007313D02*
X006845Y007313D01*
X006906Y007154D02*
X005583Y007154D01*
X005583Y006996D02*
X007028Y006996D01*
X007135Y006837D02*
X005583Y006837D01*
X005583Y006679D02*
X007214Y006679D01*
X007372Y006520D02*
X005583Y006520D01*
X005574Y006362D02*
X007531Y006362D01*
X008251Y007199D02*
X008251Y007295D01*
X008678Y007295D01*
X008678Y007315D01*
X008814Y007315D01*
X008814Y007742D01*
X008718Y007742D01*
X008718Y007886D01*
X009053Y007886D01*
X009182Y008015D01*
X009182Y008507D01*
X009053Y008636D01*
X009001Y008636D01*
X008952Y008685D01*
X008952Y008685D01*
X008718Y008919D01*
X008718Y009103D01*
X008878Y009103D01*
X008878Y008996D01*
X009007Y008867D01*
X009192Y008867D01*
X009192Y008395D01*
X009321Y008266D01*
X009618Y008266D01*
X009610Y008251D01*
X009600Y008216D01*
X009587Y008216D01*
X009388Y008216D01*
X009343Y008204D01*
X009302Y008180D01*
X009268Y008146D01*
X009244Y008105D01*
X009182Y008105D01*
X009244Y008105D02*
X009232Y008060D01*
X009232Y007881D01*
X009587Y007881D01*
X009587Y008216D01*
X009587Y007881D01*
X009587Y007881D01*
X009587Y007881D01*
X009232Y007881D01*
X009232Y007751D01*
X009202Y007721D01*
X009188Y007730D01*
X009142Y007742D01*
X008910Y007742D01*
X008910Y007315D01*
X008814Y007315D01*
X008814Y007219D01*
X008426Y007219D01*
X008426Y007199D01*
X008251Y007199D01*
X008203Y007247D02*
X008843Y007247D01*
X008862Y007267D01*
X008862Y007385D01*
X008814Y007313D02*
X008678Y007313D01*
X008814Y007471D02*
X008910Y007471D01*
X008910Y007630D02*
X008814Y007630D01*
X008718Y007788D02*
X009232Y007788D01*
X009232Y007947D02*
X009114Y007947D01*
X009182Y008264D02*
X009617Y008264D01*
X009587Y008105D02*
X009587Y008105D01*
X009587Y007947D02*
X009587Y007947D01*
X009587Y007881D02*
X009942Y007881D01*
X009942Y007974D01*
X010025Y007974D01*
X010025Y007878D01*
X010121Y007878D01*
X010121Y007490D01*
X010294Y007490D01*
X010259Y007455D01*
X010259Y007455D01*
X010086Y007282D01*
X010086Y007653D01*
X010025Y007714D01*
X010025Y007878D01*
X009942Y007878D01*
X009942Y007881D01*
X009587Y007881D01*
X009587Y007881D01*
X009942Y007947D02*
X010025Y007947D01*
X010073Y007926D02*
X010028Y007881D01*
X010025Y007788D02*
X010121Y007788D01*
X010121Y007630D02*
X010086Y007630D01*
X010086Y007471D02*
X010275Y007471D01*
X010117Y007313D02*
X010086Y007313D01*
X009630Y006873D02*
X009610Y006893D01*
X010548Y007788D02*
X010592Y007788D01*
X010751Y007947D02*
X010121Y007947D01*
X010548Y008105D02*
X010909Y008105D01*
X011023Y008264D02*
X010529Y008264D01*
X010588Y008422D02*
X011023Y008422D01*
X011023Y008581D02*
X010588Y008581D01*
X010588Y008739D02*
X011023Y008739D01*
X011023Y008898D02*
X010588Y008898D01*
X010578Y009056D02*
X011023Y009056D01*
X011023Y009215D02*
X010578Y009215D01*
X010578Y009373D02*
X010937Y009373D01*
X010905Y009532D02*
X010578Y009532D01*
X010578Y009690D02*
X010938Y009690D01*
X011058Y009849D02*
X010499Y009849D01*
X008977Y008898D02*
X008740Y008898D01*
X008718Y009056D02*
X008878Y009056D01*
X008898Y008739D02*
X009192Y008739D01*
X009192Y008581D02*
X009109Y008581D01*
X009182Y008422D02*
X009192Y008422D01*
X009587Y008641D02*
X010040Y008641D01*
X010073Y008674D01*
X008203Y008074D02*
X008134Y008005D01*
X008155Y007598D02*
X008251Y007598D01*
X008251Y007295D01*
X008155Y007295D01*
X008155Y007598D01*
X008155Y007471D02*
X008251Y007471D01*
X008251Y007313D02*
X008155Y007313D01*
X006397Y010800D02*
X005583Y010800D01*
X005583Y010958D02*
X006397Y010958D01*
X006397Y011117D02*
X005583Y011117D01*
X005583Y011275D02*
X006397Y011275D01*
X006397Y011434D02*
X005583Y011434D01*
X005583Y011592D02*
X006397Y011592D01*
X006397Y011751D02*
X005583Y011751D01*
X005583Y011909D02*
X006397Y011909D01*
X006397Y012068D02*
X005583Y012068D01*
X005583Y012226D02*
X006397Y012226D01*
X006397Y012385D02*
X005583Y012385D01*
X005583Y012543D02*
X006397Y012543D01*
X006397Y012702D02*
X005583Y012702D01*
X005583Y012860D02*
X006397Y012860D01*
X006472Y013019D02*
X005583Y013019D01*
X005583Y013177D02*
X006631Y013177D01*
X006789Y013336D02*
X005583Y013336D01*
X005583Y013494D02*
X006850Y013494D01*
X006916Y013653D02*
X005583Y013653D01*
X005583Y013811D02*
X007051Y013811D01*
X011074Y014445D02*
X011983Y014445D01*
X011677Y014604D02*
X011094Y014604D01*
X011094Y014762D02*
X011208Y014762D01*
X011513Y014762D02*
X011518Y014762D01*
X011913Y015160D02*
X011930Y015202D01*
X011930Y015429D01*
X011844Y015639D01*
X011683Y015799D01*
X011662Y015808D01*
X011683Y015817D01*
X011844Y015977D01*
X011861Y016020D01*
X012314Y016020D01*
X012314Y015798D01*
X012355Y015756D01*
X012355Y015574D01*
X012783Y015574D01*
X012783Y015479D01*
X012355Y015479D01*
X012355Y015247D01*
X012368Y015201D01*
X012376Y015186D01*
X012315Y015125D01*
X012315Y015058D01*
X012014Y015058D01*
X011913Y015160D01*
X011930Y015238D02*
X012358Y015238D01*
X012355Y015396D02*
X011930Y015396D01*
X011878Y015555D02*
X012783Y015555D01*
X012879Y015555D02*
X013395Y015555D01*
X013395Y015574D02*
X013395Y015479D01*
X013007Y015479D01*
X012879Y015479D01*
X012879Y015574D01*
X013395Y015574D01*
X013395Y016002D01*
X013344Y016002D01*
X013344Y016203D01*
X013679Y016203D01*
X013808Y016332D01*
X013808Y016824D01*
X013679Y016953D01*
X013434Y016953D01*
X013378Y017009D01*
X013682Y017009D01*
X013818Y016874D01*
X013818Y016712D01*
X013947Y016583D01*
X014245Y016583D01*
X014294Y016534D01*
X014293Y016533D01*
X014213Y016533D01*
X014014Y016533D01*
X013969Y016521D01*
X013928Y016497D01*
X013894Y016463D01*
X013870Y016422D01*
X013858Y016376D01*
X013858Y016198D01*
X014213Y016198D01*
X014213Y016533D01*
X014213Y016198D01*
X014213Y016198D01*
X014213Y016198D01*
X014568Y016198D01*
X014568Y016242D01*
X014700Y016242D01*
X014700Y016146D01*
X014568Y016146D01*
X014568Y016198D01*
X014213Y016198D01*
X014213Y016198D01*
X013858Y016198D01*
X013858Y016042D01*
X013844Y016042D01*
X013783Y015981D01*
X013768Y015989D01*
X013723Y016002D01*
X013491Y016002D01*
X013491Y015574D01*
X013395Y015574D01*
X013395Y015713D02*
X013491Y015713D01*
X013491Y015872D02*
X013395Y015872D01*
X013344Y016030D02*
X013832Y016030D01*
X013858Y016189D02*
X013344Y016189D01*
X013808Y016347D02*
X013858Y016347D01*
X013808Y016506D02*
X013943Y016506D01*
X013866Y016664D02*
X013808Y016664D01*
X013808Y016823D02*
X013818Y016823D01*
X013711Y016981D02*
X013406Y016981D01*
X014213Y016506D02*
X014213Y016506D01*
X014213Y016347D02*
X014213Y016347D01*
X014568Y016189D02*
X014700Y016189D01*
X014700Y016146D02*
X014796Y016146D01*
X014796Y015758D01*
X014960Y015758D01*
X014960Y015207D01*
X014659Y014906D01*
X014659Y015132D01*
X014667Y015140D01*
X014667Y015758D01*
X014700Y015758D01*
X014700Y016146D01*
X014700Y016030D02*
X014796Y016030D01*
X014796Y015872D02*
X014700Y015872D01*
X014667Y015713D02*
X014960Y015713D01*
X014960Y015555D02*
X014667Y015555D01*
X014667Y015396D02*
X014960Y015396D01*
X014960Y015238D02*
X014667Y015238D01*
X014659Y015079D02*
X014832Y015079D01*
X014673Y014921D02*
X014659Y014921D01*
X015520Y015177D02*
X015520Y017312D01*
X015478Y017415D01*
X015167Y017726D01*
X015216Y017746D01*
X015362Y017893D01*
X015421Y018035D01*
X015480Y017893D01*
X015627Y017746D01*
X015818Y017667D01*
X016025Y017667D01*
X016216Y017746D01*
X016362Y017893D01*
X016421Y018035D01*
X016480Y017893D01*
X016627Y017746D01*
X016818Y017667D01*
X017025Y017667D01*
X017216Y017746D01*
X017362Y017893D01*
X017441Y018084D01*
X017441Y018891D01*
X017378Y019044D01*
X017514Y019044D01*
X017511Y019039D01*
X017476Y018971D01*
X017453Y018899D01*
X017441Y018825D01*
X017441Y018507D01*
X017901Y018507D01*
X017901Y018467D01*
X017441Y018467D01*
X017441Y018149D01*
X017453Y018075D01*
X017476Y018003D01*
X017511Y017936D01*
X017555Y017874D01*
X017609Y017821D01*
X017670Y017777D01*
X017737Y017742D01*
X017809Y017719D01*
X017884Y017707D01*
X017901Y017707D01*
X017901Y018467D01*
X017941Y018467D01*
X017941Y017707D01*
X017959Y017707D01*
X018034Y017719D01*
X018106Y017742D01*
X018159Y017769D01*
X018159Y015896D01*
X017753Y015490D01*
X017671Y015490D01*
X017524Y015429D01*
X017467Y015371D01*
X015775Y015371D01*
X015672Y015329D01*
X015520Y015177D01*
X015520Y015238D02*
X015581Y015238D01*
X015520Y015396D02*
X017491Y015396D01*
X017817Y015555D02*
X015520Y015555D01*
X015520Y015713D02*
X017976Y015713D01*
X018134Y015872D02*
X015520Y015872D01*
X015520Y016030D02*
X018159Y016030D01*
X018159Y016189D02*
X015520Y016189D01*
X015520Y016347D02*
X018159Y016347D01*
X018159Y016506D02*
X015520Y016506D01*
X015520Y016664D02*
X018159Y016664D01*
X018159Y016823D02*
X015520Y016823D01*
X015520Y016981D02*
X018159Y016981D01*
X018159Y017140D02*
X015520Y017140D01*
X015520Y017298D02*
X018159Y017298D01*
X018159Y017457D02*
X015436Y017457D01*
X015278Y017615D02*
X018159Y017615D01*
X017941Y017774D02*
X017901Y017774D01*
X017901Y017932D02*
X017941Y017932D01*
X017941Y018091D02*
X017901Y018091D01*
X017901Y018249D02*
X017941Y018249D01*
X017941Y018408D02*
X017901Y018408D01*
X017941Y018467D02*
X017941Y018507D01*
X018159Y018507D01*
X018159Y018467D01*
X017941Y018467D01*
X017441Y018408D02*
X017441Y018408D01*
X017441Y018566D02*
X017441Y018566D01*
X017441Y018725D02*
X017441Y018725D01*
X017441Y018883D02*
X017451Y018883D01*
X017513Y019042D02*
X017379Y019042D01*
X017441Y018249D02*
X017441Y018249D01*
X017441Y018091D02*
X017451Y018091D01*
X017513Y017932D02*
X017379Y017932D01*
X017243Y017774D02*
X017676Y017774D01*
X016599Y017774D02*
X016243Y017774D01*
X016379Y017932D02*
X016464Y017932D01*
X015599Y017774D02*
X015243Y017774D01*
X015379Y017932D02*
X015464Y017932D01*
X014401Y018423D02*
X014401Y018611D01*
X014265Y018748D01*
X014222Y018851D01*
X014222Y019203D01*
X014058Y019203D01*
X014058Y019591D01*
X013962Y019591D01*
X013879Y019591D01*
X013879Y019593D01*
X013524Y019593D01*
X013169Y019593D01*
X013169Y019463D01*
X013139Y019434D01*
X013125Y019442D01*
X013079Y019454D01*
X012847Y019454D01*
X012847Y019027D01*
X012751Y019027D01*
X012751Y018931D01*
X012363Y018931D01*
X012363Y018912D01*
X012188Y018912D01*
X012188Y019007D01*
X012615Y019007D01*
X012615Y019027D01*
X012751Y019027D01*
X012751Y019454D01*
X012655Y019454D01*
X012655Y019598D01*
X012990Y019598D01*
X013119Y019727D01*
X013119Y020220D01*
X012990Y020348D01*
X012938Y020348D01*
X012889Y020398D01*
X012655Y020632D01*
X012655Y020815D01*
X012766Y020815D01*
X012766Y020709D01*
X012895Y020580D01*
X013129Y020580D01*
X013129Y020107D01*
X013258Y019978D01*
X013555Y019978D01*
X013547Y019964D01*
X013537Y019928D01*
X013524Y019928D01*
X013325Y019928D01*
X013280Y019916D01*
X013239Y019893D01*
X013205Y019859D01*
X013181Y019818D01*
X013169Y019772D01*
X013169Y019593D01*
X013524Y019593D01*
X013524Y019593D01*
X013524Y019593D01*
X013569Y019639D01*
X013524Y019676D02*
X013524Y019676D01*
X013524Y019593D02*
X013524Y019928D01*
X013524Y019593D01*
X013879Y019593D01*
X013879Y019687D01*
X013962Y019687D01*
X013962Y019591D01*
X013962Y019427D01*
X014023Y019366D01*
X014023Y018593D01*
X014016Y018586D01*
X014023Y018578D01*
X014023Y018423D01*
X014401Y018423D01*
X014401Y018566D02*
X014023Y018566D01*
X014023Y018725D02*
X014288Y018725D01*
X014222Y018883D02*
X014023Y018883D01*
X014023Y019042D02*
X014222Y019042D01*
X014222Y019200D02*
X014023Y019200D01*
X014023Y019359D02*
X014058Y019359D01*
X014058Y019517D02*
X013962Y019517D01*
X013962Y019676D02*
X013879Y019676D01*
X013524Y019593D02*
X013524Y019593D01*
X013524Y019834D02*
X013524Y019834D01*
X013244Y019993D02*
X013119Y019993D01*
X013119Y020151D02*
X013129Y020151D01*
X013129Y020310D02*
X013029Y020310D01*
X013129Y020468D02*
X012819Y020468D01*
X012849Y020627D02*
X012660Y020627D01*
X012655Y020785D02*
X012766Y020785D01*
X013990Y020406D02*
X014010Y020387D01*
X013977Y020353D01*
X013191Y019834D02*
X013119Y019834D01*
X013169Y019676D02*
X013067Y019676D01*
X013169Y019517D02*
X012655Y019517D01*
X012751Y019359D02*
X012847Y019359D01*
X012927Y019225D02*
X012927Y019107D01*
X012847Y019042D02*
X012751Y019042D01*
X012799Y018979D02*
X012780Y018960D01*
X012799Y018960D01*
X012751Y018931D02*
X012847Y018931D01*
X012847Y018707D01*
X012751Y018707D01*
X012751Y018931D01*
X012751Y018883D02*
X012847Y018883D01*
X012847Y018725D02*
X012751Y018725D01*
X012751Y019200D02*
X012847Y019200D01*
X012780Y018211D02*
X012799Y018192D01*
X012314Y015872D02*
X011738Y015872D01*
X011769Y015713D02*
X012355Y015713D01*
X012315Y015079D02*
X011993Y015079D01*
X017106Y010958D02*
X017273Y010958D01*
X017273Y010800D02*
X017164Y010800D01*
X017157Y010641D02*
X017273Y010641D01*
X017273Y010483D02*
X017074Y010483D01*
X017046Y010324D02*
X017273Y010324D01*
X017273Y010166D02*
X017046Y010166D01*
X017046Y010007D02*
X017273Y010007D01*
X017273Y009849D02*
X017106Y009849D01*
X017164Y009690D02*
X017268Y009690D01*
X018720Y010483D02*
X019123Y010483D01*
X019129Y010324D02*
X018878Y010324D01*
X019037Y010166D02*
X019209Y010166D01*
X019195Y010007D02*
X019837Y010007D01*
X019184Y010641D02*
X018641Y010641D01*
X018570Y010800D02*
X019176Y010800D01*
X019123Y010958D02*
X018343Y010958D01*
X018502Y011117D02*
X019136Y011117D01*
X019226Y011275D02*
X018660Y011275D01*
X018819Y011434D02*
X021521Y011434D01*
X021679Y011592D02*
X018977Y011592D01*
X019136Y011751D02*
X021679Y011751D01*
X021521Y011909D02*
X021128Y011909D01*
X020868Y011909D02*
X019294Y011909D01*
X019430Y012068D02*
X020657Y012068D01*
X020600Y012226D02*
X019457Y012226D01*
X019457Y012385D02*
X020608Y012385D01*
X020691Y012543D02*
X019457Y012543D01*
X019457Y012702D02*
X020728Y012702D01*
X020570Y012860D02*
X019393Y012860D01*
X019336Y012917D02*
X019336Y012917D01*
X019235Y013019D02*
X020411Y013019D01*
X020253Y013177D02*
X019076Y013177D01*
X018918Y013336D02*
X020094Y013336D01*
X019936Y013494D02*
X018759Y013494D01*
X021339Y012068D02*
X021362Y012068D01*
X023903Y009920D02*
X024481Y009342D01*
X024584Y009300D01*
X026522Y009300D01*
X026579Y009242D01*
X026726Y009181D01*
X026884Y009181D01*
X027031Y009242D01*
X027143Y009354D01*
X027204Y009500D01*
X027204Y009659D01*
X027143Y009805D01*
X027031Y009917D01*
X026884Y009978D01*
X026726Y009978D01*
X026613Y009931D01*
X026613Y010003D01*
X026552Y010150D01*
X026495Y010208D01*
X026495Y012293D01*
X026452Y012396D01*
X026251Y012597D01*
X026831Y012597D01*
X027710Y011718D01*
X027710Y011636D01*
X027771Y011490D01*
X027883Y011378D01*
X028030Y011317D01*
X028188Y011317D01*
X028335Y011378D01*
X028447Y011490D01*
X028507Y011636D01*
X028507Y011795D01*
X028447Y011941D01*
X028335Y012053D01*
X028188Y012114D01*
X028106Y012114D01*
X027693Y012528D01*
X027819Y012528D01*
X027966Y012588D01*
X028078Y012700D01*
X028139Y012847D01*
X028139Y012991D01*
X028362Y012991D01*
X028494Y012859D01*
X028494Y012378D01*
X028536Y012275D01*
X028986Y011826D01*
X028986Y011042D01*
X029028Y010939D01*
X029338Y010630D01*
X029312Y010604D01*
X029233Y010413D01*
X029233Y010206D01*
X029275Y010106D01*
X028177Y010106D01*
X028074Y010063D01*
X027995Y009984D01*
X027306Y009295D01*
X026906Y008895D01*
X024645Y008895D01*
X024645Y008921D01*
X024584Y009067D01*
X024472Y009179D01*
X024325Y009240D01*
X024167Y009240D01*
X024020Y009179D01*
X023908Y009067D01*
X023908Y009066D01*
X023908Y009909D01*
X023903Y009920D01*
X023908Y009849D02*
X023975Y009849D01*
X023908Y009690D02*
X024133Y009690D01*
X024292Y009532D02*
X023908Y009532D01*
X023908Y009373D02*
X024450Y009373D01*
X024387Y009215D02*
X026645Y009215D01*
X026965Y009215D02*
X027225Y009215D01*
X027151Y009373D02*
X027384Y009373D01*
X027542Y009532D02*
X027204Y009532D01*
X027191Y009690D02*
X027701Y009690D01*
X027859Y009849D02*
X027100Y009849D01*
X026612Y010007D02*
X028018Y010007D01*
X029250Y010166D02*
X026537Y010166D01*
X026495Y010324D02*
X029233Y010324D01*
X029262Y010483D02*
X026495Y010483D01*
X026495Y010641D02*
X029326Y010641D01*
X029168Y010800D02*
X026495Y010800D01*
X026495Y010958D02*
X029020Y010958D01*
X028986Y011117D02*
X026495Y011117D01*
X026495Y011275D02*
X028986Y011275D01*
X028986Y011434D02*
X028391Y011434D01*
X028489Y011592D02*
X028986Y011592D01*
X028986Y011751D02*
X028507Y011751D01*
X028460Y011909D02*
X028903Y011909D01*
X028744Y012068D02*
X028300Y012068D01*
X028586Y012226D02*
X027994Y012226D01*
X027836Y012385D02*
X028494Y012385D01*
X028494Y012543D02*
X027857Y012543D01*
X028078Y012702D02*
X028494Y012702D01*
X028493Y012860D02*
X028139Y012860D01*
X027361Y012068D02*
X026495Y012068D01*
X026495Y012226D02*
X027202Y012226D01*
X027044Y012385D02*
X026457Y012385D01*
X026305Y012543D02*
X026885Y012543D01*
X026495Y011909D02*
X027519Y011909D01*
X027678Y011751D02*
X026495Y011751D01*
X026495Y011592D02*
X027729Y011592D01*
X027827Y011434D02*
X026495Y011434D01*
X027067Y009056D02*
X024588Y009056D01*
X024645Y008898D02*
X026908Y008898D01*
X028246Y008512D02*
X030360Y008512D01*
X030418Y008454D01*
X030565Y008394D01*
X030723Y008394D01*
X030869Y008454D01*
X030982Y008567D01*
X031042Y008713D01*
X031042Y008775D01*
X031046Y008765D01*
X031207Y008604D01*
X031416Y008517D01*
X031643Y008517D01*
X031852Y008604D01*
X031856Y008608D01*
X031891Y008572D01*
X032585Y008572D01*
X032612Y008599D01*
X032639Y008572D01*
X033333Y008572D01*
X033353Y008592D01*
X033353Y008148D01*
X033331Y008157D01*
X033173Y008157D01*
X033026Y008097D01*
X032914Y007984D01*
X032854Y007838D01*
X032854Y007679D01*
X032914Y007533D01*
X033026Y007421D01*
X033144Y007372D01*
X033267Y007249D01*
X033267Y005888D01*
X033134Y005943D01*
X032976Y005943D01*
X032931Y005924D01*
X032931Y006354D01*
X032870Y006415D01*
X032878Y006429D01*
X032891Y006475D01*
X032891Y006707D01*
X032463Y006707D01*
X032463Y006803D01*
X032367Y006803D01*
X031988Y006803D01*
X031983Y006792D01*
X031934Y006724D01*
X031875Y006666D01*
X031807Y006616D01*
X031776Y006600D01*
X031852Y006569D01*
X031940Y006481D01*
X031940Y006707D01*
X032367Y006707D01*
X032367Y006803D01*
X032367Y007191D01*
X032096Y007191D01*
X032051Y007178D01*
X032049Y007178D01*
X032047Y007194D01*
X032021Y007273D01*
X031983Y007348D01*
X031934Y007415D01*
X031875Y007474D01*
X031807Y007523D01*
X031733Y007561D01*
X031654Y007587D01*
X031571Y007600D01*
X031538Y007600D01*
X031538Y007078D01*
X031521Y007078D01*
X031521Y007061D01*
X031000Y007061D01*
X031000Y007028D01*
X031013Y006946D01*
X031038Y006866D01*
X031076Y006792D01*
X031125Y006724D01*
X031184Y006666D01*
X031252Y006616D01*
X031283Y006600D01*
X031207Y006569D01*
X031046Y006408D01*
X030960Y006199D01*
X030960Y005972D01*
X031046Y005763D01*
X031207Y005602D01*
X031228Y005593D01*
X031207Y005584D01*
X031046Y005424D01*
X031029Y005381D01*
X030851Y005381D01*
X030873Y005435D01*
X030873Y005642D01*
X030794Y005833D01*
X030648Y005979D01*
X030505Y006038D01*
X030648Y006097D01*
X030794Y006244D01*
X030873Y006435D01*
X030873Y006642D01*
X030794Y006833D01*
X030648Y006979D01*
X030505Y007038D01*
X030648Y007097D01*
X030794Y007244D01*
X030873Y007435D01*
X030873Y007642D01*
X030794Y007833D01*
X030648Y007979D01*
X030457Y008058D01*
X029650Y008058D01*
X029459Y007979D01*
X029420Y007941D01*
X029379Y007983D01*
X028645Y007983D01*
X028516Y007854D01*
X028516Y007687D01*
X028511Y007685D01*
X028458Y007632D01*
X028246Y007632D01*
X028246Y008512D01*
X028246Y008422D02*
X030496Y008422D01*
X030791Y008422D02*
X033353Y008422D01*
X033353Y008264D02*
X028246Y008264D01*
X028246Y008105D02*
X033047Y008105D01*
X032899Y007947D02*
X030680Y007947D01*
X030813Y007788D02*
X032854Y007788D01*
X032874Y007630D02*
X030873Y007630D01*
X030873Y007471D02*
X031181Y007471D01*
X031184Y007474D02*
X031125Y007415D01*
X031076Y007348D01*
X031038Y007273D01*
X031013Y007194D01*
X031000Y007111D01*
X031000Y007078D01*
X031521Y007078D01*
X031521Y007600D01*
X031488Y007600D01*
X031405Y007587D01*
X031326Y007561D01*
X031252Y007523D01*
X031184Y007474D01*
X031058Y007313D02*
X030823Y007313D01*
X030704Y007154D02*
X031006Y007154D01*
X031005Y006996D02*
X030608Y006996D01*
X030790Y006837D02*
X031053Y006837D01*
X031171Y006679D02*
X030858Y006679D01*
X030873Y006520D02*
X031158Y006520D01*
X031027Y006362D02*
X030843Y006362D01*
X030753Y006203D02*
X030961Y006203D01*
X030960Y006045D02*
X030520Y006045D01*
X030741Y005886D02*
X030995Y005886D01*
X031081Y005728D02*
X030838Y005728D01*
X030873Y005569D02*
X031191Y005569D01*
X031041Y005411D02*
X030863Y005411D01*
X029318Y005104D02*
X029167Y004953D01*
X028897Y004953D01*
X028897Y004984D01*
X028836Y005045D01*
X028845Y005059D01*
X028857Y005104D01*
X028970Y005104D01*
X028970Y005541D01*
X029085Y005541D01*
X029085Y005104D01*
X029318Y005104D01*
X029307Y005094D02*
X028854Y005094D01*
X028970Y005252D02*
X029085Y005252D01*
X029085Y005411D02*
X028970Y005411D01*
X028970Y005657D02*
X028970Y006094D01*
X028954Y006094D01*
X028954Y006209D01*
X029070Y006209D01*
X029070Y005772D01*
X029085Y005772D01*
X029085Y005657D01*
X028970Y005657D01*
X028970Y005728D02*
X029085Y005728D01*
X029070Y005886D02*
X028970Y005886D01*
X028970Y006045D02*
X029070Y006045D01*
X029070Y006203D02*
X028954Y006203D01*
X028954Y006324D02*
X028954Y006762D01*
X028846Y006762D01*
X028893Y006809D01*
X028893Y006913D01*
X029283Y006913D01*
X029338Y006858D01*
X029312Y006833D01*
X029283Y006762D01*
X029070Y006762D01*
X029070Y006324D01*
X028954Y006324D01*
X028954Y006362D02*
X029070Y006362D01*
X029070Y006520D02*
X028954Y006520D01*
X028954Y006679D02*
X029070Y006679D01*
X028893Y006837D02*
X029317Y006837D01*
X028426Y006360D02*
X028426Y005972D01*
X028556Y005972D01*
X028556Y005928D01*
X028569Y005882D01*
X028572Y005876D01*
X028572Y005821D01*
X028430Y005821D01*
X028430Y005433D01*
X028334Y005433D01*
X028334Y005821D01*
X028063Y005821D01*
X028017Y005808D01*
X027976Y005785D01*
X027943Y005751D01*
X027938Y005742D01*
X027818Y005742D01*
X027818Y005838D01*
X028206Y005838D01*
X028206Y005972D01*
X028330Y005972D01*
X028330Y006360D01*
X028426Y006360D01*
X028426Y006203D02*
X028330Y006203D01*
X028330Y006045D02*
X028426Y006045D01*
X028568Y005886D02*
X028206Y005886D01*
X028334Y005728D02*
X028430Y005728D01*
X028430Y005569D02*
X028334Y005569D01*
X027907Y005315D02*
X027907Y005254D01*
X027759Y005254D01*
X027613Y005194D01*
X027501Y005082D01*
X027440Y004935D01*
X027019Y004935D01*
X027004Y004950D02*
X027234Y004950D01*
X027337Y004993D01*
X027387Y005043D01*
X027551Y005207D01*
X027554Y005208D01*
X027633Y005287D01*
X027645Y005315D01*
X027722Y005315D01*
X027722Y005742D01*
X027818Y005742D01*
X027818Y005315D01*
X027907Y005315D01*
X027818Y005411D02*
X027722Y005411D01*
X027722Y005569D02*
X027818Y005569D01*
X027818Y005728D02*
X027722Y005728D01*
X027722Y005838D02*
X027722Y005915D01*
X027818Y005915D01*
X027818Y005838D01*
X027722Y005838D01*
X027722Y005886D02*
X027818Y005886D01*
X027754Y005252D02*
X027598Y005252D01*
X027513Y005094D02*
X027437Y005094D01*
X027440Y004935D02*
X027440Y004861D01*
X027365Y004861D01*
X027218Y004800D01*
X027157Y004738D01*
X027115Y004839D01*
X027004Y004950D01*
X027141Y004777D02*
X027195Y004777D01*
X025979Y004057D02*
X025929Y004049D01*
X025857Y004025D01*
X025790Y003991D01*
X025729Y003947D01*
X025675Y003893D01*
X025631Y003832D01*
X025597Y003765D01*
X025573Y003693D01*
X025561Y003618D01*
X025561Y003300D01*
X026021Y003300D01*
X026021Y003260D01*
X025561Y003260D01*
X025561Y003081D01*
X025561Y003684D01*
X025482Y003875D01*
X025336Y004021D01*
X025145Y004100D01*
X024938Y004100D01*
X024747Y004021D01*
X024601Y003875D01*
X024541Y003732D01*
X024482Y003875D01*
X024336Y004021D01*
X024187Y004083D01*
X024775Y004083D01*
X024878Y004126D01*
X024957Y004204D01*
X025172Y004420D01*
X025192Y004468D01*
X025239Y004448D01*
X025319Y004448D01*
X025379Y004305D01*
X025491Y004193D01*
X025637Y004133D01*
X025796Y004133D01*
X025863Y004160D01*
X025958Y004065D01*
X025979Y004057D01*
X025881Y004143D02*
X025820Y004143D01*
X025780Y003984D02*
X025373Y003984D01*
X025503Y003826D02*
X025628Y003826D01*
X025569Y003667D02*
X025561Y003667D01*
X025561Y003509D02*
X025561Y003509D01*
X025561Y003350D02*
X025561Y003350D01*
X025561Y003192D02*
X025561Y003192D01*
X025561Y003081D02*
X025561Y003081D01*
X026061Y003260D02*
X026061Y003300D01*
X026521Y003300D01*
X026521Y003618D01*
X026515Y003661D01*
X027064Y003095D01*
X026782Y003095D01*
X026761Y003102D01*
X026686Y003095D01*
X026612Y003095D01*
X026591Y003087D01*
X026569Y003085D01*
X026542Y003070D01*
X026521Y003081D01*
X026521Y003260D01*
X026061Y003260D01*
X026521Y003192D02*
X026970Y003192D01*
X026816Y003350D02*
X026521Y003350D01*
X026521Y003509D02*
X026662Y003509D01*
X025613Y004143D02*
X024895Y004143D01*
X025053Y004301D02*
X025383Y004301D01*
X025212Y004460D02*
X025189Y004460D01*
X024710Y003984D02*
X024373Y003984D01*
X024503Y003826D02*
X024580Y003826D01*
X022785Y004037D02*
X022747Y004021D01*
X022601Y003875D01*
X022521Y003684D01*
X022521Y003081D01*
X022509Y003087D01*
X022491Y003088D01*
X022486Y003090D01*
X022486Y003260D01*
X022026Y003260D01*
X022026Y003300D01*
X022486Y003300D01*
X022486Y003618D01*
X022474Y003693D01*
X022451Y003765D01*
X022442Y003783D01*
X022553Y003828D01*
X022665Y003941D01*
X022725Y004087D01*
X022725Y004142D01*
X022727Y004137D01*
X022785Y004080D01*
X022785Y004037D01*
X022710Y003984D02*
X022683Y003984D01*
X022580Y003826D02*
X022545Y003826D01*
X022521Y003667D02*
X022478Y003667D01*
X022486Y003509D02*
X022521Y003509D01*
X022521Y003350D02*
X022486Y003350D01*
X022486Y003192D02*
X022521Y003192D01*
X021986Y003260D02*
X021526Y003260D01*
X021526Y003078D01*
X021526Y003078D01*
X021526Y003684D01*
X021447Y003875D01*
X021430Y003892D01*
X021455Y003916D01*
X021534Y004107D01*
X021534Y004914D01*
X021455Y005105D01*
X021434Y005126D01*
X021455Y005146D01*
X021534Y005338D01*
X021534Y006040D01*
X021780Y005793D01*
X021757Y005784D01*
X021645Y005671D01*
X021584Y005525D01*
X021584Y005366D01*
X021645Y005220D01*
X021702Y005162D01*
X021702Y005046D01*
X021745Y004943D01*
X021824Y004864D01*
X022047Y004641D01*
X022047Y004450D01*
X021989Y004392D01*
X021928Y004245D01*
X021928Y004087D01*
X021941Y004056D01*
X021894Y004049D01*
X021822Y004025D01*
X021754Y003991D01*
X021693Y003947D01*
X021640Y003893D01*
X021595Y003832D01*
X021561Y003765D01*
X021538Y003693D01*
X021526Y003618D01*
X021526Y003300D01*
X021986Y003300D01*
X021986Y003260D01*
X021526Y003192D02*
X021526Y003192D01*
X021526Y003350D02*
X021526Y003350D01*
X021526Y003509D02*
X021526Y003509D01*
X021526Y003667D02*
X021534Y003667D01*
X021592Y003826D02*
X021467Y003826D01*
X021483Y003984D02*
X021745Y003984D01*
X021928Y004143D02*
X021534Y004143D01*
X021534Y004301D02*
X021951Y004301D01*
X022047Y004460D02*
X021534Y004460D01*
X021534Y004618D02*
X022047Y004618D01*
X021911Y004777D02*
X021534Y004777D01*
X021525Y004935D02*
X021753Y004935D01*
X021702Y005094D02*
X021460Y005094D01*
X021498Y005252D02*
X021631Y005252D01*
X021584Y005411D02*
X021534Y005411D01*
X021534Y005569D02*
X021602Y005569D01*
X021534Y005728D02*
X021701Y005728D01*
X021687Y005886D02*
X021534Y005886D01*
X023908Y008246D02*
X023908Y008617D01*
X023908Y008616D01*
X024020Y008504D01*
X024167Y008443D01*
X024249Y008443D01*
X024314Y008378D01*
X024417Y008335D01*
X025090Y008335D01*
X025080Y008309D01*
X025080Y008160D01*
X023994Y008160D01*
X023908Y008246D01*
X023908Y008264D02*
X025080Y008264D01*
X024270Y008422D02*
X023908Y008422D01*
X023908Y008581D02*
X023944Y008581D01*
X023908Y009215D02*
X024106Y009215D01*
X028246Y007947D02*
X028609Y007947D01*
X028516Y007788D02*
X028246Y007788D01*
X029415Y007947D02*
X029426Y007947D01*
X030987Y008581D02*
X031264Y008581D01*
X031072Y008739D02*
X031042Y008739D01*
X031795Y008581D02*
X031883Y008581D01*
X032594Y008581D02*
X032631Y008581D01*
X033342Y008581D02*
X033353Y008581D01*
X032976Y007471D02*
X031878Y007471D01*
X032001Y007313D02*
X033204Y007313D01*
X033267Y007154D02*
X032822Y007154D01*
X032821Y007155D02*
X032780Y007178D01*
X032734Y007191D01*
X032463Y007191D01*
X032463Y006803D01*
X032891Y006803D01*
X032891Y007034D01*
X032878Y007080D01*
X032855Y007121D01*
X032821Y007155D01*
X032891Y006996D02*
X033267Y006996D01*
X033267Y006837D02*
X032891Y006837D01*
X032891Y006679D02*
X033267Y006679D01*
X033267Y006520D02*
X032891Y006520D01*
X032923Y006362D02*
X033267Y006362D01*
X033267Y006203D02*
X032931Y006203D01*
X032931Y006045D02*
X033267Y006045D01*
X032415Y006007D02*
X032415Y005544D01*
X032415Y005180D01*
X031940Y006520D02*
X031901Y006520D01*
X031888Y006679D02*
X031940Y006679D01*
X032367Y006837D02*
X032463Y006837D01*
X032463Y006996D02*
X032367Y006996D01*
X032367Y007154D02*
X032463Y007154D01*
X031538Y007154D02*
X031521Y007154D01*
X031521Y007313D02*
X031538Y007313D01*
X031521Y007471D02*
X031538Y007471D01*
X026980Y014338D02*
X025384Y014338D01*
X025384Y014482D01*
X025324Y014628D01*
X025212Y014740D01*
X025065Y014801D01*
X025041Y014801D01*
X025041Y014829D01*
X024981Y014976D01*
X024869Y015088D01*
X024722Y015149D01*
X024564Y015149D01*
X024417Y015088D01*
X024305Y014976D01*
X024245Y014829D01*
X024245Y014748D01*
X024229Y014732D01*
X023722Y014732D01*
X023155Y015299D01*
X023076Y015378D01*
X022973Y015421D01*
X020376Y015421D01*
X019755Y016041D01*
X019761Y016047D01*
X019822Y016193D01*
X019822Y016352D01*
X019761Y016498D01*
X019649Y016610D01*
X019526Y016661D01*
X019526Y016745D01*
X019469Y016884D01*
X019570Y016842D01*
X019729Y016842D01*
X019875Y016903D01*
X019987Y017015D01*
X020048Y017161D01*
X020048Y017272D01*
X020203Y017272D01*
X020342Y017134D01*
X020342Y017111D01*
X020282Y017051D01*
X020221Y016905D01*
X020221Y016746D01*
X020282Y016600D01*
X020391Y016491D01*
X020372Y016444D01*
X020372Y016286D01*
X020432Y016139D01*
X020544Y016027D01*
X020691Y015966D01*
X020849Y015966D01*
X020996Y016027D01*
X021108Y016139D01*
X021169Y016286D01*
X021169Y016367D01*
X021214Y016413D01*
X021257Y016516D01*
X021257Y017486D01*
X021214Y017589D01*
X021086Y017717D01*
X021157Y017746D01*
X021303Y017893D01*
X021362Y018035D01*
X021421Y017893D01*
X021568Y017746D01*
X021759Y017667D01*
X021966Y017667D01*
X022157Y017746D01*
X022303Y017893D01*
X022382Y018084D01*
X022382Y018891D01*
X022319Y019044D01*
X022455Y019044D01*
X022452Y019039D01*
X022417Y018971D01*
X022394Y018899D01*
X022382Y018825D01*
X022382Y018507D01*
X022842Y018507D01*
X022842Y018467D01*
X022382Y018467D01*
X022382Y018149D01*
X022394Y018075D01*
X022417Y018003D01*
X022452Y017936D01*
X022496Y017874D01*
X022550Y017821D01*
X022611Y017777D01*
X022678Y017742D01*
X022750Y017719D01*
X022824Y017707D01*
X022842Y017707D01*
X022842Y018467D01*
X022882Y018467D01*
X022882Y017707D01*
X022786Y017611D01*
X022704Y017611D01*
X022558Y017550D01*
X022446Y017438D01*
X022385Y017292D01*
X022385Y017143D01*
X022079Y017143D01*
X022035Y017249D01*
X021923Y017361D01*
X021776Y017422D01*
X021618Y017422D01*
X021471Y017361D01*
X021359Y017249D01*
X021299Y017103D01*
X021299Y016944D01*
X021359Y016798D01*
X021471Y016686D01*
X021618Y016625D01*
X021700Y016625D01*
X021802Y016583D01*
X022582Y016583D01*
X022578Y016573D01*
X022444Y016573D01*
X022298Y016512D01*
X022186Y016400D01*
X022135Y016277D01*
X022051Y016277D01*
X021904Y016217D01*
X021792Y016105D01*
X021732Y015958D01*
X021732Y015800D01*
X021792Y015653D01*
X021904Y015541D01*
X022051Y015480D01*
X022151Y015480D01*
X022222Y015451D01*
X023490Y015451D01*
X023552Y015389D01*
X023552Y015307D01*
X023613Y015161D01*
X023725Y015049D01*
X023872Y014988D01*
X024030Y014988D01*
X024177Y015049D01*
X024289Y015161D01*
X024349Y015307D01*
X024349Y015333D01*
X024375Y015333D01*
X024521Y015393D01*
X024633Y015505D01*
X024694Y015652D01*
X024694Y015677D01*
X024719Y015677D01*
X024866Y015738D01*
X024978Y015850D01*
X025038Y015996D01*
X025038Y016022D01*
X025113Y016022D01*
X025259Y016082D01*
X025371Y016194D01*
X025395Y016253D01*
X025436Y016212D01*
X025534Y016114D01*
X025613Y016035D01*
X025716Y015993D01*
X027112Y015993D01*
X027170Y015935D01*
X027316Y015874D01*
X027475Y015874D01*
X027621Y015935D01*
X027733Y016047D01*
X027746Y016077D01*
X027759Y016071D01*
X027918Y016071D01*
X028064Y016132D01*
X028176Y016244D01*
X028237Y016390D01*
X028237Y016549D01*
X028176Y016695D01*
X028064Y016807D01*
X027960Y016850D01*
X027960Y017181D01*
X027933Y017208D01*
X027960Y017235D01*
X027960Y017929D01*
X027915Y017973D01*
X027961Y018084D01*
X027961Y018891D01*
X027882Y019082D01*
X027736Y019228D01*
X027544Y019307D01*
X027338Y019307D01*
X027146Y019228D01*
X027000Y019082D01*
X026941Y018939D01*
X026882Y019082D01*
X026736Y019228D01*
X026544Y019307D01*
X026338Y019307D01*
X026146Y019228D01*
X026000Y019082D01*
X025941Y018939D01*
X025882Y019082D01*
X025736Y019228D01*
X025544Y019307D01*
X025338Y019307D01*
X025146Y019228D01*
X025000Y019082D01*
X024941Y018939D01*
X024882Y019082D01*
X024736Y019228D01*
X024723Y019233D01*
X024723Y019385D01*
X024822Y019344D01*
X025048Y019344D01*
X025258Y019431D01*
X025418Y019591D01*
X025427Y019613D01*
X025436Y019591D01*
X025596Y019431D01*
X025806Y019344D01*
X026033Y019344D01*
X026242Y019431D01*
X026403Y019591D01*
X026411Y019613D01*
X026420Y019591D01*
X026581Y019431D01*
X026790Y019344D01*
X027017Y019344D01*
X027226Y019431D01*
X027387Y019591D01*
X027396Y019613D01*
X027405Y019591D01*
X027565Y019431D01*
X027774Y019344D01*
X028001Y019344D01*
X028211Y019431D01*
X028371Y019591D01*
X028458Y019801D01*
X028458Y020028D01*
X028371Y020237D01*
X028368Y020240D01*
X028403Y020276D01*
X028403Y020970D01*
X028376Y020997D01*
X028403Y021024D01*
X028403Y021091D01*
X028431Y021091D01*
X028641Y020881D01*
X028641Y019224D01*
X028625Y019232D01*
X028553Y019255D01*
X028479Y019267D01*
X028461Y019267D01*
X028461Y018507D01*
X028421Y018507D01*
X028421Y018467D01*
X028461Y018467D01*
X028461Y017707D01*
X028479Y017707D01*
X028553Y017719D01*
X028625Y017742D01*
X028693Y017777D01*
X028754Y017821D01*
X028807Y017874D01*
X028852Y017936D01*
X028886Y018003D01*
X028909Y018075D01*
X028921Y018149D01*
X028921Y018284D01*
X028976Y018229D01*
X029122Y018168D01*
X029281Y018168D01*
X029427Y018229D01*
X029507Y018308D01*
X029610Y018265D01*
X029769Y018265D01*
X029915Y018326D01*
X030023Y018434D01*
X030078Y018411D01*
X030011Y018345D01*
X029951Y018198D01*
X029951Y018040D01*
X030011Y017893D01*
X030124Y017781D01*
X030270Y017721D01*
X030428Y017721D01*
X030575Y017781D01*
X030687Y017893D01*
X030748Y018040D01*
X030748Y018198D01*
X030734Y018231D01*
X031619Y019116D01*
X031662Y019219D01*
X031662Y019385D01*
X031761Y019344D01*
X031919Y019344D01*
X031919Y019294D01*
X031979Y019147D01*
X032091Y019035D01*
X032238Y018974D01*
X032396Y018974D01*
X032543Y019035D01*
X032655Y019147D01*
X032715Y019294D01*
X032715Y019356D01*
X032745Y019344D01*
X032972Y019344D01*
X033181Y019431D01*
X033317Y019566D01*
X033317Y018639D01*
X033173Y018639D01*
X033026Y018579D01*
X032969Y018521D01*
X031917Y018521D01*
X031814Y018478D01*
X030780Y017445D01*
X030728Y017392D01*
X030676Y017444D01*
X030615Y017488D01*
X030547Y017522D01*
X030475Y017546D01*
X030401Y017558D01*
X030083Y017558D01*
X030083Y017098D01*
X030043Y017098D01*
X030043Y017558D01*
X029725Y017558D01*
X029651Y017546D01*
X029579Y017522D01*
X029511Y017488D01*
X029450Y017444D01*
X029397Y017390D01*
X029353Y017329D01*
X029318Y017262D01*
X029295Y017190D01*
X029283Y017115D01*
X029283Y017098D01*
X030043Y017098D01*
X030043Y017058D01*
X029283Y017058D01*
X029283Y017040D01*
X029295Y016965D01*
X029318Y016893D01*
X029353Y016826D01*
X029397Y016765D01*
X029450Y016712D01*
X029511Y016667D01*
X029579Y016633D01*
X029651Y016609D01*
X029725Y016598D01*
X030043Y016598D01*
X030043Y017058D01*
X030083Y017058D01*
X030083Y016598D01*
X030187Y016598D01*
X030187Y016598D01*
X029660Y016598D01*
X029468Y016518D01*
X029322Y016372D01*
X029243Y016181D01*
X029243Y015974D01*
X029322Y015783D01*
X029347Y015758D01*
X028249Y014660D01*
X027661Y014660D01*
X027604Y014718D01*
X027457Y014778D01*
X027299Y014778D01*
X027152Y014718D01*
X027040Y014606D01*
X026980Y014459D01*
X026980Y014338D01*
X026980Y014445D02*
X025384Y014445D01*
X025334Y014604D02*
X027039Y014604D01*
X027259Y014762D02*
X025159Y014762D01*
X025004Y014921D02*
X028510Y014921D01*
X028668Y015079D02*
X024877Y015079D01*
X024524Y015396D02*
X028985Y015396D01*
X028827Y015238D02*
X024320Y015238D01*
X024408Y015079D02*
X024207Y015079D01*
X024282Y014921D02*
X023533Y014921D01*
X023375Y015079D02*
X023695Y015079D01*
X023581Y015238D02*
X023216Y015238D01*
X023032Y015396D02*
X023546Y015396D01*
X023692Y014762D02*
X024245Y014762D01*
X024653Y015555D02*
X029144Y015555D01*
X029302Y015713D02*
X024805Y015713D01*
X024987Y015872D02*
X029286Y015872D01*
X029243Y016030D02*
X027717Y016030D01*
X028121Y016189D02*
X029246Y016189D01*
X029312Y016347D02*
X028219Y016347D01*
X028237Y016506D02*
X029456Y016506D01*
X029518Y016664D02*
X028189Y016664D01*
X028027Y016823D02*
X029355Y016823D01*
X029292Y016981D02*
X027960Y016981D01*
X027960Y017140D02*
X029287Y017140D01*
X029337Y017298D02*
X027960Y017298D01*
X027960Y017457D02*
X029468Y017457D01*
X030043Y017457D02*
X030083Y017457D01*
X030083Y017298D02*
X030043Y017298D01*
X030043Y017140D02*
X030083Y017140D01*
X030083Y016981D02*
X030043Y016981D01*
X030043Y016823D02*
X030083Y016823D01*
X030083Y016664D02*
X030043Y016664D01*
X030658Y017457D02*
X030792Y017457D01*
X030780Y017445D02*
X030780Y017445D01*
X030951Y017615D02*
X027960Y017615D01*
X027960Y017774D02*
X028195Y017774D01*
X028189Y017777D02*
X028257Y017742D01*
X028329Y017719D01*
X028403Y017707D01*
X028421Y017707D01*
X028421Y018467D01*
X027961Y018467D01*
X027961Y018149D01*
X027973Y018075D01*
X027996Y018003D01*
X028030Y017936D01*
X028075Y017874D01*
X028128Y017821D01*
X028189Y017777D01*
X028033Y017932D02*
X027957Y017932D01*
X027961Y018091D02*
X027970Y018091D01*
X027961Y018249D02*
X027961Y018249D01*
X027961Y018408D02*
X027961Y018408D01*
X027961Y018507D02*
X028421Y018507D01*
X028421Y019267D01*
X028403Y019267D01*
X028329Y019255D01*
X028257Y019232D01*
X028189Y019198D01*
X028128Y019153D01*
X028075Y019100D01*
X028030Y019039D01*
X027996Y018971D01*
X027973Y018899D01*
X027961Y018825D01*
X027961Y018507D01*
X027961Y018566D02*
X027961Y018566D01*
X027961Y018725D02*
X027961Y018725D01*
X027961Y018883D02*
X027970Y018883D01*
X028033Y019042D02*
X027898Y019042D01*
X027763Y019200D02*
X028194Y019200D01*
X028036Y019359D02*
X028641Y019359D01*
X028641Y019517D02*
X028297Y019517D01*
X028406Y019676D02*
X028641Y019676D01*
X028641Y019834D02*
X028458Y019834D01*
X028458Y019993D02*
X028641Y019993D01*
X028641Y020151D02*
X028407Y020151D01*
X028403Y020310D02*
X028641Y020310D01*
X028641Y020468D02*
X028403Y020468D01*
X028403Y020627D02*
X028641Y020627D01*
X028641Y020785D02*
X028403Y020785D01*
X028403Y020944D02*
X028579Y020944D01*
X027479Y019517D02*
X027312Y019517D01*
X027051Y019359D02*
X027740Y019359D01*
X027119Y019200D02*
X026763Y019200D01*
X026756Y019359D02*
X026067Y019359D01*
X026119Y019200D02*
X025763Y019200D01*
X025771Y019359D02*
X025083Y019359D01*
X025119Y019200D02*
X024763Y019200D01*
X024787Y019359D02*
X024723Y019359D01*
X024898Y019042D02*
X024984Y019042D01*
X025344Y019517D02*
X025510Y019517D01*
X025898Y019042D02*
X025984Y019042D01*
X026328Y019517D02*
X026495Y019517D01*
X026898Y019042D02*
X026984Y019042D01*
X028421Y019042D02*
X028461Y019042D01*
X028461Y019200D02*
X028421Y019200D01*
X028421Y018883D02*
X028461Y018883D01*
X028461Y018725D02*
X028421Y018725D01*
X028421Y018566D02*
X028461Y018566D01*
X028461Y018408D02*
X028421Y018408D01*
X028421Y018249D02*
X028461Y018249D01*
X028461Y018091D02*
X028421Y018091D01*
X028421Y017932D02*
X028461Y017932D01*
X028461Y017774D02*
X028421Y017774D01*
X028687Y017774D02*
X030142Y017774D01*
X029995Y017932D02*
X028849Y017932D01*
X028912Y018091D02*
X029951Y018091D01*
X029972Y018249D02*
X029448Y018249D01*
X028956Y018249D02*
X028921Y018249D01*
X029997Y018408D02*
X030074Y018408D01*
X030752Y018249D02*
X031585Y018249D01*
X031743Y018408D02*
X030911Y018408D01*
X031069Y018566D02*
X033014Y018566D01*
X033317Y018725D02*
X031228Y018725D01*
X031386Y018883D02*
X033317Y018883D01*
X033317Y019042D02*
X032549Y019042D01*
X032677Y019200D02*
X033317Y019200D01*
X033317Y019359D02*
X033006Y019359D01*
X033267Y019517D02*
X033317Y019517D01*
X032085Y019042D02*
X031545Y019042D01*
X031654Y019200D02*
X031957Y019200D01*
X031726Y019359D02*
X031662Y019359D01*
X031426Y018091D02*
X030748Y018091D01*
X030703Y017932D02*
X031268Y017932D01*
X031109Y017774D02*
X030556Y017774D01*
X028351Y014762D02*
X027497Y014762D01*
X025625Y016030D02*
X025133Y016030D01*
X025365Y016189D02*
X025460Y016189D01*
X022882Y017774D02*
X022842Y017774D01*
X022842Y017932D02*
X022882Y017932D01*
X022882Y018091D02*
X022842Y018091D01*
X022842Y018249D02*
X022882Y018249D01*
X022882Y018408D02*
X022842Y018408D01*
X022382Y018408D02*
X022382Y018408D01*
X022382Y018566D02*
X022382Y018566D01*
X022382Y018725D02*
X022382Y018725D01*
X022382Y018883D02*
X022391Y018883D01*
X022454Y019042D02*
X022320Y019042D01*
X022382Y018249D02*
X022382Y018249D01*
X022382Y018091D02*
X022392Y018091D01*
X022454Y017932D02*
X022319Y017932D01*
X022184Y017774D02*
X022617Y017774D01*
X022790Y017615D02*
X021188Y017615D01*
X021184Y017774D02*
X021540Y017774D01*
X021405Y017932D02*
X021319Y017932D01*
X021257Y017457D02*
X022464Y017457D01*
X022388Y017298D02*
X021986Y017298D01*
X021408Y017298D02*
X021257Y017298D01*
X021257Y017140D02*
X021314Y017140D01*
X021299Y016981D02*
X021257Y016981D01*
X021257Y016823D02*
X021349Y016823D01*
X021257Y016664D02*
X021524Y016664D01*
X021253Y016506D02*
X022292Y016506D01*
X022164Y016347D02*
X021169Y016347D01*
X021128Y016189D02*
X021876Y016189D01*
X021761Y016030D02*
X020999Y016030D01*
X020541Y016030D02*
X019766Y016030D01*
X019820Y016189D02*
X020412Y016189D01*
X020372Y016347D02*
X019822Y016347D01*
X019754Y016506D02*
X020376Y016506D01*
X020255Y016664D02*
X019526Y016664D01*
X019495Y016823D02*
X020221Y016823D01*
X020253Y016981D02*
X019953Y016981D01*
X020039Y017140D02*
X020336Y017140D01*
X019925Y015872D02*
X021732Y015872D01*
X021767Y015713D02*
X020083Y015713D01*
X020242Y015555D02*
X021891Y015555D01*
D22*
X022130Y015879D03*
X022524Y016174D03*
X022967Y016469D03*
X022783Y017212D03*
X023311Y017208D03*
X023803Y017306D03*
X024049Y017749D03*
X025083Y016863D03*
X025034Y016420D03*
X024640Y016076D03*
X024295Y015731D03*
X023951Y015387D03*
X024643Y014750D03*
X024986Y014402D03*
X027378Y014380D03*
X027740Y012926D03*
X028109Y011715D03*
X027559Y010016D03*
X026805Y009580D03*
X026215Y009924D03*
X025478Y009930D03*
X024828Y009930D03*
X024246Y008841D03*
X024004Y008302D03*
X022828Y007430D03*
X022428Y007830D03*
X023278Y007080D03*
X023328Y006330D03*
X023678Y005980D03*
X024028Y005630D03*
X025318Y004847D03*
X025716Y004531D03*
X026184Y004403D03*
X027444Y004462D03*
X027839Y004856D03*
X028429Y005987D03*
X025828Y006330D03*
X026559Y007710D03*
X025478Y008230D03*
X023311Y010170D03*
X022622Y010416D03*
X022178Y010143D03*
X021293Y010318D03*
X022032Y010908D03*
X022671Y011105D03*
X023114Y011843D03*
X024345Y012532D03*
X024828Y012380D03*
X025487Y012367D03*
X022032Y012237D03*
X022032Y012237D03*
X021736Y012582D03*
X021736Y012582D03*
X020998Y012286D03*
X020998Y012286D03*
X021687Y011745D03*
X019522Y011007D03*
X019522Y011007D03*
X019522Y010416D03*
X018242Y010564D03*
X016766Y010737D03*
X015585Y011105D03*
X016323Y011794D03*
X016323Y011794D03*
X016421Y012483D03*
X016421Y012483D03*
X017160Y013320D03*
X017750Y013812D03*
X016815Y014747D03*
X017750Y015091D03*
X019423Y016273D03*
X019128Y016666D03*
X018833Y017060D03*
X019649Y017241D03*
X020620Y016826D03*
X020770Y016365D03*
X021697Y017024D03*
X021835Y014649D03*
X021195Y014304D03*
X020900Y014649D03*
X020506Y014156D03*
X022032Y013861D03*
X018784Y012336D03*
X016126Y013664D03*
X014896Y015633D03*
X015573Y016315D03*
X013419Y016026D03*
X012337Y015534D03*
X010368Y014895D03*
X011500Y013910D03*
X012878Y012139D03*
X012484Y011745D03*
X013272Y011400D03*
X013222Y010811D03*
X012832Y010348D03*
X013189Y009977D03*
X013712Y009897D03*
X014225Y009829D03*
X014695Y009401D03*
X015732Y009481D03*
X016323Y009137D03*
X016815Y008841D03*
X016766Y009629D03*
X019620Y007660D03*
X018318Y007224D03*
X020997Y009081D03*
X019866Y009284D03*
X021982Y005446D03*
X022327Y004166D03*
X023065Y004363D03*
X030644Y008792D03*
X033252Y007759D03*
X033055Y005544D03*
X027396Y016273D03*
X027839Y016469D03*
X030349Y018119D03*
X029690Y018664D03*
X030228Y018780D03*
X029202Y018566D03*
X032317Y019373D03*
X033252Y018241D03*
X032317Y016617D03*
X032366Y020997D03*
X024246Y019619D03*
X015486Y021095D03*
X014059Y018881D03*
X007563Y010761D03*
X008203Y009383D03*
X011303Y009530D03*
X011655Y009068D03*
X012112Y009797D03*
X011958Y010334D03*
X012976Y008349D03*
X012091Y008251D03*
X013252Y006783D03*
X008498Y005200D03*
X006333Y001161D03*
D23*
X027789Y005839D02*
X027839Y005839D01*
X028921Y005839D01*
X028675Y005643D02*
X028675Y006332D01*
X028331Y006430D02*
X028331Y005495D01*
D24*
X022032Y013861D03*
X015732Y009481D03*
M02*
