G75*
G70*
%OFA0B0*%
%FSLAX24Y24*%
%IPPOS*%
%LPD*%
%AMOC8*
5,1,8,0,0,1.08239X$1,22.5*
%
%ADD10R,0.0592X0.0671*%
%ADD11R,0.0390X0.0430*%
%ADD12R,0.0710X0.0631*%
%ADD13R,0.0671X0.0592*%
%ADD14C,0.0680*%
%ADD15R,0.0631X0.0710*%
%ADD16OC8,0.0680*%
%ADD17R,0.0789X0.0631*%
%ADD18C,0.0780*%
%ADD19R,0.0430X0.0390*%
%ADD20C,0.0437*%
%ADD21C,0.0476*%
D10*
X002022Y003367D03*
X002770Y003367D03*
X002417Y004030D03*
X001669Y004030D03*
X003065Y004863D03*
X003813Y004863D03*
X003835Y005621D03*
X003087Y005621D03*
X007780Y004166D03*
X008528Y004166D03*
X009158Y004954D03*
X009906Y004954D03*
X011323Y005446D03*
X012071Y005446D03*
X009610Y006479D03*
X008862Y006479D03*
X008862Y007267D03*
X009610Y007267D03*
X009354Y009383D03*
X010102Y009383D03*
X009610Y010219D03*
X008862Y010219D03*
X008862Y011007D03*
X009610Y011007D03*
X009354Y013123D03*
X010102Y013123D03*
X013435Y014778D03*
X014183Y014778D03*
X014191Y015526D03*
X013443Y015526D03*
X013563Y017524D03*
X012815Y017524D03*
X012799Y018192D03*
X013547Y018192D03*
X013547Y018979D03*
X012799Y018979D03*
X013242Y021095D03*
X013990Y021095D03*
X032238Y016026D03*
X032986Y016026D03*
X032986Y015042D03*
X032238Y015042D03*
X032238Y014058D03*
X032986Y014058D03*
X032986Y011056D03*
X032238Y011056D03*
X032238Y010072D03*
X032986Y010072D03*
X032986Y009087D03*
X032238Y009087D03*
X027770Y008349D03*
X027022Y008349D03*
X027022Y007710D03*
X027770Y007710D03*
X027770Y007070D03*
X027022Y007070D03*
X027022Y006430D03*
X027022Y005790D03*
X027770Y005790D03*
X027770Y006430D03*
X008971Y003428D03*
X008222Y003428D03*
D11*
X009571Y003619D03*
X009951Y004419D03*
X009191Y004419D03*
X003827Y004352D03*
X003067Y004352D03*
X003447Y003552D03*
D12*
X002453Y004660D03*
X001272Y004660D03*
X007268Y004806D03*
X008449Y004806D03*
D13*
X005892Y004194D03*
X005183Y004198D03*
X005183Y003450D03*
X005892Y003446D03*
X008203Y006499D03*
X008203Y007247D03*
X008203Y008074D03*
X008203Y008822D03*
X008203Y010239D03*
X008203Y010987D03*
X008203Y011715D03*
X008203Y012463D03*
X010073Y012463D03*
X010073Y011715D03*
X010073Y008674D03*
X010073Y007926D03*
X011402Y004393D03*
X012140Y004393D03*
X012140Y003645D03*
X011402Y003645D03*
X012831Y014778D03*
X012831Y015526D03*
X012829Y016145D03*
X012829Y016893D03*
X012140Y018211D03*
X012140Y018960D03*
X012140Y019737D03*
X012140Y020485D03*
X014010Y020387D03*
X014010Y019639D03*
X015978Y020623D03*
X015978Y021371D03*
X016963Y021371D03*
X016963Y020623D03*
X017947Y020574D03*
X017947Y021322D03*
X020949Y021371D03*
X020949Y020623D03*
X021933Y020623D03*
X021933Y021371D03*
X022917Y021371D03*
X022917Y020623D03*
X025919Y020623D03*
X025919Y021371D03*
X026904Y021371D03*
X027888Y021371D03*
X027888Y020623D03*
X026904Y020623D03*
X030890Y020623D03*
X030890Y021371D03*
X031874Y021371D03*
X031874Y020623D03*
X032858Y020623D03*
X032858Y021371D03*
X027445Y017582D03*
X026756Y017582D03*
X026035Y017587D03*
X026035Y016839D03*
X026756Y016834D03*
X027445Y016834D03*
X014748Y016942D03*
X014748Y016194D03*
X028378Y007156D03*
X028378Y006408D03*
X028382Y005385D03*
X028382Y004637D03*
X032415Y004432D03*
X032415Y005180D03*
X032415Y006007D03*
X032415Y006755D03*
D14*
X030353Y006538D02*
X029753Y006538D01*
X029753Y007538D02*
X030353Y007538D01*
X030353Y009310D02*
X029753Y009310D01*
X029753Y010310D02*
X030353Y010310D01*
X030353Y011436D02*
X029753Y011436D01*
X029753Y012436D02*
X030353Y012436D01*
X030363Y014078D02*
X029763Y014078D01*
X029763Y015078D02*
X030363Y015078D01*
X030363Y016078D02*
X029763Y016078D01*
X029763Y017078D02*
X030363Y017078D01*
X028441Y018187D02*
X028441Y018787D01*
X027441Y018787D02*
X027441Y018187D01*
X026441Y018187D02*
X026441Y018787D01*
X025441Y018787D02*
X025441Y018187D01*
X024441Y018187D02*
X024441Y018787D01*
X022862Y018787D02*
X022862Y018187D01*
X021862Y018187D02*
X021862Y018787D01*
X020862Y018787D02*
X020862Y018187D01*
X019862Y018187D02*
X019862Y018787D01*
X017921Y018787D02*
X017921Y018187D01*
X016921Y018187D02*
X016921Y018787D01*
X015921Y018787D02*
X015921Y018187D01*
X014921Y018187D02*
X014921Y018787D01*
X019014Y006041D02*
X019014Y005441D01*
X019014Y004811D02*
X019014Y004211D01*
X019006Y003580D02*
X019006Y002980D01*
X020006Y002980D02*
X020006Y003580D01*
X020014Y004211D02*
X020014Y004811D01*
X020014Y005441D02*
X020014Y006041D01*
X021014Y006041D02*
X021014Y005441D01*
X021014Y004811D02*
X021014Y004211D01*
X021006Y003580D02*
X021006Y002980D01*
X022006Y002980D02*
X022006Y003580D01*
X023041Y003580D02*
X023041Y002980D01*
X024041Y002980D02*
X024041Y003580D01*
X025041Y003580D02*
X025041Y002980D01*
X026041Y002980D02*
X026041Y003580D01*
X029753Y005538D02*
X030353Y005538D01*
D15*
X029028Y005599D03*
X029012Y006267D03*
X029012Y007448D03*
X029028Y004418D03*
D16*
X029051Y002156D03*
X028051Y002156D03*
X027051Y002156D03*
X026051Y002156D03*
X025051Y002156D03*
X024051Y002156D03*
X023051Y002156D03*
X022051Y002156D03*
X021051Y002156D03*
X021051Y001156D03*
X022051Y001156D03*
X023051Y001156D03*
X024051Y001156D03*
X025051Y001156D03*
X026051Y001156D03*
X027051Y001156D03*
X028051Y001156D03*
X029051Y001156D03*
X030051Y001156D03*
X031051Y001156D03*
X032051Y001156D03*
X033051Y001156D03*
X033051Y002156D03*
X032051Y002156D03*
X031051Y002156D03*
X030051Y002156D03*
D17*
X010663Y003349D03*
X010663Y004688D03*
X004494Y004654D03*
X004494Y003316D03*
D18*
X001756Y002493D03*
X002740Y002493D03*
X003724Y002493D03*
X004709Y002493D03*
X005693Y002493D03*
X008055Y002493D03*
X009039Y002493D03*
X010024Y002493D03*
X011008Y002493D03*
X011992Y002493D03*
X007415Y007414D03*
X007415Y008399D03*
X007415Y009383D03*
X007415Y011400D03*
X007415Y012385D03*
X007415Y013369D03*
X011360Y015316D03*
X011360Y016300D03*
X011360Y017284D03*
X011352Y019324D03*
X011352Y020308D03*
X011352Y021292D03*
X014994Y019914D03*
X015978Y019914D03*
X016963Y019914D03*
X017947Y019914D03*
X019965Y019914D03*
X020949Y019914D03*
X021933Y019914D03*
X022917Y019914D03*
X024935Y019914D03*
X025919Y019914D03*
X026904Y019914D03*
X027888Y019914D03*
X029906Y019914D03*
X030890Y019914D03*
X031874Y019914D03*
X032858Y019914D03*
X031530Y017011D03*
X031530Y016026D03*
X031530Y015042D03*
X031530Y014058D03*
X031530Y012040D03*
X031530Y011056D03*
X031530Y010072D03*
X031530Y009087D03*
X031530Y007070D03*
X031530Y006086D03*
X031530Y005101D03*
X031530Y004117D03*
X016913Y007808D03*
X015929Y007808D03*
X014945Y007808D03*
D19*
X009587Y007881D03*
X008787Y008261D03*
X009587Y008641D03*
X009587Y011621D03*
X008787Y012001D03*
X009587Y012381D03*
X014213Y016198D03*
X014213Y016958D03*
X013413Y016578D03*
X013524Y019593D03*
X012724Y019973D03*
X013524Y020353D03*
D20*
X015486Y021095D03*
X014059Y018881D03*
X015573Y016315D03*
X014896Y015633D03*
X013419Y016026D03*
X012337Y015534D03*
X010368Y014895D03*
X011500Y013910D03*
X012878Y012139D03*
X012484Y011745D03*
X013272Y011400D03*
X013222Y010811D03*
X012832Y010348D03*
X013189Y009977D03*
X013712Y009897D03*
X014225Y009829D03*
X014695Y009401D03*
X015732Y009481D03*
X016323Y009137D03*
X016815Y008841D03*
X016766Y009629D03*
X018242Y010564D03*
X019522Y010416D03*
X019522Y011007D03*
X019522Y011007D03*
X021293Y010318D03*
X022178Y010143D03*
X022622Y010416D03*
X023311Y010170D03*
X022671Y011105D03*
X022032Y010908D03*
X021687Y011745D03*
X022032Y012237D03*
X022032Y012237D03*
X021736Y012582D03*
X021736Y012582D03*
X020998Y012286D03*
X020998Y012286D03*
X022032Y013861D03*
X021195Y014304D03*
X020900Y014649D03*
X020506Y014156D03*
X021835Y014649D03*
X022130Y015879D03*
X022524Y016174D03*
X022967Y016469D03*
X022783Y017212D03*
X023311Y017208D03*
X023803Y017306D03*
X024049Y017749D03*
X025083Y016863D03*
X025034Y016420D03*
X024640Y016076D03*
X024295Y015731D03*
X023951Y015387D03*
X024643Y014750D03*
X024986Y014402D03*
X027378Y014380D03*
X027740Y012926D03*
X028109Y011715D03*
X027559Y010016D03*
X026805Y009580D03*
X026215Y009924D03*
X025478Y009930D03*
X024828Y009930D03*
X024246Y008841D03*
X024004Y008302D03*
X022828Y007430D03*
X022428Y007830D03*
X023278Y007080D03*
X023328Y006330D03*
X023678Y005980D03*
X024028Y005630D03*
X025318Y004847D03*
X025716Y004531D03*
X026184Y004403D03*
X027444Y004462D03*
X027839Y004856D03*
X028429Y005987D03*
X025828Y006330D03*
X026559Y007710D03*
X025478Y008230D03*
X021982Y005446D03*
X022327Y004166D03*
X023065Y004363D03*
X018318Y007224D03*
X019620Y007660D03*
X020997Y009081D03*
X019866Y009284D03*
X016766Y010737D03*
X015585Y011105D03*
X016323Y011794D03*
X016323Y011794D03*
X016421Y012483D03*
X016421Y012483D03*
X017160Y013320D03*
X017750Y013812D03*
X016815Y014747D03*
X017750Y015091D03*
X019423Y016273D03*
X019128Y016666D03*
X018833Y017060D03*
X019649Y017241D03*
X020620Y016826D03*
X020770Y016365D03*
X021697Y017024D03*
X024246Y019619D03*
X027839Y016469D03*
X027396Y016273D03*
X030349Y018119D03*
X029690Y018664D03*
X030228Y018780D03*
X029202Y018566D03*
X032317Y019373D03*
X033252Y018241D03*
X032317Y016617D03*
X032366Y020997D03*
X024345Y012532D03*
X024828Y012380D03*
X025487Y012367D03*
X023114Y011843D03*
X018784Y012336D03*
X016126Y013664D03*
X011958Y010334D03*
X012112Y009797D03*
X011303Y009530D03*
X011655Y009068D03*
X012091Y008251D03*
X012976Y008349D03*
X013252Y006783D03*
X008498Y005200D03*
X006333Y001161D03*
X008203Y009383D03*
X007563Y010761D03*
X030644Y008792D03*
X033252Y007759D03*
X033055Y005544D03*
D21*
X022032Y013861D03*
X015732Y009481D03*
M02*
