%
M48
M72
T01C0.0197
T02C0.0236
T03C0.0354
T04C0.0400
%
T01
X6333Y1161
X8498Y5200
X12091Y8251
X12976Y8349
X11655Y9068
X11303Y9530
X12112Y9797
X11958Y10334
X12832Y10348
X13189Y9977
X13712Y9897
X14225Y9829
X14695Y9401
X15732Y9481
X16323Y9137
X16815Y8841
X16766Y9629
X18242Y10564
X19522Y10416
X19522Y11007
X19522Y11007
X21293Y10318
X22178Y10143
X22622Y10416
X23311Y10170
X22671Y11105
X22032Y10908
X21687Y11745
X22032Y12237
X22032Y12237
X21736Y12582
X21736Y12582
X20998Y12286
X20998Y12286
X22032Y13861
X21195Y14304
X20900Y14649
X20506Y14156
X21835Y14649
X22130Y15879
X22524Y16174
X22967Y16469
X22783Y17212
X23311Y17208
X23803Y17306
X24049Y17749
X25083Y16863
X25034Y16420
X24640Y16076
X24295Y15731
X23951Y15387
X24643Y14750
X24986Y14402
X27378Y14380
X27740Y12926
X28109Y11715
X27559Y10016
X26805Y9580
X26215Y9924
X25478Y9930
X24828Y9930
X24246Y8841
X24004Y8302
X22828Y7430
X22428Y7830
X23278Y7080
X23328Y6330
X23678Y5980
X24028Y5630
X25318Y4847
X25716Y4531
X26184Y4403
X27444Y4462
X27839Y4856
X28429Y5987
X25828Y6330
X26559Y7710
X25478Y8230
X21982Y5446
X22327Y4166
X23065Y4363
X18318Y7224
X19620Y7660
X20997Y9081
X19866Y9284
X16766Y10737
X15585Y11105
X16323Y11794
X16323Y11794
X16421Y12483
X16421Y12483
X17160Y13320
X17750Y13812
X16815Y14747
X17750Y15091
X19423Y16273
X19128Y16666
X18833Y17060
X19649Y17241
X20620Y16826
X20770Y16365
X21697Y17024
X24246Y19619
X27839Y16469
X27396Y16273
X30349Y18119
X29690Y18664
X30228Y18780
X29202Y18566
X32317Y19373
X33252Y18241
X32317Y16617
X32366Y20997
X24345Y12532
X24828Y12380
X25487Y12367
X23114Y11843
X18784Y12336
X16126Y13664
X14896Y15633
X15573Y16315
X13419Y16026
X12337Y15534
X10368Y14895
X11500Y13910
X12878Y12139
X12484Y11745
X13272Y11400
X13222Y10811
X8203Y9383
X7563Y10761
X13252Y6783
X30644Y8792
X33252Y7759
X33055Y5544
X14059Y18881
X15486Y21095
T02
X22032Y13861
X15732Y9481
T03
X1756Y2493
X2740Y2493
X3724Y2493
X4709Y2493
X5693Y2493
X8055Y2493
X9039Y2493
X10024Y2493
X11008Y2493
X11992Y2493
X7415Y7414
X7415Y8399
X7415Y9383
X7415Y11400
X7415Y12385
X7415Y13369
X11360Y15316
X11360Y16300
X11360Y17284
X11352Y19324
X11352Y20308
X11352Y21292
X14994Y19914
X15978Y19914
X16963Y19914
X17947Y19914
X19965Y19914
X20949Y19914
X21933Y19914
X22917Y19914
X24935Y19914
X25919Y19914
X26904Y19914
X27888Y19914
X29906Y19914
X30890Y19914
X31874Y19914
X32858Y19914
X31530Y17011
X31530Y16026
X31530Y15042
X31530Y14058
X31530Y12040
X31530Y11056
X31530Y10072
X31530Y9087
X31530Y7070
X31530Y6086
X31530Y5101
X31530Y4117
X16913Y7808
X15929Y7808
X14945Y7808
T04
X19014Y5741
X20014Y5741
X21014Y5741
X21014Y4511
X20014Y4511
X19014Y4511
X19006Y3280
X20006Y3280
X21006Y3280
X22006Y3280
X23041Y3280
X24041Y3280
X25041Y3280
X26041Y3280
X26051Y2156
X25051Y2156
X24051Y2156
X23051Y2156
X22051Y2156
X21051Y2156
X21051Y1156
X22051Y1156
X23051Y1156
X24051Y1156
X25051Y1156
X26051Y1156
X27051Y1156
X28051Y1156
X29051Y1156
X30051Y1156
X31051Y1156
X32051Y1156
X33051Y1156
X33051Y2156
X32051Y2156
X31051Y2156
X30051Y2156
X29051Y2156
X28051Y2156
X27051Y2156
X30053Y5538
X30053Y6538
X30053Y7538
X30053Y9310
X30053Y10310
X30053Y11436
X30053Y12436
X30063Y14078
X30063Y15078
X30063Y16078
X30063Y17078
X28441Y18487
X27441Y18487
X26441Y18487
X25441Y18487
X24441Y18487
X22862Y18487
X21862Y18487
X20862Y18487
X19862Y18487
X17921Y18487
X16921Y18487
X15921Y18487
X14921Y18487
M30
