G75*
G70*
%OFA0B0*%
%FSLAX24Y24*%
%IPPOS*%
%LPD*%
%AMOC8*
5,1,8,0,0,1.08239X$1,22.5*
%
%ADD10C,0.0040*%
%ADD11C,0.0060*%
%ADD12C,0.0050*%
%ADD13C,0.0030*%
%ADD14C,0.0080*%
%ADD15R,0.0620X0.0240*%
D10*
X004203Y002252D02*
X004664Y002252D01*
X004664Y002482D01*
X004587Y002559D01*
X004433Y002559D01*
X004357Y002482D01*
X004357Y002252D01*
X004357Y002406D02*
X004203Y002559D01*
X004203Y002713D02*
X004203Y002943D01*
X004280Y003019D01*
X004587Y003019D01*
X004664Y002943D01*
X004664Y002713D01*
X004203Y002713D01*
X004203Y003173D02*
X004510Y003173D01*
X004664Y003326D01*
X004510Y003480D01*
X004203Y003480D01*
X004203Y003633D02*
X004510Y003940D01*
X004587Y003940D01*
X004664Y003864D01*
X004664Y003710D01*
X004587Y003633D01*
X004433Y003480D02*
X004433Y003173D01*
X004912Y003189D02*
X004989Y003266D01*
X004912Y003189D02*
X004912Y003035D01*
X004989Y002959D01*
X005295Y002959D01*
X005372Y003035D01*
X005372Y003189D01*
X005295Y003266D01*
X005219Y003419D02*
X005372Y003572D01*
X004912Y003572D01*
X004912Y003419D02*
X004912Y003726D01*
X004989Y003879D02*
X004912Y003956D01*
X004912Y004110D01*
X004989Y004186D01*
X005142Y004186D01*
X005219Y004110D01*
X005219Y004033D01*
X005142Y003879D01*
X005372Y003879D01*
X005372Y004186D01*
X004203Y003940D02*
X004203Y003633D01*
X004025Y003684D02*
X004025Y003915D01*
X003948Y003991D01*
X003641Y003991D01*
X003564Y003915D01*
X003564Y003684D01*
X004025Y003684D01*
X003871Y004145D02*
X004025Y004298D01*
X003564Y004298D01*
X003564Y004145D02*
X003564Y004452D01*
X002626Y004347D02*
X002626Y003887D01*
X002626Y004040D02*
X002396Y004040D01*
X002319Y004117D01*
X002319Y004271D01*
X002396Y004347D01*
X002626Y004347D01*
X002472Y004040D02*
X002319Y003887D01*
X002165Y003887D02*
X001935Y003887D01*
X001858Y003964D01*
X001858Y004271D01*
X001935Y004347D01*
X002165Y004347D01*
X002165Y003887D01*
X002214Y003511D02*
X002137Y003434D01*
X002137Y003357D01*
X002214Y003281D01*
X002137Y003204D01*
X002137Y003127D01*
X002214Y003050D01*
X002367Y003050D01*
X002444Y003127D01*
X002598Y003127D02*
X002674Y003050D01*
X002828Y003050D01*
X002905Y003127D01*
X002905Y003434D01*
X002828Y003511D01*
X002674Y003511D01*
X002598Y003434D01*
X002444Y003434D02*
X002367Y003511D01*
X002214Y003511D01*
X001984Y003511D02*
X001984Y003281D01*
X001830Y003357D01*
X001754Y003357D01*
X001677Y003281D01*
X001677Y003127D01*
X001754Y003050D01*
X001907Y003050D01*
X001984Y003127D01*
X002214Y003281D02*
X002291Y003281D01*
X001984Y003511D02*
X001677Y003511D01*
X001705Y003887D02*
X001705Y004194D01*
X001551Y004347D01*
X001398Y004194D01*
X001398Y003887D01*
X001245Y003887D02*
X000938Y003887D01*
X001091Y003887D02*
X001091Y004347D01*
X001245Y004194D01*
X001398Y004117D02*
X001705Y004117D01*
X000784Y003964D02*
X000707Y003887D01*
X000554Y003887D01*
X000477Y003964D01*
X000477Y004271D01*
X000784Y003964D01*
X000784Y004271D01*
X000707Y004347D01*
X000554Y004347D01*
X000477Y004271D01*
X001981Y005460D02*
X001981Y005537D01*
X002058Y005613D01*
X002288Y005613D01*
X002288Y005460D01*
X002211Y005383D01*
X002058Y005383D01*
X001981Y005460D01*
X002134Y005767D02*
X002288Y005613D01*
X002441Y005537D02*
X002441Y005460D01*
X002518Y005383D01*
X002748Y005383D01*
X002748Y005843D01*
X002518Y005843D01*
X002441Y005767D01*
X002441Y005690D01*
X002518Y005613D01*
X002748Y005613D01*
X002902Y005460D02*
X002902Y005767D01*
X002978Y005843D01*
X003209Y005843D01*
X003209Y005383D01*
X002978Y005383D01*
X002902Y005460D01*
X002518Y005613D02*
X002441Y005537D01*
X002134Y005767D02*
X001981Y005843D01*
X002079Y006141D02*
X002003Y006218D01*
X002003Y006294D01*
X002079Y006371D01*
X002310Y006371D01*
X002310Y006218D01*
X002233Y006141D01*
X002079Y006141D01*
X002310Y006371D02*
X002156Y006525D01*
X002003Y006601D01*
X002463Y006525D02*
X002540Y006601D01*
X002693Y006601D01*
X002770Y006525D01*
X002770Y006218D01*
X002693Y006141D01*
X002540Y006141D01*
X002463Y006218D01*
X002923Y006218D02*
X002923Y006525D01*
X003000Y006601D01*
X003230Y006601D01*
X003230Y006141D01*
X003000Y006141D01*
X002923Y006218D01*
X003384Y006141D02*
X003537Y006294D01*
X003460Y006294D02*
X003691Y006294D01*
X003691Y006141D02*
X003691Y006601D01*
X003460Y006601D01*
X003384Y006525D01*
X003384Y006371D01*
X003460Y006294D01*
X003439Y005843D02*
X003362Y005767D01*
X003362Y005613D01*
X003439Y005537D01*
X003669Y005537D01*
X003516Y005537D02*
X003362Y005383D01*
X003669Y005383D02*
X003669Y005843D01*
X003439Y005843D01*
X007223Y005762D02*
X007683Y005762D01*
X007683Y006069D01*
X007530Y006222D02*
X007683Y006376D01*
X007530Y006529D01*
X007223Y006529D01*
X007223Y006683D02*
X007530Y006989D01*
X007606Y006989D01*
X007683Y006913D01*
X007683Y006759D01*
X007606Y006683D01*
X007453Y006529D02*
X007453Y006222D01*
X007530Y006222D02*
X007223Y006222D01*
X007453Y005915D02*
X007453Y005762D01*
X007453Y005608D02*
X007376Y005532D01*
X007376Y005301D01*
X007223Y005301D02*
X007683Y005301D01*
X007683Y005532D01*
X007606Y005608D01*
X007453Y005608D01*
X007376Y005455D02*
X007223Y005608D01*
X008073Y005474D02*
X008380Y005474D01*
X008073Y005781D01*
X008073Y005857D01*
X008150Y005934D01*
X008304Y005934D01*
X008380Y005857D01*
X008534Y005857D02*
X008534Y005781D01*
X008611Y005704D01*
X008841Y005704D01*
X008870Y005806D02*
X008870Y005883D01*
X008946Y005960D01*
X009100Y005960D01*
X009177Y005883D01*
X009071Y005934D02*
X009301Y005934D01*
X009301Y005474D01*
X009071Y005474D01*
X008994Y005550D01*
X008994Y005857D01*
X009071Y005934D01*
X008841Y005934D02*
X008611Y005934D01*
X008534Y005857D01*
X008611Y005704D02*
X008534Y005627D01*
X008534Y005550D01*
X008611Y005474D01*
X008841Y005474D01*
X008841Y005934D01*
X008870Y005806D02*
X009177Y005499D01*
X008870Y005499D01*
X009455Y005474D02*
X009608Y005627D01*
X009531Y005627D02*
X009762Y005627D01*
X009791Y005576D02*
X009867Y005499D01*
X010021Y005499D01*
X010097Y005576D01*
X010097Y005883D01*
X010021Y005960D01*
X009867Y005960D01*
X009791Y005883D01*
X009762Y005934D02*
X009531Y005934D01*
X009455Y005857D01*
X009455Y005704D01*
X009531Y005627D01*
X009484Y005729D02*
X009637Y005729D01*
X009637Y005499D02*
X009637Y005960D01*
X009330Y005960D01*
X009762Y005934D02*
X009762Y005474D01*
X010239Y005966D02*
X010546Y005966D01*
X010239Y006273D01*
X010239Y006349D01*
X010316Y006426D01*
X010469Y006426D01*
X010546Y006349D01*
X010501Y006287D02*
X010654Y006440D01*
X010578Y006440D02*
X010808Y006440D01*
X010776Y006426D02*
X010929Y006426D01*
X011006Y006349D01*
X011006Y006042D01*
X010929Y005966D01*
X010776Y005966D01*
X010699Y006042D01*
X010808Y006287D02*
X010808Y006747D01*
X010578Y006747D01*
X010501Y006670D01*
X010501Y006517D01*
X010578Y006440D01*
X010699Y006349D02*
X010776Y006426D01*
X011160Y006349D02*
X011160Y006042D01*
X011236Y005966D01*
X011467Y005966D01*
X011467Y006426D01*
X011236Y006426D01*
X011160Y006349D01*
X011620Y006349D02*
X011620Y006196D01*
X011697Y006119D01*
X011927Y006119D01*
X011927Y005966D02*
X011927Y006426D01*
X011697Y006426D01*
X011620Y006349D01*
X011773Y006119D02*
X011620Y005966D01*
X010347Y006287D02*
X010347Y006747D01*
X010041Y006747D01*
X009887Y006747D02*
X009657Y006747D01*
X009580Y006670D01*
X009580Y006594D01*
X009657Y006517D01*
X009887Y006517D01*
X009887Y006287D02*
X009887Y006747D01*
X009657Y006517D02*
X009580Y006440D01*
X009580Y006363D01*
X009657Y006287D01*
X009887Y006287D01*
X010194Y006517D02*
X010347Y006517D01*
X009427Y006670D02*
X009350Y006747D01*
X009196Y006747D01*
X009120Y006670D01*
X009120Y006594D01*
X009427Y006287D01*
X009120Y006287D01*
X007223Y006683D02*
X007223Y006989D01*
X008723Y008218D02*
X009183Y008218D01*
X009183Y008448D01*
X009106Y008525D01*
X008953Y008525D01*
X008876Y008448D01*
X008876Y008218D01*
X008876Y008371D02*
X008723Y008525D01*
X008723Y008678D02*
X008723Y008908D01*
X008800Y008985D01*
X009106Y008985D01*
X009183Y008908D01*
X009183Y008678D01*
X008723Y008678D01*
X008723Y009139D02*
X008723Y009369D01*
X008800Y009445D01*
X008876Y009445D01*
X008953Y009369D01*
X008953Y009139D01*
X008946Y009239D02*
X009100Y009239D01*
X009177Y009316D01*
X009183Y009369D02*
X009106Y009445D01*
X009030Y009445D01*
X008953Y009369D01*
X008870Y009393D02*
X008870Y009316D01*
X008946Y009239D01*
X008870Y009393D02*
X008946Y009470D01*
X009023Y009470D01*
X008946Y009470D02*
X008870Y009546D01*
X008870Y009623D01*
X008946Y009700D01*
X009100Y009700D01*
X009177Y009623D01*
X009183Y009676D02*
X009183Y009829D01*
X009106Y009906D01*
X009030Y009906D01*
X008953Y009829D01*
X008953Y009676D01*
X009030Y009599D01*
X009106Y009599D01*
X009183Y009676D01*
X009330Y009700D02*
X009637Y009700D01*
X009637Y009239D01*
X009791Y009316D02*
X009867Y009239D01*
X010021Y009239D01*
X010097Y009316D01*
X010097Y009623D01*
X010021Y009700D01*
X009867Y009700D01*
X009791Y009623D01*
X009637Y009470D02*
X009484Y009470D01*
X009183Y009369D02*
X009183Y009139D01*
X008723Y009139D01*
X008800Y009599D02*
X008876Y009599D01*
X008953Y009676D01*
X008953Y009829D02*
X008876Y009906D01*
X008800Y009906D01*
X008723Y009829D01*
X008723Y009676D01*
X008800Y009599D01*
X009196Y010027D02*
X009350Y010027D01*
X009427Y010104D01*
X009580Y010104D02*
X009657Y010027D01*
X009887Y010027D01*
X009887Y010487D01*
X009657Y010487D01*
X009580Y010410D01*
X009580Y010334D01*
X009657Y010257D01*
X009887Y010257D01*
X009657Y010257D02*
X009580Y010180D01*
X009580Y010104D01*
X009273Y010257D02*
X009196Y010257D01*
X009120Y010180D01*
X009120Y010104D01*
X009196Y010027D01*
X009196Y010257D02*
X009120Y010334D01*
X009120Y010410D01*
X009196Y010487D01*
X009350Y010487D01*
X009427Y010410D01*
X010041Y010487D02*
X010347Y010487D01*
X010347Y010027D01*
X010501Y010027D02*
X010654Y010180D01*
X010578Y010180D02*
X010808Y010180D01*
X010808Y010027D02*
X010808Y010487D01*
X010578Y010487D01*
X010501Y010410D01*
X010501Y010257D01*
X010578Y010180D01*
X010347Y010257D02*
X010194Y010257D01*
X010977Y009758D02*
X010670Y009451D01*
X010593Y009451D01*
X010670Y009298D02*
X010593Y009221D01*
X010593Y008991D01*
X011053Y008991D01*
X011053Y009221D01*
X010977Y009298D01*
X010900Y009298D01*
X010823Y009221D01*
X010823Y008991D01*
X010840Y008863D02*
X010609Y008863D01*
X010533Y008786D01*
X010533Y008479D01*
X010609Y008403D01*
X010840Y008403D01*
X010840Y008863D01*
X010977Y008837D02*
X011053Y008761D01*
X011053Y008530D01*
X010593Y008530D01*
X010593Y008761D01*
X010670Y008837D01*
X010977Y008837D01*
X010993Y008786D02*
X010993Y008633D01*
X011070Y008556D01*
X011300Y008556D01*
X011300Y008403D02*
X011300Y008863D01*
X011070Y008863D01*
X010993Y008786D01*
X011147Y008556D02*
X010993Y008403D01*
X010977Y008377D02*
X010823Y008377D01*
X010746Y008300D01*
X010746Y008070D01*
X010593Y008070D02*
X011053Y008070D01*
X011053Y008300D01*
X010977Y008377D01*
X010746Y008224D02*
X010593Y008377D01*
X010379Y008479D02*
X010302Y008403D01*
X010149Y008403D01*
X010072Y008479D01*
X009919Y008633D02*
X009612Y008633D01*
X009689Y008403D02*
X009689Y008863D01*
X009919Y008633D01*
X010072Y008786D02*
X010149Y008863D01*
X010302Y008863D01*
X010379Y008786D01*
X010379Y008479D01*
X010823Y009221D02*
X010746Y009298D01*
X010670Y009298D01*
X011053Y009451D02*
X011053Y009758D01*
X010977Y009758D01*
X011053Y011859D02*
X010593Y011859D01*
X010746Y011859D02*
X010746Y012090D01*
X010823Y012166D01*
X010977Y012166D01*
X011053Y012090D01*
X011053Y011859D01*
X010993Y012143D02*
X011147Y012296D01*
X011070Y012296D02*
X011300Y012296D01*
X011300Y012143D02*
X011300Y012603D01*
X011070Y012603D01*
X010993Y012527D01*
X010993Y012373D01*
X011070Y012296D01*
X011053Y012320D02*
X011053Y012550D01*
X010977Y012627D01*
X010670Y012627D01*
X010593Y012550D01*
X010593Y012320D01*
X011053Y012320D01*
X010840Y012143D02*
X010609Y012143D01*
X010533Y012220D01*
X010533Y012527D01*
X010609Y012603D01*
X010840Y012603D01*
X010840Y012143D01*
X010746Y012013D02*
X010593Y012166D01*
X010379Y012220D02*
X010302Y012143D01*
X010149Y012143D01*
X010072Y012220D01*
X009919Y012220D02*
X009919Y012143D01*
X009919Y012220D02*
X009612Y012527D01*
X009612Y012603D01*
X009919Y012603D01*
X010072Y012527D02*
X010149Y012603D01*
X010302Y012603D01*
X010379Y012527D01*
X010379Y012220D01*
X010593Y012780D02*
X010593Y013010D01*
X010670Y013087D01*
X010746Y013087D01*
X010823Y013010D01*
X010823Y012780D01*
X010593Y012780D02*
X011053Y012780D01*
X011053Y013010D01*
X010977Y013087D01*
X010900Y013087D01*
X010823Y013010D01*
X010900Y013241D02*
X011053Y013394D01*
X010593Y013394D01*
X010593Y013241D02*
X010593Y013548D01*
X010593Y013701D02*
X010593Y014008D01*
X010593Y013854D02*
X011053Y013854D01*
X010900Y013701D01*
X011851Y013581D02*
X012311Y013581D01*
X012311Y013811D01*
X012234Y013888D01*
X012081Y013888D01*
X012004Y013811D01*
X012004Y013581D01*
X012004Y013734D02*
X011851Y013888D01*
X011851Y014041D02*
X012311Y014041D01*
X012311Y014348D01*
X012158Y014502D02*
X012311Y014655D01*
X012158Y014809D01*
X011851Y014809D01*
X011927Y014962D02*
X011851Y015039D01*
X011851Y015192D01*
X011927Y015269D01*
X012081Y015269D01*
X012158Y015192D01*
X012158Y015116D01*
X012081Y014962D01*
X012311Y014962D01*
X012311Y015269D01*
X012081Y014809D02*
X012081Y014502D01*
X012158Y014502D02*
X011851Y014502D01*
X012081Y014195D02*
X012081Y014041D01*
X013443Y014029D02*
X013443Y013875D01*
X013519Y013798D01*
X013673Y013798D01*
X013750Y013875D01*
X013750Y014029D02*
X013596Y014105D01*
X013519Y014105D01*
X013443Y014029D01*
X013443Y014259D02*
X013750Y014259D01*
X013750Y014029D01*
X013903Y014259D02*
X014210Y014259D01*
X014210Y013798D01*
X014363Y013875D02*
X014440Y013798D01*
X014594Y013798D01*
X014670Y013875D01*
X014670Y014182D01*
X014594Y014259D01*
X014440Y014259D01*
X014363Y014182D01*
X014210Y014029D02*
X014056Y014029D01*
X013931Y014546D02*
X014007Y014623D01*
X013931Y014546D02*
X013777Y014546D01*
X013700Y014623D01*
X013700Y014777D01*
X013777Y014853D01*
X013854Y014853D01*
X014007Y014777D01*
X014007Y015007D01*
X013700Y015007D01*
X014161Y014930D02*
X014161Y014853D01*
X014238Y014777D01*
X014468Y014777D01*
X014468Y015007D02*
X014238Y015007D01*
X014161Y014930D01*
X014238Y014777D02*
X014161Y014700D01*
X014161Y014623D01*
X014238Y014546D01*
X014468Y014546D01*
X014468Y015007D01*
X014621Y015007D02*
X014928Y015007D01*
X014928Y014546D01*
X015082Y014546D02*
X015235Y014700D01*
X015158Y014700D02*
X015389Y014700D01*
X015389Y014546D02*
X015389Y015007D01*
X015158Y015007D01*
X015082Y014930D01*
X015082Y014777D01*
X015158Y014700D01*
X014928Y014777D02*
X014775Y014777D01*
X015268Y016338D02*
X015728Y016338D01*
X015728Y016568D01*
X015652Y016645D01*
X015498Y016645D01*
X015422Y016568D01*
X015422Y016338D01*
X015422Y016491D02*
X015268Y016645D01*
X015268Y016798D02*
X015268Y017028D01*
X015345Y017105D01*
X015652Y017105D01*
X015728Y017028D01*
X015728Y016798D01*
X015268Y016798D01*
X015268Y017259D02*
X015268Y017489D01*
X015345Y017566D01*
X015422Y017566D01*
X015498Y017489D01*
X015498Y017259D01*
X015498Y017489D02*
X015575Y017566D01*
X015652Y017566D01*
X015728Y017489D01*
X015728Y017259D01*
X015268Y017259D01*
X015345Y017719D02*
X015268Y017796D01*
X015268Y017949D01*
X015345Y018026D01*
X015652Y018026D01*
X015728Y017949D01*
X015728Y017796D01*
X015652Y017719D01*
X015575Y017719D01*
X015498Y017796D01*
X015498Y018026D01*
X015459Y018505D02*
X014998Y018505D01*
X015152Y018505D02*
X015152Y018735D01*
X015229Y018811D01*
X015382Y018811D01*
X015459Y018735D01*
X015459Y018505D01*
X015152Y018658D02*
X014998Y018811D01*
X014922Y018965D02*
X014922Y019272D01*
X014998Y019425D02*
X014998Y019732D01*
X014990Y019783D02*
X014990Y020013D01*
X014914Y020090D01*
X014760Y020090D01*
X014683Y020013D01*
X014683Y019783D01*
X014530Y019783D02*
X014990Y019783D01*
X014998Y019886D02*
X014998Y020193D01*
X014990Y020243D02*
X014990Y020473D01*
X014914Y020550D01*
X014607Y020550D01*
X014530Y020473D01*
X014530Y020243D01*
X014990Y020243D01*
X014958Y020269D02*
X015188Y020269D01*
X015188Y020115D02*
X015188Y020576D01*
X014958Y020576D01*
X014881Y020499D01*
X014881Y020346D01*
X014958Y020269D01*
X015034Y020269D02*
X014881Y020115D01*
X014727Y020115D02*
X014497Y020115D01*
X014420Y020192D01*
X014420Y020499D01*
X014497Y020576D01*
X014727Y020576D01*
X014727Y020115D01*
X014683Y019936D02*
X014530Y020090D01*
X014267Y020192D02*
X014190Y020115D01*
X014037Y020115D01*
X013960Y020192D01*
X013807Y020192D02*
X013730Y020115D01*
X013576Y020115D01*
X013500Y020192D01*
X013500Y020269D01*
X013576Y020346D01*
X013653Y020346D01*
X013576Y020346D02*
X013500Y020422D01*
X013500Y020499D01*
X013576Y020576D01*
X013730Y020576D01*
X013807Y020499D01*
X013960Y020499D02*
X014037Y020576D01*
X014190Y020576D01*
X014267Y020499D01*
X014267Y020192D01*
X014530Y020703D02*
X014530Y020934D01*
X014607Y021010D01*
X014683Y021010D01*
X014760Y020934D01*
X014760Y020703D01*
X014530Y020703D02*
X014990Y020703D01*
X014990Y020934D01*
X014914Y021010D01*
X014837Y021010D01*
X014760Y020934D01*
X014998Y020883D02*
X014998Y021037D01*
X015075Y021113D01*
X015152Y021113D01*
X015229Y021037D01*
X015229Y020807D01*
X015075Y020807D01*
X014998Y020883D01*
X015075Y020653D02*
X015382Y020653D01*
X015459Y020576D01*
X015459Y020346D01*
X014998Y020346D01*
X014998Y020576D01*
X015075Y020653D01*
X015229Y020807D02*
X015382Y020960D01*
X015459Y021113D01*
X014990Y021241D02*
X014990Y021394D01*
X014914Y021471D01*
X014837Y021471D01*
X014760Y021394D01*
X014683Y021471D01*
X014607Y021471D01*
X014530Y021394D01*
X014530Y021241D01*
X014607Y021164D01*
X014760Y021317D02*
X014760Y021394D01*
X014914Y021164D02*
X014990Y021241D01*
X015983Y021037D02*
X015983Y020883D01*
X016059Y020807D01*
X016213Y020807D01*
X016213Y021037D01*
X016136Y021113D01*
X016059Y021113D01*
X015983Y021037D01*
X016213Y020807D02*
X016366Y020960D01*
X016443Y021113D01*
X016366Y020653D02*
X016443Y020576D01*
X016443Y020423D01*
X016366Y020346D01*
X016290Y020346D01*
X016213Y020423D01*
X016213Y020576D01*
X016136Y020653D01*
X016059Y020653D01*
X015983Y020576D01*
X015983Y020423D01*
X016059Y020346D01*
X015983Y020193D02*
X016136Y020039D01*
X016136Y020116D02*
X016136Y019886D01*
X015983Y019886D02*
X016443Y019886D01*
X016443Y020116D01*
X016366Y020193D01*
X016213Y020193D01*
X016136Y020116D01*
X015459Y020193D02*
X015459Y019886D01*
X014998Y019886D01*
X015229Y019886D02*
X015229Y020039D01*
X015459Y019425D02*
X014998Y019425D01*
X014745Y018460D02*
X014515Y018460D01*
X014438Y018383D01*
X014438Y018229D01*
X014515Y018153D01*
X014745Y018153D01*
X014591Y018153D02*
X014438Y017999D01*
X014284Y017999D02*
X014284Y018460D01*
X013978Y018460D01*
X013824Y018460D02*
X013594Y018460D01*
X013517Y018383D01*
X013517Y018306D01*
X013594Y018229D01*
X013824Y018229D01*
X013809Y018207D02*
X013809Y018360D01*
X013732Y018437D01*
X013426Y018130D01*
X013349Y018207D01*
X013349Y018360D01*
X013426Y018437D01*
X013732Y018437D01*
X013824Y018460D02*
X013824Y017999D01*
X013594Y017999D01*
X013517Y018076D01*
X013517Y018153D01*
X013594Y018229D01*
X013732Y018130D02*
X013809Y018207D01*
X013732Y018130D02*
X013426Y018130D01*
X013364Y017999D02*
X013057Y017999D01*
X013210Y017999D02*
X013210Y018460D01*
X013364Y018306D01*
X013349Y017977D02*
X013349Y017670D01*
X013267Y017672D02*
X013574Y017672D01*
X013574Y017212D01*
X013579Y017209D02*
X013579Y017440D01*
X013502Y017516D01*
X013426Y017516D01*
X013349Y017440D01*
X013349Y017209D01*
X013809Y017209D01*
X013809Y017440D01*
X013732Y017516D01*
X013656Y017516D01*
X013579Y017440D01*
X013574Y017442D02*
X013421Y017442D01*
X013114Y017519D02*
X012960Y017672D01*
X012960Y017212D01*
X012807Y017212D02*
X013114Y017212D01*
X013073Y017005D02*
X013379Y017005D01*
X013379Y016775D01*
X013226Y016851D01*
X013149Y016851D01*
X013073Y016775D01*
X013073Y016621D01*
X013149Y016544D01*
X013303Y016544D01*
X013379Y016621D01*
X013349Y016596D02*
X013502Y016442D01*
X013502Y016519D02*
X013502Y016289D01*
X013349Y016289D02*
X013809Y016289D01*
X013809Y016519D01*
X013732Y016596D01*
X013579Y016596D01*
X013502Y016519D01*
X013533Y016621D02*
X013610Y016544D01*
X013763Y016544D01*
X013840Y016621D01*
X013840Y016928D01*
X013763Y017005D01*
X013610Y017005D01*
X013533Y016928D01*
X013426Y017056D02*
X013732Y017056D01*
X013809Y016979D01*
X013809Y016749D01*
X013349Y016749D01*
X013349Y016979D01*
X013426Y017056D01*
X013728Y017289D02*
X013804Y017212D01*
X013958Y017212D01*
X014034Y017289D01*
X014034Y017595D01*
X013958Y017672D01*
X013804Y017672D01*
X013728Y017595D01*
X013656Y017670D02*
X013809Y017823D01*
X013349Y017823D01*
X014131Y018229D02*
X014284Y018229D01*
X014745Y017999D02*
X014745Y018460D01*
X014761Y017005D02*
X014530Y017005D01*
X014454Y016928D01*
X014454Y016775D01*
X014530Y016698D01*
X014761Y016698D01*
X014761Y016544D02*
X014761Y017005D01*
X014607Y016698D02*
X014454Y016544D01*
X014300Y016544D02*
X014070Y016544D01*
X013993Y016621D01*
X013993Y016928D01*
X014070Y017005D01*
X014300Y017005D01*
X014300Y016544D01*
X011620Y017014D02*
X011620Y017244D01*
X011543Y017321D01*
X011390Y017321D01*
X011313Y017244D01*
X011313Y017014D01*
X011160Y017014D02*
X011620Y017014D01*
X011313Y017167D02*
X011160Y017321D01*
X011160Y017474D02*
X011620Y017474D01*
X011620Y017781D01*
X011467Y017935D02*
X011160Y017935D01*
X011390Y017935D02*
X011390Y018242D01*
X011467Y018242D02*
X011160Y018242D01*
X011160Y018395D02*
X011160Y018702D01*
X011160Y018549D02*
X011620Y018549D01*
X011467Y018395D01*
X011467Y018242D02*
X011620Y018088D01*
X011467Y017935D01*
X011390Y017628D02*
X011390Y017474D01*
X012660Y019881D02*
X013120Y019881D01*
X013120Y020111D01*
X013043Y020188D01*
X012890Y020188D01*
X012813Y020111D01*
X012813Y019881D01*
X012813Y020035D02*
X012660Y020188D01*
X012660Y020341D02*
X012660Y020572D01*
X012737Y020648D01*
X013043Y020648D01*
X013120Y020572D01*
X013120Y020341D01*
X012660Y020341D01*
X012660Y020802D02*
X012660Y021032D01*
X012737Y021109D01*
X012813Y021109D01*
X012890Y021032D01*
X012890Y020802D01*
X012890Y021032D02*
X012967Y021109D01*
X013043Y021109D01*
X013120Y021032D01*
X013120Y020802D01*
X012660Y020802D01*
X012890Y021262D02*
X012890Y021569D01*
X012660Y021492D02*
X013120Y021492D01*
X012890Y021262D01*
X018467Y021158D02*
X018467Y021005D01*
X018544Y020928D01*
X018544Y020775D02*
X018467Y020698D01*
X018467Y020544D01*
X018544Y020468D01*
X018851Y020468D01*
X018927Y020544D01*
X018927Y020698D01*
X018851Y020775D01*
X018851Y020928D02*
X018774Y020928D01*
X018697Y021005D01*
X018697Y021158D01*
X018620Y021235D01*
X018544Y021235D01*
X018467Y021158D01*
X018544Y021389D02*
X018467Y021465D01*
X018467Y021619D01*
X018544Y021695D01*
X018620Y021695D01*
X018697Y021619D01*
X018697Y021389D01*
X018544Y021389D01*
X018697Y021389D02*
X018851Y021542D01*
X018927Y021695D01*
X018851Y021235D02*
X018927Y021158D01*
X018927Y021005D01*
X018851Y020928D01*
X019969Y020883D02*
X020046Y020807D01*
X019969Y020883D02*
X019969Y021037D01*
X020046Y021113D01*
X020199Y021113D01*
X020276Y021037D01*
X020276Y020960D01*
X020199Y020807D01*
X020429Y020807D01*
X020429Y021113D01*
X020953Y021037D02*
X020953Y020883D01*
X021030Y020807D01*
X021183Y020807D02*
X021260Y020960D01*
X021260Y021037D01*
X021183Y021113D01*
X021030Y021113D01*
X020953Y021037D01*
X021183Y020807D02*
X021414Y020807D01*
X021414Y021113D01*
X021337Y020653D02*
X021414Y020576D01*
X021414Y020423D01*
X021337Y020346D01*
X021260Y020346D01*
X021183Y020423D01*
X021183Y020576D01*
X021107Y020653D01*
X021030Y020653D01*
X020953Y020576D01*
X020953Y020423D01*
X021030Y020346D01*
X020953Y020193D02*
X021107Y020039D01*
X021107Y020116D02*
X021107Y019886D01*
X020953Y019886D02*
X021414Y019886D01*
X021414Y020116D01*
X021337Y020193D01*
X021183Y020193D01*
X021107Y020116D01*
X020429Y020193D02*
X020429Y019886D01*
X019969Y019886D01*
X019969Y020193D01*
X019969Y020346D02*
X019969Y020576D01*
X020046Y020653D01*
X020353Y020653D01*
X020429Y020576D01*
X020429Y020346D01*
X019969Y020346D01*
X020199Y020039D02*
X020199Y019886D01*
X019969Y019732D02*
X019969Y019425D01*
X020429Y019425D01*
X019892Y019272D02*
X019892Y018965D01*
X019969Y018811D02*
X020122Y018658D01*
X020122Y018735D02*
X020122Y018505D01*
X019969Y018505D02*
X020429Y018505D01*
X020429Y018735D01*
X020353Y018811D01*
X020199Y018811D01*
X020122Y018735D01*
X023437Y020594D02*
X023514Y020517D01*
X023821Y020517D01*
X023898Y020594D01*
X023898Y020747D01*
X023821Y020824D01*
X023821Y020977D02*
X023744Y020977D01*
X023668Y021054D01*
X023668Y021208D01*
X023591Y021284D01*
X023514Y021284D01*
X023437Y021208D01*
X023437Y021054D01*
X023514Y020977D01*
X023514Y020824D02*
X023437Y020747D01*
X023437Y020594D01*
X023821Y020977D02*
X023898Y021054D01*
X023898Y021208D01*
X023821Y021284D01*
X023898Y021438D02*
X023668Y021438D01*
X023744Y021591D01*
X023744Y021668D01*
X023668Y021745D01*
X023514Y021745D01*
X023437Y021668D01*
X023437Y021514D01*
X023514Y021438D01*
X023898Y021438D02*
X023898Y021745D01*
X024939Y021037D02*
X025400Y021037D01*
X025170Y020807D01*
X025170Y021113D01*
X025323Y020653D02*
X025016Y020653D01*
X024939Y020576D01*
X024939Y020346D01*
X025400Y020346D01*
X025400Y020576D01*
X025323Y020653D01*
X025400Y020193D02*
X025400Y019886D01*
X024939Y019886D01*
X024939Y020193D01*
X025170Y020039D02*
X025170Y019886D01*
X024939Y019732D02*
X024939Y019425D01*
X025400Y019425D01*
X024863Y019272D02*
X024863Y018965D01*
X024939Y018811D02*
X025093Y018658D01*
X025093Y018735D02*
X025093Y018505D01*
X024939Y018505D02*
X025400Y018505D01*
X025400Y018735D01*
X025323Y018811D01*
X025170Y018811D01*
X025093Y018735D01*
X025924Y019886D02*
X026384Y019886D01*
X026384Y020116D01*
X026307Y020193D01*
X026154Y020193D01*
X026077Y020116D01*
X026077Y019886D01*
X026077Y020039D02*
X025924Y020193D01*
X026000Y020346D02*
X025924Y020423D01*
X025924Y020576D01*
X026000Y020653D01*
X026077Y020653D01*
X026154Y020576D01*
X026154Y020423D01*
X026231Y020346D01*
X026307Y020346D01*
X026384Y020423D01*
X026384Y020576D01*
X026307Y020653D01*
X026154Y020807D02*
X026154Y021113D01*
X025924Y021037D02*
X026384Y021037D01*
X026154Y020807D01*
X028408Y020747D02*
X028485Y020824D01*
X028408Y020747D02*
X028408Y020594D01*
X028485Y020517D01*
X028792Y020517D01*
X028868Y020594D01*
X028868Y020747D01*
X028792Y020824D01*
X028792Y020977D02*
X028715Y020977D01*
X028638Y021054D01*
X028638Y021208D01*
X028561Y021284D01*
X028485Y021284D01*
X028408Y021208D01*
X028408Y021054D01*
X028485Y020977D01*
X028792Y020977D02*
X028868Y021054D01*
X028868Y021208D01*
X028792Y021284D01*
X028638Y021438D02*
X028638Y021745D01*
X028408Y021668D02*
X028868Y021668D01*
X028638Y021438D01*
X029910Y021037D02*
X029910Y020883D01*
X029987Y020807D01*
X029987Y020653D02*
X029910Y020576D01*
X029910Y020346D01*
X030370Y020346D01*
X030370Y020576D01*
X030293Y020653D01*
X029987Y020653D01*
X030293Y020807D02*
X030370Y020883D01*
X030370Y021037D01*
X030293Y021113D01*
X030217Y021113D01*
X030140Y021037D01*
X030063Y021113D01*
X029987Y021113D01*
X029910Y021037D01*
X030140Y021037D02*
X030140Y020960D01*
X030894Y021037D02*
X030894Y020883D01*
X030971Y020807D01*
X030971Y020653D02*
X030894Y020576D01*
X030894Y020423D01*
X030971Y020346D01*
X031124Y020423D02*
X031124Y020576D01*
X031048Y020653D01*
X030971Y020653D01*
X031124Y020423D02*
X031201Y020346D01*
X031278Y020346D01*
X031354Y020423D01*
X031354Y020576D01*
X031278Y020653D01*
X031278Y020807D02*
X031354Y020883D01*
X031354Y021037D01*
X031278Y021113D01*
X031201Y021113D01*
X031124Y021037D01*
X031048Y021113D01*
X030971Y021113D01*
X030894Y021037D01*
X031124Y021037D02*
X031124Y020960D01*
X031124Y020193D02*
X031048Y020116D01*
X031048Y019886D01*
X031048Y020039D02*
X030894Y020193D01*
X031124Y020193D02*
X031278Y020193D01*
X031354Y020116D01*
X031354Y019886D01*
X030894Y019886D01*
X030370Y019886D02*
X030370Y020193D01*
X030140Y020039D02*
X030140Y019886D01*
X029910Y019886D02*
X029910Y020193D01*
X029910Y019886D02*
X030370Y019886D01*
X030370Y019425D02*
X029910Y019425D01*
X029910Y019732D01*
X029833Y019272D02*
X029833Y018965D01*
X029910Y018811D02*
X030063Y018658D01*
X030063Y018735D02*
X030063Y018505D01*
X029910Y018505D02*
X030370Y018505D01*
X030370Y018735D01*
X030293Y018811D01*
X030140Y018811D01*
X030063Y018735D01*
X028425Y018129D02*
X028195Y017898D01*
X028195Y018205D01*
X027965Y018129D02*
X028425Y018129D01*
X028425Y017591D02*
X027965Y017591D01*
X027965Y017438D02*
X027965Y017745D01*
X027736Y017898D02*
X027506Y017898D01*
X027583Y018052D01*
X027583Y018129D01*
X027506Y018205D01*
X027353Y018205D01*
X027276Y018129D01*
X027276Y017975D01*
X027353Y017898D01*
X027276Y017745D02*
X027276Y017438D01*
X027276Y017591D02*
X027736Y017591D01*
X027583Y017438D01*
X027660Y017284D02*
X027506Y017284D01*
X027429Y017208D01*
X027429Y016978D01*
X027429Y017131D02*
X027276Y017284D01*
X027016Y017214D02*
X027016Y016983D01*
X026555Y016983D01*
X026709Y016983D02*
X026709Y017214D01*
X026786Y017290D01*
X026939Y017290D01*
X027016Y017214D01*
X026862Y017444D02*
X027016Y017597D01*
X026555Y017597D01*
X026555Y017444D02*
X026555Y017751D01*
X026632Y017904D02*
X026555Y017981D01*
X026555Y018134D01*
X026632Y018211D01*
X026709Y018211D01*
X026786Y018134D01*
X026786Y017904D01*
X026632Y017904D01*
X026786Y017904D02*
X026939Y018058D01*
X027016Y018211D01*
X027736Y018205D02*
X027736Y017898D01*
X028272Y017438D02*
X028425Y017591D01*
X028349Y017284D02*
X028195Y017284D01*
X028118Y017208D01*
X028118Y016978D01*
X028118Y017131D02*
X027965Y017284D01*
X027736Y017208D02*
X027736Y016978D01*
X027276Y016978D01*
X027660Y017284D02*
X027736Y017208D01*
X027965Y016978D02*
X028425Y016978D01*
X028425Y017208D01*
X028349Y017284D01*
X026709Y017137D02*
X026555Y017290D01*
X030233Y016930D02*
X030233Y016853D01*
X030540Y016546D01*
X030233Y016546D01*
X030233Y016930D02*
X030310Y017007D01*
X030464Y017007D01*
X030540Y016930D01*
X030694Y016930D02*
X030770Y017007D01*
X031001Y017007D01*
X031001Y016546D01*
X030770Y016546D01*
X030694Y016623D01*
X030694Y016930D01*
X031154Y017007D02*
X031461Y017007D01*
X031461Y016546D01*
X031154Y016546D01*
X031308Y016777D02*
X031461Y016777D01*
X031615Y016546D02*
X031921Y016546D01*
X031921Y017007D01*
X032075Y016470D02*
X032382Y016470D01*
X032535Y016546D02*
X032689Y016700D01*
X032612Y016700D02*
X032842Y016700D01*
X032842Y016546D02*
X032842Y017007D01*
X032612Y017007D01*
X032535Y016930D01*
X032535Y016777D01*
X032612Y016700D01*
X032612Y016023D02*
X032535Y015946D01*
X032535Y015792D01*
X032612Y015716D01*
X032842Y015716D01*
X032689Y015716D02*
X032535Y015562D01*
X032382Y015639D02*
X032305Y015562D01*
X032152Y015562D01*
X032075Y015639D01*
X032075Y015716D01*
X032152Y015792D01*
X032305Y015792D01*
X032382Y015869D01*
X032382Y015946D01*
X032305Y016023D01*
X032152Y016023D01*
X032075Y015946D01*
X031921Y015869D02*
X031768Y016023D01*
X031768Y015562D01*
X031921Y015562D02*
X031615Y015562D01*
X032612Y016023D02*
X032842Y016023D01*
X032842Y015562D01*
X032783Y013538D02*
X032706Y013462D01*
X032783Y013538D02*
X032936Y013538D01*
X033013Y013462D01*
X033013Y013385D01*
X032936Y013308D01*
X032783Y013308D01*
X032706Y013231D01*
X032706Y013155D01*
X032783Y013078D01*
X032936Y013078D01*
X033013Y013155D01*
X033167Y013155D02*
X033243Y013078D01*
X033397Y013078D01*
X033473Y013155D01*
X033473Y013462D01*
X033397Y013538D01*
X033243Y013538D01*
X033167Y013462D01*
X032553Y013385D02*
X032399Y013538D01*
X032399Y013078D01*
X032246Y013078D02*
X032553Y013078D01*
X032612Y012036D02*
X032535Y011960D01*
X032535Y011806D01*
X032612Y011729D01*
X032842Y011729D01*
X032842Y011576D02*
X032842Y012036D01*
X032612Y012036D01*
X032689Y011729D02*
X032535Y011576D01*
X032382Y011499D02*
X032075Y011499D01*
X031921Y011576D02*
X031615Y011576D01*
X031461Y011576D02*
X031154Y011576D01*
X031001Y011576D02*
X030770Y011576D01*
X030694Y011653D01*
X030694Y011960D01*
X030770Y012036D01*
X031001Y012036D01*
X031001Y011576D01*
X031308Y011806D02*
X031461Y011806D01*
X031461Y012036D02*
X031461Y011576D01*
X031921Y011576D02*
X031921Y012036D01*
X031461Y012036D02*
X031154Y012036D01*
X030540Y011883D02*
X030387Y012036D01*
X030387Y011576D01*
X030540Y011576D02*
X030233Y011576D01*
X031615Y010975D02*
X031691Y011052D01*
X031845Y011052D01*
X031921Y010975D01*
X032075Y010975D02*
X032152Y011052D01*
X032305Y011052D01*
X032382Y010975D01*
X032382Y010899D01*
X032305Y010822D01*
X032152Y010822D01*
X032075Y010745D01*
X032075Y010668D01*
X032152Y010592D01*
X032305Y010592D01*
X032382Y010668D01*
X032535Y010592D02*
X032689Y010745D01*
X032612Y010745D02*
X032842Y010745D01*
X032842Y010592D02*
X032842Y011052D01*
X032612Y011052D01*
X032535Y010975D01*
X032535Y010822D01*
X032612Y010745D01*
X031921Y010592D02*
X031615Y010899D01*
X031615Y010975D01*
X031615Y010592D02*
X031921Y010592D01*
X032322Y008568D02*
X032476Y008568D01*
X032553Y008491D01*
X032706Y008491D02*
X032783Y008568D01*
X032936Y008568D01*
X033013Y008491D01*
X033013Y008414D01*
X032936Y008338D01*
X032783Y008338D01*
X032706Y008261D01*
X032706Y008184D01*
X032783Y008107D01*
X032936Y008107D01*
X033013Y008184D01*
X032935Y008299D02*
X032935Y007992D01*
X033242Y008299D01*
X033319Y008299D01*
X033396Y008223D01*
X033396Y008069D01*
X033319Y007992D01*
X033243Y008107D02*
X033167Y008184D01*
X033243Y008107D02*
X033397Y008107D01*
X033473Y008184D01*
X033473Y008491D01*
X033397Y008568D01*
X033243Y008568D01*
X033167Y008491D01*
X032553Y008107D02*
X032246Y008414D01*
X032246Y008491D01*
X032322Y008568D01*
X032246Y008107D02*
X032553Y008107D01*
X032935Y007685D02*
X033396Y007685D01*
X033396Y007532D02*
X033396Y007839D01*
X033242Y007379D02*
X032935Y007379D01*
X033166Y007379D02*
X033166Y007072D01*
X033242Y007072D02*
X033396Y007225D01*
X033242Y007379D01*
X033242Y007072D02*
X032935Y007072D01*
X033012Y006918D02*
X032935Y006841D01*
X032935Y006611D01*
X033396Y006611D01*
X033396Y006841D01*
X033319Y006918D01*
X033242Y006918D01*
X033166Y006841D01*
X033166Y006611D01*
X033166Y006458D02*
X033089Y006381D01*
X033089Y006151D01*
X033089Y006304D02*
X032935Y006458D01*
X032935Y006418D02*
X032935Y006724D01*
X032935Y006571D02*
X033396Y006571D01*
X033242Y006418D01*
X033166Y006458D02*
X033319Y006458D01*
X033396Y006381D01*
X033396Y006151D01*
X032935Y006151D01*
X032935Y006111D02*
X033396Y006111D01*
X033396Y006264D02*
X033396Y005957D01*
X033242Y005804D02*
X032935Y005804D01*
X033166Y005804D02*
X033166Y005497D01*
X033242Y005497D02*
X033396Y005650D01*
X033242Y005804D01*
X033242Y005497D02*
X032935Y005497D01*
X033012Y005343D02*
X032935Y005267D01*
X032935Y005036D01*
X033396Y005036D01*
X033396Y005267D01*
X033319Y005343D01*
X033242Y005343D01*
X033166Y005267D01*
X033166Y005036D01*
X033166Y004883D02*
X033089Y004806D01*
X033089Y004576D01*
X033089Y004729D02*
X032935Y004883D01*
X033166Y004883D02*
X033319Y004883D01*
X033396Y004806D01*
X033396Y004576D01*
X032935Y004576D01*
X033166Y005267D02*
X033089Y005343D01*
X033012Y005343D01*
X033166Y006841D02*
X033089Y006918D01*
X033012Y006918D01*
X030348Y005271D02*
X030118Y005271D01*
X030042Y005194D01*
X030042Y005040D01*
X030118Y004964D01*
X030348Y004964D01*
X030195Y004964D02*
X030042Y004810D01*
X029888Y004887D02*
X029811Y004810D01*
X029658Y004810D01*
X029581Y004887D01*
X029581Y004964D01*
X029658Y005040D01*
X029811Y005040D01*
X029888Y005117D01*
X029888Y005194D01*
X029811Y005271D01*
X029658Y005271D01*
X029581Y005194D01*
X029428Y005271D02*
X029121Y005271D01*
X029274Y005271D02*
X029274Y004810D01*
X028967Y004810D02*
X028967Y005271D01*
X028814Y005117D01*
X028660Y005271D01*
X028660Y004810D01*
X028507Y004810D02*
X028200Y004810D01*
X028353Y004810D02*
X028353Y005271D01*
X028507Y005117D01*
X028507Y005450D02*
X028507Y005910D01*
X028353Y005757D01*
X028200Y005910D01*
X028200Y005450D01*
X028047Y005450D02*
X027740Y005450D01*
X027632Y005377D02*
X027479Y005377D01*
X027402Y005301D01*
X027402Y005147D01*
X027479Y005070D01*
X027586Y005117D02*
X027433Y005271D01*
X027433Y004810D01*
X027402Y004840D02*
X027479Y004917D01*
X027402Y004840D02*
X027402Y004687D01*
X027479Y004610D01*
X027786Y004610D01*
X027862Y004687D01*
X027862Y004840D01*
X027786Y004917D01*
X027740Y004810D02*
X027740Y005117D01*
X027893Y005271D01*
X028047Y005117D01*
X028047Y004810D01*
X028047Y005040D02*
X027740Y005040D01*
X027632Y005070D02*
X027709Y005224D01*
X027709Y005301D01*
X027632Y005377D01*
X027586Y005450D02*
X027586Y005757D01*
X027433Y005910D01*
X027279Y005757D01*
X027279Y005450D01*
X027279Y005680D02*
X027586Y005680D01*
X027893Y005910D02*
X027893Y005450D01*
X027862Y005377D02*
X027862Y005070D01*
X027632Y005070D01*
X027586Y004810D02*
X027279Y004810D01*
X028047Y005757D02*
X027893Y005910D01*
X027740Y006090D02*
X027740Y006550D01*
X027893Y006397D01*
X028047Y006550D01*
X028047Y006090D01*
X028353Y006090D02*
X028353Y006550D01*
X028200Y006550D02*
X028507Y006550D01*
X028660Y006473D02*
X028737Y006550D01*
X028891Y006550D01*
X028967Y006473D01*
X028967Y006397D01*
X028891Y006320D01*
X028737Y006320D01*
X028660Y006243D01*
X028660Y006166D01*
X028737Y006090D01*
X028891Y006090D01*
X028967Y006166D01*
X028975Y006302D02*
X028898Y006379D01*
X028898Y006533D01*
X028975Y006609D01*
X028898Y006763D02*
X028898Y007070D01*
X028898Y006916D02*
X029358Y006916D01*
X029205Y006763D01*
X029282Y006609D02*
X029358Y006533D01*
X029358Y006379D01*
X029282Y006302D01*
X028975Y006302D01*
X029121Y006320D02*
X029197Y006243D01*
X029428Y006243D01*
X029428Y006090D02*
X029428Y006550D01*
X029197Y006550D01*
X029121Y006473D01*
X029121Y006320D01*
X029274Y006243D02*
X029121Y006090D01*
X029198Y005910D02*
X029351Y005910D01*
X029428Y005834D01*
X029428Y005757D01*
X029351Y005680D01*
X029198Y005680D01*
X029121Y005603D01*
X029121Y005527D01*
X029198Y005450D01*
X029351Y005450D01*
X029428Y005527D01*
X029581Y005450D02*
X029735Y005603D01*
X029658Y005603D02*
X029888Y005603D01*
X029888Y005450D02*
X029888Y005910D01*
X029658Y005910D01*
X029581Y005834D01*
X029581Y005680D01*
X029658Y005603D01*
X029198Y005910D02*
X029121Y005834D01*
X028967Y005910D02*
X028660Y005910D01*
X028814Y005910D02*
X028814Y005450D01*
X027586Y006090D02*
X027279Y006090D01*
X027433Y006090D02*
X027433Y006550D01*
X027586Y006397D01*
X027586Y006730D02*
X027586Y007190D01*
X027356Y007190D01*
X027279Y007113D01*
X027279Y006960D01*
X027356Y006883D01*
X027586Y006883D01*
X027740Y006960D02*
X027816Y006883D01*
X028047Y006883D01*
X028047Y006730D02*
X028047Y007190D01*
X027816Y007190D01*
X027740Y007113D01*
X027740Y006960D01*
X027893Y006883D02*
X027740Y006730D01*
X027740Y007369D02*
X027740Y007830D01*
X027893Y007676D01*
X028047Y007830D01*
X028047Y007369D01*
X028353Y007369D02*
X028353Y007830D01*
X028200Y007830D02*
X028507Y007830D01*
X028660Y007753D02*
X028737Y007830D01*
X028891Y007830D01*
X028967Y007753D01*
X028967Y007676D01*
X028891Y007599D01*
X028737Y007599D01*
X028660Y007523D01*
X028660Y007446D01*
X028737Y007369D01*
X028891Y007369D01*
X028967Y007446D01*
X028898Y007453D02*
X028975Y007530D01*
X029282Y007530D01*
X029358Y007453D01*
X029358Y007300D01*
X029282Y007223D01*
X029205Y007223D01*
X029128Y007300D01*
X029128Y007530D01*
X029121Y007599D02*
X029197Y007523D01*
X029428Y007523D01*
X029428Y007369D02*
X029428Y007830D01*
X029197Y007830D01*
X029121Y007753D01*
X029121Y007599D01*
X029274Y007523D02*
X029121Y007369D01*
X028975Y007223D02*
X028898Y007300D01*
X028898Y007453D01*
X027586Y007369D02*
X027279Y007676D01*
X027279Y007753D01*
X027356Y007830D01*
X027509Y007830D01*
X027586Y007753D01*
X027586Y007369D02*
X027279Y007369D01*
X030348Y005271D02*
X030348Y004810D01*
X011620Y004385D02*
X011620Y004078D01*
X011620Y003771D02*
X011160Y003771D01*
X011160Y003618D02*
X011160Y003925D01*
X011160Y004078D02*
X011237Y004078D01*
X011543Y004385D01*
X011620Y004385D01*
X011620Y003771D02*
X011467Y003618D01*
X011543Y003464D02*
X011620Y003388D01*
X011620Y003234D01*
X011543Y003157D01*
X011237Y003157D01*
X011160Y003234D01*
X011160Y003388D01*
X011237Y003464D01*
X010882Y003521D02*
X010729Y003675D01*
X010422Y003675D01*
X010498Y003828D02*
X010422Y003905D01*
X010422Y004058D01*
X010498Y004135D01*
X010575Y004135D01*
X010652Y004058D01*
X010652Y003982D01*
X010652Y004058D02*
X010729Y004135D01*
X010805Y004135D01*
X010882Y004058D01*
X010882Y003905D01*
X010805Y003828D01*
X010652Y003675D02*
X010652Y003368D01*
X010729Y003368D02*
X010422Y003368D01*
X010498Y003214D02*
X010805Y003214D01*
X010882Y003138D01*
X010882Y002907D01*
X010422Y002907D01*
X010422Y003138D01*
X010498Y003214D01*
X010729Y003368D02*
X010882Y003521D01*
X010194Y003718D02*
X010194Y003948D01*
X010117Y004025D01*
X009810Y004025D01*
X009733Y003948D01*
X009733Y003718D01*
X010194Y003718D01*
X010117Y004178D02*
X010194Y004255D01*
X010194Y004408D01*
X010117Y004485D01*
X010040Y004485D01*
X009733Y004178D01*
X009733Y004485D01*
X008827Y004408D02*
X008827Y003948D01*
X008827Y004101D02*
X008596Y004101D01*
X008520Y004178D01*
X008520Y004332D01*
X008596Y004408D01*
X008827Y004408D01*
X008366Y004408D02*
X008136Y004408D01*
X008059Y004332D01*
X008059Y004025D01*
X008136Y003948D01*
X008366Y003948D01*
X008366Y004408D01*
X008673Y004101D02*
X008520Y003948D01*
X008401Y003647D02*
X008401Y003186D01*
X008554Y003186D02*
X008247Y003186D01*
X008094Y003263D02*
X008017Y003186D01*
X007864Y003186D01*
X007787Y003263D01*
X007787Y003340D01*
X007864Y003416D01*
X008094Y003416D01*
X008094Y003263D01*
X008094Y003416D02*
X007941Y003570D01*
X007787Y003647D01*
X007906Y003948D02*
X007906Y004255D01*
X007752Y004408D01*
X007599Y004255D01*
X007599Y003948D01*
X007445Y003948D02*
X007138Y003948D01*
X007292Y003948D02*
X007292Y004408D01*
X007445Y004255D01*
X007599Y004178D02*
X007906Y004178D01*
X008401Y003647D02*
X008554Y003493D01*
X008708Y003570D02*
X008785Y003647D01*
X008938Y003647D01*
X009015Y003570D01*
X009015Y003263D01*
X008938Y003186D01*
X008785Y003186D01*
X008708Y003263D01*
X010422Y002754D02*
X010575Y002600D01*
X010575Y002677D02*
X010575Y002447D01*
X010422Y002447D02*
X010882Y002447D01*
X010882Y002677D01*
X010805Y002754D01*
X010652Y002754D01*
X010575Y002677D01*
X007683Y009041D02*
X007223Y009041D01*
X007376Y009041D02*
X007376Y009272D01*
X007453Y009348D01*
X007606Y009348D01*
X007683Y009272D01*
X007683Y009041D01*
X007376Y009195D02*
X007223Y009348D01*
X007223Y009502D02*
X007683Y009502D01*
X007683Y009809D01*
X007530Y009962D02*
X007683Y010116D01*
X007530Y010269D01*
X007223Y010269D01*
X007300Y010423D02*
X007223Y010499D01*
X007223Y010653D01*
X007300Y010730D01*
X007376Y010730D01*
X007453Y010653D01*
X007453Y010576D01*
X007453Y010653D02*
X007530Y010730D01*
X007606Y010730D01*
X007683Y010653D01*
X007683Y010499D01*
X007606Y010423D01*
X007453Y010269D02*
X007453Y009962D01*
X007530Y009962D02*
X007223Y009962D01*
X007453Y009655D02*
X007453Y009502D01*
X008723Y011859D02*
X009183Y011859D01*
X009183Y012090D01*
X009106Y012166D01*
X008953Y012166D01*
X008876Y012090D01*
X008876Y011859D01*
X008876Y012013D02*
X008723Y012166D01*
X008723Y012320D02*
X008723Y012550D01*
X008800Y012627D01*
X009106Y012627D01*
X009183Y012550D01*
X009183Y012320D01*
X008723Y012320D01*
X008723Y012780D02*
X008723Y013010D01*
X008800Y013087D01*
X008876Y013087D01*
X008953Y013010D01*
X008953Y012780D01*
X008723Y012780D02*
X009183Y012780D01*
X009183Y013010D01*
X009106Y013087D01*
X009030Y013087D01*
X008953Y013010D01*
X009030Y013241D02*
X009183Y013394D01*
X008723Y013394D01*
X008723Y013241D02*
X008723Y013548D01*
X008723Y013701D02*
X009030Y014008D01*
X009106Y014008D01*
X009183Y013931D01*
X009183Y013778D01*
X009106Y013701D01*
X008723Y013701D02*
X008723Y014008D01*
X033378Y020594D02*
X033378Y020747D01*
X033455Y020824D01*
X033455Y020977D02*
X033378Y021054D01*
X033378Y021208D01*
X033455Y021284D01*
X033532Y021284D01*
X033609Y021208D01*
X033609Y021054D01*
X033685Y020977D01*
X033762Y020977D01*
X033839Y021054D01*
X033839Y021208D01*
X033762Y021284D01*
X033762Y021438D02*
X033839Y021514D01*
X033839Y021668D01*
X033762Y021745D01*
X033685Y021745D01*
X033609Y021668D01*
X033532Y021745D01*
X033455Y021745D01*
X033378Y021668D01*
X033378Y021514D01*
X033455Y021438D01*
X033609Y021591D02*
X033609Y021668D01*
X033762Y020824D02*
X033839Y020747D01*
X033839Y020594D01*
X033762Y020517D01*
X033455Y020517D01*
X033378Y020594D01*
D11*
X013963Y017148D02*
X013963Y016008D01*
X013663Y016008D01*
X013663Y017148D01*
X013963Y017148D01*
X013274Y019403D02*
X012974Y019403D01*
X012974Y020543D01*
X013274Y020543D01*
X013274Y019403D01*
X009337Y012571D02*
X009037Y012571D01*
X009037Y011431D01*
X009337Y011431D01*
X009337Y012571D01*
X009337Y008831D02*
X009037Y008831D01*
X009037Y007691D01*
X009337Y007691D01*
X009337Y008831D01*
X009001Y004169D02*
X009001Y003869D01*
X010141Y003869D01*
X010141Y004169D01*
X009001Y004169D01*
X004017Y004102D02*
X004017Y003802D01*
X002877Y003802D01*
X002877Y004102D01*
X004017Y004102D01*
D12*
X003982Y005277D02*
X003681Y005277D01*
X003521Y005277D02*
X003521Y005727D01*
X003221Y005277D01*
X003221Y005727D01*
X003061Y005727D02*
X002761Y005727D01*
X002761Y005652D01*
X003061Y005352D01*
X003061Y005277D01*
X002601Y005352D02*
X002300Y005652D01*
X002300Y005352D01*
X002375Y005277D01*
X002526Y005277D01*
X002601Y005352D01*
X002601Y005652D01*
X002526Y005727D01*
X002375Y005727D01*
X002300Y005652D01*
X002140Y005652D02*
X002065Y005727D01*
X001915Y005727D01*
X001840Y005652D01*
X002140Y005352D01*
X002065Y005277D01*
X001915Y005277D01*
X001840Y005352D01*
X001840Y005652D01*
X001680Y005652D02*
X001605Y005727D01*
X001455Y005727D01*
X001380Y005652D01*
X001380Y005577D01*
X001680Y005277D01*
X001380Y005277D01*
X001219Y005277D02*
X001219Y005577D01*
X001069Y005727D01*
X000919Y005577D01*
X000919Y005277D01*
X000759Y005352D02*
X000684Y005277D01*
X000534Y005277D01*
X000459Y005352D01*
X000459Y005502D01*
X000534Y005577D01*
X000609Y005577D01*
X000759Y005502D01*
X000759Y005727D01*
X000459Y005727D01*
X000919Y005502D02*
X001219Y005502D01*
X002140Y005352D02*
X002140Y005652D01*
X003681Y005652D02*
X003757Y005727D01*
X003907Y005727D01*
X003982Y005652D01*
X003681Y005652D02*
X003681Y005577D01*
X003982Y005277D01*
X006583Y005344D02*
X006883Y005344D01*
X006733Y005344D02*
X006733Y005794D01*
X006883Y005644D01*
X007043Y005644D02*
X007043Y005344D01*
X007043Y005569D02*
X007343Y005569D01*
X007343Y005644D02*
X007193Y005794D01*
X007043Y005644D01*
X007343Y005644D02*
X007343Y005344D01*
X007504Y005344D02*
X007804Y005344D01*
X007504Y005644D01*
X007504Y005719D01*
X007579Y005794D01*
X007729Y005794D01*
X007804Y005719D01*
X007964Y005719D02*
X007964Y005419D01*
X008039Y005344D01*
X008189Y005344D01*
X008264Y005419D01*
X007964Y005719D01*
X008039Y005794D01*
X008189Y005794D01*
X008264Y005719D01*
X008264Y005419D01*
X008424Y005419D02*
X008499Y005344D01*
X008650Y005344D01*
X008725Y005419D01*
X008424Y005719D01*
X008424Y005419D01*
X008424Y005719D02*
X008499Y005794D01*
X008650Y005794D01*
X008725Y005719D01*
X008725Y005419D01*
X008885Y005719D02*
X009185Y005419D01*
X009185Y005344D01*
X009345Y005344D02*
X009345Y005794D01*
X009185Y005794D02*
X008885Y005794D01*
X008885Y005719D01*
X009345Y005344D02*
X009645Y005794D01*
X009645Y005344D01*
X009806Y005344D02*
X010106Y005344D01*
X009806Y005644D01*
X009806Y005719D01*
X009881Y005794D01*
X010031Y005794D01*
X010106Y005719D01*
X010512Y007726D02*
X010812Y008026D01*
X010887Y008026D01*
X010962Y007951D01*
X010962Y007801D01*
X010887Y007726D01*
X010512Y007726D02*
X010512Y008026D01*
X010512Y008186D02*
X010962Y008186D01*
X010512Y008487D01*
X010962Y008487D01*
X010962Y008647D02*
X010962Y008947D01*
X010887Y008947D01*
X010587Y008647D01*
X010512Y008647D01*
X010587Y009107D02*
X010887Y009407D01*
X010587Y009407D01*
X010512Y009332D01*
X010512Y009182D01*
X010587Y009107D01*
X010887Y009107D01*
X010962Y009182D01*
X010962Y009332D01*
X010887Y009407D01*
X010887Y009567D02*
X010587Y009567D01*
X010887Y009868D01*
X010587Y009868D01*
X010512Y009793D01*
X010512Y009643D01*
X010587Y009567D01*
X010887Y009567D02*
X010962Y009643D01*
X010962Y009793D01*
X010887Y009868D01*
X010887Y010028D02*
X010962Y010103D01*
X010962Y010253D01*
X010887Y010328D01*
X010812Y010328D01*
X010512Y010028D01*
X010512Y010328D01*
X010512Y010488D02*
X010812Y010488D01*
X010962Y010638D01*
X010812Y010788D01*
X010512Y010788D01*
X010587Y010949D02*
X010512Y011024D01*
X010512Y011174D01*
X010587Y011249D01*
X010662Y011249D01*
X010737Y011174D01*
X010737Y011099D01*
X010737Y011174D02*
X010812Y011249D01*
X010887Y011249D01*
X010962Y011174D01*
X010962Y011024D01*
X010887Y010949D01*
X010737Y010788D02*
X010737Y010488D01*
X010887Y011466D02*
X010962Y011541D01*
X010962Y011691D01*
X010887Y011766D01*
X010812Y011766D01*
X010512Y011466D01*
X010512Y011766D01*
X010512Y011926D02*
X010962Y011926D01*
X010512Y012227D01*
X010962Y012227D01*
X010962Y012387D02*
X010962Y012687D01*
X010887Y012687D01*
X010587Y012387D01*
X010512Y012387D01*
X010587Y012847D02*
X010887Y013147D01*
X010587Y013147D01*
X010512Y013072D01*
X010512Y012922D01*
X010587Y012847D01*
X010887Y012847D01*
X010962Y012922D01*
X010962Y013072D01*
X010887Y013147D01*
X010887Y013308D02*
X010587Y013308D01*
X010887Y013608D01*
X010587Y013608D01*
X010512Y013533D01*
X010512Y013383D01*
X010587Y013308D01*
X010887Y013308D02*
X010962Y013383D01*
X010962Y013533D01*
X010887Y013608D01*
X010887Y013768D02*
X010962Y013843D01*
X010962Y013993D01*
X010887Y014068D01*
X010812Y014068D01*
X010512Y013768D01*
X010512Y014068D01*
X010512Y014228D02*
X010812Y014228D01*
X010962Y014379D01*
X010812Y014529D01*
X010512Y014529D01*
X010587Y014689D02*
X010512Y014764D01*
X010512Y014914D01*
X010587Y014989D01*
X010662Y014989D01*
X010737Y014914D01*
X010737Y014689D01*
X010587Y014689D01*
X010737Y014689D02*
X010887Y014839D01*
X010962Y014989D01*
X010737Y014529D02*
X010737Y014228D01*
X015138Y016043D02*
X015438Y016343D01*
X015513Y016343D01*
X015588Y016268D01*
X015588Y016118D01*
X015513Y016043D01*
X015138Y016043D02*
X015138Y016343D01*
X015138Y016503D02*
X015588Y016503D01*
X015138Y016803D01*
X015588Y016803D01*
X015588Y016964D02*
X015588Y017264D01*
X015513Y017264D01*
X015213Y016964D01*
X015138Y016964D01*
X015213Y017424D02*
X015138Y017499D01*
X015138Y017649D01*
X015213Y017724D01*
X015513Y017724D01*
X015213Y017424D01*
X015513Y017424D01*
X015588Y017499D01*
X015588Y017649D01*
X015513Y017724D01*
X015513Y017884D02*
X015213Y017884D01*
X015513Y018185D01*
X015213Y018185D01*
X015138Y018110D01*
X015138Y017959D01*
X015213Y017884D01*
X015513Y017884D02*
X015588Y017959D01*
X015588Y018110D01*
X015513Y018185D01*
X015513Y018345D02*
X015588Y018420D01*
X015588Y018570D01*
X015513Y018645D01*
X015438Y018645D01*
X015138Y018345D01*
X015138Y018645D01*
X015138Y018805D02*
X015438Y018805D01*
X015588Y018955D01*
X015438Y019105D01*
X015138Y019105D01*
X015363Y019105D02*
X015363Y018805D01*
X015363Y019266D02*
X015363Y019566D01*
X015138Y019491D02*
X015588Y019491D01*
X015363Y019266D01*
X014899Y019514D02*
X014824Y019438D01*
X014899Y019514D02*
X014899Y019664D01*
X014824Y019739D01*
X014749Y019739D01*
X014449Y019438D01*
X014449Y019739D01*
X014449Y019899D02*
X014899Y019899D01*
X014449Y020199D01*
X014899Y020199D01*
X014899Y020359D02*
X014899Y020660D01*
X014824Y020660D01*
X014524Y020359D01*
X014449Y020359D01*
X014524Y020820D02*
X014449Y020895D01*
X014449Y021045D01*
X014524Y021120D01*
X014824Y021120D01*
X014524Y020820D01*
X014824Y020820D01*
X014899Y020895D01*
X014899Y021045D01*
X014824Y021120D01*
X014824Y021280D02*
X014524Y021280D01*
X014824Y021580D01*
X014524Y021580D01*
X014449Y021505D01*
X014449Y021355D01*
X014524Y021280D01*
X014824Y021280D02*
X014899Y021355D01*
X014899Y021505D01*
X014824Y021580D01*
X014824Y021740D02*
X014899Y021815D01*
X014899Y021966D01*
X014824Y022041D01*
X014749Y022041D01*
X014449Y021740D01*
X014449Y022041D01*
X014449Y022201D02*
X014749Y022201D01*
X014899Y022351D01*
X014749Y022501D01*
X014449Y022501D01*
X014449Y022661D02*
X014749Y022961D01*
X014824Y022961D01*
X014899Y022886D01*
X014899Y022736D01*
X014824Y022661D01*
X014674Y022501D02*
X014674Y022201D01*
X014449Y022661D02*
X014449Y022961D01*
D13*
X028305Y007381D02*
X028243Y007319D01*
X028243Y007195D01*
X028305Y007134D01*
X028552Y007381D01*
X028305Y007381D01*
X028552Y007381D02*
X028613Y007319D01*
X028613Y007195D01*
X028552Y007134D01*
X028305Y007134D01*
X028243Y007012D02*
X028243Y006765D01*
X028243Y006889D02*
X028613Y006889D01*
X028490Y006765D01*
X028552Y006644D02*
X028613Y006582D01*
X028613Y006459D01*
X028552Y006397D01*
X028305Y006397D01*
X028243Y006459D01*
X028243Y006582D01*
X028305Y006644D01*
X029488Y005009D02*
X029550Y005009D01*
X029612Y004947D01*
X029612Y004762D01*
X029488Y004762D01*
X029426Y004824D01*
X029426Y004947D01*
X029488Y005009D01*
X029735Y004886D02*
X029612Y004762D01*
X029735Y004641D02*
X029797Y004579D01*
X029797Y004456D01*
X029735Y004394D01*
X029488Y004394D01*
X029426Y004456D01*
X029426Y004579D01*
X029488Y004641D01*
X029735Y004886D02*
X029797Y005009D01*
X008318Y004346D02*
X008318Y004099D01*
X008257Y004037D01*
X008133Y004037D01*
X008071Y004099D01*
X007950Y004037D02*
X007703Y004037D01*
X007582Y004037D02*
X007335Y004037D01*
X007458Y004037D02*
X007458Y004407D01*
X007582Y004284D01*
X007827Y004407D02*
X007827Y004037D01*
X007950Y004284D02*
X007827Y004407D01*
X008071Y004346D02*
X008133Y004407D01*
X008257Y004407D01*
X008318Y004346D01*
X002322Y004200D02*
X002322Y003953D01*
X002261Y003891D01*
X002137Y003891D01*
X002075Y003953D01*
X001954Y003953D02*
X001892Y003891D01*
X001769Y003891D01*
X001707Y003953D01*
X001707Y004015D01*
X001769Y004077D01*
X001831Y004077D01*
X001769Y004077D02*
X001707Y004138D01*
X001707Y004200D01*
X001769Y004262D01*
X001892Y004262D01*
X001954Y004200D01*
X002075Y004200D02*
X002137Y004262D01*
X002261Y004262D01*
X002322Y004200D01*
X001586Y004077D02*
X001339Y004077D01*
X001400Y004262D02*
X001400Y003891D01*
X001586Y004077D02*
X001400Y004262D01*
D14*
X004258Y003738D02*
X004730Y003738D01*
X004494Y004132D01*
X004258Y003738D01*
X010427Y003772D02*
X010900Y003772D01*
X010663Y004165D01*
X010427Y003772D01*
D15*
X010663Y004239D03*
X004494Y004205D03*
M02*
