G75*
G70*
%OFA0B0*%
%FSLAX24Y24*%
%IPPOS*%
%LPD*%
%AMOC8*
5,1,8,0,0,1.08239X$1,22.5*
%
%ADD10R,0.0394X0.0079*%
%ADD11R,0.0079X0.0394*%
%ADD12R,0.0591X0.0512*%
%ADD13R,0.0512X0.0591*%
%ADD14R,0.0630X0.0551*%
%ADD15C,0.0600*%
%ADD16R,0.0472X0.0709*%
%ADD17R,0.0710X0.0630*%
%ADD18OC8,0.0600*%
%ADD19C,0.0700*%
%ADD20R,0.0551X0.0394*%
%ADD21R,0.0472X0.0472*%
%ADD22R,0.0787X0.0315*%
%ADD23C,0.0357*%
%ADD24C,0.0120*%
%ADD25C,0.0396*%
%ADD26C,0.0160*%
D10*
X011352Y009776D03*
X011352Y009973D03*
X011352Y010170D03*
X011352Y010367D03*
X011352Y010564D03*
X011352Y010761D03*
X011352Y010958D03*
X011352Y011154D03*
X011352Y011351D03*
X011352Y011548D03*
X011352Y011745D03*
X011352Y011942D03*
X014896Y011942D03*
X014896Y011745D03*
X014896Y011548D03*
X014896Y011351D03*
X014896Y011154D03*
X014896Y010958D03*
X014896Y010761D03*
X014896Y010564D03*
X014896Y010367D03*
X014896Y010170D03*
X014896Y009973D03*
X014896Y009776D03*
X020309Y010219D03*
X020309Y010416D03*
X020309Y010613D03*
X020309Y010810D03*
X020309Y011007D03*
X020309Y011204D03*
X020309Y011400D03*
X020309Y011597D03*
X020309Y011794D03*
X020309Y011991D03*
X020309Y012188D03*
X020309Y012385D03*
X023852Y012385D03*
X023852Y012188D03*
X023852Y011991D03*
X023852Y011794D03*
X023852Y011597D03*
X023852Y011400D03*
X023852Y011204D03*
X023852Y011007D03*
X023852Y010810D03*
X023852Y010613D03*
X023852Y010416D03*
X023852Y010219D03*
D11*
X023163Y009530D03*
X022967Y009530D03*
X022770Y009530D03*
X022573Y009530D03*
X022376Y009530D03*
X022179Y009530D03*
X021982Y009530D03*
X021785Y009530D03*
X021589Y009530D03*
X021392Y009530D03*
X021195Y009530D03*
X020998Y009530D03*
X020998Y013074D03*
X021195Y013074D03*
X021392Y013074D03*
X021589Y013074D03*
X021785Y013074D03*
X021982Y013074D03*
X022179Y013074D03*
X022376Y013074D03*
X022573Y013074D03*
X022770Y013074D03*
X022967Y013074D03*
X023163Y013074D03*
X014207Y012631D03*
X014010Y012631D03*
X013813Y012631D03*
X013616Y012631D03*
X013419Y012631D03*
X013222Y012631D03*
X013026Y012631D03*
X012829Y012631D03*
X012632Y012631D03*
X012435Y012631D03*
X012238Y012631D03*
X012041Y012631D03*
X012041Y009087D03*
X012238Y009087D03*
X012435Y009087D03*
X012632Y009087D03*
X012829Y009087D03*
X013026Y009087D03*
X013222Y009087D03*
X013419Y009087D03*
X013616Y009087D03*
X013813Y009087D03*
X014010Y009087D03*
X014207Y009087D03*
D12*
X015780Y011771D03*
X015780Y012519D03*
X016520Y013639D03*
X017158Y013637D03*
X017158Y014385D03*
X016520Y014387D03*
X020457Y013645D03*
X020457Y012897D03*
X023656Y009314D03*
X023656Y008566D03*
X011158Y012550D03*
X011158Y013298D03*
X006892Y006111D03*
X006207Y006123D03*
X006207Y005375D03*
X006892Y005363D03*
X009097Y005733D03*
X009097Y004985D03*
D13*
X010774Y008223D03*
X011522Y008223D03*
X014703Y009007D03*
X015451Y009007D03*
X019492Y009776D03*
X020240Y009776D03*
X022297Y008940D03*
X023045Y008940D03*
X024864Y009306D03*
X025612Y009306D03*
X029679Y004560D03*
X030427Y004560D03*
X030427Y003822D03*
X029679Y003822D03*
X029679Y003084D03*
X030427Y003084D03*
X012841Y013932D03*
X012093Y013932D03*
D14*
X011742Y007613D03*
X010561Y007613D03*
X024887Y008666D03*
X026069Y008666D03*
D15*
X029753Y009310D02*
X030353Y009310D01*
X030353Y010310D02*
X029753Y010310D01*
X029753Y011436D02*
X030353Y011436D01*
X030353Y012436D02*
X029753Y012436D01*
X029763Y014078D02*
X030363Y014078D01*
X030363Y015078D02*
X029763Y015078D01*
X029763Y016078D02*
X030363Y016078D01*
X030363Y017078D02*
X029763Y017078D01*
X028441Y018187D02*
X028441Y018787D01*
X027441Y018787D02*
X027441Y018187D01*
X026441Y018187D02*
X026441Y018787D01*
X025441Y018787D02*
X025441Y018187D01*
X024441Y018187D02*
X024441Y018787D01*
X022862Y018787D02*
X022862Y018187D01*
X021862Y018187D02*
X021862Y018787D01*
X020862Y018787D02*
X020862Y018187D01*
X019862Y018187D02*
X019862Y018787D01*
X017921Y018787D02*
X017921Y018187D01*
X016921Y018187D02*
X016921Y018787D01*
X015921Y018787D02*
X015921Y018187D01*
X014921Y018187D02*
X014921Y018787D01*
X029753Y007538D02*
X030353Y007538D01*
X030353Y006538D02*
X029753Y006538D01*
X029753Y005538D02*
X030353Y005538D01*
X026041Y003580D02*
X026041Y002980D01*
X025041Y002980D02*
X025041Y003580D01*
X024041Y003580D02*
X024041Y002980D01*
X023041Y002980D02*
X023041Y003580D01*
X022006Y003580D02*
X022006Y002980D01*
X021006Y002980D02*
X021006Y003580D01*
X021014Y004211D02*
X021014Y004811D01*
X021014Y005441D02*
X021014Y006041D01*
X020014Y006041D02*
X020014Y005441D01*
X020014Y004811D02*
X020014Y004211D01*
X020006Y003580D02*
X020006Y002980D01*
X019006Y002980D02*
X019006Y003580D01*
X019014Y004211D02*
X019014Y004811D01*
X019014Y005441D02*
X019014Y006041D01*
D16*
X013996Y007619D03*
X012697Y007619D03*
X024927Y007678D03*
X026226Y007678D03*
D17*
X032355Y009994D03*
X032355Y011114D03*
D18*
X032051Y002156D03*
X033051Y002156D03*
X033051Y001156D03*
X032051Y001156D03*
X031051Y001156D03*
X030051Y001156D03*
X029051Y001156D03*
X028051Y001156D03*
X027051Y001156D03*
X026051Y001156D03*
X025051Y001156D03*
X024051Y001156D03*
X023051Y001156D03*
X022051Y001156D03*
X021051Y001156D03*
X021051Y002156D03*
X022051Y002156D03*
X023051Y002156D03*
X024051Y002156D03*
X025051Y002156D03*
X026051Y002156D03*
X027051Y002156D03*
X028051Y002156D03*
X029051Y002156D03*
X030051Y002156D03*
X031051Y002156D03*
D19*
X031530Y004117D03*
X031530Y005101D03*
X031530Y006086D03*
X031530Y007070D03*
X031530Y009087D03*
X031530Y010072D03*
X031530Y011056D03*
X031530Y012040D03*
X031530Y014058D03*
X031530Y015042D03*
X031530Y016026D03*
X031530Y017011D03*
X031874Y019914D03*
X030890Y019914D03*
X029906Y019914D03*
X027888Y019914D03*
X026904Y019914D03*
X025919Y019914D03*
X024935Y019914D03*
X022917Y019914D03*
X021933Y019914D03*
X020949Y019914D03*
X019965Y019914D03*
X017947Y019914D03*
X016963Y019914D03*
X015978Y019914D03*
X014994Y019914D03*
X011352Y020308D03*
X011352Y019324D03*
X011352Y021292D03*
X011360Y017284D03*
X011360Y016300D03*
X011360Y015316D03*
X007415Y013369D03*
X007415Y012385D03*
X007415Y011400D03*
X007415Y009383D03*
X007415Y008399D03*
X007415Y007414D03*
X008055Y002493D03*
X009039Y002493D03*
X010024Y002493D03*
X011008Y002493D03*
X011992Y002493D03*
X005693Y002493D03*
X004709Y002493D03*
X003724Y002493D03*
X002740Y002493D03*
X001756Y002493D03*
X014945Y007808D03*
X015929Y007808D03*
X016913Y007808D03*
X032858Y019914D03*
D20*
X008423Y005761D03*
X007557Y006135D03*
X007557Y005387D03*
D21*
X028311Y004461D03*
X029138Y004461D03*
X029138Y003822D03*
X028311Y003822D03*
X028311Y003182D03*
X029138Y003182D03*
D22*
X025526Y010515D03*
X025526Y011105D03*
X025526Y011696D03*
X010073Y011745D03*
X010073Y011154D03*
X010073Y010564D03*
D23*
X011303Y009530D03*
X011655Y009068D03*
X012112Y009797D03*
X011958Y010334D03*
X012832Y010348D03*
X013189Y009977D03*
X013712Y009897D03*
X014225Y009829D03*
X014695Y009401D03*
X015732Y009481D03*
X016323Y009137D03*
X016815Y008841D03*
X016766Y009629D03*
X018242Y010564D03*
X019522Y010416D03*
X019522Y011007D03*
X019522Y011007D03*
X021293Y010318D03*
X022178Y010143D03*
X022622Y010416D03*
X023311Y010170D03*
X022671Y011105D03*
X022032Y010908D03*
X021687Y011745D03*
X022032Y012237D03*
X022032Y012237D03*
X021736Y012582D03*
X021736Y012582D03*
X020998Y012286D03*
X020998Y012286D03*
X022032Y013861D03*
X021195Y014304D03*
X020900Y014649D03*
X020506Y014156D03*
X021835Y014649D03*
X022130Y015879D03*
X022524Y016174D03*
X022967Y016469D03*
X022783Y017212D03*
X023311Y017208D03*
X023803Y017306D03*
X024049Y017749D03*
X025083Y016863D03*
X025034Y016420D03*
X024640Y016076D03*
X024295Y015731D03*
X023951Y015387D03*
X024643Y014750D03*
X024986Y014402D03*
X027378Y014380D03*
X027740Y012926D03*
X028109Y011715D03*
X027559Y010016D03*
X026805Y009580D03*
X026215Y009924D03*
X025478Y009930D03*
X024828Y009930D03*
X024246Y008841D03*
X024004Y008302D03*
X022828Y007430D03*
X022428Y007830D03*
X023278Y007080D03*
X023328Y006330D03*
X023678Y005980D03*
X024028Y005630D03*
X025318Y004847D03*
X025716Y004531D03*
X026184Y004403D03*
X027444Y004462D03*
X027839Y004856D03*
X028429Y005987D03*
X025828Y006330D03*
X026559Y007710D03*
X025478Y008230D03*
X021982Y005446D03*
X022327Y004166D03*
X023065Y004363D03*
X018318Y007224D03*
X019620Y007660D03*
X020997Y009081D03*
X019866Y009284D03*
X016766Y010737D03*
X015585Y011105D03*
X016323Y011794D03*
X016323Y011794D03*
X016421Y012483D03*
X016421Y012483D03*
X017160Y013320D03*
X017750Y013812D03*
X016815Y014747D03*
X017750Y015091D03*
X019423Y016273D03*
X019128Y016666D03*
X018833Y017060D03*
X019649Y017241D03*
X020620Y016826D03*
X020770Y016365D03*
X021697Y017024D03*
X024246Y019619D03*
X027839Y016469D03*
X027396Y016273D03*
X030349Y018119D03*
X029690Y018664D03*
X030228Y018780D03*
X029202Y018566D03*
X032317Y019373D03*
X033252Y018241D03*
X032317Y016617D03*
X032366Y020997D03*
X024345Y012532D03*
X024828Y012380D03*
X025487Y012367D03*
X023114Y011843D03*
X018784Y012336D03*
X016126Y013664D03*
X014896Y015633D03*
X015573Y016315D03*
X013419Y016026D03*
X012337Y015534D03*
X010368Y014895D03*
X011500Y013910D03*
X012878Y012139D03*
X012484Y011745D03*
X013272Y011400D03*
X013222Y010811D03*
X012976Y008349D03*
X012091Y008251D03*
X013252Y006783D03*
X008498Y005200D03*
X006333Y001161D03*
X008203Y009383D03*
X007563Y010761D03*
X014059Y018881D03*
X015486Y021095D03*
X030644Y008792D03*
X033252Y007759D03*
X033055Y005544D03*
D24*
X033055Y007021D01*
X031972Y008103D01*
X027642Y008103D01*
X026215Y009530D01*
X026215Y009924D01*
X026805Y009580D02*
X027691Y009580D01*
X028035Y009924D01*
X028035Y011174D01*
X028035Y011204D01*
X027396Y011843D01*
X027378Y011861D01*
X027378Y014380D01*
X027178Y014730D02*
X027828Y014730D01*
X028178Y014380D01*
X028178Y013280D01*
X029378Y012080D01*
X029374Y012080D01*
X029351Y012103D01*
X030018Y011436D01*
X030053Y011436D01*
X029143Y011523D02*
X027740Y012926D01*
X028109Y011715D02*
X028282Y011543D01*
X028282Y008792D01*
X028282Y008784D01*
X028278Y008780D01*
X028728Y008330D01*
X032678Y008330D01*
X033249Y007759D01*
X033252Y007759D01*
X031530Y009087D02*
X032305Y009863D01*
X032355Y009994D01*
X032392Y009994D01*
X032878Y010480D01*
X032878Y012660D01*
X032809Y012729D01*
X031530Y014009D01*
X031530Y014058D01*
X032858Y015387D01*
X032858Y019914D01*
X032366Y020406D01*
X028380Y020406D01*
X027888Y019914D01*
X027396Y020406D01*
X023410Y020406D01*
X022917Y019914D01*
X022425Y020406D01*
X018291Y020406D01*
X017947Y020062D01*
X017947Y019914D01*
X018685Y019225D02*
X022130Y019225D01*
X022862Y018493D01*
X022862Y018487D01*
X022868Y018487D01*
X023606Y019225D01*
X027703Y019225D01*
X028441Y018487D01*
X028478Y018487D01*
X029167Y019176D01*
X030398Y019176D01*
X030890Y018684D01*
X030890Y017503D01*
X030447Y017060D01*
X030429Y017078D01*
X030063Y017078D01*
X030058Y018112D02*
X029006Y017060D01*
X028926Y016980D01*
X027478Y016980D01*
X027316Y016980D01*
X025722Y015387D01*
X023951Y015387D01*
X024246Y015091D02*
X026215Y015091D01*
X027396Y016273D01*
X027839Y016302D02*
X027839Y016469D01*
X027839Y016302D02*
X030063Y014078D01*
X030928Y013213D01*
X030928Y009765D01*
X030928Y009076D01*
X030644Y008792D01*
X030053Y009310D02*
X029538Y009310D01*
X029143Y009705D01*
X029143Y011523D01*
X029351Y012103D02*
X029315Y012139D01*
X030053Y012436D02*
X030053Y012905D01*
X028028Y014930D01*
X027078Y014930D01*
X026928Y014780D01*
X024678Y014780D01*
X024648Y014750D01*
X024643Y014750D01*
X024986Y014402D02*
X026850Y014402D01*
X027178Y014730D01*
X025821Y015830D02*
X027271Y017280D01*
X027578Y017280D01*
X027278Y017280D01*
X027378Y017480D02*
X027178Y017480D01*
X027127Y017480D02*
X027378Y017480D01*
X028800Y017480D01*
X028872Y017552D01*
X029690Y018369D01*
X029690Y018664D01*
X030152Y018536D02*
X030228Y018613D01*
X030228Y018780D01*
X030152Y018536D02*
X028921Y017306D01*
X028895Y017280D01*
X027578Y017280D01*
X027127Y017480D02*
X025722Y016076D01*
X024640Y016076D01*
X024295Y015731D02*
X025722Y015731D01*
X025821Y015830D01*
X025722Y016420D02*
X025034Y016420D01*
X024689Y016666D02*
X024886Y016863D01*
X025083Y016863D01*
X024689Y016666D02*
X023163Y015141D01*
X023163Y013074D01*
X022770Y013074D02*
X022770Y011843D01*
X022770Y011204D01*
X022671Y011105D01*
X022770Y010761D02*
X022327Y010761D01*
X021539Y009973D01*
X021097Y009973D01*
X020654Y010416D01*
X020949Y010416D01*
X021441Y010908D01*
X021441Y011499D01*
X021687Y011745D01*
X021195Y011696D02*
X021736Y012237D01*
X022032Y012237D01*
X022376Y011942D02*
X021687Y011253D01*
X021687Y010958D01*
X021687Y010711D01*
X021293Y010318D01*
X021047Y010810D02*
X021195Y010958D01*
X021195Y011696D01*
X020949Y011745D02*
X021736Y012532D01*
X021736Y012582D01*
X021785Y013074D02*
X021785Y013418D01*
X021490Y013713D01*
X021490Y015337D01*
X022032Y015879D01*
X022130Y015879D01*
X021982Y016174D02*
X022028Y016220D01*
X022478Y016220D01*
X022524Y016174D01*
X022524Y016174D01*
X022927Y016509D02*
X022022Y016509D01*
X019817Y014304D01*
X019817Y012434D01*
X020063Y012188D01*
X020309Y012188D01*
X020309Y012385D02*
X020161Y012385D01*
X020014Y012532D01*
X020014Y014206D01*
X021982Y016174D01*
X021293Y016371D02*
X021293Y016617D01*
X021097Y016814D01*
X020631Y016814D01*
X020620Y016826D01*
X020460Y017159D02*
X020164Y016844D01*
X020164Y015821D01*
X019041Y014698D01*
X019030Y014698D01*
X019075Y014743D01*
X019087Y014743D01*
X019030Y014698D02*
X019030Y013566D01*
X018045Y012582D01*
X018045Y012139D01*
X019030Y011154D01*
X019030Y009432D01*
X019472Y008989D01*
X020604Y008989D01*
X020850Y008743D01*
X021195Y008743D01*
X021392Y008940D01*
X021392Y009530D01*
X021589Y009530D02*
X021589Y008841D01*
X021293Y008546D01*
X020801Y008546D01*
X020555Y008792D01*
X019374Y008792D01*
X018833Y009334D01*
X018833Y011007D01*
X017750Y012089D01*
X017750Y012582D01*
X018833Y013664D01*
X018833Y014845D01*
X019984Y015996D01*
X019984Y016960D01*
X020034Y017010D01*
X020380Y017355D01*
X021853Y017355D01*
X022493Y017355D01*
X022641Y017355D01*
X022783Y017212D01*
X022967Y016863D02*
X023311Y017208D01*
X023557Y017552D02*
X023016Y017552D01*
X021264Y017552D01*
X020860Y017956D01*
X020860Y018485D01*
X020862Y018487D01*
X019862Y018487D02*
X019862Y018089D01*
X018833Y017060D01*
X019128Y016666D02*
X017012Y016666D01*
X013419Y013074D01*
X013419Y012631D01*
X013222Y012631D02*
X013222Y013172D01*
X013862Y013812D01*
X016921Y016871D01*
X016921Y016954D01*
X016921Y018487D01*
X015921Y018487D02*
X015921Y016166D01*
X013026Y013271D01*
X013026Y012631D01*
X012829Y012631D02*
X012829Y013920D01*
X012841Y013932D01*
X012467Y014287D02*
X012730Y014550D01*
X012730Y018536D01*
X014847Y020652D01*
X032858Y020652D01*
X033400Y020111D01*
X033400Y018389D01*
X033252Y018241D01*
X032317Y019373D02*
X032317Y016617D01*
X030349Y018119D02*
X030343Y018112D01*
X030058Y018112D01*
X029202Y018177D02*
X028774Y017749D01*
X028705Y017680D01*
X026978Y017680D01*
X026978Y017676D01*
X025722Y016420D01*
X025230Y017552D02*
X022770Y015091D01*
X022770Y013074D01*
X022573Y013074D02*
X022573Y011794D01*
X022032Y011253D01*
X022032Y010908D01*
X021687Y010958D02*
X021687Y011105D01*
X021047Y010810D02*
X020309Y010810D01*
X020309Y011007D02*
X020801Y011007D01*
X020949Y011154D01*
X020949Y011745D01*
X020309Y011794D02*
X019866Y011794D01*
X019423Y012237D01*
X019423Y014501D01*
X021269Y016346D01*
X021293Y016371D01*
X020770Y016365D02*
X020718Y016313D01*
X020718Y016092D01*
X019226Y014600D01*
X019226Y013320D01*
X018341Y012434D01*
X018341Y012188D01*
X019128Y011400D01*
X020309Y011400D01*
X020309Y011204D02*
X019620Y011204D01*
X019522Y011105D01*
X019522Y011007D01*
X019719Y010613D02*
X019522Y010416D01*
X019719Y010613D02*
X020309Y010613D01*
X020309Y010416D02*
X020654Y010416D01*
X020555Y010219D02*
X020309Y010219D01*
X020309Y010416D02*
X019965Y010416D01*
X019719Y010170D01*
X019719Y009747D01*
X019492Y009776D01*
X019866Y009402D02*
X020240Y009776D01*
X020260Y009776D01*
X020240Y009776D01*
X020211Y009776D01*
X020240Y009776D02*
X020240Y009757D01*
X020260Y009776D02*
X020555Y009776D01*
X020654Y009875D01*
X020654Y009895D01*
X020654Y010121D01*
X020555Y010219D01*
X020998Y009530D02*
X020998Y008999D01*
X020997Y009081D01*
X020457Y008595D02*
X019276Y008595D01*
X018636Y009235D01*
X018636Y010711D01*
X017504Y011843D01*
X017504Y012631D01*
X018636Y013763D01*
X018636Y014944D01*
X019769Y016077D01*
X019769Y017121D01*
X019649Y017241D01*
X020460Y017159D02*
X021225Y017159D01*
X021562Y017159D01*
X021697Y017024D01*
X021982Y016765D02*
X022081Y016863D01*
X022967Y016863D01*
X022927Y016509D02*
X022967Y016469D01*
X022967Y016471D01*
X021982Y016765D02*
X021884Y016666D01*
X019620Y014402D01*
X019620Y012336D01*
X019965Y011991D01*
X020309Y011991D01*
X020309Y011597D02*
X019522Y011597D01*
X018784Y012336D01*
X017307Y012680D02*
X017307Y011499D01*
X018242Y010564D01*
X017209Y010367D02*
X019177Y008399D01*
X020358Y008399D01*
X020604Y008152D01*
X020927Y007830D01*
X022428Y007830D01*
X023628Y007830D01*
X026178Y005280D01*
X026184Y005280D01*
X026184Y004403D01*
X025716Y004531D02*
X025716Y005365D01*
X025666Y005415D01*
X023852Y007230D01*
X023652Y007430D01*
X022828Y007430D01*
X021032Y007430D01*
X020506Y007956D01*
X020260Y008202D01*
X019079Y008202D01*
X017110Y010170D01*
X014896Y010170D01*
X014896Y009973D02*
X017012Y009973D01*
X018980Y008005D01*
X020161Y008005D01*
X020408Y007759D01*
X021086Y007080D01*
X023278Y007080D01*
X023628Y007080D01*
X023678Y007030D01*
X024078Y006630D01*
X025278Y005430D01*
X025318Y005390D01*
X025318Y004847D01*
X025293Y004363D02*
X025621Y004035D01*
X025626Y004030D01*
X025628Y004030D01*
X025633Y004035D01*
X027609Y004035D01*
X027839Y004265D01*
X027839Y004856D01*
X027444Y004714D02*
X027444Y004462D01*
X027444Y004714D02*
X025828Y006330D01*
X025578Y007130D02*
X024628Y007130D01*
X024478Y007280D01*
X024478Y007828D01*
X024004Y008302D01*
X023741Y008566D01*
X023656Y008566D01*
X023685Y008566D01*
X023754Y008497D01*
X023656Y008566D02*
X023419Y008566D01*
X023045Y008940D01*
X022967Y009019D01*
X022967Y009530D01*
X022967Y010564D01*
X022770Y010761D01*
X022671Y010416D02*
X022622Y010416D01*
X022671Y010416D02*
X022770Y010318D01*
X022770Y009530D01*
X022573Y009530D02*
X022573Y009776D01*
X022567Y009783D01*
X022567Y010012D01*
X022436Y010143D01*
X022178Y010143D01*
X022376Y009530D02*
X022376Y009019D01*
X022297Y008940D01*
X021785Y008743D02*
X021392Y008349D01*
X020703Y008349D01*
X020457Y008595D01*
X019866Y009284D02*
X019866Y009402D01*
X021785Y009530D02*
X021785Y008743D01*
X023163Y009530D02*
X023163Y009727D01*
X023262Y009826D01*
X023311Y009875D01*
X023311Y010170D01*
X023557Y010121D02*
X023557Y009826D01*
X023656Y009727D01*
X023656Y009314D01*
X023823Y009412D01*
X023823Y009265D01*
X024246Y008841D01*
X024887Y008666D02*
X024864Y009306D01*
X024878Y009319D01*
X024878Y009330D01*
X024828Y009380D01*
X024828Y009930D01*
X025478Y009930D02*
X025478Y009440D01*
X025612Y009306D01*
X025604Y009306D01*
X025578Y009280D01*
X025578Y009330D01*
X025612Y009306D02*
X026069Y008666D01*
X025914Y008666D01*
X025478Y008230D01*
X025728Y007980D02*
X025950Y008202D01*
X027149Y008202D01*
X027839Y007513D01*
X027839Y006578D01*
X028429Y005987D01*
X028429Y004580D01*
X028311Y004461D01*
X028311Y003822D01*
X028311Y003182D01*
X026140Y003182D01*
X026041Y003280D01*
X026018Y003280D01*
X025280Y004019D01*
X022770Y004019D01*
X022032Y003280D01*
X022006Y003280D01*
X022327Y004166D02*
X023114Y004954D01*
X023791Y005630D01*
X024028Y005630D01*
X023678Y005937D02*
X023678Y005980D01*
X023678Y005937D02*
X023628Y005887D01*
X022868Y005127D01*
X022252Y004511D01*
X021014Y004511D01*
X021014Y004511D01*
X021654Y005101D02*
X022327Y005101D01*
X023228Y006002D01*
X023328Y006102D01*
X023328Y006330D01*
X021982Y005790D02*
X021982Y005446D01*
X021654Y005101D02*
X021321Y005434D01*
X021014Y005741D01*
X021982Y005790D02*
X020112Y007660D01*
X019620Y007660D01*
X019522Y007168D02*
X017061Y009629D01*
X016766Y009629D01*
X016471Y009284D02*
X016323Y009137D01*
X016471Y009284D02*
X017110Y009284D01*
X019014Y007381D01*
X019014Y005741D01*
X019522Y005101D02*
X019522Y007168D01*
X018318Y007224D02*
X014391Y007224D01*
X013996Y007619D01*
X013252Y006783D02*
X013098Y006788D01*
X012919Y006789D01*
X011239Y006789D01*
X010774Y007255D01*
X010774Y007826D01*
X010561Y007613D01*
X010774Y007826D02*
X010774Y008223D01*
X010762Y008211D01*
X010762Y008152D01*
X010762Y008211D02*
X010762Y010269D01*
X010762Y010364D01*
X010962Y010564D01*
X010878Y010480D01*
X010962Y010564D02*
X011057Y010564D01*
X011352Y010564D01*
X011352Y010761D02*
X013172Y010761D01*
X013222Y010811D01*
X013432Y010429D02*
X013351Y010348D01*
X012832Y010348D01*
X013189Y009977D02*
X013275Y009977D01*
X013375Y010077D01*
X014256Y010958D01*
X014896Y010958D01*
X014896Y011154D02*
X014158Y011154D01*
X013432Y010429D01*
X013712Y010069D02*
X014404Y010761D01*
X014896Y010761D01*
X014896Y010564D02*
X014893Y010561D01*
X014482Y010561D01*
X014225Y010303D01*
X014225Y009829D01*
X014305Y009432D02*
X014664Y009432D01*
X014695Y009401D01*
X014703Y009393D01*
X014703Y009007D01*
X014695Y009015D01*
X014703Y009007D02*
X014748Y009074D01*
X014207Y009087D02*
X014207Y009334D01*
X014305Y009432D01*
X014010Y009087D02*
X014010Y008841D01*
X014306Y008545D01*
X015233Y008545D01*
X015929Y007850D01*
X015929Y007808D01*
X016815Y007906D02*
X016815Y008841D01*
X015732Y009481D02*
X015451Y009007D01*
X015486Y009111D01*
X015486Y008940D01*
X015468Y009010D02*
X015478Y009020D01*
X015468Y009010D02*
X015468Y008780D01*
X015233Y008545D01*
X016815Y007906D02*
X016913Y007808D01*
X013616Y006582D02*
X013120Y006086D01*
X009832Y006086D01*
X008823Y007095D01*
X008823Y009438D01*
X008424Y009836D01*
X008412Y009836D01*
X008125Y010123D01*
X006780Y010123D01*
X006282Y009625D01*
X006282Y007157D01*
X005497Y006373D01*
X005497Y005687D01*
X005809Y005376D01*
X006206Y005376D01*
X006207Y005375D01*
X006207Y005178D01*
X006892Y005363D02*
X006915Y005387D01*
X007557Y005387D01*
X007652Y005387D01*
X008006Y005741D01*
X008006Y008792D01*
X007415Y009383D01*
X008203Y009383D02*
X008226Y009357D01*
X008226Y005963D01*
X008400Y005790D01*
X008400Y005741D01*
X008419Y005761D01*
X008423Y005761D01*
X009069Y005761D01*
X009097Y005733D01*
X008793Y005200D02*
X008498Y005200D01*
X008793Y005200D02*
X009039Y004954D01*
X009089Y004954D01*
X009097Y004961D01*
X009097Y004985D01*
X009089Y004954D02*
X009089Y004658D01*
X006333Y001902D01*
X006333Y001164D01*
X006917Y006086D02*
X006892Y006111D01*
X006768Y006111D01*
X006207Y006123D01*
X006917Y006086D02*
X006923Y006086D01*
X006972Y006135D01*
X007557Y006135D01*
X011522Y007834D02*
X011742Y007613D01*
X011793Y007613D01*
X011795Y007611D01*
X011803Y007619D01*
X012697Y007619D01*
X012238Y008349D02*
X012091Y008251D01*
X012238Y008349D02*
X012238Y008546D01*
X012238Y009087D01*
X012041Y009087D02*
X012041Y008940D01*
X011943Y008841D01*
X011845Y008841D01*
X011746Y008841D01*
X011655Y008932D01*
X011655Y009068D01*
X011303Y009530D02*
X011303Y009678D01*
X011352Y009776D01*
X011353Y009973D02*
X011352Y009973D01*
X011353Y009973D02*
X011947Y009973D01*
X012112Y009808D01*
X012112Y009797D01*
X011794Y010170D02*
X011958Y010334D01*
X011794Y010170D02*
X011352Y010170D01*
X011352Y010367D02*
X011106Y010367D01*
X010959Y010219D01*
X010959Y008940D01*
X011451Y008448D01*
X011451Y008294D01*
X011522Y008223D01*
X011522Y007834D01*
X012435Y008595D02*
X012681Y008349D01*
X012976Y008349D01*
X012435Y008595D02*
X012435Y008891D01*
X012435Y009087D01*
X013616Y009087D02*
X013616Y006582D01*
X013712Y009897D02*
X013712Y010069D01*
X014896Y010367D02*
X017209Y010367D01*
X016766Y010737D02*
X017110Y011082D01*
X017110Y012582D01*
X016667Y013024D01*
X014305Y013024D01*
X014207Y012926D01*
X014207Y012631D01*
X013813Y012631D02*
X013813Y012828D01*
X014207Y013221D01*
X016766Y013221D01*
X017307Y012680D01*
X017160Y013320D02*
X017160Y013635D01*
X017158Y013637D01*
X017750Y013812D02*
X017750Y015091D01*
X017158Y014385D02*
X017127Y014353D01*
X016569Y014353D01*
X016618Y014402D01*
X016815Y014402D01*
X016815Y014747D01*
X016535Y014387D02*
X016520Y014387D01*
X016535Y014387D02*
X016569Y014353D01*
X016520Y013664D02*
X016126Y013664D01*
X016520Y013639D02*
X016520Y013664D01*
X016386Y012519D02*
X015780Y012519D01*
X015768Y012519D01*
X015191Y011942D01*
X014896Y011942D01*
X013272Y011942D01*
X012534Y011204D01*
X012093Y011204D01*
X011781Y011515D01*
X011781Y011810D01*
X011648Y011944D01*
X011354Y011944D01*
X011352Y011942D01*
X011156Y011942D01*
X011057Y012040D01*
X011057Y012434D01*
X011254Y012631D01*
X011254Y012680D01*
X011254Y012631D02*
X011471Y012631D01*
X011158Y012550D01*
X011148Y012560D01*
X011148Y012580D01*
X011158Y012590D01*
X011148Y012580D02*
X010928Y012580D01*
X010368Y013140D01*
X010368Y014895D01*
X011500Y013910D02*
X011500Y013320D01*
X011549Y013369D01*
X012041Y013369D01*
X012238Y013172D01*
X012238Y012631D01*
X012238Y011991D01*
X012484Y011745D01*
X012534Y012139D02*
X012878Y012139D01*
X012534Y012139D02*
X012435Y012237D01*
X012435Y012631D01*
X012632Y012631D02*
X012632Y012926D01*
X012467Y013091D01*
X012467Y014287D01*
X012093Y013932D02*
X012093Y015290D01*
X012337Y015534D01*
X013419Y016026D02*
X013419Y018241D01*
X014059Y018881D01*
X014921Y018487D02*
X014945Y018487D01*
X015889Y019431D01*
X023489Y019431D01*
X023677Y019619D01*
X024246Y019619D01*
X025441Y018487D02*
X025441Y018452D01*
X022376Y015387D01*
X022376Y013074D01*
X022376Y011942D01*
X023114Y011843D02*
X023557Y011400D01*
X023852Y011400D01*
X023852Y011204D02*
X024640Y011204D01*
X025132Y011696D01*
X025526Y011696D01*
X025526Y011105D02*
X027199Y011105D01*
X027570Y010734D01*
X027570Y010028D01*
X027559Y010016D01*
X025526Y010515D02*
X025181Y010515D01*
X024689Y011007D01*
X023852Y011007D01*
X023852Y011597D02*
X024541Y011597D01*
X025311Y012367D01*
X025487Y012367D01*
X024828Y012380D02*
X024242Y011794D01*
X023852Y011794D01*
X023852Y011991D02*
X024098Y011991D01*
X024345Y012237D01*
X024345Y012532D01*
X023852Y012385D02*
X023852Y014698D01*
X024246Y015091D01*
X022573Y015239D02*
X022573Y013074D01*
X022179Y013074D02*
X022179Y013566D01*
X022032Y013713D01*
X022032Y013861D01*
X021736Y013713D02*
X021687Y013763D01*
X021687Y014501D01*
X021785Y014599D01*
X021835Y014649D01*
X021195Y014304D02*
X021146Y014255D01*
X021146Y013812D01*
X021589Y013369D01*
X021589Y013074D01*
X021392Y013074D02*
X021392Y013320D01*
X021146Y013566D01*
X020900Y013812D01*
X020900Y014649D01*
X020506Y014156D02*
X020555Y014107D01*
X020555Y013812D01*
X020722Y013645D01*
X020998Y013369D01*
X020998Y013074D01*
X021195Y013074D02*
X021195Y012385D01*
X021097Y012286D01*
X020998Y012286D01*
X020457Y012828D01*
X020457Y012897D01*
X020457Y013645D02*
X020722Y013645D01*
X021736Y013713D02*
X021982Y013467D01*
X021982Y013074D01*
X022573Y015239D02*
X025083Y017749D01*
X025821Y017749D01*
X026441Y018369D01*
X026441Y018487D01*
X026559Y017552D02*
X027441Y018434D01*
X027441Y018487D01*
X026559Y017552D02*
X025230Y017552D01*
X024049Y017749D02*
X022476Y017749D01*
X022376Y017749D01*
X022124Y017749D01*
X021862Y018011D01*
X021862Y018487D01*
X021862Y018487D01*
X022376Y017749D02*
X022474Y017749D01*
X023557Y017552D02*
X023803Y017306D01*
X019423Y016273D02*
X016913Y016273D01*
X013616Y012975D01*
X013616Y012631D01*
X014502Y011745D02*
X014896Y011745D01*
X015437Y011745D01*
X015463Y011771D01*
X015780Y011771D01*
X015803Y011794D01*
X016323Y011794D01*
X016421Y012483D02*
X016386Y012519D01*
X015142Y011548D02*
X015585Y011105D01*
X015142Y011548D02*
X014896Y011548D01*
X014502Y011745D02*
X014158Y011400D01*
X013272Y011400D01*
X012041Y012631D02*
X011534Y012631D01*
X011158Y012550D01*
X011158Y013298D02*
X011500Y013349D01*
X011500Y013369D01*
X011451Y013320D01*
X011500Y013369D02*
X011549Y013369D01*
X012041Y013369D02*
X012093Y013420D01*
X012093Y013932D01*
X014896Y015633D02*
X015573Y016310D01*
X015573Y016315D01*
X017947Y018487D02*
X018685Y019225D01*
X015585Y020997D02*
X015486Y021095D01*
X015585Y020997D02*
X032366Y020997D01*
X029202Y018566D02*
X029202Y018177D01*
X031530Y012040D02*
X032305Y011265D01*
X032355Y011114D01*
X030053Y007538D02*
X031506Y006086D01*
X031530Y006086D01*
X032516Y005591D02*
X030111Y005591D01*
X030064Y005544D01*
X030059Y005544D01*
X030053Y005538D01*
X030004Y005052D02*
X029561Y005052D01*
X029266Y005347D01*
X029266Y006135D01*
X029660Y006528D01*
X030053Y006528D01*
X030053Y006538D01*
X031530Y005101D02*
X031530Y004904D01*
X030447Y003822D01*
X030427Y003822D01*
X029679Y003822D02*
X029138Y003822D01*
X029138Y004461D02*
X028941Y004560D01*
X029679Y004560D01*
X030004Y005052D02*
X030280Y004776D01*
X030427Y004560D01*
X031530Y004117D02*
X030496Y003084D01*
X030427Y003084D01*
X029679Y003084D02*
X028941Y003084D01*
X029138Y003182D01*
X025293Y004363D02*
X023065Y004363D01*
X019522Y005101D02*
X019014Y004593D01*
X019014Y004511D01*
X019006Y003280D02*
X019006Y002418D01*
X020801Y000623D01*
X033301Y000623D01*
X033597Y000918D01*
X033597Y004511D01*
X032516Y005591D01*
X026559Y007710D02*
X026208Y007710D01*
X026226Y007678D01*
X025728Y007980D02*
X025728Y007280D01*
X025578Y007130D01*
X024928Y007679D02*
X024928Y007680D01*
X024928Y007679D02*
X024927Y007678D01*
X024880Y007678D01*
X024878Y007680D01*
X024937Y007739D01*
X024887Y007789D01*
X024887Y008666D01*
X023557Y009826D02*
X023262Y009826D01*
X023557Y010121D02*
X023656Y010219D01*
X023852Y010219D01*
X011352Y010958D02*
X011008Y010958D01*
X010614Y010564D01*
X010073Y010564D01*
X010073Y011154D02*
X007957Y011154D01*
X007563Y010761D01*
X010073Y011745D02*
X010467Y011745D01*
X010614Y011597D01*
X011057Y011154D01*
X011352Y011154D01*
D25*
X015732Y009481D03*
X022032Y013861D03*
D26*
X000863Y005995D02*
X000863Y000665D01*
X012883Y000665D01*
X012883Y005586D01*
X012957Y005765D01*
X012998Y005806D01*
X009776Y005806D01*
X009673Y005849D01*
X009612Y005910D01*
X009612Y005386D01*
X009551Y005325D01*
X009560Y005311D01*
X009572Y005265D01*
X009572Y005033D01*
X009144Y005033D01*
X009144Y004937D01*
X009144Y004549D01*
X009415Y004549D01*
X009461Y004561D01*
X009502Y004585D01*
X009536Y004619D01*
X009560Y004660D01*
X009572Y004706D01*
X009572Y004937D01*
X009144Y004937D01*
X009049Y004937D01*
X009049Y004549D01*
X008778Y004549D01*
X008732Y004561D01*
X008691Y004585D01*
X008657Y004619D01*
X008634Y004660D01*
X008621Y004706D01*
X008621Y004937D01*
X009049Y004937D01*
X009049Y005033D01*
X008621Y005033D01*
X008621Y005265D01*
X008634Y005311D01*
X008642Y005325D01*
X008623Y005344D01*
X008057Y005344D01*
X008053Y005348D01*
X008053Y005099D01*
X007924Y004970D01*
X007361Y004970D01*
X007278Y004887D01*
X006505Y004887D01*
X006494Y004899D01*
X006265Y004899D01*
X006262Y004898D01*
X006151Y004898D01*
X006149Y004899D01*
X005820Y004899D01*
X005691Y005028D01*
X005691Y005121D01*
X005650Y005138D01*
X005571Y005217D01*
X005260Y005529D01*
X005217Y005632D01*
X005217Y006004D01*
X005194Y005995D01*
X000863Y005995D01*
X000863Y005886D02*
X005217Y005886D01*
X005217Y005728D02*
X000863Y005728D01*
X000863Y005569D02*
X005243Y005569D01*
X005378Y005411D02*
X000863Y005411D01*
X000863Y005252D02*
X005536Y005252D01*
X005691Y005094D02*
X000863Y005094D01*
X000863Y004935D02*
X005784Y004935D01*
X007326Y004935D02*
X008621Y004935D01*
X008621Y004777D02*
X000863Y004777D01*
X000863Y004618D02*
X008658Y004618D01*
X009049Y004618D02*
X009144Y004618D01*
X009144Y004777D02*
X009049Y004777D01*
X009049Y004935D02*
X009144Y004935D01*
X009572Y004935D02*
X012883Y004935D01*
X012883Y004777D02*
X009572Y004777D01*
X009535Y004618D02*
X012883Y004618D01*
X012883Y004460D02*
X000863Y004460D01*
X000863Y004301D02*
X012883Y004301D01*
X012883Y004143D02*
X000863Y004143D01*
X000863Y003984D02*
X012883Y003984D01*
X012883Y003826D02*
X000863Y003826D01*
X000863Y003667D02*
X012883Y003667D01*
X012883Y003509D02*
X000863Y003509D01*
X000863Y003350D02*
X012883Y003350D01*
X012883Y003192D02*
X000863Y003192D01*
X000863Y003033D02*
X001570Y003033D01*
X001643Y003063D02*
X001433Y002976D01*
X001273Y002816D01*
X001186Y002606D01*
X001186Y002380D01*
X001273Y002170D01*
X001433Y002010D01*
X001643Y001923D01*
X001869Y001923D01*
X002079Y002010D01*
X002239Y002170D01*
X002271Y002247D01*
X002287Y002215D01*
X002336Y002148D01*
X002395Y002089D01*
X002462Y002040D01*
X002537Y002002D01*
X002616Y001976D01*
X002699Y001963D01*
X002732Y001963D01*
X002732Y002484D01*
X002749Y002484D01*
X002749Y001963D01*
X002782Y001963D01*
X002864Y001976D01*
X002944Y002002D01*
X003018Y002040D01*
X003085Y002089D01*
X003144Y002148D01*
X003194Y002215D01*
X003210Y002247D01*
X003241Y002170D01*
X003402Y002010D01*
X003611Y001923D01*
X003838Y001923D01*
X004047Y002010D01*
X004208Y002170D01*
X004217Y002192D01*
X004225Y002170D01*
X004386Y002010D01*
X004595Y001923D01*
X004822Y001923D01*
X005032Y002010D01*
X005192Y002170D01*
X005201Y002192D01*
X005210Y002170D01*
X005370Y002010D01*
X005580Y001923D01*
X005806Y001923D01*
X006016Y002010D01*
X006176Y002170D01*
X006263Y002380D01*
X006263Y002606D01*
X006176Y002816D01*
X006016Y002976D01*
X005806Y003063D01*
X005580Y003063D01*
X005370Y002976D01*
X005210Y002816D01*
X005201Y002794D01*
X005192Y002816D01*
X005032Y002976D01*
X004822Y003063D01*
X004595Y003063D01*
X004386Y002976D01*
X004225Y002816D01*
X004217Y002794D01*
X004208Y002816D01*
X004047Y002976D01*
X003838Y003063D01*
X003611Y003063D01*
X003402Y002976D01*
X003241Y002816D01*
X003210Y002739D01*
X003194Y002771D01*
X003144Y002838D01*
X003085Y002897D01*
X003018Y002946D01*
X002944Y002984D01*
X002864Y003010D01*
X002782Y003023D01*
X002749Y003023D01*
X002749Y002502D01*
X002732Y002502D01*
X002732Y003023D01*
X002699Y003023D01*
X002616Y003010D01*
X002537Y002984D01*
X002462Y002946D01*
X002395Y002897D01*
X002336Y002838D01*
X002287Y002771D01*
X002271Y002739D01*
X002239Y002816D01*
X002079Y002976D01*
X001869Y003063D01*
X001643Y003063D01*
X001942Y003033D02*
X003539Y003033D01*
X003300Y002875D02*
X003108Y002875D01*
X002749Y002875D02*
X002732Y002875D01*
X002732Y002716D02*
X002749Y002716D01*
X002732Y002558D02*
X002749Y002558D01*
X002732Y002399D02*
X002749Y002399D01*
X002732Y002241D02*
X002749Y002241D01*
X002732Y002082D02*
X002749Y002082D01*
X003076Y002082D02*
X003329Y002082D01*
X003212Y002241D02*
X003206Y002241D01*
X003610Y001924D02*
X001871Y001924D01*
X001641Y001924D02*
X000863Y001924D01*
X000863Y002082D02*
X001361Y002082D01*
X001244Y002241D02*
X000863Y002241D01*
X000863Y002399D02*
X001186Y002399D01*
X001186Y002558D02*
X000863Y002558D01*
X000863Y002716D02*
X001231Y002716D01*
X001331Y002875D02*
X000863Y002875D01*
X002181Y002875D02*
X002372Y002875D01*
X002274Y002241D02*
X002268Y002241D01*
X002151Y002082D02*
X002404Y002082D01*
X000863Y001765D02*
X012883Y001765D01*
X012883Y001607D02*
X000863Y001607D01*
X000863Y001448D02*
X012883Y001448D01*
X012883Y001290D02*
X000863Y001290D01*
X000863Y001131D02*
X012883Y001131D01*
X012883Y000973D02*
X000863Y000973D01*
X000863Y000814D02*
X012883Y000814D01*
X012883Y001924D02*
X012107Y001924D01*
X012106Y001923D02*
X012315Y002010D01*
X012475Y002170D01*
X012562Y002380D01*
X012562Y002606D01*
X012475Y002816D01*
X012315Y002976D01*
X012106Y003063D01*
X011879Y003063D01*
X011669Y002976D01*
X011509Y002816D01*
X011500Y002794D01*
X011491Y002816D01*
X011331Y002976D01*
X011121Y003063D01*
X010895Y003063D01*
X010685Y002976D01*
X010525Y002816D01*
X010516Y002794D01*
X010507Y002816D01*
X010347Y002976D01*
X010137Y003063D01*
X009910Y003063D01*
X009701Y002976D01*
X009540Y002816D01*
X009509Y002739D01*
X009493Y002771D01*
X009444Y002838D01*
X009385Y002897D01*
X009317Y002946D01*
X009243Y002984D01*
X009164Y003010D01*
X009081Y003023D01*
X009048Y003023D01*
X009048Y002502D01*
X009031Y002502D01*
X009031Y003023D01*
X008998Y003023D01*
X008915Y003010D01*
X008836Y002984D01*
X008762Y002946D01*
X008694Y002897D01*
X008635Y002838D01*
X008586Y002771D01*
X008570Y002739D01*
X008538Y002816D01*
X008378Y002976D01*
X008169Y003063D01*
X007942Y003063D01*
X007732Y002976D01*
X007572Y002816D01*
X007485Y002606D01*
X007485Y002380D01*
X007572Y002170D01*
X007732Y002010D01*
X007942Y001923D01*
X008169Y001923D01*
X008378Y002010D01*
X008538Y002170D01*
X008570Y002247D01*
X008586Y002215D01*
X008635Y002148D01*
X008694Y002089D01*
X008762Y002040D01*
X008836Y002002D01*
X008915Y001976D01*
X008998Y001963D01*
X009031Y001963D01*
X009031Y002484D01*
X009048Y002484D01*
X009048Y001963D01*
X009081Y001963D01*
X009164Y001976D01*
X009243Y002002D01*
X009317Y002040D01*
X009385Y002089D01*
X009444Y002148D01*
X009493Y002215D01*
X009509Y002247D01*
X009540Y002170D01*
X009701Y002010D01*
X009910Y001923D01*
X010137Y001923D01*
X010347Y002010D01*
X010507Y002170D01*
X010516Y002192D01*
X010525Y002170D01*
X010685Y002010D01*
X010895Y001923D01*
X011121Y001923D01*
X011331Y002010D01*
X011491Y002170D01*
X011500Y002192D01*
X011509Y002170D01*
X011669Y002010D01*
X011879Y001923D01*
X012106Y001923D01*
X011878Y001924D02*
X011123Y001924D01*
X010893Y001924D02*
X010138Y001924D01*
X009909Y001924D02*
X008170Y001924D01*
X007941Y001924D02*
X005808Y001924D01*
X005578Y001924D02*
X004823Y001924D01*
X004594Y001924D02*
X003839Y001924D01*
X004120Y002082D02*
X004314Y002082D01*
X005104Y002082D02*
X005298Y002082D01*
X006088Y002082D02*
X007660Y002082D01*
X007543Y002241D02*
X006205Y002241D01*
X006263Y002399D02*
X007485Y002399D01*
X007485Y002558D02*
X006263Y002558D01*
X006218Y002716D02*
X007531Y002716D01*
X007631Y002875D02*
X006118Y002875D01*
X005879Y003033D02*
X007869Y003033D01*
X008241Y003033D02*
X009838Y003033D01*
X009599Y002875D02*
X009407Y002875D01*
X009048Y002875D02*
X009031Y002875D01*
X009031Y002716D02*
X009048Y002716D01*
X009031Y002558D02*
X009048Y002558D01*
X009031Y002399D02*
X009048Y002399D01*
X009031Y002241D02*
X009048Y002241D01*
X009031Y002082D02*
X009048Y002082D01*
X009375Y002082D02*
X009629Y002082D01*
X009511Y002241D02*
X009506Y002241D01*
X008703Y002082D02*
X008450Y002082D01*
X008568Y002241D02*
X008573Y002241D01*
X008480Y002875D02*
X008671Y002875D01*
X010209Y003033D02*
X010822Y003033D01*
X010583Y002875D02*
X010448Y002875D01*
X011194Y003033D02*
X011806Y003033D01*
X011568Y002875D02*
X011433Y002875D01*
X012178Y003033D02*
X012883Y003033D01*
X012883Y002875D02*
X012417Y002875D01*
X012517Y002716D02*
X012883Y002716D01*
X012883Y002558D02*
X012562Y002558D01*
X012562Y002399D02*
X012883Y002399D01*
X012883Y002241D02*
X012505Y002241D01*
X012387Y002082D02*
X012883Y002082D01*
X011597Y002082D02*
X011403Y002082D01*
X010613Y002082D02*
X010419Y002082D01*
X009572Y005094D02*
X012883Y005094D01*
X012883Y005252D02*
X009572Y005252D01*
X009612Y005411D02*
X012883Y005411D01*
X012883Y005569D02*
X009612Y005569D01*
X009612Y005728D02*
X012941Y005728D01*
X013004Y006366D02*
X009948Y006366D01*
X009103Y007211D01*
X009103Y009494D01*
X009060Y009597D01*
X008662Y009995D01*
X008583Y010074D01*
X008562Y010083D01*
X008363Y010282D01*
X008284Y010360D01*
X008181Y010403D01*
X006725Y010403D01*
X006622Y010360D01*
X006123Y009862D01*
X006045Y009783D01*
X006002Y009680D01*
X006002Y007273D01*
X005583Y006854D01*
X005583Y013865D01*
X007123Y013865D01*
X007093Y013852D01*
X006932Y013692D01*
X006845Y013482D01*
X006845Y013256D01*
X006932Y013046D01*
X007093Y012886D01*
X007114Y012877D01*
X007093Y012868D01*
X006932Y012708D01*
X006845Y012498D01*
X006845Y012271D01*
X006932Y012062D01*
X007093Y011902D01*
X007114Y011893D01*
X007093Y011884D01*
X006932Y011723D01*
X006845Y011514D01*
X006845Y011287D01*
X006932Y011078D01*
X007093Y010917D01*
X007302Y010830D01*
X007529Y010830D01*
X007738Y010917D01*
X007899Y011078D01*
X007985Y011287D01*
X007985Y011514D01*
X007899Y011723D01*
X007738Y011884D01*
X007717Y011893D01*
X007738Y011902D01*
X007899Y012062D01*
X007985Y012271D01*
X007985Y012498D01*
X007899Y012708D01*
X007738Y012868D01*
X007717Y012877D01*
X007738Y012886D01*
X007899Y013046D01*
X007985Y013256D01*
X007985Y013482D01*
X007899Y013692D01*
X007738Y013852D01*
X007707Y013865D01*
X009134Y013865D01*
X009313Y013939D01*
X009449Y014075D01*
X009523Y014254D01*
X009523Y021745D01*
X010999Y021745D01*
X010869Y021615D01*
X010782Y021406D01*
X010782Y021179D01*
X010869Y020969D01*
X011030Y020809D01*
X011051Y020800D01*
X011030Y020791D01*
X010869Y020631D01*
X010782Y020421D01*
X010782Y020195D01*
X010869Y019985D01*
X011030Y019825D01*
X011051Y019816D01*
X011030Y019807D01*
X010869Y019647D01*
X010782Y019437D01*
X010782Y019210D01*
X010869Y019001D01*
X011030Y018840D01*
X011239Y018754D01*
X011466Y018754D01*
X011675Y018840D01*
X011836Y019001D01*
X011922Y019210D01*
X011922Y019437D01*
X011836Y019647D01*
X011675Y019807D01*
X011654Y019816D01*
X011675Y019825D01*
X011836Y019985D01*
X011922Y020195D01*
X011922Y020421D01*
X011836Y020631D01*
X011675Y020791D01*
X011654Y020800D01*
X011675Y020809D01*
X011836Y020969D01*
X011922Y021179D01*
X011922Y021406D01*
X011836Y021615D01*
X011706Y021745D01*
X033353Y021745D01*
X033353Y020554D01*
X033017Y020890D01*
X032914Y020932D01*
X032765Y020932D01*
X032765Y021076D01*
X032704Y021223D01*
X032592Y021335D01*
X032445Y021395D01*
X032287Y021395D01*
X032141Y021335D01*
X032083Y021277D01*
X015842Y021277D01*
X015824Y021321D01*
X015712Y021433D01*
X015566Y021494D01*
X015407Y021494D01*
X015261Y021433D01*
X015149Y021321D01*
X015088Y021175D01*
X015088Y021016D01*
X015123Y020932D01*
X014791Y020932D01*
X014688Y020890D01*
X014609Y020811D01*
X012493Y018695D01*
X012450Y018592D01*
X012450Y014666D01*
X012230Y014445D01*
X012214Y014407D01*
X012141Y014407D01*
X012141Y013980D01*
X012045Y013980D01*
X012045Y014407D01*
X011813Y014407D01*
X011767Y014395D01*
X011726Y014371D01*
X011693Y014338D01*
X011669Y014297D01*
X011657Y014251D01*
X011657Y013980D01*
X012045Y013980D01*
X012045Y013884D01*
X012141Y013884D01*
X012141Y013457D01*
X012187Y013457D01*
X012187Y013035D01*
X012189Y013031D01*
X012172Y013048D01*
X011911Y013048D01*
X011782Y012919D01*
X011782Y012911D01*
X011659Y012911D01*
X011612Y012958D01*
X011621Y012973D01*
X011633Y013019D01*
X011882Y013019D01*
X011633Y013019D02*
X011633Y013250D01*
X011205Y013250D01*
X011205Y013346D01*
X011110Y013346D01*
X011110Y013734D01*
X010839Y013734D01*
X010793Y013722D01*
X010752Y013698D01*
X010718Y013665D01*
X010695Y013623D01*
X010682Y013578D01*
X010682Y013346D01*
X011110Y013346D01*
X011110Y013250D01*
X010682Y013250D01*
X010682Y013222D01*
X010648Y013256D01*
X010648Y014611D01*
X010706Y014669D01*
X010767Y014815D01*
X010767Y014974D01*
X010706Y015120D01*
X010594Y015232D01*
X010447Y015293D01*
X010289Y015293D01*
X010142Y015232D01*
X010030Y015120D01*
X009970Y014974D01*
X009970Y014815D01*
X010030Y014669D01*
X010088Y014611D01*
X010088Y013084D01*
X010131Y012981D01*
X010642Y012470D01*
X010642Y012203D01*
X010771Y012074D01*
X010777Y012074D01*
X010777Y011985D01*
X010820Y011882D01*
X010899Y011803D01*
X010936Y011766D01*
X010936Y011672D01*
X010852Y011756D01*
X010687Y011921D01*
X010687Y011994D01*
X010558Y012122D01*
X009588Y012122D01*
X009459Y011994D01*
X009459Y011496D01*
X009534Y011421D01*
X009511Y011381D01*
X009499Y011336D01*
X009499Y011154D01*
X009499Y010973D01*
X009511Y010927D01*
X009534Y010888D01*
X009459Y010812D01*
X009459Y010315D01*
X009588Y010186D01*
X010482Y010186D01*
X010482Y008739D01*
X009103Y008739D01*
X009103Y008581D02*
X010298Y008581D01*
X010298Y008610D02*
X010298Y008109D01*
X010155Y008109D01*
X010026Y007980D01*
X010026Y007246D01*
X010155Y007117D01*
X010527Y007117D01*
X010536Y007096D01*
X011002Y006630D01*
X011081Y006552D01*
X011184Y006509D01*
X012919Y006509D01*
X012962Y006509D01*
X013026Y006445D01*
X013066Y006429D01*
X013004Y006366D01*
X011157Y006520D02*
X009794Y006520D01*
X009636Y006679D02*
X010954Y006679D01*
X010795Y006837D02*
X009477Y006837D01*
X009319Y006996D02*
X010637Y006996D01*
X010118Y007154D02*
X009160Y007154D01*
X009103Y007313D02*
X010026Y007313D01*
X010026Y007471D02*
X009103Y007471D01*
X009103Y007630D02*
X010026Y007630D01*
X010026Y007788D02*
X009103Y007788D01*
X009103Y007947D02*
X010026Y007947D01*
X010151Y008105D02*
X009103Y008105D01*
X009103Y008264D02*
X010298Y008264D01*
X010298Y008422D02*
X009103Y008422D01*
X009103Y008898D02*
X010482Y008898D01*
X010482Y009056D02*
X009103Y009056D01*
X009103Y009215D02*
X010482Y009215D01*
X010482Y009373D02*
X009103Y009373D01*
X009087Y009532D02*
X010482Y009532D01*
X010482Y009690D02*
X008967Y009690D01*
X008808Y009849D02*
X010482Y009849D01*
X010482Y010007D02*
X008650Y010007D01*
X008479Y010166D02*
X010482Y010166D01*
X009459Y010324D02*
X008320Y010324D01*
X007779Y010958D02*
X009503Y010958D01*
X009499Y011117D02*
X007915Y011117D01*
X007980Y011275D02*
X009499Y011275D01*
X009499Y011154D02*
X010073Y011154D01*
X010073Y011154D01*
X010647Y011154D01*
X010647Y010992D01*
X010735Y011081D01*
X010647Y011169D01*
X010647Y011154D01*
X010073Y011154D01*
X009499Y011154D01*
X009522Y011434D02*
X007985Y011434D01*
X007953Y011592D02*
X009459Y011592D01*
X009459Y011751D02*
X007871Y011751D01*
X007746Y011909D02*
X009459Y011909D01*
X009533Y012068D02*
X007901Y012068D01*
X007967Y012226D02*
X010642Y012226D01*
X010642Y012385D02*
X007985Y012385D01*
X007967Y012543D02*
X010569Y012543D01*
X010411Y012702D02*
X007901Y012702D01*
X007746Y012860D02*
X010252Y012860D01*
X010115Y013019D02*
X007871Y013019D01*
X007953Y013177D02*
X010088Y013177D01*
X010088Y013336D02*
X007985Y013336D01*
X007981Y013494D02*
X010088Y013494D01*
X010088Y013653D02*
X007915Y013653D01*
X007779Y013811D02*
X010088Y013811D01*
X010088Y013970D02*
X009343Y013970D01*
X009471Y014128D02*
X010088Y014128D01*
X010088Y014287D02*
X009523Y014287D01*
X009523Y014445D02*
X010088Y014445D01*
X010088Y014604D02*
X009523Y014604D01*
X009523Y014762D02*
X009992Y014762D01*
X009970Y014921D02*
X009523Y014921D01*
X009523Y015079D02*
X010013Y015079D01*
X010155Y015238D02*
X009523Y015238D01*
X009523Y015396D02*
X010790Y015396D01*
X010790Y015429D02*
X010790Y015202D01*
X010877Y014993D01*
X011037Y014833D01*
X011247Y014746D01*
X011474Y014746D01*
X011683Y014833D01*
X011844Y014993D01*
X011930Y015202D01*
X011930Y015429D01*
X011844Y015639D01*
X011683Y015799D01*
X011662Y015808D01*
X011683Y015817D01*
X011844Y015977D01*
X011930Y016187D01*
X011930Y016413D01*
X011844Y016623D01*
X011683Y016783D01*
X011662Y016792D01*
X011683Y016801D01*
X011844Y016961D01*
X011930Y017171D01*
X011930Y017398D01*
X011844Y017607D01*
X011683Y017768D01*
X011474Y017854D01*
X011247Y017854D01*
X011037Y017768D01*
X010877Y017607D01*
X010790Y017398D01*
X010790Y017171D01*
X010877Y016961D01*
X011037Y016801D01*
X011059Y016792D01*
X011037Y016783D01*
X010877Y016623D01*
X010790Y016413D01*
X010790Y016187D01*
X010877Y015977D01*
X011037Y015817D01*
X011059Y015808D01*
X011037Y015799D01*
X010877Y015639D01*
X010790Y015429D01*
X010842Y015555D02*
X009523Y015555D01*
X009523Y015713D02*
X010951Y015713D01*
X010983Y015872D02*
X009523Y015872D01*
X009523Y016030D02*
X010855Y016030D01*
X010790Y016189D02*
X009523Y016189D01*
X009523Y016347D02*
X010790Y016347D01*
X010828Y016506D02*
X009523Y016506D01*
X009523Y016664D02*
X010918Y016664D01*
X011016Y016823D02*
X009523Y016823D01*
X009523Y016981D02*
X010869Y016981D01*
X010803Y017140D02*
X009523Y017140D01*
X009523Y017298D02*
X010790Y017298D01*
X010815Y017457D02*
X009523Y017457D01*
X009523Y017615D02*
X010885Y017615D01*
X011052Y017774D02*
X009523Y017774D01*
X009523Y017932D02*
X012450Y017932D01*
X012450Y017774D02*
X011669Y017774D01*
X011836Y017615D02*
X012450Y017615D01*
X012450Y017457D02*
X011906Y017457D01*
X011930Y017298D02*
X012450Y017298D01*
X012450Y017140D02*
X011917Y017140D01*
X011852Y016981D02*
X012450Y016981D01*
X012450Y016823D02*
X011705Y016823D01*
X011802Y016664D02*
X012450Y016664D01*
X012450Y016506D02*
X011892Y016506D01*
X011930Y016347D02*
X012450Y016347D01*
X012450Y016189D02*
X011930Y016189D01*
X011865Y016030D02*
X012450Y016030D01*
X012450Y015872D02*
X011738Y015872D01*
X011769Y015713D02*
X012450Y015713D01*
X012450Y015555D02*
X011878Y015555D01*
X011930Y015396D02*
X012450Y015396D01*
X012450Y015238D02*
X011930Y015238D01*
X011879Y015079D02*
X012450Y015079D01*
X012450Y014921D02*
X011771Y014921D01*
X011513Y014762D02*
X012450Y014762D01*
X012388Y014604D02*
X010648Y014604D01*
X010648Y014445D02*
X012229Y014445D01*
X012141Y014287D02*
X012045Y014287D01*
X012045Y014128D02*
X012141Y014128D01*
X012045Y013970D02*
X010648Y013970D01*
X010648Y014128D02*
X011657Y014128D01*
X011666Y014287D02*
X010648Y014287D01*
X010648Y013811D02*
X011657Y013811D01*
X011657Y013884D02*
X011657Y013613D01*
X011669Y013567D01*
X011693Y013526D01*
X011726Y013493D01*
X011767Y013469D01*
X011813Y013457D01*
X012045Y013457D01*
X012045Y013884D01*
X011657Y013884D01*
X011563Y013698D02*
X011522Y013722D01*
X011477Y013734D01*
X011205Y013734D01*
X011205Y013346D01*
X011633Y013346D01*
X011633Y013578D01*
X011621Y013623D01*
X011597Y013665D01*
X011563Y013698D01*
X011604Y013653D02*
X011657Y013653D01*
X011633Y013494D02*
X011725Y013494D01*
X012045Y013494D02*
X012141Y013494D01*
X012141Y013653D02*
X012045Y013653D01*
X012045Y013811D02*
X012141Y013811D01*
X012187Y013336D02*
X011205Y013336D01*
X011110Y013336D02*
X010648Y013336D01*
X010648Y013494D02*
X010682Y013494D01*
X010711Y013653D02*
X010648Y013653D01*
X011110Y013653D02*
X011205Y013653D01*
X011205Y013494D02*
X011110Y013494D01*
X011633Y013177D02*
X012187Y013177D01*
X013317Y013957D02*
X013317Y014318D01*
X013188Y014447D01*
X012991Y014447D01*
X013010Y014494D01*
X013010Y018420D01*
X014424Y019834D01*
X014424Y019834D01*
X014424Y019801D01*
X014511Y019591D01*
X014671Y019431D01*
X014881Y019344D01*
X015108Y019344D01*
X015317Y019431D01*
X015477Y019591D01*
X015486Y019613D01*
X015495Y019591D01*
X015574Y019512D01*
X015253Y019191D01*
X015216Y019228D01*
X015025Y019307D01*
X014818Y019307D01*
X014627Y019228D01*
X014480Y019082D01*
X014401Y018891D01*
X014401Y018084D01*
X014480Y017893D01*
X014627Y017746D01*
X014818Y017667D01*
X015025Y017667D01*
X015216Y017746D01*
X015362Y017893D01*
X015421Y018035D01*
X015480Y017893D01*
X015627Y017746D01*
X015641Y017740D01*
X015641Y016282D01*
X013317Y013957D01*
X013317Y013970D02*
X013329Y013970D01*
X013317Y014128D02*
X013487Y014128D01*
X013646Y014287D02*
X013317Y014287D01*
X013190Y014445D02*
X013804Y014445D01*
X013963Y014604D02*
X013010Y014604D01*
X013010Y014762D02*
X014121Y014762D01*
X014280Y014921D02*
X013010Y014921D01*
X013010Y015079D02*
X014438Y015079D01*
X014597Y015238D02*
X013010Y015238D01*
X013010Y015396D02*
X014755Y015396D01*
X014914Y015555D02*
X013010Y015555D01*
X013010Y015713D02*
X015072Y015713D01*
X015231Y015872D02*
X013010Y015872D01*
X013010Y016030D02*
X015389Y016030D01*
X015548Y016189D02*
X013010Y016189D01*
X013010Y016347D02*
X015641Y016347D01*
X015641Y016506D02*
X013010Y016506D01*
X013010Y016664D02*
X015641Y016664D01*
X015641Y016823D02*
X013010Y016823D01*
X013010Y016981D02*
X015641Y016981D01*
X015641Y017140D02*
X013010Y017140D01*
X013010Y017298D02*
X015641Y017298D01*
X015641Y017457D02*
X013010Y017457D01*
X013010Y017615D02*
X015641Y017615D01*
X015599Y017774D02*
X015243Y017774D01*
X015379Y017932D02*
X015464Y017932D01*
X014599Y017774D02*
X013010Y017774D01*
X013010Y017932D02*
X014464Y017932D01*
X014401Y018091D02*
X013010Y018091D01*
X013010Y018249D02*
X014401Y018249D01*
X014401Y018408D02*
X013010Y018408D01*
X013156Y018566D02*
X014401Y018566D01*
X014401Y018725D02*
X013315Y018725D01*
X013473Y018883D02*
X014401Y018883D01*
X014464Y019042D02*
X013632Y019042D01*
X013790Y019200D02*
X014599Y019200D01*
X014846Y019359D02*
X013949Y019359D01*
X014107Y019517D02*
X014585Y019517D01*
X014476Y019676D02*
X014266Y019676D01*
X013791Y019993D02*
X011839Y019993D01*
X011904Y020151D02*
X013949Y020151D01*
X014108Y020310D02*
X011922Y020310D01*
X011903Y020468D02*
X014266Y020468D01*
X014425Y020627D02*
X011837Y020627D01*
X011681Y020785D02*
X014583Y020785D01*
X015118Y020944D02*
X011810Y020944D01*
X011891Y021102D02*
X015088Y021102D01*
X015123Y021261D02*
X011922Y021261D01*
X011917Y021419D02*
X015246Y021419D01*
X015726Y021419D02*
X033353Y021419D01*
X033353Y021261D02*
X032666Y021261D01*
X032754Y021102D02*
X033353Y021102D01*
X033353Y020944D02*
X032765Y020944D01*
X033122Y020785D02*
X033353Y020785D01*
X033353Y020627D02*
X033280Y020627D01*
X033353Y021578D02*
X011851Y021578D01*
X011715Y021736D02*
X033353Y021736D01*
X031761Y019344D02*
X031551Y019431D01*
X031391Y019591D01*
X031382Y019613D01*
X031373Y019591D01*
X031213Y019431D01*
X031003Y019344D01*
X030776Y019344D01*
X030567Y019431D01*
X030407Y019591D01*
X030398Y019613D01*
X030389Y019591D01*
X030228Y019431D01*
X030019Y019344D01*
X029792Y019344D01*
X029583Y019431D01*
X029422Y019591D01*
X029336Y019801D01*
X029336Y020028D01*
X029376Y020126D01*
X028496Y020126D01*
X028440Y020071D01*
X028458Y020028D01*
X028458Y019801D01*
X028371Y019591D01*
X028211Y019431D01*
X028001Y019344D01*
X027774Y019344D01*
X027565Y019431D01*
X027405Y019591D01*
X027396Y019613D01*
X027387Y019591D01*
X027226Y019431D01*
X027017Y019344D01*
X026790Y019344D01*
X026581Y019431D01*
X026420Y019591D01*
X026411Y019613D01*
X026403Y019591D01*
X026242Y019431D01*
X026033Y019344D01*
X025806Y019344D01*
X025596Y019431D01*
X025436Y019591D01*
X025427Y019613D01*
X025418Y019591D01*
X025258Y019431D01*
X025048Y019344D01*
X024822Y019344D01*
X024612Y019431D01*
X024603Y019440D01*
X024584Y019393D01*
X024498Y019307D01*
X024544Y019307D01*
X024736Y019228D01*
X024882Y019082D01*
X024941Y018939D01*
X025000Y019082D01*
X025146Y019228D01*
X025338Y019307D01*
X025544Y019307D01*
X025736Y019228D01*
X025882Y019082D01*
X025941Y018939D01*
X026000Y019082D01*
X026146Y019228D01*
X026338Y019307D01*
X026544Y019307D01*
X026736Y019228D01*
X026882Y019082D01*
X026941Y018939D01*
X027000Y019082D01*
X027146Y019228D01*
X027338Y019307D01*
X027544Y019307D01*
X027736Y019228D01*
X027882Y019082D01*
X027961Y018891D01*
X027961Y018084D01*
X027910Y017960D01*
X028018Y017960D01*
X027996Y018003D01*
X027973Y018075D01*
X027961Y018149D01*
X027961Y018467D01*
X028421Y018467D01*
X028421Y018507D01*
X027961Y018507D01*
X027961Y018825D01*
X027973Y018899D01*
X027996Y018971D01*
X028030Y019039D01*
X028075Y019100D01*
X028128Y019153D01*
X028189Y019198D01*
X028257Y019232D01*
X028329Y019255D01*
X028403Y019267D01*
X028421Y019267D01*
X028421Y018507D01*
X028461Y018507D01*
X028803Y018507D01*
X028803Y018487D01*
X028812Y018467D01*
X028461Y018467D01*
X028461Y018507D01*
X028461Y019267D01*
X028479Y019267D01*
X028553Y019255D01*
X028625Y019232D01*
X028693Y019198D01*
X028754Y019153D01*
X028807Y019100D01*
X028852Y019039D01*
X028886Y018971D01*
X028909Y018899D01*
X028918Y018846D01*
X028976Y018904D01*
X029122Y018965D01*
X029281Y018965D01*
X029384Y018922D01*
X029464Y019002D01*
X029610Y019062D01*
X029769Y019062D01*
X029895Y019010D01*
X030002Y019118D01*
X030149Y019178D01*
X030307Y019178D01*
X030454Y019118D01*
X030566Y019006D01*
X030626Y018859D01*
X030626Y018701D01*
X030566Y018554D01*
X030499Y018488D01*
X030575Y018457D01*
X030687Y018345D01*
X030748Y018198D01*
X030748Y018040D01*
X030687Y017893D01*
X030575Y017781D01*
X030428Y017721D01*
X030270Y017721D01*
X030124Y017781D01*
X030123Y017782D01*
X029899Y017558D01*
X030043Y017558D01*
X030043Y017098D01*
X030083Y017098D01*
X030083Y017558D01*
X030401Y017558D01*
X030475Y017546D01*
X030547Y017522D01*
X030615Y017488D01*
X030676Y017444D01*
X030729Y017390D01*
X030774Y017329D01*
X030808Y017262D01*
X030831Y017190D01*
X030843Y017115D01*
X030843Y017098D01*
X030083Y017098D01*
X030083Y017058D01*
X030843Y017058D01*
X030843Y017040D01*
X030831Y016965D01*
X030808Y016893D01*
X030774Y016826D01*
X030729Y016765D01*
X030676Y016712D01*
X030615Y016667D01*
X030547Y016633D01*
X030475Y016609D01*
X030401Y016598D01*
X030083Y016598D01*
X030083Y017058D01*
X030043Y017058D01*
X030043Y016598D01*
X029725Y016598D01*
X029651Y016609D01*
X029579Y016633D01*
X029511Y016667D01*
X029450Y016712D01*
X029397Y016765D01*
X029353Y016826D01*
X029318Y016893D01*
X029298Y016956D01*
X029243Y016901D01*
X029163Y016821D01*
X029084Y016743D01*
X028981Y016700D01*
X028171Y016700D01*
X028176Y016695D01*
X028237Y016549D01*
X028237Y016390D01*
X028211Y016326D01*
X029276Y015261D01*
X029322Y015372D01*
X029468Y015518D01*
X029611Y015578D01*
X029468Y015637D01*
X029322Y015783D01*
X029243Y015974D01*
X029243Y016181D01*
X029322Y016372D01*
X029468Y016518D01*
X029660Y016598D01*
X030466Y016598D01*
X030658Y016518D01*
X030804Y016372D01*
X030883Y016181D01*
X030883Y015974D01*
X030804Y015783D01*
X030658Y015637D01*
X030515Y015578D01*
X030658Y015518D01*
X030804Y015372D01*
X030883Y015181D01*
X030883Y014974D01*
X030804Y014783D01*
X030658Y014637D01*
X030515Y014578D01*
X030658Y014518D01*
X030804Y014372D01*
X030883Y014181D01*
X030883Y013974D01*
X030804Y013783D01*
X030779Y013758D01*
X031165Y013371D01*
X031208Y013269D01*
X031208Y012524D01*
X031416Y012610D01*
X031643Y012610D01*
X031852Y012523D01*
X032013Y012363D01*
X032100Y012154D01*
X032100Y011927D01*
X032082Y011884D01*
X032317Y011649D01*
X032598Y011649D01*
X032598Y012544D01*
X031651Y013491D01*
X031643Y013488D01*
X031416Y013488D01*
X031207Y013575D01*
X031046Y013735D01*
X030960Y013945D01*
X030960Y014171D01*
X031046Y014381D01*
X031207Y014541D01*
X031228Y014550D01*
X031207Y014559D01*
X031046Y014719D01*
X030960Y014929D01*
X030960Y015156D01*
X031046Y015365D01*
X031207Y015525D01*
X031228Y015534D01*
X031207Y015543D01*
X031046Y015704D01*
X030960Y015913D01*
X030960Y016140D01*
X031046Y016349D01*
X031207Y016510D01*
X031228Y016519D01*
X031207Y016527D01*
X031046Y016688D01*
X030960Y016897D01*
X030960Y017124D01*
X031046Y017334D01*
X031207Y017494D01*
X031416Y017581D01*
X031643Y017581D01*
X031852Y017494D01*
X032013Y017334D01*
X032037Y017275D01*
X032037Y019089D01*
X031979Y019147D01*
X031919Y019294D01*
X031919Y019344D01*
X031761Y019344D01*
X031726Y019359D02*
X031038Y019359D01*
X030742Y019359D02*
X030053Y019359D01*
X029758Y019359D02*
X028036Y019359D01*
X028194Y019200D02*
X027763Y019200D01*
X027740Y019359D02*
X027051Y019359D01*
X027119Y019200D02*
X026763Y019200D01*
X026756Y019359D02*
X026067Y019359D01*
X026119Y019200D02*
X025763Y019200D01*
X025771Y019359D02*
X025083Y019359D01*
X025119Y019200D02*
X024763Y019200D01*
X024787Y019359D02*
X024549Y019359D01*
X024148Y019228D02*
X024146Y019228D01*
X024000Y019082D01*
X023921Y018891D01*
X023921Y018127D01*
X023824Y018087D01*
X023766Y018029D01*
X023316Y018029D01*
X023330Y018075D01*
X023342Y018149D01*
X023342Y018467D01*
X022882Y018467D01*
X022882Y018507D01*
X023342Y018507D01*
X023342Y018825D01*
X023330Y018899D01*
X023307Y018971D01*
X023273Y019039D01*
X023228Y019100D01*
X023177Y019151D01*
X023545Y019151D01*
X023648Y019194D01*
X023793Y019339D01*
X023963Y019339D01*
X024020Y019281D01*
X024148Y019228D01*
X024119Y019200D02*
X023654Y019200D01*
X023984Y019042D02*
X023271Y019042D01*
X023333Y018883D02*
X023921Y018883D01*
X023921Y018725D02*
X023342Y018725D01*
X023342Y018566D02*
X023921Y018566D01*
X023921Y018408D02*
X023342Y018408D01*
X023342Y018249D02*
X023921Y018249D01*
X023833Y018091D02*
X023333Y018091D01*
X022842Y018467D02*
X022382Y018467D01*
X022382Y018149D01*
X022394Y018075D01*
X022409Y018029D01*
X022360Y018029D01*
X022382Y018084D01*
X022382Y018891D01*
X022303Y019082D01*
X022233Y019151D01*
X022548Y019151D01*
X022496Y019100D01*
X022452Y019039D01*
X022417Y018971D01*
X022394Y018899D01*
X022382Y018825D01*
X022382Y018507D01*
X022842Y018507D01*
X022842Y018467D01*
X022382Y018408D02*
X022382Y018408D01*
X022382Y018566D02*
X022382Y018566D01*
X022382Y018725D02*
X022382Y018725D01*
X022382Y018883D02*
X022391Y018883D01*
X022454Y019042D02*
X022320Y019042D01*
X022382Y018249D02*
X022382Y018249D01*
X022382Y018091D02*
X022392Y018091D01*
X024898Y019042D02*
X024984Y019042D01*
X025344Y019517D02*
X025510Y019517D01*
X025898Y019042D02*
X025984Y019042D01*
X026328Y019517D02*
X026495Y019517D01*
X026898Y019042D02*
X026984Y019042D01*
X027312Y019517D02*
X027479Y019517D01*
X027898Y019042D02*
X028033Y019042D01*
X027970Y018883D02*
X027961Y018883D01*
X027961Y018725D02*
X027961Y018725D01*
X027961Y018566D02*
X027961Y018566D01*
X027961Y018408D02*
X027961Y018408D01*
X027961Y018249D02*
X027961Y018249D01*
X027961Y018091D02*
X027970Y018091D01*
X028421Y018566D02*
X028461Y018566D01*
X028461Y018725D02*
X028421Y018725D01*
X028421Y018883D02*
X028461Y018883D01*
X028461Y019042D02*
X028421Y019042D01*
X028421Y019200D02*
X028461Y019200D01*
X028688Y019200D02*
X031957Y019200D01*
X032037Y019042D02*
X030530Y019042D01*
X030617Y018883D02*
X032037Y018883D01*
X032037Y018725D02*
X030626Y018725D01*
X030571Y018566D02*
X032037Y018566D01*
X032037Y018408D02*
X030624Y018408D01*
X030727Y018249D02*
X032037Y018249D01*
X032037Y018091D02*
X030748Y018091D01*
X030703Y017932D02*
X032037Y017932D01*
X032037Y017774D02*
X030556Y017774D01*
X030658Y017457D02*
X031169Y017457D01*
X031032Y017298D02*
X030789Y017298D01*
X030839Y017140D02*
X030966Y017140D01*
X030960Y016981D02*
X030834Y016981D01*
X030771Y016823D02*
X030991Y016823D01*
X031070Y016664D02*
X030609Y016664D01*
X030671Y016506D02*
X031203Y016506D01*
X031045Y016347D02*
X030814Y016347D01*
X030880Y016189D02*
X030980Y016189D01*
X030960Y016030D02*
X030883Y016030D01*
X030841Y015872D02*
X030977Y015872D01*
X031042Y015713D02*
X030734Y015713D01*
X030571Y015555D02*
X031195Y015555D01*
X031077Y015396D02*
X030780Y015396D01*
X030860Y015238D02*
X030994Y015238D01*
X030960Y015079D02*
X030883Y015079D01*
X030861Y014921D02*
X030963Y014921D01*
X031029Y014762D02*
X030783Y014762D01*
X030577Y014604D02*
X031162Y014604D01*
X031111Y014445D02*
X030731Y014445D01*
X030839Y014287D02*
X031007Y014287D01*
X030960Y014128D02*
X030883Y014128D01*
X030881Y013970D02*
X030960Y013970D01*
X031015Y013811D02*
X030815Y013811D01*
X030884Y013653D02*
X031129Y013653D01*
X031043Y013494D02*
X031402Y013494D01*
X031180Y013336D02*
X031807Y013336D01*
X031965Y013177D02*
X031208Y013177D01*
X031208Y013019D02*
X032124Y013019D01*
X032282Y012860D02*
X031208Y012860D01*
X031208Y012702D02*
X032441Y012702D01*
X032598Y012543D02*
X031805Y012543D01*
X031991Y012385D02*
X032598Y012385D01*
X032598Y012226D02*
X032070Y012226D01*
X032100Y012068D02*
X032598Y012068D01*
X032598Y011909D02*
X032092Y011909D01*
X032215Y011751D02*
X032598Y011751D01*
X031254Y012543D02*
X031208Y012543D01*
X027755Y011088D02*
X027755Y010040D01*
X027575Y009860D01*
X027089Y009860D01*
X027031Y009917D01*
X026884Y009978D01*
X026726Y009978D01*
X026613Y009931D01*
X026613Y010003D01*
X026552Y010150D01*
X026440Y010262D01*
X026294Y010323D01*
X026139Y010323D01*
X026139Y010763D01*
X026064Y010838D01*
X026087Y010878D01*
X026099Y010924D01*
X026099Y011105D01*
X025526Y011105D01*
X025526Y011105D01*
X026099Y011105D01*
X026099Y011286D01*
X026087Y011332D01*
X026064Y011372D01*
X026139Y011447D01*
X026139Y011944D01*
X026010Y012073D01*
X025756Y012073D01*
X025824Y012142D01*
X025885Y012288D01*
X025885Y012446D01*
X025824Y012593D01*
X025712Y012705D01*
X025566Y012766D01*
X025407Y012766D01*
X025261Y012705D01*
X025166Y012610D01*
X025163Y012609D01*
X025054Y012718D01*
X024907Y012778D01*
X024749Y012778D01*
X024685Y012752D01*
X024682Y012758D01*
X024570Y012870D01*
X024424Y012931D01*
X024265Y012931D01*
X024132Y012876D01*
X024132Y014582D01*
X024245Y014694D01*
X024245Y014671D01*
X024305Y014524D01*
X024417Y014412D01*
X024564Y014352D01*
X024587Y014352D01*
X024587Y014323D01*
X024648Y014177D01*
X024760Y014065D01*
X024907Y014004D01*
X025065Y014004D01*
X025212Y014065D01*
X025269Y014122D01*
X026906Y014122D01*
X027009Y014165D01*
X027028Y014184D01*
X027040Y014154D01*
X027098Y014097D01*
X027098Y011805D01*
X027141Y011702D01*
X027158Y011685D01*
X027755Y011088D01*
X027727Y011117D02*
X026099Y011117D01*
X026099Y011275D02*
X027568Y011275D01*
X027410Y011434D02*
X026126Y011434D01*
X026139Y011592D02*
X027251Y011592D01*
X027158Y011685D02*
X027158Y011685D01*
X027121Y011751D02*
X026139Y011751D01*
X026139Y011909D02*
X027098Y011909D01*
X027098Y012068D02*
X026016Y012068D01*
X025859Y012226D02*
X027098Y012226D01*
X027098Y012385D02*
X025885Y012385D01*
X025845Y012543D02*
X027098Y012543D01*
X027098Y012702D02*
X025716Y012702D01*
X025257Y012702D02*
X025070Y012702D01*
X024580Y012860D02*
X027098Y012860D01*
X027098Y013019D02*
X024132Y013019D01*
X024132Y013177D02*
X027098Y013177D01*
X027098Y013336D02*
X024132Y013336D01*
X024132Y013494D02*
X027098Y013494D01*
X027098Y013653D02*
X024132Y013653D01*
X024132Y013811D02*
X027098Y013811D01*
X027098Y013970D02*
X024132Y013970D01*
X024132Y014128D02*
X024697Y014128D01*
X024603Y014287D02*
X024132Y014287D01*
X024132Y014445D02*
X024385Y014445D01*
X024272Y014604D02*
X024154Y014604D01*
X026920Y014128D02*
X027067Y014128D01*
X028982Y015555D02*
X029556Y015555D01*
X029392Y015713D02*
X028824Y015713D01*
X028665Y015872D02*
X029286Y015872D01*
X029243Y016030D02*
X028507Y016030D01*
X028348Y016189D02*
X029246Y016189D01*
X029312Y016347D02*
X028219Y016347D01*
X028237Y016506D02*
X029456Y016506D01*
X029518Y016664D02*
X028189Y016664D01*
X029164Y016823D02*
X029355Y016823D01*
X030043Y016823D02*
X030083Y016823D01*
X030083Y016981D02*
X030043Y016981D01*
X030043Y017140D02*
X030083Y017140D01*
X030083Y017298D02*
X030043Y017298D01*
X030043Y017457D02*
X030083Y017457D01*
X029957Y017615D02*
X032037Y017615D01*
X032037Y017457D02*
X031890Y017457D01*
X032028Y017298D02*
X032037Y017298D01*
X030142Y017774D02*
X030115Y017774D01*
X030083Y016664D02*
X030043Y016664D01*
X029346Y015396D02*
X029141Y015396D01*
X028955Y018883D02*
X028912Y018883D01*
X028849Y019042D02*
X029560Y019042D01*
X029819Y019042D02*
X029926Y019042D01*
X030314Y019517D02*
X030481Y019517D01*
X031299Y019517D02*
X031465Y019517D01*
X029497Y019517D02*
X028297Y019517D01*
X028406Y019676D02*
X029387Y019676D01*
X029336Y019834D02*
X028458Y019834D01*
X028458Y019993D02*
X029336Y019993D01*
X019491Y019151D02*
X019421Y019082D01*
X019342Y018891D01*
X019342Y018084D01*
X019377Y018000D01*
X018835Y017458D01*
X018753Y017458D01*
X018607Y017398D01*
X018495Y017286D01*
X018434Y017139D01*
X018434Y016981D01*
X017201Y016981D01*
X017201Y016946D02*
X017201Y017740D01*
X017216Y017746D01*
X017362Y017893D01*
X017441Y018084D01*
X017441Y018891D01*
X017362Y019082D01*
X017292Y019151D01*
X017607Y019151D01*
X017555Y019100D01*
X017511Y019039D01*
X017476Y018971D01*
X017453Y018899D01*
X017441Y018825D01*
X017441Y018507D01*
X017901Y018507D01*
X017901Y018467D01*
X017441Y018467D01*
X017441Y018149D01*
X017453Y018075D01*
X017476Y018003D01*
X017511Y017936D01*
X017555Y017874D01*
X017609Y017821D01*
X017670Y017777D01*
X017737Y017742D01*
X017809Y017719D01*
X017884Y017707D01*
X017901Y017707D01*
X017901Y018467D01*
X017941Y018467D01*
X017941Y017707D01*
X017959Y017707D01*
X018034Y017719D01*
X018106Y017742D01*
X018173Y017777D01*
X018234Y017821D01*
X018287Y017874D01*
X018332Y017936D01*
X018366Y018003D01*
X018389Y018075D01*
X018401Y018149D01*
X018401Y018467D01*
X017941Y018467D01*
X017941Y018507D01*
X018401Y018507D01*
X018401Y018825D01*
X018389Y018899D01*
X018366Y018971D01*
X018332Y019039D01*
X018287Y019100D01*
X018236Y019151D01*
X019491Y019151D01*
X019405Y019042D02*
X018330Y019042D01*
X018392Y018883D02*
X019342Y018883D01*
X019342Y018725D02*
X018401Y018725D01*
X018401Y018566D02*
X019342Y018566D01*
X019342Y018408D02*
X018401Y018408D01*
X018401Y018249D02*
X019342Y018249D01*
X019342Y018091D02*
X018392Y018091D01*
X018329Y017932D02*
X019309Y017932D01*
X019150Y017774D02*
X018167Y017774D01*
X017941Y017774D02*
X017901Y017774D01*
X017901Y017932D02*
X017941Y017932D01*
X017941Y018091D02*
X017901Y018091D01*
X017901Y018249D02*
X017941Y018249D01*
X017941Y018408D02*
X017901Y018408D01*
X017441Y018408D02*
X017441Y018408D01*
X017441Y018566D02*
X017441Y018566D01*
X017441Y018725D02*
X017441Y018725D01*
X017441Y018883D02*
X017451Y018883D01*
X017513Y019042D02*
X017379Y019042D01*
X017441Y018249D02*
X017441Y018249D01*
X017441Y018091D02*
X017451Y018091D01*
X017513Y017932D02*
X017379Y017932D01*
X017243Y017774D02*
X017676Y017774D01*
X017201Y017615D02*
X018992Y017615D01*
X018749Y017457D02*
X017201Y017457D01*
X017201Y017298D02*
X018507Y017298D01*
X018434Y017140D02*
X017201Y017140D01*
X017201Y016946D02*
X018449Y016946D01*
X018434Y016981D01*
X015420Y019359D02*
X015142Y019359D01*
X015244Y019200D02*
X015262Y019200D01*
X015403Y019517D02*
X015570Y019517D01*
X013632Y019834D02*
X011685Y019834D01*
X011807Y019676D02*
X013474Y019676D01*
X013315Y019517D02*
X011889Y019517D01*
X011922Y019359D02*
X013157Y019359D01*
X012998Y019200D02*
X011918Y019200D01*
X011853Y019042D02*
X012840Y019042D01*
X012681Y018883D02*
X011718Y018883D01*
X012450Y018566D02*
X009523Y018566D01*
X009523Y018408D02*
X012450Y018408D01*
X012450Y018249D02*
X009523Y018249D01*
X009523Y018091D02*
X012450Y018091D01*
X012523Y018725D02*
X009523Y018725D01*
X009523Y018883D02*
X010987Y018883D01*
X010852Y019042D02*
X009523Y019042D01*
X009523Y019200D02*
X010787Y019200D01*
X010782Y019359D02*
X009523Y019359D01*
X009523Y019517D02*
X010816Y019517D01*
X010898Y019676D02*
X009523Y019676D01*
X009523Y019834D02*
X011020Y019834D01*
X010866Y019993D02*
X009523Y019993D01*
X009523Y020151D02*
X010800Y020151D01*
X010782Y020310D02*
X009523Y020310D01*
X009523Y020468D02*
X010802Y020468D01*
X010867Y020627D02*
X009523Y020627D01*
X009523Y020785D02*
X011023Y020785D01*
X010895Y020944D02*
X009523Y020944D01*
X009523Y021102D02*
X010814Y021102D01*
X010782Y021261D02*
X009523Y021261D01*
X009523Y021419D02*
X010788Y021419D01*
X010854Y021578D02*
X009523Y021578D01*
X009523Y021736D02*
X010990Y021736D01*
X010790Y015238D02*
X010581Y015238D01*
X010723Y015079D02*
X010841Y015079D01*
X010767Y014921D02*
X010949Y014921D01*
X010745Y014762D02*
X011208Y014762D01*
X011673Y012351D02*
X011782Y012351D01*
X011782Y012343D01*
X011911Y012214D01*
X012155Y012214D01*
X012155Y012181D01*
X012198Y012078D01*
X012296Y011980D01*
X012375Y011901D01*
X012478Y011859D01*
X012595Y011859D01*
X012652Y011801D01*
X012711Y011777D01*
X012418Y011484D01*
X012209Y011484D01*
X012061Y011631D01*
X012061Y011866D01*
X012019Y011969D01*
X011886Y012102D01*
X011807Y012181D01*
X011704Y012223D01*
X011673Y012223D01*
X011673Y012351D01*
X011673Y012226D02*
X011899Y012226D01*
X011886Y012102D02*
X011886Y012102D01*
X011920Y012068D02*
X012209Y012068D01*
X012296Y011980D02*
X012296Y011980D01*
X012367Y011909D02*
X012044Y011909D01*
X012061Y011751D02*
X012684Y011751D01*
X012526Y011592D02*
X012101Y011592D01*
X012842Y011117D02*
X012964Y011117D01*
X012996Y011148D02*
X012888Y011041D01*
X012767Y011041D01*
X012771Y011045D01*
X013388Y011662D01*
X014479Y011662D01*
X014479Y011434D01*
X014102Y011434D01*
X013999Y011392D01*
X013920Y011313D01*
X013584Y010977D01*
X013559Y011036D01*
X013447Y011148D01*
X013301Y011209D01*
X013142Y011209D01*
X012996Y011148D01*
X013001Y011275D02*
X013882Y011275D01*
X013724Y011117D02*
X013479Y011117D01*
X013159Y011434D02*
X014100Y011434D01*
X014479Y011592D02*
X013318Y011592D01*
X012771Y011045D02*
X012771Y011045D01*
X010936Y011751D02*
X010857Y011751D01*
X010808Y011909D02*
X010699Y011909D01*
X010777Y012068D02*
X010613Y012068D01*
X010647Y011117D02*
X010699Y011117D01*
X010073Y011154D02*
X010073Y011154D01*
X009459Y010800D02*
X005583Y010800D01*
X005583Y010958D02*
X007052Y010958D01*
X006916Y011117D02*
X005583Y011117D01*
X005583Y011275D02*
X006850Y011275D01*
X006845Y011434D02*
X005583Y011434D01*
X005583Y011592D02*
X006878Y011592D01*
X006959Y011751D02*
X005583Y011751D01*
X005583Y011909D02*
X007085Y011909D01*
X006930Y012068D02*
X005583Y012068D01*
X005583Y012226D02*
X006864Y012226D01*
X006845Y012385D02*
X005583Y012385D01*
X005583Y012543D02*
X006864Y012543D01*
X006930Y012702D02*
X005583Y012702D01*
X005583Y012860D02*
X007085Y012860D01*
X006960Y013019D02*
X005583Y013019D01*
X005583Y013177D02*
X006878Y013177D01*
X006845Y013336D02*
X005583Y013336D01*
X005583Y013494D02*
X006850Y013494D01*
X006916Y013653D02*
X005583Y013653D01*
X005583Y013811D02*
X007051Y013811D01*
X005583Y010641D02*
X009459Y010641D01*
X009459Y010483D02*
X005583Y010483D01*
X005583Y010324D02*
X006585Y010324D01*
X006427Y010166D02*
X005583Y010166D01*
X005583Y010007D02*
X006268Y010007D01*
X006110Y009849D02*
X005583Y009849D01*
X005583Y009690D02*
X006006Y009690D01*
X006002Y009532D02*
X005583Y009532D01*
X005583Y009373D02*
X006002Y009373D01*
X006002Y009215D02*
X005583Y009215D01*
X005583Y009056D02*
X006002Y009056D01*
X006002Y008898D02*
X005583Y008898D01*
X005583Y008739D02*
X006002Y008739D01*
X006002Y008581D02*
X005583Y008581D01*
X005583Y008422D02*
X006002Y008422D01*
X006002Y008264D02*
X005583Y008264D01*
X005583Y008105D02*
X006002Y008105D01*
X006002Y007947D02*
X005583Y007947D01*
X005583Y007788D02*
X006002Y007788D01*
X006002Y007630D02*
X005583Y007630D01*
X005583Y007471D02*
X006002Y007471D01*
X006002Y007313D02*
X005583Y007313D01*
X005583Y007154D02*
X005883Y007154D01*
X005724Y006996D02*
X005583Y006996D01*
X008053Y005252D02*
X008621Y005252D01*
X008621Y005094D02*
X008048Y005094D01*
X009612Y005886D02*
X009636Y005886D01*
X010298Y008610D02*
X010427Y008739D01*
X010482Y008739D01*
X013896Y008671D02*
X013896Y008193D01*
X014323Y008193D01*
X014440Y008077D01*
X014462Y008131D01*
X014622Y008291D01*
X014832Y008378D01*
X015058Y008378D01*
X015268Y008291D01*
X015428Y008131D01*
X015460Y008054D01*
X015476Y008086D01*
X015525Y008153D01*
X015584Y008212D01*
X015651Y008261D01*
X015726Y008299D01*
X015805Y008325D01*
X015887Y008338D01*
X015921Y008338D01*
X015921Y007817D01*
X015938Y007817D01*
X015938Y008338D01*
X015971Y008338D01*
X016053Y008325D01*
X016133Y008299D01*
X016207Y008261D01*
X016274Y008212D01*
X016333Y008153D01*
X016382Y008086D01*
X016399Y008054D01*
X016430Y008131D01*
X016535Y008236D01*
X016535Y008558D01*
X016477Y008616D01*
X016423Y008747D01*
X016402Y008738D01*
X016244Y008738D01*
X016097Y008799D01*
X015985Y008911D01*
X015924Y009057D01*
X015924Y009130D01*
X015887Y009114D01*
X015887Y009055D01*
X015499Y009055D01*
X015499Y008959D01*
X015499Y008532D01*
X015731Y008532D01*
X015776Y008544D01*
X015817Y008568D01*
X015851Y008601D01*
X015875Y008642D01*
X015887Y008688D01*
X015887Y008959D01*
X015499Y008959D01*
X015403Y008959D01*
X015403Y008532D01*
X015171Y008532D01*
X015126Y008544D01*
X015111Y008553D01*
X015050Y008492D01*
X014356Y008492D01*
X014227Y008621D01*
X014227Y008671D01*
X014076Y008671D01*
X014036Y008711D01*
X014010Y008711D01*
X014010Y008737D01*
X014010Y008737D01*
X014010Y008737D01*
X014010Y008711D01*
X013984Y008711D01*
X013944Y008671D01*
X013896Y008671D01*
X013896Y008581D02*
X014267Y008581D01*
X013896Y008422D02*
X016535Y008422D01*
X016535Y008264D02*
X016203Y008264D01*
X016368Y008105D02*
X016420Y008105D01*
X015938Y008105D02*
X015921Y008105D01*
X015921Y007947D02*
X015938Y007947D01*
X015921Y008264D02*
X015938Y008264D01*
X015656Y008264D02*
X015295Y008264D01*
X015439Y008105D02*
X015490Y008105D01*
X015499Y008581D02*
X015403Y008581D01*
X015403Y008739D02*
X015499Y008739D01*
X015499Y008898D02*
X015403Y008898D01*
X015403Y009055D02*
X015403Y009247D01*
X015499Y009151D01*
X015499Y009055D01*
X015403Y009055D01*
X015403Y009056D02*
X015499Y009056D01*
X015436Y009215D02*
X015403Y009215D01*
X015887Y009056D02*
X015925Y009056D01*
X015887Y008898D02*
X015999Y008898D01*
X015887Y008739D02*
X016242Y008739D01*
X016404Y008739D02*
X016426Y008739D01*
X016512Y008581D02*
X015830Y008581D01*
X014594Y008264D02*
X013896Y008264D01*
X014412Y008105D02*
X014451Y008105D01*
X015368Y011723D02*
X015428Y011783D01*
X015464Y011819D01*
X015732Y011819D01*
X015732Y011723D01*
X015368Y011723D01*
X015396Y011751D02*
X015732Y011751D01*
X017110Y013273D02*
X017430Y012953D01*
X017934Y013457D01*
X017829Y013413D01*
X017671Y013413D01*
X017634Y013429D01*
X017634Y013357D01*
X017621Y013311D01*
X017598Y013270D01*
X017564Y013237D01*
X017523Y013213D01*
X017477Y013201D01*
X017206Y013201D01*
X017206Y013589D01*
X017110Y013589D01*
X017110Y013273D01*
X017110Y013336D02*
X017206Y013336D01*
X017206Y013494D02*
X017110Y013494D01*
X017206Y013177D02*
X017654Y013177D01*
X017628Y013336D02*
X017813Y013336D01*
X017496Y013019D02*
X017365Y013019D01*
X020409Y012849D02*
X020409Y012647D01*
X020415Y012644D01*
X020505Y012644D01*
X020505Y012849D01*
X020409Y012849D01*
X020409Y012702D02*
X020505Y012702D01*
X021487Y011592D02*
X021630Y011592D01*
X021528Y011490D02*
X021899Y011861D01*
X021806Y011899D01*
X021800Y011905D01*
X021475Y011580D01*
X021475Y011437D01*
X021528Y011490D01*
X021646Y011751D02*
X021789Y011751D01*
X021902Y010531D02*
X021952Y010510D01*
X022023Y010510D01*
X021952Y010481D01*
X021840Y010368D01*
X021779Y010222D01*
X021779Y010064D01*
X021827Y009947D01*
X021655Y009947D01*
X021440Y009947D01*
X021519Y009980D01*
X021631Y010092D01*
X021692Y010239D01*
X021692Y010320D01*
X021902Y010531D01*
X021854Y010483D02*
X021957Y010483D01*
X021821Y010324D02*
X021696Y010324D01*
X021662Y010166D02*
X021779Y010166D01*
X021803Y010007D02*
X021546Y010007D01*
X019764Y009824D02*
X019540Y009824D01*
X019540Y009729D01*
X019764Y009729D01*
X019764Y009824D01*
X021629Y008191D02*
X021907Y008468D01*
X021950Y008425D01*
X022644Y008425D01*
X022705Y008485D01*
X022720Y008477D01*
X022766Y008465D01*
X022997Y008465D01*
X022997Y008892D01*
X023093Y008892D01*
X023093Y008465D01*
X023180Y008465D01*
X023180Y008286D01*
X023193Y008240D01*
X023216Y008199D01*
X023250Y008166D01*
X023291Y008142D01*
X023337Y008130D01*
X023608Y008130D01*
X023608Y008518D01*
X023704Y008518D01*
X024006Y008518D01*
X023910Y008614D01*
X023704Y008614D01*
X023704Y008518D01*
X023704Y008130D01*
X023975Y008130D01*
X024020Y008142D01*
X024061Y008166D01*
X024095Y008199D01*
X024119Y008240D01*
X024131Y008286D01*
X024131Y008458D01*
X024167Y008443D01*
X024325Y008443D01*
X024352Y008454D01*
X024352Y008299D01*
X024481Y008170D01*
X024518Y008170D01*
X024471Y008123D01*
X024471Y007383D01*
X023865Y007989D01*
X023787Y008067D01*
X023684Y008110D01*
X022711Y008110D01*
X022654Y008168D01*
X022507Y008228D01*
X022349Y008228D01*
X022202Y008168D01*
X022145Y008110D01*
X021546Y008110D01*
X021550Y008112D01*
X021629Y008191D01*
X021702Y008264D02*
X023186Y008264D01*
X023180Y008422D02*
X021860Y008422D01*
X022997Y008581D02*
X023093Y008581D01*
X023093Y008739D02*
X022997Y008739D01*
X023608Y008422D02*
X023704Y008422D01*
X023704Y008264D02*
X023608Y008264D01*
X023696Y008105D02*
X024471Y008105D01*
X024471Y007947D02*
X023907Y007947D01*
X024066Y007788D02*
X024471Y007788D01*
X024471Y007630D02*
X024224Y007630D01*
X024383Y007471D02*
X024471Y007471D01*
X024751Y007103D02*
X025254Y007103D01*
X025383Y007232D01*
X025383Y007838D01*
X025399Y007832D01*
X025557Y007832D01*
X025704Y007892D01*
X025770Y007958D01*
X025770Y007232D01*
X025899Y007103D01*
X026553Y007103D01*
X026682Y007232D01*
X026682Y007329D01*
X026785Y007372D01*
X026897Y007484D01*
X026958Y007630D01*
X026958Y007789D01*
X026897Y007935D01*
X026785Y008047D01*
X026682Y008090D01*
X026682Y008123D01*
X026555Y008250D01*
X026604Y008299D01*
X026604Y008746D01*
X027483Y007866D01*
X027586Y007823D01*
X029308Y007823D01*
X029233Y007642D01*
X029233Y007435D01*
X029312Y007244D01*
X029459Y007097D01*
X029601Y007038D01*
X029459Y006979D01*
X029312Y006833D01*
X029233Y006642D01*
X029233Y006498D01*
X029028Y006293D01*
X028986Y006190D01*
X028986Y005292D01*
X029028Y005189D01*
X029107Y005110D01*
X029107Y005110D01*
X029237Y004980D01*
X029203Y004946D01*
X029203Y004918D01*
X028811Y004918D01*
X028695Y004802D01*
X028691Y004808D01*
X028658Y004842D01*
X028617Y004865D01*
X028571Y004878D01*
X028349Y004878D01*
X028349Y004500D01*
X028273Y004500D01*
X028273Y004878D01*
X028237Y004878D01*
X028237Y004935D01*
X029203Y004935D01*
X029124Y005094D02*
X028165Y005094D01*
X028176Y005082D02*
X028064Y005194D01*
X027918Y005254D01*
X027759Y005254D01*
X027613Y005194D01*
X027501Y005082D01*
X027493Y005061D01*
X026226Y006328D01*
X026226Y006409D01*
X026166Y006556D01*
X026054Y006668D01*
X025907Y006728D01*
X025749Y006728D01*
X025602Y006668D01*
X025490Y006556D01*
X025434Y006420D01*
X024751Y007103D01*
X024858Y006996D02*
X029498Y006996D01*
X029402Y007154D02*
X026604Y007154D01*
X026682Y007313D02*
X029284Y007313D01*
X029233Y007471D02*
X026884Y007471D01*
X026957Y007630D02*
X029233Y007630D01*
X029294Y007788D02*
X026958Y007788D01*
X026886Y007947D02*
X027403Y007947D01*
X027244Y008105D02*
X026682Y008105D01*
X026568Y008264D02*
X027086Y008264D01*
X026927Y008422D02*
X026604Y008422D01*
X026604Y008581D02*
X026769Y008581D01*
X026610Y008739D02*
X026604Y008739D01*
X025770Y007947D02*
X025758Y007947D01*
X025770Y007788D02*
X025383Y007788D01*
X025383Y007630D02*
X025770Y007630D01*
X025770Y007471D02*
X025383Y007471D01*
X025383Y007313D02*
X025770Y007313D01*
X025848Y007154D02*
X025305Y007154D01*
X025017Y006837D02*
X029317Y006837D01*
X029248Y006679D02*
X026028Y006679D01*
X026181Y006520D02*
X029233Y006520D01*
X029097Y006362D02*
X026226Y006362D01*
X026351Y006203D02*
X028991Y006203D01*
X028986Y006045D02*
X026509Y006045D01*
X026668Y005886D02*
X028986Y005886D01*
X028986Y005728D02*
X026826Y005728D01*
X026985Y005569D02*
X028986Y005569D01*
X028986Y005411D02*
X027143Y005411D01*
X027302Y005252D02*
X027754Y005252D01*
X027924Y005252D02*
X029002Y005252D01*
X028349Y004777D02*
X028273Y004777D01*
X028273Y004618D02*
X028349Y004618D01*
X028349Y004423D02*
X028349Y004238D01*
X028349Y003860D01*
X028273Y003860D01*
X028273Y004423D01*
X028349Y004423D01*
X028349Y004301D02*
X028273Y004301D01*
X028273Y004143D02*
X028349Y004143D01*
X028349Y003984D02*
X028273Y003984D01*
X028273Y003860D02*
X027895Y003860D01*
X027895Y003925D01*
X027846Y003876D01*
X027846Y003876D01*
X027768Y003798D01*
X027665Y003755D01*
X026489Y003755D01*
X026510Y003693D01*
X026521Y003618D01*
X026521Y003300D01*
X026061Y003300D01*
X026061Y003260D01*
X026521Y003260D01*
X026521Y003081D01*
X026542Y003070D01*
X026569Y003085D01*
X026591Y003087D01*
X026612Y003095D01*
X026686Y003095D01*
X026761Y003102D01*
X026782Y003095D01*
X027299Y003095D01*
X027316Y003101D01*
X027395Y003095D01*
X027474Y003095D01*
X027491Y003088D01*
X027509Y003087D01*
X027542Y003070D01*
X027569Y003085D01*
X027591Y003087D01*
X027612Y003095D01*
X027686Y003095D01*
X027761Y003102D01*
X027782Y003095D01*
X027895Y003095D01*
X027895Y003144D01*
X028273Y003144D01*
X028273Y003220D01*
X027895Y003220D01*
X027895Y003442D01*
X027907Y003488D01*
X027915Y003502D01*
X027907Y003516D01*
X027895Y003562D01*
X027895Y003784D01*
X028273Y003784D01*
X028273Y003860D01*
X028273Y003826D02*
X027795Y003826D01*
X027895Y003667D02*
X026514Y003667D01*
X026521Y003509D02*
X027911Y003509D01*
X027895Y003350D02*
X026521Y003350D01*
X026521Y003192D02*
X028273Y003192D01*
X028273Y003220D02*
X028273Y003784D01*
X028349Y003784D01*
X028349Y003406D01*
X028349Y003220D01*
X028273Y003220D01*
X028273Y003350D02*
X028349Y003350D01*
X028349Y003509D02*
X028273Y003509D01*
X028273Y003667D02*
X028349Y003667D01*
X028237Y004935D02*
X028176Y005082D01*
X027513Y005094D02*
X027460Y005094D01*
X025592Y003750D02*
X025573Y003693D01*
X025561Y003618D01*
X025561Y003300D01*
X026021Y003300D01*
X026021Y003260D01*
X025561Y003260D01*
X025561Y003081D01*
X025561Y003684D01*
X025527Y003768D01*
X025570Y003750D01*
X025592Y003750D01*
X025569Y003667D02*
X025561Y003667D01*
X025561Y003509D02*
X025561Y003509D01*
X025561Y003350D02*
X025561Y003350D01*
X025561Y003192D02*
X025561Y003192D01*
X025561Y003081D02*
X025561Y003081D01*
X022815Y004050D02*
X022747Y004021D01*
X022601Y003875D01*
X022521Y003684D01*
X022521Y003081D01*
X022509Y003087D01*
X022491Y003088D01*
X022486Y003090D01*
X022486Y003260D01*
X022026Y003260D01*
X022026Y003300D01*
X022486Y003300D01*
X022486Y003618D01*
X022474Y003693D01*
X022451Y003765D01*
X022442Y003783D01*
X022553Y003828D01*
X022665Y003941D01*
X022725Y004087D01*
X022725Y004142D01*
X022727Y004137D01*
X022815Y004050D01*
X022710Y003984D02*
X022683Y003984D01*
X022580Y003826D02*
X022545Y003826D01*
X022521Y003667D02*
X022478Y003667D01*
X022486Y003509D02*
X022521Y003509D01*
X022521Y003350D02*
X022486Y003350D01*
X022486Y003192D02*
X022521Y003192D01*
X021986Y003260D02*
X021526Y003260D01*
X021526Y003078D01*
X021526Y003078D01*
X021526Y003684D01*
X021447Y003875D01*
X021430Y003892D01*
X021455Y003916D01*
X021534Y004107D01*
X021534Y004231D01*
X021928Y004231D01*
X021928Y004087D01*
X021941Y004056D01*
X021894Y004049D01*
X021822Y004025D01*
X021754Y003991D01*
X021693Y003947D01*
X021640Y003893D01*
X021595Y003832D01*
X021561Y003765D01*
X021538Y003693D01*
X021526Y003618D01*
X021526Y003300D01*
X021986Y003300D01*
X021986Y003260D01*
X021526Y003192D02*
X021526Y003192D01*
X021526Y003350D02*
X021526Y003350D01*
X021526Y003509D02*
X021526Y003509D01*
X021526Y003667D02*
X021534Y003667D01*
X021592Y003826D02*
X021467Y003826D01*
X021483Y003984D02*
X021745Y003984D01*
X021928Y004143D02*
X021534Y004143D01*
X025175Y006679D02*
X025628Y006679D01*
X025475Y006520D02*
X025334Y006520D01*
X024388Y008264D02*
X024125Y008264D01*
X024131Y008422D02*
X024352Y008422D01*
X023944Y008581D02*
X023704Y008581D01*
X026139Y010324D02*
X027755Y010324D01*
X027755Y010166D02*
X026537Y010166D01*
X026612Y010007D02*
X027722Y010007D01*
X027755Y010483D02*
X026139Y010483D01*
X026139Y010641D02*
X027755Y010641D01*
X027755Y010800D02*
X026103Y010800D01*
X026099Y010958D02*
X027755Y010958D01*
X030798Y007823D02*
X031857Y007823D01*
X032775Y006905D01*
X032775Y005828D01*
X032725Y005778D01*
X032675Y005828D01*
X032572Y005871D01*
X032058Y005871D01*
X032100Y005972D01*
X032100Y006199D01*
X032013Y006408D01*
X031852Y006569D01*
X031776Y006600D01*
X031807Y006616D01*
X031875Y006666D01*
X031934Y006724D01*
X031983Y006792D01*
X032021Y006866D01*
X032047Y006946D01*
X032060Y007028D01*
X032060Y007061D01*
X031538Y007061D01*
X031538Y007078D01*
X032060Y007078D01*
X032060Y007111D01*
X032047Y007194D01*
X032021Y007273D01*
X031983Y007348D01*
X031934Y007415D01*
X031875Y007474D01*
X031807Y007523D01*
X031733Y007561D01*
X031654Y007587D01*
X031571Y007600D01*
X031538Y007600D01*
X031538Y007078D01*
X031521Y007078D01*
X031521Y007061D01*
X031000Y007061D01*
X031000Y007028D01*
X031007Y006980D01*
X030769Y007219D01*
X030794Y007244D01*
X030873Y007435D01*
X030873Y007642D01*
X030798Y007823D01*
X030813Y007788D02*
X031892Y007788D01*
X032050Y007630D02*
X030873Y007630D01*
X030873Y007471D02*
X031181Y007471D01*
X031184Y007474D02*
X031125Y007415D01*
X031076Y007348D01*
X031038Y007273D01*
X031013Y007194D01*
X031000Y007111D01*
X031000Y007078D01*
X031521Y007078D01*
X031521Y007600D01*
X031488Y007600D01*
X031405Y007587D01*
X031326Y007561D01*
X031252Y007523D01*
X031184Y007474D01*
X031058Y007313D02*
X030823Y007313D01*
X030833Y007154D02*
X031006Y007154D01*
X030992Y006996D02*
X031005Y006996D01*
X031521Y007154D02*
X031538Y007154D01*
X031521Y007313D02*
X031538Y007313D01*
X031521Y007471D02*
X031538Y007471D01*
X031878Y007471D02*
X032209Y007471D01*
X032367Y007313D02*
X032001Y007313D01*
X032053Y007154D02*
X032526Y007154D01*
X032684Y006996D02*
X032054Y006996D01*
X032006Y006837D02*
X032775Y006837D01*
X032775Y006679D02*
X031888Y006679D01*
X031901Y006520D02*
X032775Y006520D01*
X032775Y006362D02*
X032032Y006362D01*
X032098Y006203D02*
X032775Y006203D01*
X032775Y006045D02*
X032100Y006045D01*
X032064Y005886D02*
X032775Y005886D01*
X005507Y003033D02*
X004894Y003033D01*
X005133Y002875D02*
X005268Y002875D01*
X004523Y003033D02*
X003910Y003033D01*
X004149Y002875D02*
X004284Y002875D01*
M02*
