%
M48
M72
T01C0.0118
T02C0.0350
T03C0.0354
T04C0.0630
T05C0.1181
%
T01
X1580Y8280
X1680Y9380
X2560Y9200
X2560Y8960
X2800Y8960
X2800Y9200
X2180Y16510
X2280Y17480
X3272Y17401
X3272Y17165
X3548Y17165
X3548Y17401
T02
X1480Y18080
T03
X5641Y12087
X6311Y10552
X7649Y10552
X6980Y12087
X8319Y12087
X9841Y12087
X11180Y12087
X10511Y10552
X11849Y10552
X12519Y12087
X14173Y12119
X14173Y10780
X14173Y9441
X15708Y10111
X15708Y11449
X14173Y13541
X14173Y14880
X14173Y16219
X14173Y17641
X14173Y18980
X14173Y20319
X14173Y21741
X14173Y23080
X14173Y24419
X15708Y23749
X15708Y22411
X15708Y19649
X15708Y18311
X15708Y15549
X15708Y14211
X15572Y2580
X14588Y2580
X12272Y2580
X11288Y2580
X8949Y2580
X7964Y2580
X6980Y2580
X5996Y2580
X5011Y2580
X980Y9780
X2280Y11880
X11368Y26620
X12352Y26620
X14678Y26640
X15662Y26640
X17998Y26640
X18982Y26640
X18882Y2580
X17898Y2580
T04
X4380Y23196
X4380Y25164
T05
X2180Y1780
X21880Y1780
X21880Y27380
X2180Y27380
M30
