G75*
G70*
%OFA0B0*%
%FSLAX24Y24*%
%IPPOS*%
%LPD*%
%AMOC8*
5,1,8,0,0,1.08239X$1,22.5*
%
%ADD10C,0.0030*%
%ADD11C,0.0040*%
%ADD12C,0.0080*%
%ADD13R,0.2441X0.0492*%
%ADD14R,0.0492X0.2441*%
D10*
X011531Y004507D02*
X011593Y004445D01*
X011717Y004445D01*
X011778Y004507D01*
X011900Y004445D02*
X012147Y004445D01*
X012023Y004445D02*
X012023Y004815D01*
X012147Y004692D01*
X012268Y004754D02*
X012330Y004815D01*
X012453Y004815D01*
X012515Y004754D01*
X012515Y004507D01*
X012453Y004445D01*
X012330Y004445D01*
X012268Y004507D01*
X011778Y004754D02*
X011717Y004815D01*
X011593Y004815D01*
X011531Y004754D01*
X011531Y004692D01*
X011593Y004630D01*
X011531Y004568D01*
X011531Y004507D01*
X011593Y004630D02*
X011655Y004630D01*
X014831Y004445D02*
X015078Y004445D01*
X015200Y004445D02*
X015447Y004445D01*
X015323Y004445D02*
X015323Y004815D01*
X015447Y004692D01*
X015568Y004754D02*
X015630Y004815D01*
X015753Y004815D01*
X015815Y004754D01*
X015815Y004507D01*
X015753Y004445D01*
X015630Y004445D01*
X015568Y004507D01*
X015078Y004692D02*
X014955Y004815D01*
X014955Y004445D01*
X018500Y004507D02*
X018500Y004754D01*
X018562Y004815D01*
X018685Y004815D01*
X018747Y004754D01*
X018747Y004692D01*
X018685Y004630D01*
X018500Y004630D01*
X018500Y004507D02*
X018562Y004445D01*
X018685Y004445D01*
X018747Y004507D01*
X018868Y004507D02*
X018930Y004445D01*
X019053Y004445D01*
X019115Y004507D01*
X019115Y004754D01*
X019053Y004815D01*
X018930Y004815D01*
X018868Y004754D01*
X018390Y024445D02*
X018266Y024445D01*
X018205Y024507D01*
X018083Y024507D02*
X018022Y024445D01*
X017898Y024445D01*
X017836Y024507D01*
X017836Y024568D01*
X017898Y024630D01*
X018083Y024630D01*
X018083Y024507D01*
X018083Y024630D02*
X017960Y024754D01*
X017836Y024815D01*
X018205Y024754D02*
X018266Y024815D01*
X018390Y024815D01*
X018452Y024754D01*
X018452Y024507D01*
X018390Y024445D01*
X015152Y024507D02*
X015090Y024445D01*
X014966Y024445D01*
X014905Y024507D01*
X014783Y024630D02*
X014536Y024630D01*
X014598Y024445D02*
X014598Y024815D01*
X014783Y024630D01*
X014905Y024754D02*
X014966Y024815D01*
X015090Y024815D01*
X015152Y024754D01*
X015152Y024507D01*
X011852Y024507D02*
X011790Y024445D01*
X011666Y024445D01*
X011605Y024507D01*
X011483Y024445D02*
X011236Y024692D01*
X011236Y024754D01*
X011298Y024815D01*
X011422Y024815D01*
X011483Y024754D01*
X011605Y024754D02*
X011666Y024815D01*
X011790Y024815D01*
X011852Y024754D01*
X011852Y024507D01*
X011483Y024445D02*
X011236Y024445D01*
D11*
X012482Y007458D02*
X009678Y007458D01*
X009678Y009902D02*
X012482Y009902D01*
X012422Y010022D02*
X012192Y010022D01*
X012115Y010099D01*
X012115Y010406D01*
X012192Y010483D01*
X012422Y010483D01*
X012422Y010022D01*
X011961Y010099D02*
X011885Y010022D01*
X011731Y010022D01*
X011654Y010099D01*
X011654Y010253D01*
X011731Y010329D01*
X011808Y010329D01*
X011961Y010253D01*
X011961Y010483D01*
X011654Y010483D01*
X012300Y010896D02*
X012300Y011049D01*
X012377Y011126D01*
X012300Y011279D02*
X012300Y011586D01*
X012300Y011433D02*
X012760Y011433D01*
X012607Y011279D01*
X012684Y011126D02*
X012760Y011049D01*
X012760Y010896D01*
X012684Y010819D01*
X012377Y010819D01*
X012300Y010896D01*
X012530Y011740D02*
X012530Y012047D01*
X012300Y011970D02*
X012760Y011970D01*
X012530Y011740D01*
X015778Y011532D02*
X016238Y011532D01*
X016008Y011301D01*
X016008Y011608D01*
X016161Y011148D02*
X015854Y011148D01*
X015778Y011071D01*
X015778Y010841D01*
X016238Y010841D01*
X016238Y011071D01*
X016161Y011148D01*
X016358Y011782D02*
X016358Y008978D01*
X018802Y008978D02*
X018802Y011782D01*
X018802Y013278D02*
X018802Y016082D01*
X016358Y016082D02*
X016358Y013278D01*
X016238Y015141D02*
X015778Y015141D01*
X015778Y015371D01*
X015854Y015448D01*
X016161Y015448D01*
X016238Y015371D01*
X016238Y015141D01*
X016161Y015601D02*
X016238Y015678D01*
X016238Y015832D01*
X016161Y015908D01*
X016084Y015908D01*
X016008Y015832D01*
X015931Y015908D01*
X015854Y015908D01*
X015778Y015832D01*
X015778Y015678D01*
X015854Y015601D01*
X016008Y015755D02*
X016008Y015832D01*
X013502Y016678D02*
X013502Y019482D01*
X013502Y020978D02*
X013502Y023782D01*
X011058Y023782D02*
X011058Y020978D01*
X011058Y019482D02*
X011058Y016678D01*
X010938Y018541D02*
X010478Y018541D01*
X010478Y018771D01*
X010554Y018848D01*
X010861Y018848D01*
X010938Y018771D01*
X010938Y018541D01*
X010861Y019001D02*
X010938Y019078D01*
X010938Y019232D01*
X010861Y019308D01*
X010784Y019308D01*
X010478Y019001D01*
X010478Y019308D01*
X010478Y022841D02*
X010478Y023071D01*
X010554Y023148D01*
X010861Y023148D01*
X010938Y023071D01*
X010938Y022841D01*
X010478Y022841D01*
X010478Y023301D02*
X010478Y023608D01*
X010478Y023455D02*
X010938Y023455D01*
X010784Y023301D01*
X007522Y015783D02*
X007292Y015783D01*
X007215Y015706D01*
X007215Y015399D01*
X007292Y015322D01*
X007522Y015322D01*
X007522Y015783D01*
X007061Y015553D02*
X007061Y015399D01*
X006985Y015322D01*
X006831Y015322D01*
X006754Y015399D01*
X006754Y015476D01*
X006831Y015553D01*
X007061Y015553D01*
X006908Y015706D01*
X006754Y015783D01*
X007582Y015202D02*
X004778Y015202D01*
X004778Y012758D02*
X007582Y012758D01*
D12*
X006507Y013980D02*
X005966Y013586D01*
X005966Y014374D01*
X006507Y013980D01*
X010866Y009074D02*
X010866Y008286D01*
X011407Y008680D01*
X010866Y009074D01*
X017186Y010166D02*
X017974Y010166D01*
X017580Y010707D01*
X017186Y010166D01*
X017186Y014466D02*
X017974Y014466D01*
X017580Y015007D01*
X017186Y014466D01*
X012674Y017866D02*
X011886Y017866D01*
X012280Y018407D01*
X012674Y017866D01*
X012674Y022166D02*
X011886Y022166D01*
X012280Y022707D01*
X012674Y022166D01*
D13*
X012280Y022961D03*
X012280Y018661D03*
X017580Y015261D03*
X017580Y010961D03*
D14*
X011661Y008680D03*
X006761Y013980D03*
M02*
